<svg xmlns="http://www.w3.org/2000/svg" viewBox="0 0 3000 3000" xmlns:xlink="http://www.w3.org/1999/xlink"><g id="tailFur"><clipPath id="tailFurClipPath"><path d="M2843.8 1635s-3.6 27-26.7 75.5c-31.4-98.7-91-197.3-168.6-256-1.8-1.3-4.6-3.2-8.3-5.6-161.3-100.9-374.7-31.8-447.1 144.2l-6.7 16c40.7-31.8 96.3-51.8 96.3-51.8s-19.9 27.2-35.1 47.6c-47.1 63-78 149.5-54.1 228.9 7.5 24.9 26.4 49 50.3 71-121.3 19.7-207.2 143.9-207.2 143.9l-116 136.8 169.4 35.3 96.5 3.5c51.6 15.5 117.1 26.6 199.1 26.6 242.5 0 413.1-159 449.1-329.9 2.8-13.4 5.7-26.8 8.8-40.1 11.3-49.6 34.4-173.2.3-245.9z" fill="none"/></clipPath><defs><clipPath id="tailClipPath2"><path d="M2282.7 1557.4s-19.9 27.2-35.1 47.6c-47.1 63-78 149.5-54.1 228.9 19.3 64.1 114.8 123.2 174.2 153q9.4 1.1 19.1 1.5a5 5 0 0 0-.4-1.4c-9.7-21.4 6.3-60.3 19-78 15.9-22.3 42.2-34.2 66.2-47.4s48.6-30.9 55.7-57.3l-5 57.7c37.9-18.6 69.3-49.7 89.3-86.9a198.4 198.4 0 0 0 18.5-49.1c-17.9-126-127-217.2-252.6-205.4-44.4 4.2-83.5 20.3-115.2 45.1 12.3-5.4 20.4-8.3 20.4-8.3z" fill="#b1b1be"/></clipPath></defs><g clip-path="url(#tailFurClipPath)"><path fill="#b1b1be" d="M2842.9 2245.9H1904v-888.7h990.6l-51.7 888.7z"/><path d="M2586.8 1811.5c45.3-2 89-25.4 116.2-61.6a3 3 0 0 0-3.4-4.6c-22.1 8.1-46.6 8.8-70.3 7.2-27-1.9-53.9-6.8-81-6.5-9.2.1-18.7.9-27.2 4.6s-15.8 11-17.6 20 3.4 19.6 12.4 21.9M2144.6 1926.3c57.9 85.6 161.9 137.5 265 133.7a4.2 4.2 0 0 0 1.8-7.9 453.8 453.8 0 0 1-176.7-163M2460.5 1846.7c50.9 47.2 126.9 65.5 193.8 47.3a2.8 2.8 0 0 0 0-5.4 305 305 0 0 1-140.5-79.9M2789 1493.5c-75.5-34.6-168.7-27-237.9 18.7a3.4 3.4 0 0 0 2.1 6.2 364.9 364.9 0 0 1 189.5 38.3M2798.2 1609.4c-40.3-22.7-85.9-22.3-143.7-14.8a3.4 3.4 0 0 0-.8 6.4c47.4 19.1 112.4 49.8 157.2 87.2M2282.2 1815.7c25.3 62.7 67 118.7 127.5 149.9 51.8 26.7 128.4 36.7 186.4 36.1 4.2 0 7.1-4 3.6-4.9-100.9-26.3-181.1-95.1-240.2-180.4z" fill="#cf5be8"/><path d="M2282.2 1815.7c25.3 62.7 67 118.7 127.5 149.9 51.8 26.7 128.4 36.7 186.4 36.1 4.2 0 7.1-4 3.6-4.9-100.9-26.3-181.1-95.1-240.2-180.4zM2082.6 1952.7c27.5 1.6 63.5 50.6 82.6 70.5 36.4 38.1 72.9 77.2 120.6 99.4a3.5 3.5 0 0 1-1.9 6.6c-101.3-12-199.1-53.1-278.3-117.4" fill="#cf5be8"/><path d="M2282.7 1557.4s-19.9 27.2-35.1 47.6c-47.1 63-78 149.5-54.1 228.9 19.3 64.1 114.8 123.2 174.2 153q9.4 1.1 19.1 1.5a5 5 0 0 0-.4-1.4c-9.7-21.4 6.3-60.3 19-78 15.9-22.3 42.2-34.2 66.2-47.4s48.6-30.9 55.7-57.3l-5 57.7c37.9-18.6 69.3-49.7 89.3-86.9a198.4 198.4 0 0 0 18.5-49.1c-17.9-126-127-217.2-252.6-205.4-44.4 4.2-83.5 20.3-115.2 45.1 12.3-5.4 20.4-8.3 20.4-8.3z" fill="#b1b1be"/><g clip-path="url(#tailClipPath2)" fill="#cf5be8"><path d="M2552.7 1894.7c36.3-59.2 39.3-137.3 8.4-199.3a2.8 2.8 0 0 0-5.3 1.1 305 305 0 0 1-50.8 153.4M2262.9 2005.8c-15.5-84.9 13.6-188.8 73.5-265.4 2.5-3.2 6.5-1.5 5.4 2.4-19.6 72.6-21.9 166.6-7.2 232.1M2151.4 1780.3c28.5-78 99.5-138.8 180.7-155.9a3.4 3.4 0 0 1 2.9 5.8c-49 43-136 162.8-156 224.9M2456.9 2016.5c21.3-48.4 26.3-102.7 22.3-155.4-3.5-47.1-13.9-93.3-25-139.2a3 3 0 0 0-5.9.4q-14.7 128.1-41.5 254.3"/></g><path d="M2051.9 2178.8c5.9-20.2-72-57.6-51.8-63.3s11.9-57.4 28.7-44.7c56.6 43.2 156.4 118 275.3 135.7 97.6 14.5 233.2 3.6 323-37.1 28.1-12.8 152.4-75 203.3-121.6 20.6-18.9-62 108.9-41.7 128s34.7 40.9 38.3 66.8c5.1 35.9-13.7 71.6-39.2 97.5-31.3 31.7-72.8 52.2-116 63.3s-88.2 13.3-132.8 12.3a946.4 946.4 0 0 1-332.5-68.7c-16.3-6.6-32.7-13.9-45.4-26s-21-30.2-17.2-47.3" fill="#b8916c"/><path d="M2492.9 1363.9a405.8 405.8 0 0 0-180.7 151.6 3.4 3.4 0 0 0 4.5 4.8 529.6 529.6 0 0 1 160-60.8c-2.7.6 111.9-25.7 143.9-32.2" fill="#cf5be8"/><defs><clipPath id="tailShadowClipPath"><path d="M2843.8 1635s-3.6 27-26.7 75.5c-31.4-98.7-91-197.3-168.6-256-1.8-1.3-4.6-3.2-8.3-5.6-161.3-100.9-374.7-31.8-447.1 144.2l-6.7 16c40.7-31.8 96.3-51.8 96.3-51.8s-19.9 27.2-35.1 47.6c-47.1 63-78 149.5-54.1 228.9 7.5 24.9 26.4 49 50.3 71-121.3 19.7-207.2 143.9-207.2 143.9l-116 136.8 169.4 35.3 96.5 3.5c51.6 15.5 117.1 26.6 199.1 26.6 242.5 0 413.1-159 449.1-329.9 2.8-13.4 5.7-26.8 8.8-40.1 11.3-49.6 34.4-173.2.3-245.9z" fill="none"/></clipPath><linearGradient id="tailShadowGradient" x1="2539.72" y1="1739.67" x2="2539.72" y2="1283.42" gradientUnits="userSpaceOnUse"><stop offset="0" stop-color="#fff" stop-opacity="0"/><stop offset=".72" stop-color="#fff"/></linearGradient><linearGradient id="tailShadowGradient2" x1="2371.12" y1="1885.86" x2="2523.5" y2="1885.86" href="#tailShadowGradient" xlink:href="#tailShadowGradient"/><linearGradient id="tailShadowGradient3" x1="2703.65" y1="1891.5" x2="2893.32" y2="1891.5" href="#tailShadowGradient" xlink:href="#tailShadowGradient"/><linearGradient id="tailShadowGradient4" x1="2524.03" y1="1787.87" x2="2627.37" y2="1787.87" href="#tailShadowGradient" xlink:href="#tailShadowGradient"/></defs><g clip-path="url(#tailShadowClipPath)"><path fill="none" d="M2841.2 2267.2l-937.3-21.3 265.6-916 742.4 60-70.7 877.3z"/></g><g clip-path="url(#tailShadowClipPath)" style="mix-blend-mode:multiply"><path d="M2010.4 2076.9s112.9-156 137.5-146.1c-100.8 117.4-26.2 185.8 23 200.3 199.6 59 530.9 111 665.9-164.6l-219 299.4-649.5-3z" fill="#7f7f7f" opacity=".25" style="mix-blend-mode:multiply"/><path d="M2238 1890.9c-25.5 5.8-25 6.1-25 6.1 3.6 3.7 35.6 103.9 139.1 118.9a6.9 6.9 0 0 0 7.3-9.5c-2.3-5.3-4.4-13-5.7-24.1" fill="#7f7f7f" opacity=".3" style="mix-blend-mode:multiply"/><path d="M2628.8 1731.1s-19.6 101.4-52.6 138.4a114.9 114.9 0 0 1-69.7 37.5 3.6 3.6 0 0 1-4-4.3c2.3-13-2.2-28.3-2.2-28.3s-121.7 64.6-113.7 115.6c0 0-16-71.9 67.7-119.2s69.7-65.3 69.7-65.3l-1.7 54.7c56.8-11.1 106.5-129.1 106.5-129.1z" fill="#7f7f7f" opacity=".25" style="mix-blend-mode:multiply"/><path d="M2195.3 1591.4c1-5.3 4.5-9.8 8-13.8a191.2 191.2 0 0 1 106.3-60.8 3.6 3.6 0 0 1 2.9 6.4 173.3 173.3 0 0 0-31.4 31.3c-6.1 7.8-11.5 16.3-18.9 22.9-13.2 11.9-31.1 16.9-48.3 21.6" fill="#7f7f7f" opacity=".25" style="mix-blend-mode:multiply"/></g><g clip-path="url(#tailShadowClipPath)" style="mix-blend-mode:overlay"><path d="M2262.3 1500s151.6-146.4 378 7.5c93 66.9 162 232.2 162 232.2l14.7-29.2-59.7-377.6-233.3-49.5-150.6 20.2z" opacity=".3" fill="url(#tailShadowGradient)" style="mix-blend-mode:overlay"/><path d="M2374.2 1931.5c4.8-27.9 20.8-44.5 43-62s47.5-30.9 70-48c16-12.1 28.1-22.6 34.1-39.4a1.2 1.2 0 0 1 2.3.5l-.7 14.7a75.2 75.2 0 0 1-1 13.8 49.5 49.5 0 0 1-8.9 19.2c-24.8 34-74.1 40.5-103.1 71-18.7 19.7-26.5 47.5-26.4 74.2 0 4 2.9 16.3-2.6 14.8-3.7-1-8-8.8-8.7-14.2-2.1-14.8-.6-29.9 2-44.6z" opacity=".3" fill="url(#tailShadowGradient2)" style="mix-blend-mode:overlay"/><path d="M2842.4 1647.5c5.9 118.9-1.6 137.7-27.2 261.3-20 96.7-86.2 192.2-111.5 226.7 40.5-19.6 59.6-30.7 86.7-66.6s47.7-76.5 65.6-117.8c13.7-31.6 26.1-64.1 32.6-97.9 3.9-20.2 5.7-40.9 4.2-61.4s-6.8-42.4-12-63.3l-12.9-51.9" opacity=".3" fill="url(#tailShadowGradient3)" style="mix-blend-mode:overlay"/><path d="M2616.4 1728.1c2.5-3.2 6.3-6.7 10-5 3.4 12.3-2.5 25.1-8.3 36.4-10.6 20.5-21.6 41.3-37.9 57.6a149.8 149.8 0 0 1-30.6 23.5c-2.2 1.3-23.3 16.1-25.4 11.4-1.1-2.6 21.2-20.7 23-22.9 17.8-20.8 34.4-37.4 48.5-59.3 8-12.3 11.6-29.9 20.7-41.7z" opacity=".3" fill="url(#tailShadowGradient4)" style="mix-blend-mode:overlay"/></g></g></g><g id="tail"><g fill="none" stroke="#31323d" stroke-linecap="round" stroke-width="12.5"><path d="M2817.2 1710.6c-31.3-98.7-91-197.4-168.7-256.1-1.8-1.3-4.6-3.2-8.3-5.6-161.3-100.9-374.7-31.8-447.1 144.2l-6.7 16c40.7-31.8 96.3-51.8 96.3-51.8s-19.9 27.2-35.1 47.6c-47.1 63-78 149.5-54.1 228.9 20.6 68.7 128.7 131.6 186.3 158.8 4.1 2 8.5-1.6 6.6-5.7-9.7-21.4 6.3-60.3 19-78 15.9-22.3 42.2-34.2 66.2-47.4s48.6-30.9 55.7-57.3l-5 57.7c37.9-18.6 69.3-49.7 89.3-86.9a198.2 198.2 0 0 0 18.9-50.6" stroke-linejoin="round"/><path d="M2036.6 2048.8s85.9-124.2 207.2-143.9" stroke-miterlimit="10"/><path d="M2186.4 2224.4c51.6 15.5 117.1 26.6 199.1 26.6 242.5 0 413.1-159 449.1-329.9 2.8-13.4 5.7-26.8 8.8-40.1 11.5-49.7 34.6-173.3.4-246 0 0-4.8 35.4-37.9 97.8" stroke-linejoin="round"/></g></g><g id="bodyFur"><clipPath id="furClipPath"><path d="M2200.5 2195.7c-43-29.4-132.4-61.7-179.8-75.5l-.8-.3a248.1 248.1 0 0 0 6.4-155.8l-174.8-568.6c14.6-15.2 23.3-25.6 23.3-25.6 42.4 27.2 109.7-3.5 137.1-18.2a3.1 3.1 0 0 0-1.5-5.9c-53.6 0-129.9-41.6-129.9-41.6 60.7 16.1 84-1.1 91.8-10.5a3.1 3.1 0 0 0-2.3-5.2c-19.6-.9-86-12.3-134.4-122.4-6.6-15.1-13.6-30-21.2-44.7-14.6-28.2-38.8-72.8-66.6-117.1l1.3-7.1 50-205.4c6.6-27.3-24.5-47.9-47-31.2L1620.9 858l-2.1 2.6-4.9-3.1A240.6 240.6 0 0 0 1559 836l-3.3-.8c10-28.5 40.9-44.3 40.9-44.3-35.9-33.7-100 19.4-100 19.4-37-35.7 17.4-102.7 17.4-102.7-64.8-29.4-112.8 85.4-112.8 85.4-4.7-56.4-86.1-64.9-86.1-64.9 27.1 29.7 13.6 82.9 13.6 82.9-38.1-37.3-110.7-2.4-110.7-2.4 29.7 2.9 48.9 15.7 60.8 28l-3 .8a240.6 240.6 0 0 0-79 39l-131-81.2c-23.3-14.4-52.1 7.3-44.7 33.7l57.5 202.6 4.2 14.9c-13.6 32.5-24.1 61.9-29.8 78.5q-5.3 15.7-12.1 30.8c-40.9 107.2-130.3 143.6-160.1 153.1a3.1 3.1 0 0 0 .1 6c20.6 5.7 72.8 17.4 111-21 0 0-37.3 51.7-83.2 70.2a3.1 3.1 0 0 0 .9 6.1c16.5 1.6 47.9.7 87.8-18.6 0 0-21.7 30.1-40.8 44.4a3.2 3.2 0 0 0 2.3 5.7c15.5-1.7 34.4-5.1 45.5-11.9l.5 12.2c.5 11.7 8.6 24.2 21.3 36.7l-107 561a248.9 248.9 0 0 0 12.6 117.5l-.6.3c-38.1 9.1-130.4 43.4-184.5 78.3-26.5 17.1-10.1 55.9 23.2 55.3l266.9-5.2q6.8 4.1 13.8 7.9l.2 3.4c.4 23.3-6.7 42.4-29.9 43.6-15.6.8-28.2 9.9-30.6 21.1-4.7 21.5 5.8 38.9 27.2 40.4l84.3 5c26.4 1.6 51.9-11.3 65.3-34.1a71.4 71.4 0 0 0 8.8-23.9l5-26.6h533.6l3.5 20.7a71.6 71.6 0 0 0 43.1 54.3 53.5 53.5 0 0 0 22.3 4l91.8-3c22-2.2 30.1-15.7 27.9-36.9-.7-6.9-6.2-24.5-24.5-25.5-15.8-.9-25.2-8.6-28.1-21.9a246.8 246.8 0 0 0 65.4-28.1l261.5 5.1c33.2.3 49.2-37.8 23.1-55.6z" fill="none"/></clipPath><g clip-path="url(#furClipPath)"><path fill="#b1b1be" d="M724.1 562.8h1509.4v1824.09H724.1z"/><path d="M1934.7 1518.1c-50.1 16.7-93.7 49.5-130.1 87.9-32.5 34.2-59.8 73-86.4 112a3 3 0 0 0 4.2 4.1q104.7-75.1 216.3-140M1943.3 1642.3c-36 15.8-67.3 40.3-97.5 65.8a3 3 0 0 0 2.7 5.2 65.4 65.4 0 0 1 15.4-2.2 172.5 172.5 0 0 0 116-48.6M1626.8 1874.4c31.6-35.6 85.8-59 130.6-75.9a3 3 0 0 1 3.4 4.7q-37.1 47.6-78.6 91.4c-9.6 10.1-20.5 20.7-34.4 22.2M1988.6 1745.2c-82.6 41.2-132.4 132.1-210.2 178.6a3 3 0 0 0 2.4 5.5L1941 1882c32.1-9.5 67.1-21 84.6-49.6M2062.8 1953.3l-75.7 4.5c-30.8 1.8-62.2 3.8-91 14.3a3 3 0 0 0-.4 5.5 802.2 802.2 0 0 0 100.3 43.5c23.8 8.4 52.2 15.2 72.7.5M1997.3 2100.9l-77.7 55.1a3 3 0 0 0 1.2 5.4q21.8 3.8 43.8 5.9c7.5.7 15.3 1.2 22.3-1.7 10.3-4.2 16.5-14.7 21.8-24.4 10.3-18.7 24.3-38.4 32.2-58.4a3 3 0 0 0-3.4-4.1c-14.6 3.1-28.4 13.9-40.2 22.2zM1678.6 2100.5A353.2 353.2 0 0 1 1817 2028a3 3 0 0 1 2.9 5c-19.5 19.8-35.9 42.4-54.7 62.9-20.5 22.4-45 42.8-74.1 50.7a3 3 0 0 1-3.8-2.5l-.8-5.7M1852.9 2169.2a239.5 239.5 0 0 0-72.8 9c-9 2.6-18 5.7-25.3 11.6s-10.7 11.7-11.8 19.2a3 3 0 0 0 4 3.3 121.4 121.4 0 0 1 96.9 5.7M904.3 2075.5c26 37.1 69.3 61.4 114.4 64.8a3 3 0 0 0 2.1-5.4c-18.7-14.3-32.5-34.6-43.8-55.4-12.9-23.8-23.3-49.1-38.1-71.8-5.1-7.7-10.8-15.3-18.5-20.4s-17.8-7.4-26.4-4.1-14.7 13.4-11.8 22.2M917.7 1886.7c5.7 23.1 31.5 33.6 53 43.7a269.4 269.4 0 0 1 103.5 86.6 3 3 0 0 0 5.3-2.6 471.4 471.4 0 0 0-143.9-217.6M947 1665.7c86.2-8.4 168.6 31.7 238.3 81.6a3 3 0 0 0 4.2-4.1c-21-31.3-43-61.9-76.7-86.3-48.8-35.4-93.4-72.7-151.1-88.7M1252.5 1944a373.8 373.8 0 0 1-153.4-134.6 3 3 0 0 1 4.3-4.1c48.2 33.7 132.9 34.2 175.8 76.1M1198.4 2168.9c-23.2-24.1-38.2-55.2-47.8-87.3-8-26.9-12.3-54.7-16.1-82.6a3 3 0 0 1 5.5-2c24.8 40.6 67.6 71.9 77.2 118.5M1049.3 2201.7c16-11.8 38.8-11.6 56.7-3 13.9 6.7 25.1 17.8 33.9 30.6a3 3 0 0 1-3.9 4.3c-27.3-14.5-63.5-12-87.8 7.5" fill="#cf5be8"/><path d="M1670.5 2030.7c6.9 38.6 13.7 77.2 20.6 115.8 4.1 22.7 8 45.3 12 68 9.4 53.2 9.6 54.1 9.4 56.2-9.7 78.6-486.6 140.6-531.1 24-5.6-14.6 3.2-56.8 20.7-141.2 10.5-50.5 18.8-83.4 24-105 21.9-114.2 55.2-228.1 124.9-319-2.7 28.4 10.7 56.5 29.8 77.7s43.6 36.7 67.8 51.9a107.9 107.9 0 0 1 27-90.7l38.6 62.2a203.5 203.5 0 0 0 39.5-106.4c73.7 89.3 97.9 187.9 116.8 306.5z" fill="#b8916c"/><path d="M1146.4 933.8a387.1 387.1 0 0 1 135.9 7.4 3 3 0 0 0 3.5-4 149.9 149.9 0 0 0-66-76.1 3 3 0 0 0-3.3.3l-46.4 36.6-.4.4-25.9 30.6a3 3 0 0 0 2.6 4.8zM1591.7 852.3a269.2 269.2 0 0 0-40.9 85.9 3 3 0 0 0 4.5 3.3 216.9 216.9 0 0 1 112.5-32.7 3 3 0 0 0 2.1-5.1l-37.9-37.1-1-.6-35.7-14.6a3 3 0 0 0-3.6.9zM1372.8 969a3 3 0 0 0 5.7-1.6c-3.9-44.2-.2-91.7-19.8-131.4-17.8-35.9-108.9-87.6-113-87.7-7.3-.1-38 36-36 56.6 1.1 11.7 64.8 26.4 64.4 32.6-.7 11.7 37.3 38.4 44.8 47.7a425.5 425.5 0 0 1 34.5 49.3c5.7 9.4 13.2 21.6 19.4 34.5zM1494.6 937.8c-4.4 10.7-9.3 20.1-13.8 30.2a3 3 0 0 1-5.8-1.2c-.4-20.4-2.3-67.9-2.3-67.9 2.7-132.5 32.8-260.1 118.1-361.4L1696 708.8l-119 95.9c-38.8 33.2-60.7 80.3-82.4 133.1z" fill="#cf5be8"/></g></g><g id="shadow" style="mix-blend-mode:multiply"><defs><clipPath id="shadowClipPath"><path d="M2200.5 2195.7c-43-29.4-132.4-61.7-179.8-75.5l-.8-.3a248.1 248.1 0 0 0 6.4-155.8l-174.8-568.6c14.6-15.2 23.3-25.6 23.3-25.6 42.4 27.2 109.7-3.5 137.1-18.2a3.1 3.1 0 0 0-1.5-5.9c-53.6 0-129.9-41.6-129.9-41.6 60.7 16.1 84-1.1 91.8-10.5a3.1 3.1 0 0 0-2.3-5.2c-19.6-.9-86-12.3-134.4-122.4-6.6-15.1-13.6-30-21.2-44.7-14.6-28.2-38.8-72.8-66.6-117.1l1.3-7.1 50-205.4c6.6-27.3-24.5-47.9-47-31.2L1620.9 858l-2.1 2.6-4.9-3.1A240.6 240.6 0 0 0 1559 836l-3.3-.8c10-28.5 40.9-44.3 40.9-44.3-35.9-33.7-100 19.4-100 19.4-37-35.7 17.4-102.7 17.4-102.7-64.8-29.4-112.8 85.4-112.8 85.4-4.7-56.4-86.1-64.9-86.1-64.9 27.1 29.7 13.6 82.9 13.6 82.9-38.1-37.3-110.7-2.4-110.7-2.4 29.7 2.9 48.9 15.7 60.8 28l-3 .8a240.6 240.6 0 0 0-79 39l-131-81.2c-23.3-14.4-52.1 7.3-44.7 33.7l57.5 202.6 4.2 14.9c-13.6 32.5-24.1 61.9-29.8 78.5q-5.3 15.7-12.1 30.8c-40.9 107.2-130.3 143.6-160.1 153.1a3.1 3.1 0 0 0 .1 6c20.6 5.7 72.8 17.4 111-21 0 0-37.3 51.7-83.2 70.2a3.1 3.1 0 0 0 .9 6.1c16.5 1.6 47.9.7 87.8-18.6 0 0-21.7 30.1-40.8 44.4a3.2 3.2 0 0 0 2.3 5.7c15.5-1.7 34.4-5.1 45.5-11.9l.5 12.2c.5 11.7 8.6 24.2 21.3 36.7l-107 561a248.9 248.9 0 0 0 12.6 117.5l-.6.3c-38.1 9.1-130.4 43.4-184.5 78.3-26.5 17.1-10.1 55.9 23.2 55.3l266.9-5.2q6.8 4.1 13.8 7.9l.2 3.4c.4 23.3-6.7 42.4-29.9 43.6-15.6.8-28.2 9.9-30.6 21.1-4.7 21.5 5.8 38.9 27.2 40.4l84.3 5c26.4 1.6 51.9-11.3 65.3-34.1a71.4 71.4 0 0 0 8.8-23.9l5-26.6h533.6l3.5 20.7a71.6 71.6 0 0 0 43.1 54.3 53.5 53.5 0 0 0 22.3 4l91.8-3c22-2.2 30.1-15.7 27.9-36.9-.7-6.9-6.2-24.5-24.5-25.5-15.8-.9-25.2-8.6-28.1-21.9a246.8 246.8 0 0 0 65.4-28.1l261.5 5.1c33.2.3 49.2-37.8 23.1-55.6z" fill="none"/></clipPath><linearGradient id="shadowGradient" x1="1721.47" y1="787.6" x2="1721.47" y2="997.24" gradientUnits="userSpaceOnUse"><stop offset="0" stop-color="gray"/><stop offset=".14" stop-color="#797979"/><stop offset=".35" stop-color="#646464"/><stop offset=".6" stop-color="#434343"/><stop offset=".89" stop-color="#141414"/><stop offset="1"/></linearGradient><linearGradient id="shadowGradient2" x1="1027.09" y1="934.24" x2="1148.15" y2="934.24" href="#shadowGradient" xlink:href="#shadowGradient"/></defs><g clip-path="url(#shadowClipPath)"><path d="M1020.9 1433.2c-5.4 0 42.7 35.7 61.5 45.6-25.2 6.1-37.3 68.9-37.4 69.2-20.1 133.2-33.5 328-39.9 378.8a910.2 910.2 0 0 0-6.8 98.4v3.4c23.5 26 47.6 88.8 52.6 176.8l1.3 49s-31.3-.8-81-.8c-62 0-110.8-111.7-79.2-278.2M959.5 1395.5a100.4 100.4 0 0 0 47.6-29 3.4 3.4 0 0 1 5.7 3.2 191.6 191.6 0 0 1-19.6 45.2 5.2 5.2 0 0 1-2 2.2 1.8 1.8 0 0 1-2.5-.7M910.2 1367.1c17.1-4.7 33.2-12.3 49.2-19.9s33.3-16 46.5-27.9a3.4 3.4 0 0 1 5.3 4 132.6 132.6 0 0 1-43.9 49.6M884.9 1312.7c27.6-3.1 55-9.4 80.3-20.8 19.8-8.9 36-22.6 52-37.5a1.7 1.7 0 0 1 2.5 2.2q-13.6 18.2-28.5 35.4c-11.2 12.9-23.9 26.1-40.6 29.7" fill="#7f7f7f" opacity=".2" style="mix-blend-mode:multiply"/><path d="M1796.7 801.2s-17.5-43.2-81.6 24.2c-33.7 40.5-68.9 54-68.9 54L1749 997.2z" opacity=".4" fill="url(#shadowGradient)" style="mix-blend-mode:multiply"/><path d="M1027.9 853.3s-9.4-38.9 34.7-20.8c18.5 7.6 50.7 40.6 63.5 56l22 35-65.3 117.3z" opacity=".4" fill="url(#shadowGradient2)" style="mix-blend-mode:multiply"/><path d="M1226.5 2040.4c-24.3 147.7 54.3 178.3 68.5 181.6 86.5 15.5 223.8 8.8 268.5-7 41.8-14.8 129.9-58.5 108-189.5l43 256.8h-533.6z" fill="#7f7f7f" opacity=".15" style="mix-blend-mode:multiply"/><path d="M1854.3 2157.4s29.9-91.4 66.3-124.9c-39.4 75 14.1 92.7 28.1 87.7 53.7-19.2 75-66.7 79.2-150l65.3 116.3s-55 256-204 214l-38.7-18.1zM1280.9 847.4a118.7 118.7 0 0 1 28.6 36.3 4.6 4.6 0 0 0 8.8-2.3c-.9-15.5-3.8-30.6-11.8-43.7-15.6-25.4-48.4-36.7-78-32.8-7.6 1-15.8 2.8-22.5-.9M1325 802.3a285.5 285.5 0 0 1 18.7 59.9 4.6 4.6 0 0 0 8.9.8c7.8-20.8 11.4-43.1 8.7-65.1-3.3-27.2-16.8-53.6-38.7-70.1-4.8-3.6-10.7-6.9-16.5-5.3M1401.1 775.5a178.8 178.8 0 0 0 .2 34.4 4.6 4.6 0 0 0 9 1.1c8.4-22.4 22.3-42.7 39.3-59.6 21.8-21.6 48.6-37.7 76.8-49.6-21.7-13.9-51.2-14.2-73.2-.8-7.4 4.5-14.1 10.8-16.8 19M1502.4 779.4a359.3 359.3 0 0 0-10.2 53.5 4.6 4.6 0 0 0 8 3.7c25.1-27 62-42.9 98.9-41.9 2.1.1 4.5.1 5.6-2.8a6.8 6.8 0 0 0 .3-3.4c-1.5-9.9-9.3-17.6-18-22.3a56.2 56.2 0 0 0-45.6-3.3" fill="#7f7f7f" opacity=".2" style="mix-blend-mode:multiply"/><path d="M1087.2 1037.5s44.1-157.9 191.6-200.7l17 25.4c-81.5 23.6-167.5 135.3-182.2 181.3s-55.7 135.7-124.7 198.5" fill="#7f7f7f" opacity=".2" style="mix-blend-mode:multiply"/></g></g><g id="highlight" style="mix-blend-mode:overlay"><defs><clipPath id="highlightClipPath"><path d="M2200.5 2195.7c-43-29.4-132.4-61.7-179.8-75.5l-.8-.3a248.1 248.1 0 0 0 6.4-155.8l-174.8-568.6c14.6-15.2 23.3-25.6 23.3-25.6 42.4 27.2 109.7-3.5 137.1-18.2a3.1 3.1 0 0 0-1.5-5.9c-53.6 0-129.9-41.6-129.9-41.6 60.7 16.1 84-1.1 91.8-10.5a3.1 3.1 0 0 0-2.3-5.2c-19.6-.9-86-12.3-134.4-122.4-6.6-15.1-13.6-30-21.2-44.7-14.6-28.2-38.8-72.8-66.6-117.1l1.3-7.1 50-205.4c6.6-27.3-24.5-47.9-47-31.2L1620.9 858l-2.1 2.6-4.9-3.1A240.6 240.6 0 0 0 1559 836l-3.3-.8c10-28.5 40.9-44.3 40.9-44.3-35.9-33.7-100 19.4-100 19.4-37-35.7 17.4-102.7 17.4-102.7-64.8-29.4-112.8 85.4-112.8 85.4-4.7-56.4-86.1-64.9-86.1-64.9 27.1 29.7 13.6 82.9 13.6 82.9-38.1-37.3-110.7-2.4-110.7-2.4 29.7 2.9 48.9 15.7 60.8 28l-3 .8a240.6 240.6 0 0 0-79 39l-131-81.2c-23.3-14.4-52.1 7.3-44.7 33.7l57.5 202.6 4.2 14.9c-13.6 32.5-24.1 61.9-29.8 78.5q-5.3 15.7-12.1 30.8c-40.9 107.2-130.3 143.6-160.1 153.1a3.1 3.1 0 0 0 .1 6c20.6 5.7 72.8 17.4 111-21 0 0-37.3 51.7-83.2 70.2a3.1 3.1 0 0 0 .9 6.1c16.5 1.6 47.9.7 87.8-18.6 0 0-21.7 30.1-40.8 44.4a3.2 3.2 0 0 0 2.3 5.7c15.5-1.7 34.4-5.1 45.5-11.9l.5 12.2c.5 11.7 8.6 24.2 21.3 36.7l-107 561a248.9 248.9 0 0 0 12.6 117.5l-.6.3c-38.1 9.1-130.4 43.4-184.5 78.3-26.5 17.1-10.1 55.9 23.2 55.3l266.9-5.2q6.8 4.1 13.8 7.9l.2 3.4c.4 23.3-6.7 42.4-29.9 43.6-15.6.8-28.2 9.9-30.6 21.1-4.7 21.5 5.8 38.9 27.2 40.4l84.3 5c26.4 1.6 51.9-11.3 65.3-34.1a71.4 71.4 0 0 0 8.8-23.9l5-26.6h533.6l3.5 20.7a71.6 71.6 0 0 0 43.1 54.3 53.5 53.5 0 0 0 22.3 4l91.8-3c22-2.2 30.1-15.7 27.9-36.9-.7-6.9-6.2-24.5-24.5-25.5-15.8-.9-25.2-8.6-28.1-21.9a246.8 246.8 0 0 0 65.4-28.1l261.5 5.1c33.2.3 49.2-37.8 23.1-55.6z" fill="none"/></clipPath><linearGradient id="highlightGradient" x1="1982.16" y1="2256.39" x2="1982.16" y2="1369.83" gradientUnits="userSpaceOnUse"><stop offset="0" stop-color="#fff" stop-opacity="0"/><stop offset=".72" stop-color="#fff"/></linearGradient><linearGradient id="highlightGradient2" x1="2116.32" y1="2248.97" x2="2116.32" y2="2113.28" href="#highlightGradient" xlink:href="#highlightGradient"/><linearGradient id="highlightGradient3" x1="1044.74" y1="2253.08" x2="1044.74" y2="2117.39" gradientTransform="matrix(-1 0 0 1 1878.82 0)" href="#highlightGradient" xlink:href="#highlightGradient"/><linearGradient id="highlightGradient4" x1="1841.6" y1="1322.67" x2="2023.46" y2="1322.67" href="#highlightGradient" xlink:href="#highlightGradient"/><linearGradient id="highlightGradient5" x1="1540.47" y1="1061.99" x2="1985.64" y2="1061.99" href="#highlightGradient" xlink:href="#highlightGradient"/><linearGradient id="highlightGradient6" x1="916.62" y1="1844.05" x2="1050.67" y2="1844.05" href="#highlightGradient" xlink:href="#highlightGradient"/></defs><g clip-path="url(#highlightClipPath)" opacity=".3"><path d="M1822.2 1426.8c65.5 192.8 120.8 423.9 147.8 543.6 46.1 204.7-81.2 286-81.2 286l61.1-35.5s63-74.8 72.5-107.6c20.8-71.9 139-33 117.2-147.7-31.7-166.5-264.8-595.8-264.8-595.8s-53.8 53.6-52.6 57z" fill="url(#highlightGradient)" style="mix-blend-mode:overlay"/><path d="M1999.2 2162.4s113.2 21.1 98.4 83.6l92.6 3 43.3-6.5-4.3-68.5-206.8-60.7z" fill="url(#highlightGradient2)"/><path d="M951.2 2166.5s-113.2 21.1-98.4 83.6l-92.6 3-43.3-6.5 4.3-68.5 206.8-60.7z" opacity=".7" fill="url(#highlightGradient3)"/><path d="M1898.6 1313.5a235 235 0 0 1-53.2-24.9 2.4 2.4 0 0 0-3.2 3.6c27.3 32 63 57.8 104.3 63.6 19.5 2.7 39.3.9 58.9-1.1 6.3-.6 12.9-1.4 18-5.2" fill="url(#highlightGradient4)" style="mix-blend-mode:overlay"/><path d="M1985.6 1289.8a142.1 142.1 0 0 1-45.5 1c-43.6-6.1-82.5-32.5-111.3-65.8s-43.7-73.3-61.6-113.5a1039.6 1039.6 0 0 0-62.4-118.9 385.5 385.5 0 0 0-119.4-121.9c-8-5.1-39.4-16.4-45-24 0 0-.7-5 4.8-12.7s38.4 6.5 46.3 11c96 55 89.3 67 132.5 130 37.1 54.2 90.1 146.5 126.3 221.4" fill="url(#highlightGradient5)" style="mix-blend-mode:overlay"/><path d="M1041.7 1452l-93.6 502.5s-53.5 175 102.2 279l.3 20.2s-124.5-57.2-133.5-215.2 100-604 100-604z" fill="url(#highlightGradient6)" style="mix-blend-mode:overlay"/></g></g><g id="bodyMask"><path d="M2200.5 2195.7c-43-29.4-132.4-61.7-179.8-75.5l-.8-.3a248.1 248.1 0 0 0 6.4-155.8l-174.8-568.6c14.6-15.2 23.3-25.6 23.3-25.6 42.4 27.2 109.7-3.5 137.1-18.2a3.1 3.1 0 0 0-1.5-5.9c-53.6 0-129.9-41.6-129.9-41.6 60.7 16.1 84-1.1 91.8-10.5a3.1 3.1 0 0 0-2.3-5.2c-19.6-.9-86-12.3-134.4-122.4-6.6-15.1-13.6-30-21.2-44.7-14.6-28.2-38.8-72.8-66.6-117.1l1.3-7.1 50-205.4c6.6-27.3-24.5-47.9-47-31.2L1620.9 858l-2.1 2.6-4.9-3.1A240.6 240.6 0 0 0 1559 836l-3.3-.8c10-28.5 40.9-44.3 40.9-44.3-35.9-33.7-100 19.4-100 19.4-37-35.7 17.4-102.7 17.4-102.7-64.8-29.4-112.8 85.4-112.8 85.4-4.7-56.4-86.1-64.9-86.1-64.9 27.1 29.7 13.6 82.9 13.6 82.9-38.1-37.3-110.7-2.4-110.7-2.4 29.7 2.9 48.9 15.7 60.8 28l-3 .8a240.6 240.6 0 0 0-79 39l-131-81.2c-23.3-14.4-52.1 7.3-44.7 33.7l57.5 202.6 4.2 14.9c-13.6 32.5-24.1 61.9-29.8 78.5q-5.3 15.7-12.1 30.8c-40.9 107.2-130.3 143.6-160.1 153.1a3.1 3.1 0 0 0 .1 6c20.6 5.7 72.8 17.4 111-21 0 0-37.3 51.7-83.2 70.2a3.1 3.1 0 0 0 .9 6.1c16.5 1.6 47.9.7 87.8-18.6 0 0-21.7 30.1-40.8 44.4a3.2 3.2 0 0 0 2.3 5.7c15.5-1.7 34.4-5.1 45.5-11.9l.5 12.2c.5 11.7 8.6 24.2 21.3 36.7l-107 561a248.9 248.9 0 0 0 12.6 117.5l-.6.3c-38.1 9.1-130.4 43.4-184.5 78.3-26.5 17.1-10.1 55.9 23.2 55.3l266.9-5.2q6.8 4.1 13.8 7.9l.2 3.4c.4 23.3-6.7 42.4-29.9 43.6-15.6.8-28.2 9.9-30.6 21.1-4.7 21.5 5.8 38.9 27.2 40.4l84.3 5c26.4 1.6 51.9-11.3 65.3-34.1a71.4 71.4 0 0 0 8.8-23.9l5-26.6h533.6l3.5 20.7a71.6 71.6 0 0 0 43.1 54.3 53.5 53.5 0 0 0 22.3 4l91.8-3c22-2.2 30.1-15.7 27.9-36.9-.7-6.9-6.2-24.5-24.5-25.5-15.8-.9-25.2-8.6-28.1-21.9a246.8 246.8 0 0 0 65.4-28.1l261.5 5.1c33.2.3 49.2-37.8 23.1-55.6z" fill="none"/></g><g id="body"><path fill="none" stroke="#31323d" stroke-width="12.5" stroke-miterlimit="10" d="M1620.8 858.1l131.2-97.4c22.5-16.7 53.7 3.9 47 31.2l-50 205.4-1.3 7.1m-550.9-127.9l-131-81.2c-23.3-14.4-52.1 7.3-44.7 33.7l57.5 202.6 4.2 14.9" stroke-linecap="round"/><path fill="#fff" stroke="#31323d" stroke-width="12.5" stroke-miterlimit="10" d="M1714.5 2282.4h-533.6" stroke-linecap="round"/><path fill="none" stroke="#31323d" stroke-width="12.5" stroke-miterlimit="10" d="M1851.5 1395.4l174.8 568.6c39 137.9-45.2 275-175.8 309.9m-799.8-20.2c-89.2-47.1-145.7-146.2-131.5-254.1l106.3-558.8" stroke-linecap="round"/><path fill="#31323d" d="M1228.6 2040.8c-1.7 15.3-3.8 30.4-6 45.6l-3.5 22.7-3.8 22.6c-2.6 15.1-5.4 30.1-8.1 45.2l-8.3 45.1-16.6 90.3a76.3 76.3 0 0 1-3.5 12.1 77.5 77.5 0 0 1-5.4 11.4 75.5 75.5 0 0 1-16 19.4 78.7 78.7 0 0 1-45.9 18.8l-6.3.2h-6.1l-11.5-.7-22.9-1.3-45.8-2.8h-4.7l-1.8-.3a44.1 44.1 0 0 1-6.7-1.7 35.7 35.7 0 0 1-12.3-7.3 34.7 34.7 0 0 1-8.3-11.7 40.4 40.4 0 0 1-3.1-13.5 50.7 50.7 0 0 1 1-13.2l.2-.8v-1.7l.3-1.1a26.9 26.9 0 0 1 1.5-3.6 30.2 30.2 0 0 1 4.1-6.2 37.9 37.9 0 0 1 11-8.8 45.9 45.9 0 0 1 12.7-4.5 49 49 0 0 1 6.6-.9l2.7-.2 2.1-.3a22 22 0 0 0 4.3-1.2 18.5 18.5 0 0 0 3.8-1.9c4.6-3 7.7-8.4 9.4-14.8a70.5 70.5 0 0 0 1.8-20.8l-.9-22.9-1.9-45.9c-.6-15.3-1.3-30.6-1.8-45.9v.5c-.6-5-1.3-9.9-2-14.9-.4-2.5-.8-4.9-1.2-7.4s-.9-4.9-1.4-7.3-1-4.9-1.6-7.3l-1.8-7.2q-1.9-7.2-4.4-14.2c-.8-2.3-1.7-4.6-2.6-6.9s-1.8-4.6-2.9-6.8l-1.5-3.4-1.6-3.3-1.7-3.3-1.8-3.3-1.8-3.2-1.9-3.2-4-6.3c-1.4-2.1-2.8-4.1-4.3-6.2l-2.2-3-2.3-3a2.2 2.2 0 0 1 3.4-2.9l5.4 5.6q2.6 2.9 5.1 5.9c1.7 2 3.3 4 4.8 6.1l2.3 3.2 2.2 3.2c1.5 2.2 2.9 4.3 4.2 6.6l2 3.4 1.9 3.4q1.9 3.4 3.5 7c1.1 2.4 2.2 4.7 3.2 7.2q3 7.2 5.4 14.7c1.6 5 3 10 4.2 15q.9 3.8 1.7 7.6c.5 2.5 1.1 5.1 1.5 7.6.9 5.1 1.7 10.2 2.4 15.3v.5c.9 15.3 1.6 30.6 2.4 45.8l2.3 45.8 1.1 22.9a94.4 94.4 0 0 1-.1 12.3 71.8 71.8 0 0 1-1.9 12.5 54.5 54.5 0 0 1-2 6.3 42.8 42.8 0 0 1-3.1 6.2 33.3 33.3 0 0 1-9.8 10.4 35.1 35.1 0 0 1-13.2 5.3l-3.5.5-3 .2a35 35 0 0 0-4.7.6 31.9 31.9 0 0 0-8.8 3.2 23.9 23.9 0 0 0-6.9 5.5 16.1 16.1 0 0 0-2.2 3.3 13 13 0 0 0-1.2 3.7 36.6 36.6 0 0 0-.7 9.6 26.2 26.2 0 0 0 2 8.7 20.4 20.4 0 0 0 4.9 6.9 21.4 21.4 0 0 0 7.3 4.3 30.1 30.1 0 0 0 4.4 1.1l1 .2h3.9l45.8 2.7 22.9 1.4 11.5.7h10.5a64.5 64.5 0 0 0 37.6-15.2 61.4 61.4 0 0 0 13.1-15.7 65 65 0 0 0 7.4-19.2l17.4-90.1 8.7-45.1c2.9-15 5.8-30 8.8-45l4.7-22.5 5-22.4c3.4-14.9 7-29.8 11-44.6a2.2 2.2 0 0 1 4.9.6z"/><path fill="#31323d" d="M1095.2 2319.6h-.5l-1.7.2a18.6 18.6 0 0 0-5.8 2 22.5 22.5 0 0 0-6.7 5.5 30.2 30.2 0 0 0-2.9 4 38.9 38.9 0 0 0-2.4 4.6l-.5 1.2-.5 1.2-.5 1.2-.4 1.3c-.5 1.7-.9 3.4-1.3 5l-.5 2.4c-.2.8-.3 1.6-.4 2.4s-.4 3-.6 4.4-.2 2.6-.3 3.7-.1 2.1-.2 2.9v2.7a6.3 6.3 0 1 1-12.5-.6 6.9 6.9 0 0 1 .1-.8l.5-2.7c.2-.9.3-1.9.6-3.1s.5-2.6.9-4.1.8-3.1 1.3-4.8l.8-2.6.9-2.7c.7-1.8 1.4-3.7 2.3-5.5l.6-1.4.7-1.4.7-1.4.8-1.4a46.9 46.9 0 0 1 3.6-5.2 37.5 37.5 0 0 1 4.2-4.5 28.8 28.8 0 0 1 9.4-5.8 23.9 23.9 0 0 1 7.7-1.5h3.1a2.2 2.2 0 1 1-.5 4.8zm-42.5-4.7h-.6l-1.6.4-2.5.9-.7.3-.8.4-1.6.9-1.7 1.1-1.7 1.3-.9.7-.8.8-1.6 1.7-1.5 2-.7 1-.6 1.1-1.3 2.2-1.1 2.4c-.3.8-.7 1.6-1 2.4l-.8 2.5-.8 2.4-.6 2.5a42.3 42.3 0 0 0-1 4.7l-.6 4.3a35.4 35.4 0 0 0-.3 3.7l-.2 2.8-.2 2.5v.4a6.3 6.3 0 1 1-12.5-.8 6.9 6.9 0 0 1 .1-.8l.5-2.7.6-3.1c.3-1.2.4-2.5.9-4l1.3-4.7a51.3 51.3 0 0 1 1.8-5.2l1-2.7 1.3-2.7 1.3-2.7c.5-.9 1.1-1.8 1.6-2.7l1.7-2.6 1.9-2.4.9-1.2 1.1-1.1 2.1-2.1 2.2-1.8 1.1-.9 1.2-.7 2.2-1.4 2.2-1.1 2.1-.8 1-.4 1-.3a26.5 26.5 0 0 1 3.2-.7l2.2-.2h.8a2.2 2.2 0 1 1 .4 4.4zm621-289.7l2.2 9.4c1.4 6.1 3.4 15.1 5.8 26.6 1.2 5.7 2.5 12.1 3.9 19l4.4 22.5 4.8 25.6 5 28.4 23.3 135.3c1.1 6.1 2 12.8 3.6 17.8a63.3 63.3 0 0 0 7.2 15.7 65.1 65.1 0 0 0 25.9 23.4l4.1 1.9 1.1.4 1 .4 2 .7a45.4 45.4 0 0 0 8.4 1.7l4.3.3h4.6l10-.3 40.1-1.4 39.4-1.2 2.5-.3 1.2-.2.9-.2 1.9-.4 1.9-.6a21.7 21.7 0 0 0 6.5-3.5 17 17 0 0 0 4.3-5.4c.2-.6.6-1.1.7-1.7l.6-1.8a30.4 30.4 0 0 0 .8-3.9 37.8 37.8 0 0 0 .4-4.1v-2.1s0-1.4-.1-2.2l-.2-2.2v-.3a.3.3 0 1 1 0-.1v-1.6l-.2-.8-.2-.9c-.1-.6-.4-1.3-.6-1.9-1.7-5-4.7-9.3-8.4-11.7a17.3 17.3 0 0 0-6.4-2.3l-1.8-.2-2.6-.2h-1.2l-1.5-.2-2.9-.5a39.5 39.5 0 0 1-10.9-4.2 30.1 30.1 0 0 1-9.1-8 34 34 0 0 1-5.3-10.4 47.2 47.2 0 0 1-1.9-10.7c-.1-.9-.1-1.7-.1-2.6v-7.2l.2-9.1.8-35.4.2-8.6v-4.6l.3-4.2.3-4.2c.1-1.4.2-2.7.4-4.2l1-8.4a250.4 250.4 0 0 1 6.4-31.5 277 277 0 0 1 9.1-28l2.7-6.4c.9-2.1 1.7-4.2 2.7-6.2l2.8-5.9c.9-1.9 1.8-3.9 2.8-5.7l2.9-5.4 1.4-2.6 1.5-2.5 2.9-4.9c.9-1.6 1.8-3.2 2.8-4.7l5.6-8.7 5.4-7.7 2.6-3.5 2.5-3.2c1.6-2.1 3.1-4.1 4.6-5.8l4.1-4.9 3.5-4 6.6-7.1a2.2 2.2 0 0 1 3.4 2.8l-5.6 7.8c-3.6 5.1-8.8 12.6-14.9 22.5l-4.7 7.8-4.8 8.8c-.9 1.5-1.7 3.1-2.5 4.7l-2.5 4.9-1.3 2.5-1.2 2.6-2.5 5.4a290.9 290.9 0 0 0-17.7 50.6l-.9 3.6-.4 1.8-.4 1.8-1.5 7.4-.4 1.9-.3 1.9-.6 3.8-.6 3.9-.3 1.9-.2 1.9-.9 7.8c-.2 1.3-.2 2.7-.3 4.1l-.3 4.2-.3 4.2v12.5l-.5 35.4v15.8s0 1.4.1 2a33.7 33.7 0 0 0 1.4 7.5 20.3 20.3 0 0 0 3.2 6.2c2.7 3.6 6.9 5.8 12 6.9l1.8.3.9.2h1.2l2.2.2 3 .3a31.3 31.3 0 0 1 11.7 4.2 31.8 31.8 0 0 1 9 8.5 40.3 40.3 0 0 1 5.4 10.5c.3.9.6 1.8.8 2.8l.4 1.4.3 1.6v2.9l.2 2.7c.1.9.1 1.8.1 2.8s.1 1.8 0 2.8a52 52 0 0 1-.5 5.7 44.4 44.4 0 0 1-1.2 5.8l-1 2.9c-.3 1-.8 1.9-1.3 2.9a31.3 31.3 0 0 1-7.9 10.1 35.8 35.8 0 0 1-10.9 6l-2.8.9-3 .7-1.5.3-1.3.2-2.5.3h-5.7l-5 .2-10 .4-20.1.7-40.1 1.3-10 .3h-5.4l-5.6-.4a59.7 59.7 0 0 1-11-2.3l-2.7-.9-1.4-.5-1.2-.5-4.9-2.3a79.2 79.2 0 0 1-31.4-28.6 77.2 77.2 0 0 1-8.7-19.2l-.7-2.6-.3-1.3c-.1-.4-.2-.9-.3-1.3l-.5-2.3-.2-1.2v-1.4l-1.5-9.3-22-135.6-4.5-28.5-3.8-25.7-3.2-22.7c-1-7-1.8-13.4-2.5-19.3-1.5-11.6-2.5-20.8-3.2-27.1l-1-9.6a2.2 2.2 0 0 1 3.8-.6z"/><path fill="#31323d" d="M1783.2 2307.4h3.2a34.8 34.8 0 0 1 8 1.7 33.5 33.5 0 0 1 5.1 2.1 34.2 34.2 0 0 1 5.3 3.3 37.9 37.9 0 0 1 5 4.5c.7.9 1.5 1.7 2.2 2.7l1 1.4 1 1.5a46.8 46.8 0 0 1 3.3 6.1 56.5 56.5 0 0 1 2.4 6.2c.4 1 .6 2 .9 3s.5 2 .7 2.9l.6 2.8.4 2.6c.3 1.7.4 3.2.6 4.6s.3 2.5.3 3.5l.2 3.1a6.3 6.3 0 0 1-12.5.8 6.4 6.4 0 0 1 0-.7v-.3l.2-2.7c.1-.9.1-1.9.1-3.1s.1-2.6 0-4v-2.3l-.2-2.4c-.1-.8-.2-1.7-.3-2.5s-.2-1.8-.4-2.6a47.1 47.1 0 0 0-1.3-5.3 38.1 38.1 0 0 0-2.1-5.2l-.6-1.3-.7-1.2c-.4-.8-1-1.6-1.5-2.3a30.5 30.5 0 0 0-3.5-4.1 29.3 29.3 0 0 0-8-5.5 29.5 29.5 0 0 0-6.6-2.2l-1.9-.3h-.7a2.2 2.2 0 0 1-.2-4.8zm50.6-3.2h3.2a34.8 34.8 0 0 1 8 1.7 33.5 33.5 0 0 1 5.1 2.1 34.2 34.2 0 0 1 5.3 3.3 37.9 37.9 0 0 1 5 4.5c.7.9 1.5 1.7 2.2 2.7l1 1.4 1 1.5a46.8 46.8 0 0 1 3.3 6.1 56.6 56.6 0 0 1 2.4 6.2c.4 1 .6 2 .9 3s.5 2 .7 2.9l.6 2.8.4 2.6c.3 1.7.4 3.2.6 4.6s.3 2.5.3 3.5l.2 3.1a6.3 6.3 0 1 1-12.5.1v-.3l.2-2.7c.1-.9.1-1.9.1-3.1s.1-2.6 0-4v-2.3l-.2-2.4c-.1-.8-.2-1.7-.3-2.5s-.2-1.8-.4-2.6a47.1 47.1 0 0 0-1.3-5.3 38 38 0 0 0-2.1-5.2l-.6-1.3-.7-1.2c-.4-.8-1-1.6-1.5-2.3a30.5 30.5 0 0 0-3.5-4.1 29.3 29.3 0 0 0-8-5.5 29.5 29.5 0 0 0-6.6-2.2l-1.9-.3h-.7a2.2 2.2 0 0 1-.2-4.8z"/><path fill="none" stroke="#31323d" stroke-width="12.5" stroke-miterlimit="10" d="M931.3 2117.4c-38.1 9.1-130.4 43.4-184.5 78.3-26.5 17.1-10.1 55.9 23.2 55.3l280.4-5.5" stroke-linecap="round"/><path fill="#31323d" d="M840.5 2200.1l-.7.2-2 .6-3.1 1-4 1.5-4.5 2.1a49.4 49.4 0 0 0-4.7 2.8 36 36 0 0 0-4.4 3.5 26.3 26.3 0 0 0-3.7 4.2l-.8 1.1-.7 1.2a21.4 21.4 0 0 0-1.1 2.4c-.2.4-.3.8-.4 1.2a8.9 8.9 0 0 0-.3 1.2 18.1 18.1 0 0 0-.4 2.4v3.6c0 .4.1.8.1 1.2a15.6 15.6 0 0 0 .3 2.2c.2.7.3 1.4.5 2.1a36.6 36.6 0 0 0 1.2 3.6 29.8 29.8 0 0 0 1.2 2.8l1.2 2.4.2.3a6.3 6.3 0 0 1-11.3 5.5l-.3-.7-1.1-3.1c-.4-1-.7-2.2-1.1-3.7a48 48 0 0 1-1-4.9c-.1-.9-.2-1.9-.3-2.9a24.9 24.9 0 0 1-.1-3.2v-1.7l.2-1.7c.1-.6.1-1.2.2-1.7l.4-1.8a27.7 27.7 0 0 1 1-3.5 16.1 16.1 0 0 1 .7-1.7l.8-1.7a30.5 30.5 0 0 1 2-3.2l1.1-1.5 1.2-1.4a34.5 34.5 0 0 1 5.4-4.9 43.4 43.4 0 0 1 5.8-3.6 56.1 56.1 0 0 1 5.7-2.6l5.2-1.8 4.4-1.2 3.5-.7 2.3-.3h.8a2.2 2.2 0 0 1 .8 4.4h-.1zm-47.5 2h-.6l-1.7.5a38.1 38.1 0 0 0-5.9 2.5 32.6 32.6 0 0 0-3.6 2.2 29.2 29.2 0 0 0-3.5 2.9 23.5 23.5 0 0 0-2.9 3.7 18.7 18.7 0 0 0-2 4.2 21.2 21.2 0 0 0-.6 2.2c-.1.8-.3 1.5-.3 2.3a24.7 24.7 0 0 0 .1 4.6 34.5 34.5 0 0 0 .8 4.3c.4 1.4.7 2.7 1.2 3.9l.6 1.7.7 1.5.6 1.3.6 1.1 1.1 2.1v.2a6.3 6.3 0 0 1-11.2 5.6l-.3-.8-.9-2.7-.5-1.4-.5-1.7-.5-1.9c-.2-.7-.3-1.4-.5-2.2s-.6-3.3-.8-5.1a44.7 44.7 0 0 1-.2-5.9 34.2 34.2 0 0 1 .8-6.3c.2-1.1.6-2.1.9-3.2a29.7 29.7 0 0 1 1.3-3.1 26.9 26.9 0 0 1 3.6-5.6 31 31 0 0 1 4.5-4.3 35.8 35.8 0 0 1 4.8-3 38.6 38.6 0 0 1 4.6-2 43.3 43.3 0 0 1 7.1-2l2-.3h.8a2.2 2.2 0 0 1 .8 4.4h-.4z"/><path fill="none" stroke="#31323d" stroke-width="12.5" stroke-miterlimit="10" d="M2020.7 2120.2c47.5 13.8 136.8 46.1 179.8 75.5 26.1 17.8 10.1 55.9-23.2 55.3l-261.6-5.1" stroke-linecap="round"/><path fill="#31323d" d="M2107.6 2193.7h.8l2.3.4 3.5.8 4.5 1.4 5.2 2a58.4 58.4 0 0 1 5.6 2.8 45.8 45.8 0 0 1 5.7 3.8 36.7 36.7 0 0 1 5.3 5.1l1.2 1.5 1.1 1.6a31 31 0 0 1 1.9 3.3c.3.6.5 1.2.8 1.7s.5 1.2.7 1.8l.6 1.8.3.9.2.9a26.4 26.4 0 0 1 .6 3.5 25.1 25.1 0 0 1 .2 3.4 42.1 42.1 0 0 1-.4 6.2 50.3 50.3 0 0 1-1 5c-.4 1.5-.7 2.8-1.1 3.7l-1.1 3.2a6.3 6.3 0 0 1-11.8-4.1l.3-.7.2-.3 1.2-2.4c.4-.8.7-1.7 1.2-2.8s.8-2.3 1.2-3.7a31.5 31.5 0 0 0 .8-4.4 15.7 15.7 0 0 0 .1-2.4 16.7 16.7 0 0 0-.1-2.5v-1.2l-.2-1.3c-.1-.4-.2-.8-.4-1.3a12.8 12.8 0 0 0-.4-1.3 21.8 21.8 0 0 0-1.1-2.5l-.7-1.2-.8-1.2a28.5 28.5 0 0 0-3.7-4.4 38.4 38.4 0 0 0-4.4-3.8 51.5 51.5 0 0 0-4.7-3l-4.5-2.3a66.6 66.6 0 0 0-7.1-2.9l-2-.6-.7-.2h-.1a2.2 2.2 0 0 1 .8-4.3zm47.5 2h.8l2.1.4a44.7 44.7 0 0 1 7.1 2.4 40.4 40.4 0 0 1 4.5 2.3 38.2 38.2 0 0 1 4.7 3.3 33.1 33.1 0 0 1 4.4 4.5 30 30 0 0 1 4.8 8.8c.4 1.1.6 2.2.9 3.2s.4 2.2.6 3.3.3 2.2.2 3.2.1 2.1 0 3.1l-.2 2.9c-.3 1.8-.5 3.6-.8 5.2l-.5 2.3-.6 2-.5 1.8-.5 1.4-.9 2.7a6.3 6.3 0 0 1-11.8-4.1l.3-.7v-.3l1.1-2.2.6-1.2.6-1.4.7-1.6.6-1.7c.5-1.2.8-2.6 1.2-4l.4-2.2c.2-.7.2-1.5.3-2.3s.1-1.5.1-2.3-.1-1.6-.1-2.4-.2-1.6-.3-2.4a20.2 20.2 0 0 0-.6-2.3 20.6 20.6 0 0 0-2-4.4 25.7 25.7 0 0 0-2.9-3.9 31.5 31.5 0 0 0-3.5-3.2 34.4 34.4 0 0 0-3.6-2.4 39.4 39.4 0 0 0-5.9-2.9l-1.7-.6-.6-.2h-.1a2.2 2.2 0 0 1 1.1-4.1zM1290.8 864.6a52.1 52.1 0 0 0-2.3-5.3c-.9-1.8-1.8-3.5-2.9-5.2a80.7 80.7 0 0 0-6.9-9.6 79.4 79.4 0 0 0-17.5-15.6 81.2 81.2 0 0 0-21-9.8 90 90 0 0 0-11.3-2.7l-5.8-.8-5.8-.5h-.1a6.2 6.2 0 0 1-2-11.8l3.6-1.6 3.5-1.5 7.1-2.7q7.1-2.5 14.5-4.5a152.8 152.8 0 0 1 30.1-5 94.5 94.5 0 0 1 31.1 3 69.1 69.1 0 0 1 7.6 2.6 63.5 63.5 0 0 1 14.1 8 68.6 68.6 0 0 1 6.2 5.3l-10.4 2.9.5-2.4.5-2.5c.3-1.7.6-3.4.8-5.1.5-3.4.8-6.9 1.1-10.4a117.4 117.4 0 0 0-.4-20.6 78.3 78.3 0 0 0-4.6-19.6 52.4 52.4 0 0 0-10-16.5l-.2-.3a6.2 6.2 0 0 1 5.5-10.2l3.9.6 3.7.7 7.4 1.6q7.3 1.8 14.5 4.2a129.1 129.1 0 0 1 27.5 12.9c8.6 5.5 16.6 12.5 22.6 21.2a64.3 64.3 0 0 1 4 6.8 59.9 59.9 0 0 1 3.1 7.3 59.1 59.1 0 0 1 2.1 7.6 65.8 65.8 0 0 1 1 7.8l-8.6-1.4c1.3-3.2 2.7-6.2 4.1-9.2s2.9-6 4.5-8.9q4.6-8.8 9.9-17.4c3.5-5.7 7.3-11.2 11.3-16.6a166.5 166.5 0 0 1 13.1-15.5c2.3-2.5 4.8-4.8 7.4-7.1a99.5 99.5 0 0 1 8.1-6.5 87 87 0 0 1 8.9-5.6 67.5 67.5 0 0 1 9.7-4.4 60.2 60.2 0 0 1 10.5-2.7 53.1 53.1 0 0 1 11-.6 55.9 55.9 0 0 1 10.9 1.5 67.3 67.3 0 0 1 10.3 3.5 6.1 6.1 0 0 1 2.4 9.5v.2l-2 2.6-2 2.8-3.9 5.7q-3.8 5.7-7.1 11.7a128.7 128.7 0 0 0-10.7 24.8c-2.6 8.5-3.8 17.2-2.8 25.4a36.4 36.4 0 0 0 3.5 11.6 35.4 35.4 0 0 0 3.1 5.1 41.8 41.8 0 0 0 4 4.6l-8.3-.3 2.9-2.3 2.9-2.1 5.8-4.1q5.9-4 12.1-7.5a141.4 141.4 0 0 1 26.3-11.8 90 90 0 0 1 14.4-3.4 64.6 64.6 0 0 1 15.3-.5 49 49 0 0 1 15.3 3.9 46.2 46.2 0 0 1 7 3.8 51.8 51.8 0 0 1 6.2 4.9 6.2 6.2 0 0 1-1.7 10.2h-.4l-2.4 1-2.5 1.1-5 2.4q-5 2.5-9.7 5.5a116.9 116.9 0 0 0-17.8 13.2 68.7 68.7 0 0 0-13.8 16.9 42.5 42.5 0 0 0-5.7 20.7 2.5 2.5 0 0 1-5 .2 49.6 49.6 0 0 1-.1-6.1 48 48 0 0 1 2.3-12.1 52.5 52.5 0 0 1 2.2-5.7 76.4 76.4 0 0 1 13.8-20 126.5 126.5 0 0 1 18.1-15.9q4.8-3.5 10-6.7l5.2-3.1 2.7-1.5 2.8-1.4-1.8 10.3a39.4 39.4 0 0 0-4.6-3.6 33.7 33.7 0 0 0-5.1-2.8 36.5 36.5 0 0 0-11.4-2.9c-8-.7-16.5.7-24.7 3.4a129.1 129.1 0 0 0-24 10.8q-5.8 3.3-11.3 7l-5.5 3.8-2.7 2-2.5 2h-.1a6.2 6.2 0 0 1-8.3-.4 54.1 54.1 0 0 1-5.4-6.1 47.9 47.9 0 0 1-4.3-7 48.9 48.9 0 0 1-4.7-15.5 63.6 63.6 0 0 1 0-15.7 88.7 88.7 0 0 1 3.2-14.9 141 141 0 0 1 11.8-27.3q3.6-6.4 7.6-12.6l4.1-6.1 2.2-3 2.3-3 2.3 9.6a55.1 55.1 0 0 0-8.2-3 43.7 43.7 0 0 0-8.5-1.4 41.1 41.1 0 0 0-8.6.3 48.4 48.4 0 0 0-8.5 2 56 56 0 0 0-8.2 3.5 75.8 75.8 0 0 0-7.8 4.7 88.6 88.6 0 0 0-7.3 5.6c-2.4 2-4.7 4.1-6.9 6.3a156 156 0 0 0-12.6 14.2c-3.9 5-7.6 10.2-11.1 15.6s-6.8 10.9-9.9 16.5q-2.3 4.2-4.5 8.5c-1.4 2.8-2.9 5.8-4.1 8.6a4.5 4.5 0 0 1-8.6-1.4 56.8 56.8 0 0 0-1.1-6.6 49.8 49.8 0 0 0-1.9-6.4 50.4 50.4 0 0 0-2.8-6 54.6 54.6 0 0 0-3.6-5.6 67.5 67.5 0 0 0-20.2-17.7 118 118 0 0 0-25.5-11c-4.5-1.4-9-2.5-13.6-3.5l-6.9-1.3-3.4-.5-3.3-.4 5.3-10.4a64.9 64.9 0 0 1 12.5 20.5 90.7 90.7 0 0 1 5.4 22.7 129.8 129.8 0 0 1 .4 22.9q-.4 5.7-1.2 11.3-.4 2.8-.9 5.6l-.5 2.8c-.2 1-.4 1.8-.7 2.9a6.2 6.2 0 0 1-10.3 3h-.1a56.2 56.2 0 0 0-4.9-4.2 51 51 0 0 0-11.1-6.4 56.7 56.7 0 0 0-6.3-2.1 82.2 82.2 0 0 0-27-2.5 140.3 140.3 0 0 0-27.6 4.6q-6.8 1.8-13.5 4.2l-6.6 2.5-3.2 1.3-3.1 1.4-2.1-11.9 6.4 1 6.4 1.4a101.1 101.1 0 0 1 12.4 3.9 90.9 90.9 0 0 1 22.6 12.7 87.2 87.2 0 0 1 24.4 29.5q1.4 2.9 2.7 5.8a56.2 56.2 0 0 1 2.2 6.1 2.5 2.5 0 0 1-4.8 1.5z"/><path fill="#31323d" d="M1784.2 1453.3l5.7-5.2 2.9-2.6 2.8-2.6 5.6-5.2 5.5-5.3 2.8-2.6 2.8-2.7 5.5-5.4 5.4-5.4 5.4-5.4 5.3-5.5 5.3-5.5 5.3-5.6 5.2-5.6 5.2-5.7 5.1-5.7 5-5.7 4.9-5.7a6.3 6.3 0 0 1 8.1-1.3 58.8 58.8 0 0 0 14.9 6.7 75.6 75.6 0 0 0 16.5 2.8c11.3.7 22.9-.6 34.2-3.1a217.4 217.4 0 0 0 33.6-10.5q8.2-3.3 16.3-7.1l8-3.9 3.9-2 2-1 1-.5h.2l-.2.2-.3.2a3.7 3.7 0 0 0-1.2 2.4 3.4 3.4 0 0 0 .6 2.2 3.7 3.7 0 0 0 2.1 1.5h-5.6l-4.9-.3a179.9 179.9 0 0 1-18.6-2.7c-6.1-1.2-12.2-2.7-18.1-4.3s-11.9-3.4-17.7-5.4c-11.7-3.9-23.1-8.4-34.3-13.3q-8.4-3.7-16.7-7.6c-5.6-2.7-11-5.3-16.5-8.3a6.9 6.9 0 0 1 5-12.8h.1c13.3 3.5 26.9 6 40.3 6.3a91 91 0 0 0 19.6-1.6 51.3 51.3 0 0 0 17.3-6.6 32.7 32.7 0 0 0 6.7-5.6l.7-.8-.3.3-.3.7v.4a3.9 3.9 0 0 0 .4 3.2 4 4 0 0 0 2.8 1.8h-2l-5.8-.6-5.6-.9c-3.7-.7-7.4-1.7-11-2.8a136.4 136.4 0 0 1-39.8-20.1 185.9 185.9 0 0 1-32.2-30.1 252.5 252.5 0 0 1-25.2-35.7c-3.7-6.3-7.1-12.6-10.4-19.1-1.6-3.2-3.3-6.5-4.7-9.8l-2.2-4.9-1.1-2.5-1.1-2.4c-5.7-12.8-11.6-25.6-18-38s-13.1-25-19.8-37.4-13.6-24.7-20.7-36.9c-14.1-24.4-28.8-48.5-44.3-71.9q-11.7-17.6-24.1-34.5c-8.4-11.2-17.1-22.3-26.2-32.7a235.8 235.8 0 0 0-30-28.4q-8.1-6.4-16.7-12.1l-17.7-11.6.4.3-7.5-3.9-7.6-3.7-7.8-3.4-3.9-1.6-4-1.5-8-2.8-8.1-2.5-4.1-1.1-2-.6-.7-.2-.5-.2-1-.3-8.3-2.5a6.3 6.3 0 0 1 3.5-12l8.4 2.4 1.9.5 2.2.6 4.3 1.2 8.6 2.6 8.5 2.9 4.2 1.6 4.2 1.6 8.2 3.5 8.1 3.8 8 4.1.4.2h.1l17.9 11.5q9.1 6 17.7 12.7a249.2 249.2 0 0 1 31.8 29.8c9.6 10.8 18.5 22 27.1 33.4s16.8 23.1 24.7 35 15.6 23.8 23.1 36 14.7 24.4 21.9 36.7 14.1 24.7 20.9 37.2 13.5 25 20 37.7 12.6 25.7 18.4 38.8c2.9 6.5 5.7 12.7 8.9 18.9s6.4 12.3 9.9 18.2a238.3 238.3 0 0 0 23.8 33.6 171.7 171.7 0 0 0 29.7 27.8 136.2 136.2 0 0 0 17.2 10.6 116.6 116.6 0 0 0 18.5 7.6c3.2 1 6.4 1.8 9.6 2.4l4.8.8 4.7.5h3.3a10.1 10.1 0 0 1 4 1.6 10.3 10.3 0 0 1 3 3.1 10.5 10.5 0 0 1 1.5 4 10.4 10.4 0 0 1-.3 4.3l-.4 1-.6 1.3-.4.6h-1.1l-.4.5-1.1 1.2a46.7 46.7 0 0 1-9.6 8 65.2 65.2 0 0 1-22.1 8.5 104.9 104.9 0 0 1-22.7 1.8c-15-.4-29.5-3.1-43.5-6.8l5.1-12.8c5.1 2.7 10.5 5.4 15.9 8s10.8 5.1 16.3 7.4c10.9 4.8 22 9.2 33.2 13q8.4 2.9 16.9 5.3c5.7 1.6 11.4 3 17.1 4.2a166.6 166.6 0 0 0 17.2 2.6l4.2.3h6.4l1.7.2a9.7 9.7 0 0 1 5.8 4 9.9 9.9 0 0 1 1.7 6.5 9.6 9.6 0 0 1-3.2 6.3l-.7.6-.5.3-.3.2-.5.3h-.3l-1 .5-2.1 1.1-4.1 2.1-8.3 4q-8.4 3.9-17 7.3a230.3 230.3 0 0 1-35.6 10.9c-12.2 2.6-24.9 4.1-37.8 3.2a88.2 88.2 0 0 1-19.2-3.4 70.9 70.9 0 0 1-18-8.2l8.2-1.3-5.2 5.9-5.2 5.8c-3.5 3.8-7.1 7.6-10.7 11.3l-5.5 5.5-5.6 5.5-5.6 5.4-5.7 5.3c-3.8 3.5-7.7 6.9-11.6 10.3l-6 5-6 4.9-6.1 4.8-6.2 4.7-3.1 2.3-3.2 2.2-6.4 4.4a2.5 2.5 0 0 1-3.4-3.4zm-703.1 27.7l-6.9-3.8-6.8-3.9q-6.8-4-13.5-8.2a247.5 247.5 0 0 1-25.7-18.7 143.5 143.5 0 0 1-11.8-11 87 87 0 0 1-10.3-13 47.5 47.5 0 0 1-6.8-16.3c-.1-.8-.3-1.5-.4-2.3s-.1-.8-.1-1.2v-1.1l-.3-3.9-.6-7.8 9.5 5a57 57 0 0 1-7.3 3.7q-3.7 1.6-7.4 2.7c-2.5.8-4.9 1.4-7.4 2.1l-7.3 1.7c-4.9.9-9.8 1.7-14.8 2.3l-3.7.4h-2.2a9.3 9.3 0 0 1-2.7-.7 9.4 9.4 0 0 1-4.1-3.4 9.5 9.5 0 0 1-1.6-4.9 9.3 9.3 0 0 1 1.4-5.3 9.6 9.6 0 0 1 1.7-2l.5-.4h.2l.4-.3 1.4-1.1 5.1-4.4 5-4.8c3.3-3.3 6.5-6.8 9.6-10.3s6.2-7.2 9.2-10.9l4.4-5.6 4.2-5.6 7.8 9.3-6.1 2.8c-2 1-4.1 1.8-6.2 2.7l-3.1 1.3-3.2 1.2-3.2 1.2-3.2 1.1-6.4 2.1-6.5 1.8-6.6 1.6-6.6 1.4-3.3.6-3.4.5-6.8.8c-4.5.4-9.1.7-13.6.7h-6.9l-3.4-.2H908l-.7-.2-.6-.2a9.3 9.3 0 0 1-4.1-2.8 9.5 9.5 0 0 1-1.8-9.1 9.3 9.3 0 0 1 2.7-4.1 9.7 9.7 0 0 1 2-1.3l.7-.3.4-.2 1.5-.6 1.5-.6.8-.3.7-.3c3.6-1.7 7.3-3.7 10.9-5.7s7.1-4.4 10.6-6.8 6.8-4.9 10.1-7.6 6.5-5.4 9.7-8.3c6.3-5.7 12.3-11.7 18.1-18q4.3-4.7 8.4-9.6l4-4.9 3.8-5 9.5 8.1a95.4 95.4 0 0 1-43.8 25.4c-16.5 4.4-33.7 4.5-50.1 2.2q-6.2-.9-12.2-2.2l-6-1.4-3-.8-1.5-.4h-1.1a9.3 9.3 0 0 1-2.2-1.1 9.4 9.4 0 0 1 1.8-16.4l1.1-.4 1.4-.5 2.7-.9q5.5-1.9 10.9-4.1a254.8 254.8 0 0 0 78.4-50.1 244.7 244.7 0 0 0 30.8-35.1 251.2 251.2 0 0 0 23.7-40.3c1.6-3.5 3.2-7.1 4.7-10.7l2.2-5.4.5-1.4.3-.7.2-.5v-.2l.2-.3 1.2-2.7q4.7-10.8 8.7-21.9l1.9-5.6 2-5.7 4-11.4q4.1-11.3 8.3-22.6 8.5-22.5 18-44.7c6.3-14.8 12.9-29.5 20-43.9s14.7-28.8 23-42.7 17.4-27.5 28.2-40l4.1-4.6 4.2-4.5 8.3-8.6 1-1.1.3-.3h.1l.3-.3.5-.5 2.2-2.1 2.2-2.1 2.3-2.1 4.7-4.1 4.7-3.9a248.4 248.4 0 0 1 86.7-45.2 6.2 6.2 0 0 1 3.5 12 235.9 235.9 0 0 0-82.3 42.9l-4.5 3.7-4.4 3.8-2.2 1.9-2.2 2.1-2.2 2.1-.5.5-.3.3-1 1.1-8.3 8.6-4 4.2-3.8 4.3c-10 11.8-18.8 24.8-26.9 38.3s-15.5 27.5-22.5 41.7-13.5 28.7-19.8 43.3-12.1 29.4-17.8 44.3q-4.2 11.2-8.3 22.4l-4 11.3-1.9 5.6-2 5.7q-4.1 11.5-9 22.7l-1.2 2.8-.2.3v.2h.1l-.3.7-.6 1.4-2.3 5.7c-1.6 3.8-3.2 7.5-5 11.2a263.6 263.6 0 0 1-24.8 42.3 257.2 257.2 0 0 1-32.4 36.9 267.3 267.3 0 0 1-82.3 52.6q-5.7 2.3-11.5 4.3l-2.9 1-1.4.5a1 1 0 1 1 .3-.3 3.3 3.3 0 0 0 1-1.2 3 3 0 0 0 0-2.7 3.2 3.2 0 0 0-1.1-1.2l-.8-.4h.3l1.4.4 2.8.7 5.6 1.3q5.7 1.2 11.3 2.1c15.2 2.2 30.6 2 45.1-1.9a82.9 82.9 0 0 0 38.2-22.1 6.2 6.2 0 0 1 9.5 8.1l-4.2 5.4-4.2 5.2q-4.3 5.1-8.8 10.1c-6 6.6-12.3 12.9-19 18.9q-5 4.5-10.2 8.7c-3.5 2.8-7.1 5.5-10.8 8.1s-7.5 5-11.4 7.4-7.9 4.4-12.2 6.4l-.8.4-.8.3-1.5.6-1.5.6-.4.2.6-.4a3.2 3.2 0 0 0 1-1.4 3 3 0 0 0 .1-1.5 3.1 3.1 0 0 0-.7-1.4 3.3 3.3 0 0 0-1.4-1h1.7l3.1.2h6.2c4.2 0 8.3-.3 12.5-.7l6.2-.8 3.1-.5 3.1-.6 6.2-1.3 6.1-1.5 6.1-1.7 6-1.9 3-1 3-1.1 3-1.1 2.9-1.2c1.9-.8 3.9-1.6 5.8-2.5l5.8-2.7h.1a6.2 6.2 0 0 1 7.7 9.3l-4.5 6-4.6 5.8q-4.6 5.7-9.5 11.3c-3.3 3.7-6.6 7.3-10.2 10.9l-5.5 5.2c-1.9 1.7-3.8 3.3-5.9 5l-1.4 1.1-.4.3.6-.7a3.3 3.3 0 0 0 .5-1.8 3 3 0 0 0-.5-1.5 3.1 3.1 0 0 0-1.4-1.1l-.9-.2h-.4l3.5-.4c4.7-.6 9.3-1.3 13.9-2.2l6.8-1.5 6.6-1.8c2.2-.7 4.2-1.4 6.3-2.3a44.8 44.8 0 0 0 5.6-2.8h.1a6.2 6.2 0 0 1 8.6 2.2 6.3 6.3 0 0 1 .9 2.9v13.4s.1 1 .1 1.6a36.5 36.5 0 0 0 4.5 12.7 77 77 0 0 0 8.4 12 134.5 134.5 0 0 0 10.4 11 239.8 239.8 0 0 0 23.8 19.5q6.3 4.6 12.7 8.8l6.5 4.2 6.6 4.1a2.5 2.5 0 0 1-2.5 4.3z"/></g><g id="eye"><circle cx="1170.2" cy="1123.7" r="129.7" fill="#fff" data-name="&lt;Ellipse&gt;" transform="rotate(-2.9 1184.83 1136.87)"/><circle cx="1170.2" cy="1123.7" r="129.7" fill="none" stroke="#31323d" stroke-width="10" stroke-miterlimit="10" transform="rotate(-2.9 1184.83 1136.87)" stroke-linecap="round"/><circle cx="1162.1" cy="1083.6" r="75.6" fill="#43edac" transform="rotate(-1.3 1125.3 1048.59)"/><circle cx="1162.1" cy="1083.6" r="54.4" fill="#31323d" transform="rotate(-1.3 1125.3 1048.59)"/><circle cx="1204.1" cy="1072.2" r="18.4" fill="#fff" transform="rotate(-1.3 1165.12 1035.82)"/><path fill="#b1b1be" d="M1046.2 1085.5A129.8 129.8 0 0 1 1281 1056a522.5 522.5 0 0 0-234.8 29.5z"/><path fill="none" stroke="#31323d" stroke-width="10" stroke-miterlimit="10" d="M1046.2 1085.5A129.8 129.8 0 0 1 1281 1056a522.5 522.5 0 0 0-234.8 29.5z" stroke-linecap="round"/><circle cx="1694.9" cy="1100.9" r="129.7" fill="#fff" data-name="&lt;Ellipse&gt;" transform="rotate(-87.1 1694.04 1101.04)"/><circle cx="1694.9" cy="1100.9" r="129.7" fill="none" stroke="#31323d" stroke-width="10" stroke-miterlimit="10" transform="rotate(-87.1 1694.04 1101.04)" stroke-linecap="round"/><circle cx="1702.1" cy="1069.8" r="75.6" fill="#43edac" transform="rotate(-88.7 1703.08 1069.62)"/><circle cx="1702.1" cy="1069.8" r="54.4" fill="#31323d" transform="rotate(-88.7 1703.08 1069.62)"/><circle cx="1745.3" cy="1065.3" r="18.5" fill="#fff" transform="rotate(-88.7 1746.33 1065.08)"/><path fill="#b1b1be" d="M1818.9 1062.7a129.8 129.8 0 0 0-234.8-29.5 522.5 522.5 0 0 1 234.8 29.5z"/><path fill="none" stroke="#31323d" stroke-width="10" stroke-miterlimit="10" d="M1818.9 1062.7a129.8 129.8 0 0 0-234.8-29.5 522.5 522.5 0 0 1 234.8 29.5z" stroke-linecap="round"/></g><g id="mouth"><path d="M1376.1,1398.1s3.7,72.6,64.6,70.2c58.9-2.3,65.5-70.3,65.5-70.3s-21.2,30.3-59.3,30.7S1376.1,1398.1,1376.1,1398.1Z" fill="#595959" opacity=".2" style="mix-blend-mode:multiply"/><path d="M1441.1,1206.7l0.7,4.9c0.2,1.5.5,3.5,0.8,5.6l1.2,7.1,1.5,8.4c0.6,3,1.2,6.1,1.9,9.3l1.1,4.9,0.6,2.5,0.6,2.5,1.3,5.1,1.4,5.1c0.5,1.7,1,3.4,1.5,5.1s1,3.4,1.6,5l1.7,4.9,1.8,4.7c0.6,1.6,1.2,3,1.8,4.5s1.2,2.9,1.8,4.3l1.8,4,1.8,3.7c1.1,2.4,2.4,4.5,3.4,6.4l2.8,4.8,2.6,4.1h0a1.5,1.5,0,0,1-2.4,1.7l-3.1-3.9-3.4-4.6c-1.2-1.8-2.7-3.9-4.1-6.2l-2.3-3.6-2.3-3.9c-0.8-1.3-1.5-2.8-2.3-4.2s-1.6-2.9-2.3-4.4l-2.3-4.7-2.2-4.8c-0.8-1.6-1.5-3.3-2.2-4.9s-1.5-3.3-2.1-5l-2-5.1-1.9-5.1-0.9-2.5-0.9-2.5-1.7-4.9c-1-3.2-2.1-6.4-3-9.4l-2.5-8.5-2-7.2c-0.6-2.2-1-4-1.4-5.5l-1.2-4.8a7.5,7.5,0,1,1,14.6-3.7Z" fill="#31323d"/><path d="M1395,1323.2l0.9-1.2,2.5-3.5,1.6-2.5c0.6-.9,1.3-1.9,1.9-3l2-3.5c0.7-1.2,1.3-2.6,2-4l1.1-2.1,1-2.3c0.7-1.5,1.4-3.1,2.1-4.8l2-5.1c0.6-1.8,1.2-3.6,1.9-5.4s1.2-3.8,1.7-5.7,1.2-3.9,1.6-5.9l1.5-6,1.3-6.1c0.5-2,.8-4.1,1.2-6.1s0.7-4.1,1.1-6.1l0.9-6,0.4-3,0.3-2.9c0.4-3.9.9-7.6,1.2-11.2s0.6-7,.8-10.1l0.5-8.5,0.2-6.6,0.2-5.7v-0.2a7.5,7.5,0,0,1,15,.5c0,0.2,0,.4-0.1.7l-0.7,5.9-0.8,6.7-1.3,8.7c-0.4,3.2-1.1,6.6-1.7,10.3s-1.4,7.5-2.2,11.4l-0.6,3-0.7,3-1.4,6.1c-0.5,2.1-1.1,4.1-1.6,6.2s-1.1,4.2-1.8,6.2l-1.9,6.2-2.1,6.1c-0.7,2-1.5,4-2.2,5.9s-1.5,3.9-2.3,5.7l-2.4,5.5-2.5,5.1c-0.8,1.7-1.8,3.2-2.6,4.8l-1.2,2.3-1.3,2.1c-0.9,1.4-1.6,2.7-2.5,3.9l-2.4,3.4c-0.7,1.1-1.5,2.1-2.2,3l-1.9,2.5-2.8,3.2-1,1.1A1.5,1.5,0,0,1,1395,1323.2Z" fill="#31323d"/><path d="M1368.2,1174.4a15,15,0,0,1,3.6-15.9c9-8.8,28.2-21.6,63.8-21.8s52.5,12.2,60.5,21a14.9,14.9,0,0,1,2.5,16.1h0a20.8,20.8,0,0,1-18.3,12.3c-10,.3-23.9,3.3-32.7,15.8a13.2,13.2,0,0,1-1.9,2.2l-0.3.3a17.7,17.7,0,0,1-25.3-1.5h0s-7.3-12.5-34.1-14.6a20.7,20.7,0,0,1-17.7-13.5v-0.3Z" fill="#31323d"/><path d="M1509.9,1395l-0.5,1.8c-0.2.6-.3,1.3-0.6,2.1l-1.1,3-1.6,3.6c-0.7,1.3-1.3,2.7-2.2,4a56.1,56.1,0,0,1-6.6,9,63,63,0,0,1-9.9,8.9l-3,2-3.2,1.9c-2.2,1.2-4.4,2.4-6.8,3.4s-4.8,1.9-7.4,2.7l-3.9,1.1-3.9.9a77.5,77.5,0,0,1-16.3,1.3,81.8,81.8,0,0,1-16.2-2,83.6,83.6,0,0,1-14.9-4.9l-0.9-.4-0.4-.2h-0.5l-1.6-.8-3.3-1.7c-2.2-1.2-4.2-2.4-6.1-3.7a76.6,76.6,0,0,1-10.2-8.1,75.2,75.2,0,0,1-7.4-8,71.1,71.1,0,0,1-4.7-6.9c-0.6-1-1.1-1.9-1.5-2.7l-1-2-0.8-1.7a2.5,2.5,0,0,1,4.1-2.8h0.1l1.2,1.3,3.4,3.6c1.5,1.5,3.4,3.2,5.6,5.1s4.8,3.8,7.7,5.8a91.1,91.1,0,0,0,9.8,5.7l2.7,1.3,2.8,1.2,3,1.2,1.6,0.6,1.4,0.5a85.9,85.9,0,0,0,12.8,3.3,81.6,81.6,0,0,0,13.5,1.3,80.6,80.6,0,0,0,13.5-1l3.3-.6,3.2-.7c2.1-.5,4.2-1.1,6.2-1.8s3.9-1.4,5.8-2.3l2.7-1.3,2.6-1.4a65.7,65.7,0,0,0,9.2-6.1,60.7,60.7,0,0,0,7-6.4,72.2,72.2,0,0,0,4.8-5.6l1.6-2.2c0.5-.6.9-1.3,1.2-1.8l1-1.5A2.5,2.5,0,0,1,1509.9,1395Z" fill="#31323d"/><path d="M1486.7,1248.7l4.1,0.2,11.6,0.7c10,0.7,24.2,2,41.1,4.6a545.1,545.1,0,0,1,57.2,11.7c10.3,2.7,20.9,5.8,31.6,9.4s21.3,7.6,31.7,12.1,20.7,9.5,30.5,14.9a301.1,301.1,0,0,1,27.9,17.4,260,260,0,0,1,24,19.2,220.6,220.6,0,0,1,19.2,19.7,202.8,202.8,0,0,1,14.1,18.4l2.7,4.2,2.5,4,2.2,3.7,1.9,3.4c1.2,2.1,2.2,4.1,3.1,5.8s1.6,3.2,2.2,4.4l1.7,3.7-1.8-3.6c-0.6-1.2-1.3-2.6-2.3-4.3s-2-3.6-3.2-5.7l-2-3.4-2.3-3.6-2.6-3.9-2.8-4.1a201.6,201.6,0,0,0-14.5-17.9,218.6,218.6,0,0,0-19.6-19,257.2,257.2,0,0,0-24.2-18.3,297.5,297.5,0,0,0-28-16.4c-9.8-5.1-20.1-9.7-30.5-13.9s-21.1-7.8-31.6-11.1-21.1-6-31.4-8.4a537.4,537.4,0,0,0-56.7-9.9c-16.7-2-30.7-3-40.5-3.4l-11.3-.4h-4.1a5,5,0,1,1,.1-10h0.1Z" fill="#31323D"/><path d="M1654.6,1234.4l-1.5-1.1-4.3-2.9-6.8-4.2c-2.7-1.6-5.7-3.2-9.2-4.9l-5.4-2.5-2.9-1.3-3-1.2-3.1-1.2-3.2-1.1-3.3-1.1-3.4-1c-2.3-.7-4.6-1.2-7-1.8s-4.8-1-7.2-1.5-4.9-.7-7.4-1.1-5-.5-7.5-0.7-5-.2-7.5-0.3h-7.5l-3.7.2-3.6.3c-2.4.3-4.8,0.5-7,.9-4.6.7-9,1.7-13.2,2.7s-8,2.2-11.5,3.5l-5,1.8-4.4,1.8-7.1,3.3-4.4,2.3-1.5.9h-0.1a5,5,0,1,1-4.8-8.8h0.3l1.7-.8,4.9-2.2,7.7-3,4.8-1.7,5.4-1.6c3.8-1.1,7.9-2,12.4-2.9s9.1-1.6,14-1.9c2.4-.3,4.9-0.3,7.4-0.5h11.4l3.9,0.3c2.6,0.2,5.2.3,7.7,0.8s5.2,0.6,7.7,1.2,5.1,0.9,7.5,1.6,4.9,1.2,7.3,2,4.7,1.4,7,2.3l3.4,1.2,3.3,1.3,3.2,1.3,3,1.4,3,1.4,2.8,1.4,5.3,2.9c3.3,1.9,6.3,3.8,8.9,5.5s4.8,3.3,6.6,4.7l4.1,3.2Z" fill="#31323D"/><path d="M1494.6,1274.5l7.8,0.7,4.3,0.7,5.1,0.9c3.5,0.9,7.5,1.7,11.7,3.1l3.2,1,3.3,1.3,3.4,1.3,3.4,1.5,3.5,1.6c1.2,0.5,2.3,1.2,3.5,1.8l3.5,1.9,3.5,2.1,3.5,2.2,3.4,2.4,3.4,2.5,3.4,2.6,1.7,1.3,1.6,1.4,3.3,2.8c2.2,1.9,4.2,3.9,6.3,5.9,4.1,4.1,8.1,8.2,11.7,12.5s7.1,8.6,10.3,12.9,6.1,8.6,8.8,12.7,5,8.1,7.2,11.8,4,7.2,5.5,10.2,2.9,5.8,4,8.1c2.1,4.5,3.1,7.2,3.1,7.2s-1.2-2.6-3.5-7c-1.2-2.2-2.6-4.8-4.4-7.8s-3.8-6.3-6.1-9.9-4.9-7.4-7.8-11.3-6-8-9.3-12.1-7-8.2-10.8-12.1-7.9-7.8-12.1-11.6l-6.5-5.3-3.3-2.5-1.7-1.2-1.7-1.2-3.4-2.3-3.4-2.2-3.4-2.1-3.4-1.9-3.4-1.8-3.4-1.6c-1.1-.5-2.2-1.1-3.4-1.5l-3.3-1.3-3.3-1.3-3.2-1.1-3.1-1-3-.8c-3.9-1.1-7.7-1.7-10.9-2.3l-4.5-.5-3.8-.4-7.8-.3a5,5,0,0,1,.4-10h0.3Z" fill="#31323D"/><path d="M1378.3,1255.9h-15.8c-10,0-24.3,0-41.3.6-8.5.3-17.8,0.7-27.5,1.4s-20,1.6-30.6,2.8-21.5,2.8-32.5,4.8-22.1,4.4-33.1,7.3a334.8,334.8,0,0,0-32.3,10.3c-5.2,1.9-10.4,4.1-15.4,6.3s-9.9,4.6-14.6,7.1a200.5,200.5,0,0,0-47.2,33.9,165.1,165.1,0,0,0-15.5,17.4c-1.1,1.3-2,2.7-3,4l-2.7,3.8-2.4,3.6-2.1,3.4c-1.3,2.1-2.4,4.1-3.4,5.8l-1.3,2.4-1,2-1.9,3.7,1.8-3.7,1-2,1.2-2.4c0.9-1.7,1.9-3.7,3.2-5.9l2-3.4,2.3-3.7c0.8-1.3,1.7-2.6,2.6-3.9s1.8-2.8,2.9-4.1a166.3,166.3,0,0,1,15.1-18,202.9,202.9,0,0,1,46.8-35.6c4.7-2.7,9.6-5.2,14.6-7.6s10.1-4.7,15.4-6.8a339.3,339.3,0,0,1,32.4-11.3c11-3.3,22.2-6,33.3-8.4s22.1-4.2,32.8-5.8,21-2.7,30.9-3.7,19.2-1.6,27.8-2.1c17.2-1,31.6-1.4,41.6-1.7l15.7-.4h0a5,5,0,0,1,.3,10h-0.1Z" fill="#31323D"/><path d="M1203.3,1240.3l1.5-1.2,4.3-3.4,3.2-2.3,1.8-1.3,2-1.3c2.7-1.9,5.9-3.8,9.5-5.8l5.6-3,6.1-3c4.3-1.9,8.9-3.8,13.7-5.4l3.7-1.2,3.8-1.1,3.8-1.1,3.9-.9,4-.9,4-.7,4.1-.6,4.1-.5,2.1-.2h2.1l4-.2h8.2l8.1,0.3,7.9,0.7c2.6,0.4,5.1.6,7.6,1.1l3.7,0.6,3.5,0.8c4.7,1,9,2.2,13,3.4s7.6,2.6,10.7,3.8l4.4,1.8,3.7,1.7,5.1,2.5,1.8,0.9a5,5,0,1,1-4.6,8.9h-0.3l-1.6-1-4.6-2.6-3.4-1.8-4-2c-2.9-1.4-6.2-2.8-9.9-4.2s-7.7-2.8-12.1-4l-3.3-.9-3.4-.8c-2.3-.6-4.7-1-7.1-1.5l-7.5-1.1-7.7-.7-3.9-.2h-11.9l-4,.2-4,.4-3.9.4-3.9.6-3.9.6-3.8.8-3.7.8-3.7,1c-4.8,1.3-9.4,2.9-13.7,4.5l-6.2,2.6-5.7,2.7c-3.6,1.8-6.9,3.5-9.7,5.2l-2.1,1.2-1.9,1.2-3.3,2.1-4.5,3.1Z" fill="#31323D"/><path d="M1370.4,1281.7l-7.8-.3-3.8.2h-3.3l-1.2.2-5.2.7-5.7,1.2-1.5.3-1.5.4-3.1.9c-2.2.5-4.3,1.4-6.5,2.2s-4.4,1.9-6.7,2.9l-1.7.8-1.7.9-3.4,1.8-3.4,2-3.4,2.1-6.7,4.6a163.1,163.1,0,0,0-13,10.6l-3.1,2.9-3,3c-2,1.9-3.9,4-5.9,6l-5.5,6.2c-1.7,2.1-3.5,4.1-5.2,6.2l-2.5,3.1-2.4,3.1c-1.6,2-3,4.1-4.4,6.1l-4.1,5.9-3.6,5.6c-2.3,3.6-4.3,7-6.1,10s-3.2,5.7-4.4,7.9c-2.4,4.4-3.6,7-3.6,7s1.1-2.7,3.2-7.2c1.1-2.3,2.4-5,4-8.1s3.4-6.6,5.6-10.3l3.4-5.8,3.8-6.1c1.3-2.1,2.7-4.2,4.1-6.4l2.2-3.3,2.3-3.3c1.5-2.2,3.2-4.4,4.9-6.6l5.3-6.6c1.9-2.1,3.7-4.4,5.6-6.5l2.9-3.2,3-3.1a168.4,168.4,0,0,1,12.8-11.7l6.8-5.2,3.5-2.4c1.2-.8,2.3-1.6,3.5-2.3l3.5-2.1,1.7-1,1.8-.9c2.4-1.2,4.6-2.5,7-3.5s4.6-2.1,6.9-2.8l3.4-1.2,1.6-.6,1.6-.4,6.2-1.6,5.7-1,1.3-.2h1.3l2.5-.2,4.5-.4h7.9a5,5,0,0,1,.1,10h-0.3Z" fill="#31323D"/></g></svg>