<svg xmlns="http://www.w3.org/2000/svg" viewBox="0 0 3000 3000" xmlns:xlink="http://www.w3.org/1999/xlink"><g id="tailFur"><clipPath id="tailFurClipPath"><path fill="none" d="M2518.1 1775.9c67.6-29 132.5 39.9 146.6 73.7 48 115.1-49.4 194.9-49.4 194.9-36.6 34.8-88.5 67.7-157.3 88.8-175.3 53.8-339.2-38.4-422.2-99l-34.7-24.9-36.1 140.1 220.6 76.5a852.5 852.5 0 0 0 229 11.7c98.1-8.4 186.9-29.1 266-104.6 93.6-89.2 148.9-239.5 82.8-373.6-44.5-90.3-152-191.5-273.6-171.9-89 14.4-190.9 94.4-182.7 186.5 5.8 64 64.6 132.1 133.1 133.9 48.3 1.2 112.1-30.2 112.1-73.4-.1-34.5-40.8-73.1-100.9-79.4"/></clipPath><g clip-path="url(#tailFurClipPath)"><path fill="#ecd1eb" d="M1904 1577.4h939v668.54h-939z"/><path d="M2480.2 1901.6c8.3 7.9 20.4 11 31.8 10.1s22.3-5.4 32.3-11 17.4-11 23.3-19.2 9.1-18.9 6.5-28.7-9.4-16.3-16.4-22.7c-29.9-27.5-60.7-29.4-98.3-15.9-18 6.5-12 19.2-4.2 32.7 9.9 16.9 10.3 40.7 25 54.7zM2420.7 1696.8c-2.3 8.7-2.3 18.9 4 25.4s14.7 6.8 22.9 7.3l56.5 3.6a59.5 59.5 0 0 0 9.9.1 30.4 30.4 0 0 0 24.3-17.9 37.1 37.1 0 0 0 2.6-16.9 49.8 49.8 0 0 0-26.7-40.5c-35.1-17.7-83.2.5-93.5 38.9zM2474.3 1587c.5 4.3 1.3 8.7 4 12.1s8.1 5.6 11.9 8.6 7.1 8.4 11.9 11.1c6.4 3.6 14.9 1.8 20.8-2.6s9.9-11 13.4-17.5 5.7-11 6.8-17 .2-12.7-3.6-17.5c-2.3-2.9-5.5-5-8.7-6.8-10.4-5.9-36.3-18.6-48.7-13.9s-9.1 32-7.8 43.5zM2575.8 1621.4c-2.3 6.7-.5 13.7 5.3 16.5s13.7-.3 16.2-6.2-.3-13.6-6.1-16.6-12.5-1.4-15.1 5.6M2634.5 1626.5c-12 5.1-20.8 16-25.7 28.1s-6.2 25.3-6.5 38.3c-.4 16.4 1.7 34.9 14.4 45.3 8.4 6.8 19.8 8.6 30.6 8.5 8.7-.1 18.4-1.7 23.3-8.9s3.5-14.5 6-21.6c3.8-10.8 14.5-17.4 24.2-23.5s19.9-14.1 21.6-25.4c5-33.3-65.2-50.3-87.9-40.8zM2619.6 1812.1a30.4 30.4 0 0 0-3.8 33.9 16.4 16.4 0 0 0 5.8 6.5c6.8 3.9 15.4.1 23.1 1.4 9.3 1.6 16.4 10.7 25.9 11.2 6.4.3 12.4-3.6 16.2-8.7s5.9-11.3 7.9-17.4c1.4-4.5 2.9-9 3-13.7a26.2 26.2 0 0 0-14.8-24c-11.1-5.1-20.2 1.2-31 2.1-12.6 1.2-22.4-2.4-32.3 8.7zM2313.2 2210.8a36.4 36.4 0 0 0-28.5 29.4 19.7 19.7 0 0 0 .8 10.4c3.5 8.7 14.6 11.4 20.9 18.3s7.7 22.2 16.3 29.6c5.8 5 14.4 5.7 21.8 3.6s13.9-6.4 20.2-10.7c4.6-3.2 9.3-6.4 12.9-10.8a31.4 31.4 0 0 0 3.5-33.6c-6.7-13-20-13.7-30.9-20.7-12.8-8.2-19.5-18.8-37-15.5zM2734.2 1868.9c-8.6 3.4-16 9.5-22.5 16.2-8.7 8.9-16.3 19.4-19.1 31.5s-.2 26.1 9 34.4c6.1 5.5 14.1 8 22 10.1 17.3 4.6 35.4 7.9 53 4.6 37.9-7.2 51.5-43.1 37-76.9-11.6-27.4-55.3-29.5-79.4-19.9zM2823.6 2033.5c-6.7-12.4-13.9-25.3-25.3-33.6-16.7-12.1-41.6-11.4-57.6 1.6-6.7 5.4-11.7 12.5-16.1 19.8-8.6 14.3-15 30.4-15.1 47a29.5 29.5 0 0 0 1.8 11.4c2.3 5.6 7.1 9.8 11.2 14.3 8.2 9.2 13.8 20.7 22.8 29.1s23.9 12.9 33.5 5.2c3-2.4 5.2-5.7 7.2-9a186.1 186.1 0 0 0 19-43M2528.2 2241.5c9.6 5.2 22.3 2.5 29.9-5.3 17.4-17.9 3.1-64.9-25.8-52.8-20.2 8.5-23.7 47.5-4.1 58.1zM2510.9 2062.6a19.6 19.6 0 0 0 25.6 27.8 30.9 30.9 0 0 0 7.9-6.2c3.6-3.7 6.9-7.9 8-12.9a17.7 17.7 0 0 0-6.9-17.9c-10.8-7.7-28.1-1.4-34.6 9.2zM2370.9 1842.2c-1.5 6.7 1.1 14 5.9 18.8s11.6 7.5 18.5 8.2c4.9.5 10.2 0 14.3-2.8 8.2-5.6 8.3-18.8 1.8-26.3-9.3-10.9-36.2-16.6-40.5 2.1zM2381.5 1644.8c-.1 2.2-.1 4.6.9 6.6s4.2 4.1 7.1 4.8c11.5 2.8 24.5-5.7 26.4-17.4s-8.8-26.6-21.5-24.9-12.4 20.6-12.9 30.9zM2286.5 1720.5c-5.6 13.3-5.5 28.3-3.2 42.6 1.4 8.7 4.4 18.4 12.5 21.8 5 2.1 10.6 1.3 16 .8a122.6 122.6 0 0 1 30.7 1c8.5 1.3 17.1 3.6 25.6 2.2a30.2 30.2 0 0 0 21.4-44.5c-2.3-4.2-5.7-7.9-7.6-12.3-3.5-8-2-17.4-5.4-25.4s-9-11.4-15.5-14.8c-25.8-13.6-63.4 2-74.5 28.6zM2174.3 2099.1a29.8 29.8 0 0 0 6.9 32.8c7.2 6.6 17.4 9.4 24 16.7s8.6 19.7 14.6 28.6c10.3 15.3 34.9 18 48.2 5.3s13.4-31.6 13.2-49c-.1-10.4-.4-21.5-6.6-29.8-10.2-13.7-36.5-20.5-52.5-24.2-17.6-4.2-40.1 1.7-47.8 19.6zM2317.3 2013.5a29.8 29.8 0 0 0-17.1 28.8c.8 9.7 6.4 18.7 6.3 28.5s-7 20.3-8.6 30.9c-2.8 18.2 13.5 36.9 31.9 36.6s31.2-14.2 42.9-27.1c7-7.7 14.3-16.1 15.3-26.4 1.8-17-12.9-39.8-22.2-53.4s-30.7-25.8-48.5-17.9z" fill="#4a4855"/><path d="M2212.1 2286.6c-3.9 8.5-10.6 15.5-15.4 23.6s-7.4 18.6-2.8 26.8 12.2 10.4 20.2 11.1c16.3 1.5 31.9-6.4 45.8-15 11.2-6.9 22.1-14.7 29.8-25.4s11.7-24.7 7.7-37.2c-5.9-18.7-33.1-33.5-52.2-34.1-26-.7-25.3 33.4-33.1 50.2zM2094.4 2209.9c.2 9.2 2.4 18.9 9.3 25.1s19.7 7.4 30.4 7.4h8.1c10.5-.1 21.4-.2 31.1-4.5s17.8-13.7 17.2-24.2-7.8-17-15.6-22.2-16.7-8.8-23.9-14.8c-2.8-2.3-5.2-5-8.3-7-22.7-14.7-48.7 20.8-48.3 40.2zM2052.2 2305.1c3 4.8 6.9 8.9 9.6 13.9s4.6 11.9 7 17.8 6.1 11.7 11.9 14.4c7.8 3.6 17.3.3 24-5.1 11.1-8.9 17.2-23.9 14.9-37.9-3.7-22.8-22.5-30.1-42.7-32.2-17.8-1.9-38.2 8-24.7 29.1zM1961.3 2180.1c15.2.3 30.5 3.2 45.6 1.3a72.4 72.4 0 0 0 47.2-26.6c8-10.1 13.3-23.9 8.7-36-6.3-16.8-26.9-22.1-41.1-33.1-12.7-9.8-20.8-24.9-34.5-33.2s-27.9-8.5-41.6-4.2-25.5 13.5-34.4 24.8c-6.5 8.3-11.7 18.1-12.1 28.6-.3 7.4 1.8 14.6 3.8 21.7 4.7 16.4 7.1 43.3 16.9 57.3 7.8 10.9 29-.9 41.5-.6zM1982 2286.4c4.4 8.3 8.3 17.1 9.1 26.5s-2.2 19.5-9.5 25.4c-10.5 8.7-25.9 6.4-39.3 9.2-10.3 2.1-20 7.5-30.5 7.9-14 .5-27.5-8.6-33.6-21.1-13-26.6 9-67.7 33.3-81.9 28.3-16.4 57.9 10.5 70.5 34zM2594.6 2102.2c-10.1 7.6-18.5 20.1-15.4 32.4 3.6 14.2 20.3 21 26.8 34.2 3.7 7.4 3.9 16.6 9.4 22.8 8.4 9.4 23.7 6.7 35.2 1.7 13.9-6 27-14.3 36.3-26.2s14.3-27.6 11.1-42.4c-9-41.9-75.3-43.6-103.4-22.5zM2296.6 2055.4a27.2 27.2 0 0 0 6.4-8.9c2.8-6.5 2.1-14.1-5.8-21.3-39.8-36.6-46.4 73.8-.6 30.2zM2645.7 1980.1c-3.2 6.8-2 15.7 3.7 20.5a21.7 21.7 0 0 0 9.3 4.3c2.7.6 18.2 4.7 27.9-4.3a18.3 18.3 0 0 0 5.2-8.3 18.6 18.6 0 0 0-2.2-14.9c-7.8-11.7-37.5-10.7-43.9 2.7zM2718.6 1765.5c-5.1 10.8-3.1 25 5.9 32.7 4.2 3.5 9.4 5.6 14.8 6.8a61.2 61.2 0 0 0 44.5-6.9c2.3-1.4 4.7-3 6-5.4s1.4-4.8 1.6-7.4c.5-8.2.6-16.7-2.7-24.2-12.5-28.3-58.4-20.1-70.1 4.4zM2562.4 1744.3a18.6 18.6 0 0 0-13.8 6.9 30.6 30.6 0 0 0-5.9 11.6c-1.8 7.2.3 15.7 6.5 19.8a21.7 21.7 0 0 0 10.6 3.2c11.1.8 22.9-3.4 29.3-12.4l.8-1.2c7.9-12.7-2.3-29-17.2-28.4zM2406.3 2192.2a17.8 17.8 0 0 0 8.2 12.2 29.2 29.2 0 0 0 11.7 4.2c7 .8 14.8-2.2 18-8.5a20.7 20.7 0 0 0 1.7-10.5c-.6-10.6-6-21.2-15.3-26.2l-1.2-.6c-13-5.9-27.2 5.7-24.7 19.7zM2609.8 1906a11.2 11.2 0 0 0-8.3 4.2 18.4 18.4 0 0 0-3.6 7c-1.1 4.3.2 9.4 3.9 11.9a13.1 13.1 0 0 0 6.4 1.9c6.7.5 13.8-2 17.6-7.5l.5-.7c4.7-7.6-1.4-17.5-10.4-17.1zM2420.6 1987.3c1.5 5.7 0 11.6-.2 17.5-.3 15 9.8 29.6 23.9 34.6 19.8 7 41-4.1 58.3-16 8.1-5.6 16.3-11.7 21.4-20.1s6.5-19.9.9-28c-10.2-14.8-32.5-28.1-47.4-38.1-11.4-7.7-25.3-15.2-39.4-15.9-12.4-.6-22.1 4.7-26.9 16.4-8.1 20 3.5 32.1 9.4 49.6zM2279.7 1944.1a23.1 23.1 0 0 0 14 10.4c10.8 3 23.6-1.8 28.7-11.7s.6-24.1-9.9-28.1c-3.6-1.4-7.6-1.7-11.5-1.8s-8.2-.2-12 1c-11.4 3.3-14.7 20.7-9.3 30.2zM2338.3 2188.6a27.4 27.4 0 0 0 10.8 3.8c9.4.9 18.1-5.9 22.9-14.1s6.8-17.6 9.9-26.6 7.9-18.7 9.8-28.6.6-21.2-6.5-28.3c-5.4-5.4-13.5-7.7-21.1-7.3s-15.1 2.9-22.1 6.1c-42.2 18.8-45.2 71.6-3.7 95zM2654.5 2070a21.9 21.9 0 0 0 15.3-11.2 19.4 19.4 0 0 0-.7-18.8 11.5 11.5 0 0 0-5.6-4.9c-8.4-3-24.6 7.2-26.9 15.5-3 11 7.1 21.4 17.9 19.4zM2056.5 2027c7.2-4.6 12-12.1 16.6-19.4 5.6-9 11.4-18.3 14-28.6s2.1-18.4 1.3-27.7c-.4-4.7-1-9.6-3.6-13.5-4.6-6.9-13.9-8.7-22.2-9.8a7.9 7.9 0 0 0-8.4 2.5l-40.8 38c-9.9 9.2-26.7 20-26.7 35.2-.1 29.1 50.9 35.4 69.8 23.3zM2461.3 2111c-10.6 18.6-8.3 43.7 5.5 60.1 3.9 4.6 9.1 8.7 15.1 8.9s12.2-4.5 16.8-9.2a182.9 182.9 0 0 0 18.8-22c8.2-11.3 15.4-25.2 11.9-38.7-2.5-9.6-10.4-17.4-19.7-20.8-19.5-7.1-38.7 4.5-48.4 21.7zM2084.7 2109a49.2 49.2 0 0 0 35.9 11c3.6-.3 7.2-1.1 10.3-3s6.1-6.5 8.1-10.5c4.2-8 7.9-17.3 4.7-25.7a25.2 25.2 0 0 0-5-7.6c-13.7-15.1-37.3-19.8-56-12-22 9.3-13.2 34.9 2 47.8z" fill="#4a4855"/><path d="M2638.9 2193.3c11.7-7.5 28.6-5.4 38.1 4.8 5.1 5.5 8.1 12.9 13.8 17.7 2.4 2 5.1 3.5 7.3 5.7s3.7 5.4 2.9 8.3-2.9 4.2-5 5.7c-15.4 11.3-31.1 22.9-49.2 28.9-4.5 1.5-10.4 2.2-13.2-1.6s-.8-8 .8-11.8" fill="#4a4855"/><defs><linearGradient id="tailShadowGradient" x1="2364.15" y1="2291.47" x2="2364.15" y2="2013.47" gradientUnits="userSpaceOnUse"><stop offset="0" stop-color="gray"/><stop offset=".27" stop-color="#7d7d7d"/><stop offset=".46" stop-color="#747474"/><stop offset=".64" stop-color="#646464"/><stop offset=".8" stop-color="#4d4d4d"/><stop offset=".95" stop-color="#303030"/><stop offset="1" stop-color="#242424"/></linearGradient><linearGradient id="tailShadowGradient2" x1="2579.15" y1="1935.2" x2="2579.15" y2="1441.6" gradientUnits="userSpaceOnUse"><stop offset="0" stop-color="#fff" stop-opacity="0"/><stop offset=".72" stop-color="#fff"/></linearGradient><linearGradient id="tailShadowGradient3" x1="2583.8" y1="2124.84" x2="2583.8" y2="1726.66" href="#tailShadowGradient" xlink:href="#tailShadowGradient"/></defs><g clip-path="url(#tailShadowClipPath)" style="mix-blend-mode:overlay"><path d="M2307.1 1774.1s77.1-188.9 277.1-114.6 203.7 275.7 203.7 275.7l134.3-263.7-234-212.5-344-17.4-108 123.9z" opacity=".35" fill="url(#tailShadowGradient2)" style="mix-blend-mode:overlay"/></g><g clip-path="url(#tailShadowClipPath)" style="mix-blend-mode:multiply"><path d="M2135.9 2084.1c107 52 71.6 104 199.2 113.8 208.3 32.6 329.5-41.9 390.8-121l100.2-44.4-96 259-828-9.1 54-268.9s122.5 42.7 179.8 70.6z" opacity=".25" fill="url(#tailShadowGradient)" style="mix-blend-mode:multiply"/><path d="M2519.6 1734.3c8.4-2.3 109.1-43.4 164.5 92.2 57.5 140.6-26.3 224.4-201.1 298.4l96.1-317.4s-20.1-11.2-61-31.6-52.7-18.9-52.7-18.9 20.5-10.4 54.2-22.7z" opacity=".25" fill="url(#tailShadowGradient3)" style="mix-blend-mode:multiply"/></g></g></g><g id="tail"><path d="M2515.9 1770l5.8-2.2 1.6-.5 1.6-.5 3.3-1 3.3-.8 3.2-.7 3.3-.6 3.3-.5a92.5 92.5 0 0 1 26.4.8 110 110 0 0 1 25 7.6 138.2 138.2 0 0 1 22.6 12.5 169 169 0 0 1 20 16 181.2 181.2 0 0 1 17.5 18.7 139.6 139.6 0 0 1 14.5 21.4l1.5 3 1.4 3.1.3.8v.9l.6 1.4 1.1 2.9 2.2 5.8 2 6.2 1 3.1c.3 1 .7 2.1.9 3.1l1.5 6.2.8 3.1.6 3.2 1.1 6.3c.4 2.1.5 4.2.8 6.4l.4 3.2.2 1.6v1.6l.3 6.4v6.4a154.3 154.3 0 0 1-2.3 25.6l-1.2 6.3c-.5 2.1-1 4.2-1.5 6.2s-.5 2.1-.8 3.1l-.9 3.1-.9 3.1-.5 1.5-.5 1.5-2.1 6-2.4 5.9c-.8 2-1.7 3.9-2.6 5.8l-1.3 2.9-1.4 2.9a193.8 193.8 0 0 1-12.9 22 213.5 213.5 0 0 1-15.5 20.2c-2.8 3.2-5.6 6.3-8.6 9.4l-4.6 4.5-2.4 2.2-2.6 2.2.3-.3a366.6 366.6 0 0 1-68.8 51 404.9 404.9 0 0 1-38.1 19.4q-19.5 8.7-39.8 15.6l-10.2 3.3-2.5.8h-.8l-.6.2-1.3.4-5.1 1.4-10.2 2.8-10.5 2.5-5.3 1.2-5.3 1-10.5 2-10.6 1.5-5.3.7-5.3.6-10.7 1-10.7.6c-7.1.5-14.3.4-21.4.5l-10.7-.3-5.4-.2-5.3-.3-10.7-.7-10.6-1.1-5.3-.6-5.3-.7-10.6-1.5c-7-1.3-14.1-2.4-21-4-14-2.8-27.7-6.5-41.4-10.6l-10.2-3.2-10.1-3.4c-3.4-1.1-6.7-2.4-10-3.6s-6.7-2.4-10-3.8l-9.9-4-9.8-4.2-9.7-4.4-9.7-4.5c-12.8-6.1-25.4-12.7-37.8-19.6s-24.5-14.3-36.5-21.9-23.6-15.7-35-24l-34.2-24.6 9.7-3.5-35.8 140.3-4-7.5 220.6 76.5-.9-.2a866.3 866.3 0 0 0 126.3 14q31.8 1.1 63.6-.1c21.2-.8 42.3-2.5 63.4-4.9a628.3 628.3 0 0 0 62.5-10 412.3 412.3 0 0 0 60.4-18 344.9 344.9 0 0 0 56.3-27.9 331.7 331.7 0 0 0 50.1-37.9l5.8-5.3.7-.7.4-.3.3-.3 1.4-1.4 2.8-2.8c3.9-3.7 7.4-7.5 11-11.3l1.3-1.4 1.3-1.5 2.6-2.9c1.7-2 3.5-3.9 5.2-5.9 3.3-4.1 6.8-8 9.9-12.2l4.8-6.2 4.6-6.4 2.3-3.2 2.2-3.3 4.4-6.5c5.6-8.9 11.1-17.8 16-27.1 2.5-4.6 4.8-9.3 7.1-14 1.2-2.3 2.2-4.8 3.3-7.1s2.2-4.8 3.2-7.2l3-7.3 1.5-3.6 1.4-3.7 2.7-7.4 2.4-7.5c1.7-5 3-10 4.5-15.1.4-1.3.7-2.5 1-3.8l.9-3.8c.6-2.5 1.3-5.1 1.8-7.6l1.6-7.7c.2-1.3.6-2.6.7-3.9l.6-3.9 1.2-7.7.9-7.8a282.3 282.3 0 0 0 .3-62.5l-.4-3.9c-.1-1.3-.4-2.6-.5-3.9l-1.1-7.7-.3-1.9-.4-1.9-.8-3.8c-.5-2.6-.9-5.1-1.5-7.7l-1.9-7.6-.9-3.8-1.1-3.8-2.2-7.5c-.3-1.3-.8-2.5-1.2-3.7l-1.3-3.7c-13.7-39.4-36.7-75.5-64.5-106.9-7-7.8-14.4-15.3-22-22.5s-15.7-13.9-23.9-20.4-16.9-12.3-25.8-17.8l-6.7-4-3.4-2-3.5-1.8c-2.3-1.2-4.6-2.5-6.9-3.6l-7-3.4-3.6-1.6-3.6-1.5-3.6-1.5-3.6-1.4-7.3-2.7-7.4-2.4c-2.5-.8-5-1.4-7.5-2.1s-5-1.4-7.5-1.9l-7.6-1.6-7.7-1.2a183.9 183.9 0 0 0-30.9-1.9h-3.9l-3.9.3-7.7.6-7.7 1-1.9.3h-.8l-1 .2-3.9.7-3.9.7-3.7.9-3.7.8-3.8 1c-2.5.7-5 1.3-7.5 2.1s-5 1.5-7.4 2.4a238.4 238.4 0 0 0-28.8 12 265.3 265.3 0 0 0-27.2 15.4l-6.5 4.3-6.4 4.5-6.2 4.8c-2.1 1.6-4 3.3-6 5a224.5 224.5 0 0 0-22.3 21.7 177.5 177.5 0 0 0-18.6 24.7c-10.9 17.4-18.4 36.9-20.4 57.1-.2 2.5-.6 5-.5 7.6v7.6l.2 3.8v3.7l.5 4c.2 1.3.4 2.5.6 3.7s1 4.9 1.5 7.4.6 2.5.9 3.7.6 2.5 1 3.7 1.5 4.9 2.4 7.3l1.3 3.6 1.5 3.6a154.6 154.6 0 0 0 14.6 27 157 157 0 0 0 19.6 23.7c3.6 3.7 7.4 7 11.4 10.3a147.3 147.3 0 0 0 12.4 9 140.1 140.1 0 0 0 13.2 7.6 124 124 0 0 0 14 5.9 116.7 116.7 0 0 0 14.5 4 105 105 0 0 0 14.9 1.9h11.3l3.8-.3a138.1 138.1 0 0 0 15.1-2.2 144.7 144.7 0 0 0 14.8-3.8 136.8 136.8 0 0 0 14.4-5.3 118.7 118.7 0 0 0 26.2-15.3c7.9-6.1 14.7-13.6 19-22.1a42.5 42.5 0 0 0 4.2-13.3v-7.1a7.8 7.8 0 0 0-.1-.9v-.8c-.1-.6-.1-1.1-.2-1.7s-.3-2.3-.6-3.5a55 55 0 0 0-5.1-13.6 71.7 71.7 0 0 0-8.3-12.4 102 102 0 0 0-22.9-20.1 132.7 132.7 0 0 0-27.8-13.7q-7.4-2.6-15-4.5c-5.1-1.2-10.2-2.2-15.4-3a2.5 2.5 0 0 1 .6-5c21.6 1.5 43.2 7.6 62.3 18.9a106.8 106.8 0 0 1 25.9 21 81.9 81.9 0 0 1 10 13.8 65.5 65.5 0 0 1 6.5 16.1c.4 1.4.6 2.9.9 4.3s.4 3.2.6 4.6v8.8a52.1 52.1 0 0 1-4.9 17.2 68.6 68.6 0 0 1-9.6 14.7 89.8 89.8 0 0 1-12.3 11.9 128.7 128.7 0 0 1-28.7 17.4 154.4 154.4 0 0 1-31.7 10.3 151.2 151.2 0 0 1-16.6 2.5l-4.2.3-4.3.2h-8.4a118.3 118.3 0 0 1-16.8-2.1 124 124 0 0 1-16.3-4.6 137.3 137.3 0 0 1-15.5-6.6 147.7 147.7 0 0 1-14.5-8.4 160.3 160.3 0 0 1-13.4-9.9c-4.2-3.6-8.4-7.3-12.3-11.3a171.7 171.7 0 0 1-21-25.7 167.3 167.3 0 0 1-15.7-29.3l-1.6-3.9-1.4-3.9c-1-2.6-1.7-5.3-2.6-7.9s-.7-2.7-1.1-4-.7-2.7-1-4.1-1.2-5.4-1.6-8.3-.5-2.9-.7-4.2l-.5-4v-4.5l-.2-4.2v-8.4c0-2.8.3-5.6.6-8.4a135 135 0 0 1 7.6-32.6 161.5 161.5 0 0 1 14.7-29.9 190 190 0 0 1 19.9-26.4 236.9 236.9 0 0 1 23.6-22.9c2.1-1.7 4.2-3.5 6.3-5.2l6.5-5 6.7-4.8 6.8-4.6a277.8 277.8 0 0 1 28.5-16.2 250.9 250.9 0 0 1 30.3-12.6c2.6-1 5.2-1.7 7.8-2.5s5.3-1.5 7.9-2.3l4-1.1 4.1-.9 4.1-.9 4-.7 3.9-.7 1-.2h1.2l2-.3 8.2-1.1 8.2-.6 4.1-.3h4.1a196.3 196.3 0 0 1 32.9 2l8.2 1.3 8.1 1.7c2.7.5 5.3 1.3 8 2s5.3 1.3 7.9 2.2l7.8 2.5 7.7 2.8 3.8 1.5 3.8 1.6 3.8 1.6 3.7 1.7 7.4 3.5c2.5 1.2 4.8 2.5 7.3 3.8l3.6 1.9 3.5 2.1 7.1 4.1c9.3 5.7 18.2 12 26.9 18.6s16.9 13.7 24.8 21.2 15.5 15.2 22.7 23.3 14.1 16.5 20.6 25.2 12.6 17.7 18.3 27c2.8 4.7 5.6 9.3 8.2 14.2l2 3.6 1.8 3.6 1.8 3.6.5.9.3.5.2.5.9 1.9 3.4 7.4c.6 1.2 1.2 2.5 1.7 3.7l1.5 3.8 3.1 7.6c1 2.5 1.8 5.1 2.7 7.7l1.4 3.9c.5 1.3.9 2.6 1.3 3.9l2.3 7.8 1.2 3.9 1 4 1.9 8c.6 2.7 1.1 5.4 1.6 8l.8 4 .4 2 .3 2 1.2 8.1c.2 1.4.4 2.7.6 4.1l.4 4.1a294.8 294.8 0 0 1-.3 65.3l-1 8.1-1.3 8.1-.6 4c-.2 1.3-.5 2.7-.8 4l-1.6 8c-.5 2.7-1.3 5.3-1.9 7.9l-1 4c-.3 1.3-.6 2.6-1 3.9-1.5 5.2-2.9 10.5-4.6 15.6l-2.5 7.7-2.8 7.7-1.4 3.8-1.5 3.8-3.1 7.5c-1.1 2.5-2.2 5-3.3 7.4s-2.2 5-3.4 7.4c-2.4 4.9-4.7 9.8-7.4 14.5-5 9.6-10.7 18.9-16.5 28.1l-4.5 6.8-2.3 3.4-2.4 3.3-4.8 6.6-5 6.5c-3.3 4.3-6.8 8.5-10.2 12.7-1.7 2.1-3.6 4.1-5.4 6.1l-2.7 3-1.4 1.5-1.4 1.5c-3.8 4-7.5 8-11.3 11.7l-2.8 2.8-1.4 1.4-.4.4-.4.3-.8.7-6 5.5a344.1 344.1 0 0 1-51.9 39.3 357.4 357.4 0 0 1-58.3 28.9 424.8 424.8 0 0 1-62.2 18.6 640.4 640.4 0 0 1-63.9 10.3c-21.3 2.4-42.8 4.1-64.3 5s-43 .9-64.5.1a878.7 878.7 0 0 1-128.1-14.2h-.5l-.4-.2-220.6-76.5-5.4-1.9 1.4-5.6 36.2-140.2 2.3-8.8 7.4 5.3 34.2 24.6c11.3 8.3 22.8 16.1 34.5 23.7s23.7 14.7 35.8 21.5 24.5 13.3 37 19.3l9.5 4.4 9.5 4.3 9.6 4.1 9.7 3.9c3.2 1.3 6.5 2.5 9.7 3.7s6.5 2.5 9.8 3.5l9.9 3.4 9.9 3.1c13.3 4 26.7 7.6 40.3 10.4 6.8 1.5 13.6 2.6 20.4 3.9l10.3 1.5 5.1.7 5.2.5 10.3 1.1 10.4.7 5.2.3 5.2.2 10.4.3c6.9-.1 13.8 0 20.7-.5l10.4-.6 10.3-1 5.2-.5 5.1-.7 10.3-1.5 10.2-1.9 5.1-.9 5-1.2 10-2.3 10.1-2.8 5.1-1.4 1.3-.4.6-.2h.5l2.5-.8 9.9-3.2q19.7-6.7 38.7-15.2a392.4 392.4 0 0 0 37-18.8 354.1 354.1 0 0 0 65.7-49.9h.1l.2-.2 2.1-1.8 2.2-2 4.2-4.2c2.8-2.8 5.5-5.8 8.1-8.8a201 201 0 0 0 14.5-19 181.3 181.3 0 0 0 12.1-20.6l1.3-2.7 1.2-2.7c.8-1.8 1.7-3.6 2.4-5.5l2.2-5.5 2-5.6.5-1.4.4-1.4.9-2.8.9-2.8c.3-.9.5-1.9.7-2.9s1-3.8 1.4-5.8l1.1-5.8a141.8 141.8 0 0 0 2.1-23.6v-6l-.3-5.9v-1.5l-.2-1.5-.3-2.9c-.2-2-.4-3.9-.7-5.9l-1-5.8-.5-2.9-.7-2.9-1.4-5.8c-.2-1-.5-1.9-.8-2.8l-.9-2.8-1.7-5.6-2.2-5.8-1.1-2.9-.6-1.4v-.7l-.3-.6-1.2-2.6-1.3-2.5a127.3 127.3 0 0 0-13.2-19.4 164.1 164.1 0 0 0-34.8-32.2c-13-8.8-27.6-15.5-42.7-18.1a79.9 79.9 0 0 0-22.8-.7l-2.8.4-2.8.5-2.8.6-2.7.7-2.6.8-1.3.4-1.4.5-5.8 2.2a6.3 6.3 0 0 1-4.8-11.8z" fill="#31323d"/></g><g id="bodyFur"><clipPath id="furClipPath"><path d="M2200.5 2195.7c-43-29.4-132.4-61.7-179.8-75.5l-.8-.3a248.1 248.1 0 0 0 6.4-155.8l-187.6-610.4c17.6-34.9 61-110.9 113.2-125.9 0 0-88.7-56.5-124.3 14.3 0 0 21.7-65.9 51.6-64.7 0 0-53.7-13.5-94 1.8l-54.1-175.2a240.5 240.5 0 0 0-47.2-89.2l73.3-118.6c-16.9-8.5-120.8 34.6-150.3 57.8-9.4-4.7-43.8-16.3-53.8-19.8 23.8-76.5-17.6-127.4-17.6-127.4 5.8 45.5-30.4 65.4-30.4 65.4 38-87.2-138.7-174-138.7-174s16.3 57-35.1 100.5c-58.7 49.6-34.7 93-34.7 93s-33.8-9.4-31.4-41.6c-18.5 33.1-6.9 64.4 8.4 86.2-14.1 5.8-52.2 23.4-64.8 31.7l-2.7-5.1c-44.5-36.6-124.6-49.2-135.6-33.6l64.5 115.2a240.3 240.3 0 0 0-33 93.8l-31.8 167c-43.6-11.2-94.8 18.3-94.8 18.3 28.5-9 66.7 48.8 66.7 48.8-53-59-123.7 18.9-123.7 18.9 54.3.8 98.7 67.6 116.7 99l-115.9 609.3a248.9 248.9 0 0 0 12.6 117.5l-.6.3c-38.1 9.1-130.4 43.4-184.5 78.3-26.5 17.1-10.1 55.9 23.2 55.3l266.9-5.2q6.8 4.1 13.8 7.9l.2 3.4c.4 23.3-6.7 42.4-29.9 43.6-15.6.8-28.2 9.9-30.6 21.1-4.7 21.5 5.8 38.9 27.2 40.4l84.3 5c26.4 1.6 51.9-11.3 65.3-34.1a71.4 71.4 0 0 0 8.8-23.9l5-26.6h533.6l3.5 20.7a71.6 71.6 0 0 0 43.1 54.3 53.5 53.5 0 0 0 22.3 4l91.8-3c22-2.2 30.1-15.7 27.9-36.9-.7-6.9-6.2-24.5-24.5-25.5-15.8-.9-25.2-8.6-28.1-21.9a246.8 246.8 0 0 0 65.4-28.1l261.5 5.1c33.2.3 49.2-37.8 23.1-55.6z" fill="none"/></clipPath><g clip-path="url(#furClipPath)"><path fill="#ecd1eb" d="M725.2 550.5H2234.6000000000004V2374.59H725.2z"/><path d="M1156.9,2405.5l71.1-358.8c16.2-81.8,100.1-177.6,222.2-177.6h2.1c93.9,0,203.7,76.8,219.2,162.3l63.8,352.3Z" fill="#dad6e1"/><path d="M1677.7 1913.8c8.3 7.9 20.4 11 31.8 10.1s22.3-5.4 32.3-11 17.4-11 23.3-19.2 9.1-18.9 6.5-28.7-9.4-16.3-16.4-22.7c-29.9-27.5-60.7-29.4-98.3-15.9-18 6.5-12 19.2-4.2 32.7C1662.6 1876 1663 1899.8 1677.7 1913.8zM1635.3 1697c-2.3 8.7-2.3 18.9 4 25.4s14.7 6.8 22.9 7.3l56.5 3.6a59.5 59.5 0 0 0 9.9.1 30.4 30.4 0 0 0 24.3-17.9 37.1 37.1 0 0 0 2.6-16.9 49.8 49.8 0 0 0-26.7-40.5C1693.7 1640.3 1645.6 1658.6 1635.3 1697zM1754.8 1633.4c.4 3.4 1.1 6.9 3.2 9.6s6.4 4.4 9.5 6.8 5.7 6.7 9.4 8.8 11.8 1.4 16.5-2.1 7.8-8.7 10.6-13.9 4.5-8.7 5.4-13.5.2-10.1-2.8-13.9a23 23 0 0 0-6.9-5.4c-8.2-4.7-28.8-14.8-38.6-11S1753.7 1624.2 1754.8 1633.4zM1900.2 1565.5c-8.5-5.3-19.7-8.7-28.4-3.7s-11.3 17.3-10.8 27.7c.2 4.1.9 8.6 4.2 11.2 6.6 5.3 16.9-2.3 24.7 1 2.2.9 3.9 2.6 5.9 3.8 4.8 3.1 11.3 3.6 16.3.8s7.7-9.3 5.7-14.7M1859 1638.7c-12 5.1-20.8 16-25.7 28.1s-6.2 25.3-6.5 38.3c-.4 16.4 1.7 34.9 14.4 45.3 8.4 6.8 19.8 8.6 30.6 8.5 8.7-.1 18.4-1.7 23.3-8.9s3.5-14.5 6-21.6c3.8-10.8 14.5-17.4 24.2-23.5s19.9-14.1 21.6-25.4C1952 1646.2 1881.7 1629.2 1859 1638.7zM1399.9 1748.9a36.4 36.4 0 0 0-28.5 29.4 19.7 19.7 0 0 0 .8 10.4c3.5 8.7 14.6 11.4 20.9 18.3s7.7 22.2 16.3 29.6c5.8 5 14.4 5.7 21.8 3.6s13.9-6.4 20.2-10.7c4.6-3.2 9.3-6.4 12.9-10.8a31.4 31.4 0 0 0 3.5-33.6c-6.7-13-20-13.7-30.9-20.7C1424.1 1756.3 1417.4 1745.7 1399.9 1748.9zM1948.7 1876.1c-8.6 3.4-16 9.5-22.5 16.2-8.7 8.9-16.3 19.4-19.1 31.5s-.2 26.1 9 34.4c6.1 5.5 14.1 8 22 10.1 17.3 4.6 35.4 7.9 53 4.6 37.9-7.2 51.5-43.1 37-76.9C2016.6 1868.6 1972.8 1866.5 1948.7 1876.1zM2039.7 2061.7c-6.7-12.4-13.9-25.3-25.3-33.6-16.7-12.1-41.6-11.4-57.6 1.6-6.7 5.4-11.7 12.5-16.1 19.8-8.6 14.3-15 30.4-15.1 47a29.5 29.5 0 0 0 1.8 11.4c2.3 5.6 7.1 9.8 11.2 14.3 8.2 9.2 13.8 20.7 22.8 29.1s23.9 12.9 33.5 5.2c3-2.4 5.2-5.7 7.2-9a186.1 186.1 0 0 0 19-43M1742.7 2248.7c9.6 5.2 22.3 2.5 29.9-5.3 17.4-17.9 3.1-64.9-25.8-52.8C1726.7 2199.1 1723.1 2238.1 1742.7 2248.7zM1881.4 2086.2c-2.4-11.1-8.1-21.7-16.9-28.8s-21.1-10.2-32-6.9-19.6 13.5-20 24.8c-.2 5.2 1.4 10.5 1 15.7-.7 10.6-8.6 19.2-12.4 29.1-7.7 19.9 4.6 45.1 25.1 51.3 5.7 1.7 12 2.1 17.5-.2s9.9-7.7 9.8-13.7M1725.5 2069.8a19.6 19.6 0 0 0 25.6 27.8 30.9 30.9 0 0 0 7.9-6.2c3.6-3.7 6.9-7.9 8-12.9a17.7 17.7 0 0 0-6.9-17.9C1749.3 2052.9 1731.9 2059.2 1725.5 2069.8zM1501 1727.7c-5.6 13.3-5.5 28.3-3.2 42.6 1.4 8.7 4.4 18.4 12.5 21.8 5 2.1 10.6 1.3 16 .8a122.6 122.6 0 0 1 30.7 1c8.5 1.3 17.1 3.6 25.6 2.2a30.2 30.2 0 0 0 21.4-44.5c-2.3-4.2-5.7-7.9-7.6-12.3-3.5-8-2-17.4-5.4-25.4s-9-11.4-15.5-14.8C1549.7 1685.5 1512.1 1701.1 1501 1727.7zM1197.5 1644a29.8 29.8 0 0 0 11.1 31.7c7.9 5.7 18.4 7.1 25.9 13.5s11 18.4 18.1 26.5c12.1 13.8 36.9 13.4 48.5-.8s9.3-33 6.9-50.3c-1.4-10.3-3.2-21.3-10.4-28.8-11.9-12.3-38.8-15.7-55.1-17.4C1224.5 1616.6 1202.9 1625.3 1197.5 1644zM1471.9 915.8a29.8 29.8 0 0 0-17.1 28.8c.8 9.7 6.4 18.7 6.3 28.5s-7 20.3-8.6 30.9c-2.8 18.2 13.5 36.9 31.9 36.6s31.2-14.2 42.9-27.1c7-7.7 14.3-16.1 15.3-26.4 1.8-17-12.9-39.8-22.2-53.4S1489.6 907.9 1471.9 915.8zM1248 1824c-4.6 8.2-11.8 14.6-17.2 22.3s-8.9 17.9-4.9 26.5 11.3 11.3 19.2 12.7c16.1 2.8 32.3-3.8 46.9-11.3 11.7-6 23.2-12.9 31.7-22.9s13.6-23.7 10.7-36.5c-4.4-19.1-30.3-36-49.3-38.2C1259.2 1773.7 1257.1 1807.8 1248 1824zM1120.7 1747.8c.2 9.2 2.4 18.9 9.3 25.1s19.7 7.4 30.4 7.4h8.1c10.5-.1 21.4-.2 31.1-4.5s17.8-13.7 17.2-24.2-7.8-17-15.6-22.2-16.7-8.8-23.9-14.8c-2.8-2.3-5.2-5-8.3-7C1146.3 1693 1120.3 1728.5 1120.7 1747.8zM1788.8 1946.1c-6.4-6.5-14.8-12.1-24-11.8-10.7.3-19.4 8.2-27.1 15.6l-5.9 5.6c-7.6 7.3-15.4 14.9-19.5 24.6s-3.5 22.2 4.2 29.4 17.4 7 26.6 5.4 18.2-5.1 27.5-5.7c3.6-.2 7.3 0 10.8-.6C1808 2003.5 1802.4 1959.9 1788.8 1946.1zM1100.5 1848.1c3 4.8 6.9 8.9 9.6 13.9s4.6 11.9 7 17.8 6.1 11.7 11.9 14.4c7.8 3.6 17.3.3 24-5.1 11.1-8.9 17.2-23.9 14.9-37.9-3.7-22.8-22.5-30.1-42.7-32.2C1107.4 1817 1087 1827 1100.5 1848.1zM997.6 1718c15.2.3 30.5 3.2 45.6 1.3a72.4 72.4 0 0 0 47.2-26.6c8-10.1 13.3-23.9 8.7-36-6.3-16.8-26.9-22.1-41.1-33.1-12.7-9.8-20.8-24.9-34.5-33.2s-27.9-8.5-41.6-4.2-25.5 13.5-34.4 24.8c-6.5 8.3-11.7 18.1-12.1 28.6-.3 7.4 1.8 14.6 3.8 21.7 4.7 16.4 7.1 43.3 16.9 57.3C963.9 1729.6 985.1 1717.8 997.6 1718zM1018.3 1824.4c4.4 8.3 8.3 17.1 9.1 26.5s-2.2 19.5-9.5 25.4c-10.5 8.7-25.9 6.4-39.3 9.2-10.3 2.1-20 7.5-30.5 7.9-14 .5-27.5-8.6-33.6-21.1-13-26.6 9-67.7 33.3-81.9C976.1 1774 1005.7 1800.9 1018.3 1824.4zM1008 1969.8c-3 12.3-1.6 27.3 8.6 34.8 11.8 8.7 29.1 3.4 42.4 9.4 7.5 3.4 13.6 10.4 21.7 11.7 12.4 2 22.6-9.8 28.3-21 6.9-13.4 11.8-28.2 11.4-43.3s-6.4-30.5-18.3-39.8C1068.6 1894.9 1016.3 1935.6 1008 1969.8zM1202.6 2160.3c-7-10.9-14.1-22-24.1-30.4s-23.3-13.6-36-10.9-23.4 15.3-21.3 28.1c1.2 7.2 6 13.3 9 20 9.2 20.5 1.6 46.8 14.5 65.3a34.8 34.8 0 0 0 27.6 14.6c9 .1 19.5-5.6 19-14.6M1099.7 2256.7c8.9-3.1 11.5-15.2 7.8-23.9-6.8-16-28.9-17.7-36.6-1.1S1084.7 2262 1099.7 2256.7zM914 2054.1c11.3-7.1 26.4-6.1 38 .5s19.9 17.8 25.4 30c2.6 5.9 4.7 12 8.4 17.3 5.1 7.3 12.9 12.2 18.6 19 8.6 10.3 11.9 23.9 14 37.1 1.8 11.4 2.9 23.5-1.6 34.1s-16.3 19-27.4 15.8c-8.5-2.4-13.9-10.4-18.7-17.9l-15.7-24.6M966.3 1976.4a27.2 27.2 0 0 0 2.8-10.6c.3-7.1-3.1-14-12.9-17.9C906 1927.7 938.8 2033.4 966.3 1976.4zM1831 1952.6c-3.2 6.8-2 15.7 3.7 20.5a21.7 21.7 0 0 0 9.3 4.3 38.4 38.4 0 0 0 27.9-4.3 9.7 9.7 0 0 0 3.8-3.4 10.8 10.8 0 0 0 1-4.6c.3-5.1.4-10.5-1.7-15.2C1867.2 1932.1 1838.4 1937.2 1831 1952.6zM1933.1 1772.7c-5.1 10.8-3.1 25 5.9 32.7 4.2 3.5 9.4 5.6 14.8 6.8a61.2 61.2 0 0 0 44.5-6.9c2.3-1.4 4.7-3 6-5.4s1.4-4.8 1.6-7.4c.5-8.2.6-16.7-2.7-24.2C1990.7 1740 1944.8 1748.1 1933.1 1772.7zM1776.9 1761.5a18.6 18.6 0 0 0-13.8 6.9 30.6 30.6 0 0 0-5.9 11.6c-1.8 7.2.3 15.7 6.5 19.8a21.7 21.7 0 0 0 10.6 3.2c11.1.8 22.9-3.4 29.3-12.4l.8-1.2c7.9-12.7-2.3-29-17.2-28.4zM1380.1 965.9a28.5 28.5 0 0 0-21.2 10.6 46.9 46.9 0 0 0-9.1 17.7c-2.7 11 .5 24.1 9.9 30.4 4.8 3.2 10.6 4.4 16.3 4.9 17 1.2 35.1-5.2 45-19l1.2-1.8c12.1-19.5-3.5-44.5-26.4-43.5zM1141.4 2039a18.6 18.6 0 0 0-13.8 6.9 30.6 30.6 0 0 0-5.9 11.6c-1.8 7.2.3 15.7 6.5 19.8a21.7 21.7 0 0 0 10.6 3.2c11.1.8 22.9-3.4 29.3-12.4l.8-1.2c7.9-12.7-2.3-29-17.2-28.4zM1575.1 919.7c1.5 5.7 0 11.6-.2 17.5-.3 15 9.8 29.6 23.9 34.6 19.8 7 41-4.1 58.3-16 8.1-5.6 16.3-11.7 21.4-20.1s6.5-19.9.9-28c-10.2-14.8-32.5-28.1-47.4-38.1-11.4-7.7-25.3-15.2-39.4-15.9-12.4-.6-22.1 4.7-26.9 16.4C1557.6 890 1569.2 902.2 1575.1 919.7zM1434.3 876.5a23.1 23.1 0 0 0 14 10.4c10.8 3 23.6-1.8 28.7-11.7s.6-24.1-9.9-28.1c-3.6-1.4-7.6-1.7-11.5-1.8s-8.2-.2-12 1C1432.2 849.6 1428.9 866.9 1434.3 876.5zM1285.9 940.6a27.4 27.4 0 0 0 5 10.3c6.1 7.2 17.1 8.5 26.2 6.1s17.2-7.8 25.7-12 18.7-7.8 27-13.5 15.3-14.6 15.2-24.7c0-7.7-4.2-14.9-9.9-20.1s-12.8-8.5-20-11.2C1312.1 859.3 1272.8 894.7 1285.9 940.6zM1211 959.3c7.2-4.6 12-12.1 16.6-19.4 5.6-9 11.4-18.3 14-28.6s2.1-18.4 1.3-27.7c-.4-4.7-1-9.6-3.6-13.5-4.6-6.9-13.9-8.7-22.2-9.8a7.9 7.9 0 0 0-8.4 2.5l-40.8 38c-9.9 9.2-26.7 20-26.7 35.2C1141.1 965.1 1192.1 971.4 1211 959.3z" fill="#4a4855"/><path d="M1716.4 2296.1c37-4.9 73.5-16.9 110.7-14.6a80.5 80.5 0 0 1 19.9 3.3c7.1 2.3 13.7 6 20.2 9.7 12.8 7.2 27 16.3 29.5 30.9 2.1 12.3-5.6 24.6-15.9 31.5s-22.9 9.5-35.2 11.5c-26.2 4.2-53.5 6.3-79-.8s-49.4-25-57.7-50.3M2020.7 2120.2L1984.1 2185.6 1915.7 2245.9 2177.3 2251 2204.2 2240.6 2212.9 2213.5 2203.3 2197.9 2125 2155.5 2020.7 2120.2zM928.3 2118.8L964.8 2184.2 1033.2 2244.4 771.6 2249.6 739.2 2239 736 2212.1 745.6 2196.5 823.9 2154.1 928.3 2118.8zM1045.3 2289.8a90.2 90.2 0 0 1 22-7.2c8.7-1.6 17.6-2 26.4-2.3 13.3-.5 26.7-1 39.9.9s26.3 6.5 36.5 15c2.6 2.2 5.2 4.9 5.8 8.3s-.3 5.3-1.2 7.8c-6 17.6-17.1 33.6-32 44.7s-33.6 17.3-52.2 16.3a149.9 149.9 0 0 1-18.5-2.6l-46.4-8.4c-8.4-1.5-16.9-3.1-24.6-7s-14.3-10.4-16.2-18.8 1.5-17.8 7.8-24 14.9-9.4 23.7-10.3" fill="#dad6e1"/><path d="M1178.5 1964.5a36.5 36.5 0 0 0 17.7 36.5c3.5 2 7.8 3.4 11.6 2s6.6-5.7 8.4-9.8a122.9 122.9 0 0 0 6.6-18.3c2.5-9.1 3.7-19.5-1.7-27.2-3.8-5.5-10.7-8.5-17.3-8.4C1189.8 1939.5 1180.5 1951.4 1178.5 1964.5zM1400.7 1681.5a20.6 20.6 0 0 0 7.4 19.4c6.2 4.9 14.5 5.7 22.4 6.4l11.7 1c7.7.6 16.5 1 22.2-4.4 4.1-3.8 5.4-9.7 6-15.2a19 19 0 0 0-.4-7.9c-1.8-5.5-7.5-8.6-12.7-11l-14.6-6.4a33.1 33.1 0 0 0-9.3-2.9C1421.2 1659.3 1402.9 1668.9 1400.7 1681.5zM1099.2 1602.8a49.2 49.2 0 0 0 35.9 11c3.6-.3 7.2-1.1 10.3-3s6.1-6.5 8.1-10.5c4.2-8 7.9-17.3 4.7-25.7a25.2 25.2 0 0 0-5-7.6c-13.7-15.1-37.3-19.8-56-12C1075.3 1564.2 1084.1 1589.9 1099.2 1602.8zM1853.4 2200.5c11.7-7.5 28.6-5.4 38.1 4.8 5.1 5.5 8.1 12.9 13.8 17.7 2.4 2 5.1 3.5 7.3 5.7s3.7 5.4 2.9 8.3-2.9 4.2-5 5.7c-15.4 11.3-31.1 22.9-49.2 28.9-4.5 1.5-10.4 2.2-13.2-1.6s-.8-8 .8-11.8M1488.8 1639.9a20.6 20.6 0 0 0 20.5 9.6c7.5-1.2 13.9-6.8 17.2-13.6s3.9-14.8 2.7-22.3c-.5-3.5-1.5-7.2-4-9.8-4-4.1-10.6-4.1-16-2.5C1494.7 1605.7 1479.7 1624.5 1488.8 1639.9zM1442.1 1620c16.9-18.1-3.2-45-21.7-24.5C1405.4 1612.2 1426.1 1637.2 1442.1 1620zM1220.9 1580.6c7.5 3.7 16.8 2.6 23.8-2s11.6-12.2 13.5-20.3a23 23 0 0 0 0-11.8c-1.2-3.8-4-7.3-7.8-8.4-5.9-1.9-12 2-17.9 3.8-9.2 2.7-25.4 2.4-25.5 15.8C1207 1565.6 1213.9 1577.1 1220.9 1580.6zM1703.5 1626.4c6.6-2.8 10.1-8.9 8.5-14.4-3.1-11-28.6-17.4-35.1-5S1687.2 1633.5 1703.5 1626.4zM1367.9 1736.8a18.1 18.1 0 0 0 8.1-18.8c-2.9-14.3-27.1-22.7-33.2-6.5C1337.2 1726.1 1352.4 1746 1367.9 1736.8zM1048.5 2097.2c2.4-6.6 8.6-11.8 15.6-12.3s14.2 4.2 16.1 10.9-.4 11.8-1.3 17.8a45.3 45.3 0 0 0 5.4 28.8c2.5 4.4 5.8 8.4 7.5 13.1s1.7 10.6-1.8 14.2-8.2 3.6-12.7 3.8-15-4.3-18.7-6.4C1043.7 2158.4 1037.9 2123.9 1048.5 2097.2zM1792.7 1574.4l13 4.1c2.8.9 5.7 1.7 8.6 1 6.3-1.6 9.1-10.5 6.8-17s-8-10.7-13.6-14c-8.1-4.7-27.3-16.4-33.2-2.9C1767.5 1561.1 1781.4 1570.9 1792.7 1574.4zM1647.5 1792.9c3.9 1.1 8 .7 12 .4l12.5-1.1 20.9-1.8c6-.5 12.9-1.7 15.7-7 15.2-29.8-57.4-38.6-71.1-16.3C1631.7 1776.3 1636.9 1790 1647.5 1792.9zM1561.8 1615.1c-3.7 8.7-2.9 20.1 4.4 26.2s17.8 5.5 23.8 12.2 6.1 17.1 13.9 19.9 12.8-2.9 17-8.2c7.8-9.7 13.5-21.7 13.4-34.1a41.6 41.6 0 0 0-16.9-33c-9.1-6.6-23.1-10.3-34.1-6.6C1574.4 1594.5 1565.4 1606.6 1561.8 1615.1zM1603.3 850.4l50.8 36.4 49.3 52.7 49.3 76.7 38.9 63.3c5.2-8.1 1193.7-742.5 1192.4-747.9-2-8.7 0-319.9 0-319.9H1959.8zM1222.2 859.5L818 11.6 18.2 11.6 18.2 914.8 1064.2 1091.3 1103 1001.3 1131.2 944.4 1156 914.8 1194.3 879.5 1222.2 859.5zM1564.9 1039.5c-13.2 7.1-22.6 22.8-18.6 37.3 3.1 11.2 13.5 19.4 24.8 22.5 16 4.4 34.7-1 44.4-14.4C1642.2 1047.4 1596.5 1022.4 1564.9 1039.5zM1272.4 999.9c10.6 2.3 18.6 10.7 25.7 18.9 11.7 13.5 23.2 28 27.4 45.4s-.8 38.2-16.2 47.3c-10.8 6.4-25.1 5.8-36.1-.3s-18.8-17.2-22.4-29.3c-3.1-10.4-3.3-21.3-5.3-32s-15.8-25.3-10.1-36.1S1262.1 997.7 1272.4 999.9zM1825.2 1834.3a30.4 30.4 0 0 0-3.8 33.9 16.4 16.4 0 0 0 5.8 6.5c6.8 3.9 15.4.1 23.1 1.4 9.3 1.6 16.4 10.7 25.9 11.2 6.4.3 12.4-3.6 16.2-8.7s5.9-11.3 7.9-17.4c1.4-4.5 2.9-9 3-13.7a26.2 26.2 0 0 0-14.8-24c-11.1-5.1-20.2 1.2-31 2.1C1844.9 1826.8 1835.1 1823.2 1825.2 1834.3zM1606.4 1859.4c1.6 4.7 2.4 10.6-1.2 13.8s-11.1 1.1-16.3-1.4a99.8 99.8 0 0 0-21.6-7.4c-12.3-2.7-29.3-5-30.7-20.7-.9-9.8 5.7-15.2 14.7-17C1575.9 1821.7 1598.5 1836.5 1606.4 1859.4zM1034.9 1778.6c1.4 9.6 9.4 17.8 18.9 19.6 19.1 3.8 42-21.7 25.1-37.6C1063.8 1746.4 1031.5 1754.8 1034.9 1778.6z" fill="#4a4855"/></g></g><g id="shadow" style="mix-blend-mode:multiply"><defs><clipPath id="shadowClipPath"><path d="M2200.5 2195.7c-43-29.4-132.4-61.7-179.8-75.5l-.8-.3a248.1 248.1 0 0 0 6.4-155.8l-187.6-610.4c17.6-34.9 61-110.9 113.2-125.9 0 0-88.7-56.5-124.3 14.3 0 0 21.7-65.9 51.6-64.7 0 0-53.7-13.5-94 1.8l-54.1-175.2a240.5 240.5 0 0 0-47.2-89.2l73.3-118.6c-16.9-8.5-120.8 34.6-150.3 57.8-9.4-4.7-43.8-16.3-53.8-19.8 23.8-76.5-17.6-127.4-17.6-127.4 5.8 45.5-30.4 65.4-30.4 65.4 38-87.2-138.7-174-138.7-174s16.3 57-35.1 100.5c-58.7 49.6-34.7 93-34.7 93s-33.8-9.4-31.4-41.6c-30.3 36.3-14.3 67.9 1 89.7-14.1 5.8-44.7 19.9-57.4 28.2l-2.7-5.1c-44.5-36.6-124.6-49.2-135.6-33.6l64.5 115.2a240.3 240.3 0 0 0-33 93.8l-31.8 167c-43.6-11.2-94.8 18.3-94.8 18.3 28.5-9 66.7 48.8 66.7 48.8-53-59-123.7 18.9-123.7 18.9 54.3.8 98.7 67.6 116.7 99l-115.9 609.3a248.9 248.9 0 0 0 12.6 117.5l-.6.3c-38.1 9.1-130.4 43.4-184.5 78.3-26.5 17.1-10.1 55.9 23.2 55.3l266.9-5.2q6.8 4.1 13.8 7.9l.2 3.4c.4 23.3-6.7 42.4-29.9 43.6-15.6.8-28.2 9.9-30.6 21.1-4.7 21.5 5.8 38.9 27.2 40.4l84.3 5c26.4 1.6 51.9-11.3 65.3-34.1a71.4 71.4 0 0 0 8.8-23.9l5-26.6h533.6l3.5 20.7a71.6 71.6 0 0 0 43.1 54.3 53.5 53.5 0 0 0 22.3 4l91.8-3c22-2.2 30.1-15.7 27.9-36.9-.7-6.9-6.2-24.5-24.5-25.5-15.8-.9-25.2-8.6-28.1-21.9a246.8 246.8 0 0 0 65.4-28.1l261.5 5.1c33.2.3 49.2-37.8 23.1-55.6z" fill="none"/></clipPath><linearGradient id="shadowGradient" x1="1713.27" y1="794.55" x2="1713.27" y2="927.94" gradientUnits="userSpaceOnUse"><stop offset="0" stop-color="gray"/><stop offset=".14" stop-color="#797979"/><stop offset=".35" stop-color="#646464"/><stop offset=".6" stop-color="#434343"/><stop offset=".89" stop-color="#141414"/><stop offset="1"/></linearGradient><linearGradient id="shadowGradient2" x1="1041.15" y1="888.73" x2="1175.15" y2="888.73" href="#shadowGradient" xlink:href="#shadowGradient"/></defs><g clip-path="url(#shadowClipPath)"><path d="M968.2 1406.2S920.5 1826 892 1975.5c-31.7 166.5 17.2 278.2 79.2 278.2 49.7 0 81 .8 81 .8l-1.3-49c-5-88-29.1-150.8-52.6-176.8v-3.4a910.2 910.2 0 0 1 6.8-98.4c6.3-50.8 32.5-270.9 52.6-404.1l.2-1.3c4.1-26.2 20.1-82 14.2-132.2-3.7-31.6-27-67.9-52.3-87.2-23.4-17.9-58-30.9-102.8-11.2M979.5 1223.4c27-9.4 58.1-1.2 80.3 16.7 15.3 12.3 26.8 28.7 35 46.7 3.1 6.9-4.6 13.6-11 9.6-15.5-9.5-32.8-16.8-47.1-28.2-7-5.6-14.6-12.7-23.6-11.6M1263 761.6c.6.4.5-1.2-.2-.9s-.7 1.2-.6 1.9c5.5 37.5 28.1 72.1 59.8 92.7a4.4 4.4 0 0 1-1.9 8.1l-4.9.6c-4.9.6-9.9 1.2-14.6-.2-8.2-2.3-13.7-9.8-18.5-16.9s-38.9-70.3-43.3-76.8M1296.3 781.7a109.8 109.8 0 0 0 43.3 45.8 4.4 4.4 0 0 0 5.9-6.3 147.6 147.6 0 0 1-8.8-15.5c-6.3-12.3-12.4-25.5-10.7-39.2 1-8 4.6-15.4 8.8-22.2 8-13 18.4-24.4 27.6-36.6s17.2-25.9 19.4-41c1.7-11.7-.1-23.6-3.3-35a153 153 0 0 0-11-28.3c-.8-1.6-1.8-3.3-3.4-3.9a7.7 7.7 0 0 0-4-.1l-23.7 3.5M1507.8 766.2a204.1 204.1 0 0 1-22.2 44.1 4.4 4.4 0 0 0 5.5 6.5c15.1-6.8 28-18.5 38.8-31.3 7.5-8.9 14.4-18.8 16.9-30.1s.3-25-5.2-36M1226.5 2040.4c-24.3 147.7 54.3 178.3 68.5 181.6 86.5 15.5 223.8 8.8 268.5-7 41.8-14.8 129.9-58.5 108-189.5l43 256.8h-533.6zM1854.3 2157.4s29.9-91.4 66.3-124.9c-39.4 75 14.1 92.7 28.1 87.7 53.7-19.2 75-66.7 79.2-150l65.3 116.3s-55 256-204 214l-38.7-18.1z" fill="#7f7f7f" opacity=".2"/><path d="M1781.2 799.5s-38-26-102 41.5l-33.7 40.5 56.1 46.5z" opacity=".4" fill="url(#shadowGradient)" style="mix-blend-mode:multiply"/><path d="M1041.2 839.5s27.5-18.9 71.6-.8a122.7 122.7 0 0 1 47.5 35.2l14.9 17.9-37.7 54.9z" opacity=".4" fill="url(#shadowGradient2)" style="mix-blend-mode:multiply"/><path d="M1064.2 1202.7l42-187s27-127.3 169.1-177.9l17.9 26.1c-81.5 23.6-139.4 72.8-167.7 196.6-6.6 28.9-34.5 154-34.5 154M1052.2 2254.4s-31.3-.8-81-.8" fill="#7f7f7f" opacity=".2"/></g></g><g id="highlight" style="mix-blend-mode:overlay"><defs><clipPath id="highlightClipPath"><path d="M2200.5 2195.7c-43-29.4-132.4-61.7-179.8-75.5l-.8-.3a248.1 248.1 0 0 0 6.4-155.8l-187.6-610.4c17.6-34.9 61-110.9 113.2-125.9 0 0-88.7-56.5-124.3 14.3 0 0 21.7-65.9 51.6-64.7 0 0-53.7-13.5-94 1.8l-54.1-175.2a240.5 240.5 0 0 0-47.2-89.2l73.3-118.6c-16.9-8.5-120.8 34.6-150.3 57.8-9.4-4.7-43.8-16.3-53.8-19.8 23.8-76.5-17.6-127.4-17.6-127.4 5.8 45.5-30.4 65.4-30.4 65.4 38-87.2-138.7-174-138.7-174s16.3 57-35.1 100.5c-58.7 49.6-34.7 93-34.7 93s-33.8-9.4-31.4-41.6c-30.3 36.3-14.3 67.9 1 89.7-14.1 5.8-44.7 19.9-57.4 28.2l-2.7-5.1c-44.5-36.6-124.6-49.2-135.6-33.6l64.5 115.2a240.3 240.3 0 0 0-33 93.8l-31.8 167c-43.6-11.2-94.8 18.3-94.8 18.3 28.5-9 66.7 48.8 66.7 48.8-53-59-123.7 18.9-123.7 18.9 54.3.8 98.7 67.6 116.7 99l-115.9 609.3a248.9 248.9 0 0 0 12.6 117.5l-.6.3c-38.1 9.1-130.4 43.4-184.5 78.3-26.5 17.1-10.1 55.9 23.2 55.3l266.9-5.2q6.8 4.1 13.8 7.9l.2 3.4c.4 23.3-6.7 42.4-29.9 43.6-15.6.8-28.2 9.9-30.6 21.1-4.7 21.5 5.8 38.9 27.2 40.4l84.3 5c26.4 1.6 51.9-11.3 65.3-34.1a71.4 71.4 0 0 0 8.8-23.9l5-26.6h533.6l3.5 20.7a71.6 71.6 0 0 0 43.1 54.3 53.5 53.5 0 0 0 22.3 4l91.8-3c22-2.2 30.1-15.7 27.9-36.9-.7-6.9-6.2-24.5-24.5-25.5-15.8-.9-25.2-8.6-28.1-21.9a246.8 246.8 0 0 0 65.4-28.1l261.5 5.1c33.2.3 49.2-37.8 23.1-55.6z" fill="none"/></clipPath><linearGradient id="highlightGradient" x1="1980.63" y1="2256.39" x2="1980.63" y2="1316.81" gradientUnits="userSpaceOnUse"><stop offset="0" stop-color="#fff" stop-opacity="0"/><stop offset=".72" stop-color="#fff"/></linearGradient><linearGradient id="highlightGradient2" x1="2116.32" y1="2248.97" x2="2116.32" y2="2113.28" href="#highlightGradient" xlink:href="#highlightGradient"/><linearGradient id="highlightGradient3" x1="1044.74" y1="2253.08" x2="1044.74" y2="2117.39" gradientTransform="matrix(-1 0 0 1 1878.82 0)" href="#highlightGradient" xlink:href="#highlightGradient"/><linearGradient id="highlightGradient4" x1="916.6" y1="1819.55" x2="1050.67" y2="1819.55" href="#highlightGradient" xlink:href="#highlightGradient"/><linearGradient id="highlightGradient5" x1="1817.86" y1="1232.71" x2="1965.97" y2="1232.71" href="#highlightGradient" xlink:href="#highlightGradient"/><linearGradient id="highlightGradient6" x1="1735.34" y1="1202.52" x2="1910.15" y2="1202.52" href="#highlightGradient" xlink:href="#highlightGradient"/><linearGradient id="highlightGradient7" x1="1670.82" y1="1197.92" x2="1670.82" y2="834.22" href="#highlightGradient" xlink:href="#highlightGradient"/></defs><g clip-path="url(#highlightClipPath)" opacity=".3"><path d="M1826.8 1487.5c65.3 196.3 115.7 361.1 143.2 482.9 46.1 204.7-81.2 286-81.2 286l61.1-35.5s63-74.8 72.5-107.6c20.8-71.9 139-33 117.2-147.7l-280.3-648.8s-61.3 84-32.5 170.7z" fill="url(#highlightGradient)"/><path d="M1999.2 2162.4s113.2 21.1 98.4 83.6l92.6 3 43.3-6.5-4.3-68.5-206.8-60.7z" fill="url(#highlightGradient2)"/><path d="M951.2 2166.5s-113.2 21.1-98.4 83.6l-92.6 3-43.3-6.5 4.3-68.5 206.8-60.7z" opacity=".7" fill="url(#highlightGradient3)"/><path d="M1033.3 1497.2l-85.2 457.3s-53.5 175 102.2 279l.3 20.2s-124.5-57.2-133.5-215.2 97-653 97-653l30.2 20.7a729.5 729.5 0 0 1-11 91z" fill="url(#highlightGradient4)" style="mix-blend-mode:overlay"/><path d="M1966 1233.5a109.2 109.2 0 0 0-70-1.9c-15.3 4.8-29.3 12.8-42.9 21.3-8.9 5.5-17.8 11.4-25.8 18.2a5.7 5.7 0 0 1-9.3-5.7v-.2c4.4-17.5 15.2-32.9 28.7-44.8s29.6-20.5 46.2-27.5" fill="url(#highlightGradient5)"/><path d="M1910.2 1175.9a298.9 298.9 0 0 0-165.8 52.2c-5.4 3.7-11.7-3.1-7.7-8.3s5.9-7.2 8.9-10.8c6.6-8 13.5-16.1 22.4-21.3 5-2.9 10.5-4.9 15.5-8" fill="url(#highlightGradient6)"/><path d="M1797.5 1175.5s-63.3-204-114.8-259.6c-20.7-36.8-78.6-66.4-129.5-81.7l-9 14.9s56.2 26.7 84.6 52.3c53.3 48 106.9 201.8 128.4 296.4l40.2-22.5" fill="url(#highlightGradient7)"/></g></g><g id="bodyMask"><path fill="none" opacity=".2" d="M.49999452 3.09371682l2999.99543074-5.2359851 5.2359851 2999.99543074-2999.99543075 5.2359851z"/><path d="M2200.5 2195.7c-43-29.4-132.4-61.7-179.8-75.5l-.8-.3a248.1 248.1 0 0 0 6.4-155.8l-187.6-610.4c17.6-34.9 61-110.9 113.2-125.9 0 0-88.7-56.5-124.3 14.3 0 0 21.7-65.9 51.6-64.7 0 0-53.7-13.5-94 1.8l-54.1-175.2a240.5 240.5 0 0 0-47.2-89.2l73.3-118.6c-16.9-8.5-120.8 34.6-150.3 57.8-9.4-4.7-43.8-16.3-53.8-19.8 23.8-76.5-17.6-127.4-17.6-127.4 5.8 45.5-30.4 65.4-30.4 65.4 38-87.2-138.7-174-138.7-174s16.3 57-35.1 100.5c-58.7 49.6-34.7 93-34.7 93s-33.8-9.4-31.4-41.6c-18.5 33.1-6.9 64.4 8.4 86.2-14.1 5.8-52.2 23.4-64.8 31.7l-2.7-5.1c-44.5-36.6-124.6-49.2-135.6-33.6l64.5 115.2a240.3 240.3 0 0 0-33 93.8l-31.8 167c-43.6-11.2-94.8 18.3-94.8 18.3 28.5-9 66.7 48.8 66.7 48.8-53-59-123.7 18.9-123.7 18.9 54.3.8 98.7 67.6 116.7 99l-115.9 609.3a248.9 248.9 0 0 0 12.6 117.5l-.6.3c-38.1 9.1-130.4 43.4-184.5 78.3-26.5 17.1-10.1 55.9 23.2 55.3l266.9-5.2q6.8 4.1 13.8 7.9l.2 3.4c.4 23.3-6.7 42.4-29.9 43.6-15.6.8-28.2 9.9-30.6 21.1-4.7 21.5 5.8 38.9 27.2 40.4l84.3 5c26.4 1.6 51.9-11.3 65.3-34.1a71.4 71.4 0 0 0 8.8-23.9l5-26.6h533.6l3.5 20.7a71.6 71.6 0 0 0 43.1 54.3 53.5 53.5 0 0 0 22.3 4l91.8-3c22-2.2 30.1-15.7 27.9-36.9-.7-6.9-6.2-24.5-24.5-25.5-15.8-.9-25.2-8.6-28.1-21.9a246.8 246.8 0 0 0 65.4-28.1l261.5 5.1c33.2.3 49.2-37.8 23.1-55.6z" fill="none"/></g><g id="body"><path fill="#fff" stroke="#31323d" stroke-width="12.5" stroke-miterlimit="10" d="M1714.5 2282.4h-533.6" stroke-linecap="round"/><path fill="none" stroke="#31323d" stroke-width="12.5" stroke-miterlimit="10" d="M1851.5 1395.4l174.8 568.6c39 137.9-45.2 275-175.8 309.9m-799.8-20.2c-89.2-47.1-145.7-146.2-131.5-254.1l106.8-561.2" stroke-linecap="round"/><path fill="#31323d" d="M1228.6 2040.8c-1.7 15.3-3.8 30.4-6 45.6l-3.5 22.7-3.8 22.6c-2.6 15.1-5.4 30.1-8.1 45.2l-8.3 45.1-16.6 90.3a76.3 76.3 0 0 1-3.5 12.1 77.5 77.5 0 0 1-5.4 11.4 75.5 75.5 0 0 1-16 19.4 78.7 78.7 0 0 1-45.9 18.8l-6.3.2h-6.1l-11.5-.7-22.9-1.3-45.8-2.8h-4.7l-1.8-.3a44.1 44.1 0 0 1-6.7-1.7 35.7 35.7 0 0 1-12.3-7.3 34.7 34.7 0 0 1-8.3-11.7 40.4 40.4 0 0 1-3.1-13.5 50.7 50.7 0 0 1 1-13.2l.2-.8v-1.7l.3-1.1a26.9 26.9 0 0 1 1.5-3.6 30.2 30.2 0 0 1 4.1-6.2 37.9 37.9 0 0 1 11-8.8 45.9 45.9 0 0 1 12.7-4.5 49 49 0 0 1 6.6-.9l2.7-.2 2.1-.3a22 22 0 0 0 4.3-1.2 18.5 18.5 0 0 0 3.8-1.9c4.6-3 7.7-8.4 9.4-14.8a70.5 70.5 0 0 0 1.8-20.8l-.9-22.9-1.9-45.9c-.6-15.3-1.3-30.6-1.8-45.9v.5c-.6-5-1.3-9.9-2-14.9-.4-2.5-.8-4.9-1.2-7.4s-.9-4.9-1.4-7.3-1-4.9-1.6-7.3l-1.8-7.2q-1.9-7.2-4.4-14.2c-.8-2.3-1.7-4.6-2.6-6.9s-1.8-4.6-2.9-6.8l-1.5-3.4-1.6-3.3-1.7-3.3-1.8-3.3-1.8-3.2-1.9-3.2-4-6.3c-1.4-2.1-2.8-4.1-4.3-6.2l-2.2-3-2.3-3a2.2 2.2 0 0 1 3.4-2.9l5.4 5.6q2.6 2.9 5.1 5.9c1.7 2 3.3 4 4.8 6.1l2.3 3.2 2.2 3.2c1.5 2.2 2.9 4.3 4.2 6.6l2 3.4 1.9 3.4q1.9 3.4 3.5 7c1.1 2.4 2.2 4.7 3.2 7.2q3 7.2 5.4 14.7c1.6 5 3 10 4.2 15q.9 3.8 1.7 7.6c.5 2.5 1.1 5.1 1.5 7.6.9 5.1 1.7 10.2 2.4 15.3v.5c.9 15.3 1.6 30.6 2.4 45.8l2.3 45.8 1.1 22.9a94.4 94.4 0 0 1-.1 12.3 71.8 71.8 0 0 1-1.9 12.5 54.5 54.5 0 0 1-2 6.3 42.8 42.8 0 0 1-3.1 6.2 33.3 33.3 0 0 1-9.8 10.4 35.1 35.1 0 0 1-13.2 5.3l-3.5.5-3 .2a35 35 0 0 0-4.7.6 31.9 31.9 0 0 0-8.8 3.2 23.9 23.9 0 0 0-6.9 5.5 16.1 16.1 0 0 0-2.2 3.3 13 13 0 0 0-1.2 3.7 36.6 36.6 0 0 0-.7 9.6 26.2 26.2 0 0 0 2 8.7 20.4 20.4 0 0 0 4.9 6.9 21.4 21.4 0 0 0 7.3 4.3 30.1 30.1 0 0 0 4.4 1.1l1 .2h3.9l45.8 2.7 22.9 1.4 11.5.7h10.5a64.5 64.5 0 0 0 37.6-15.2 61.4 61.4 0 0 0 13.1-15.7 65 65 0 0 0 7.4-19.2l17.4-90.1 8.7-45.1c2.9-15 5.8-30 8.8-45l4.7-22.5 5-22.4c3.4-14.9 7-29.8 11-44.6a2.2 2.2 0 0 1 4.9.6z"/><path fill="#31323d" d="M1095.2 2319.6h-.5l-1.7.2a18.6 18.6 0 0 0-5.8 2 22.5 22.5 0 0 0-6.7 5.5 30.2 30.2 0 0 0-2.9 4 38.9 38.9 0 0 0-2.4 4.6l-.5 1.2-.5 1.2-.5 1.2-.4 1.3c-.5 1.7-.9 3.4-1.3 5l-.5 2.4c-.2.8-.3 1.6-.4 2.4s-.4 3-.6 4.4-.2 2.6-.3 3.7-.1 2.1-.2 2.9v2.7a6.3 6.3 0 1 1-12.5-.6 6.9 6.9 0 0 1 .1-.8l.5-2.7c.2-.9.3-1.9.6-3.1s.5-2.6.9-4.1.8-3.1 1.3-4.8l.8-2.6.9-2.7c.7-1.8 1.4-3.7 2.3-5.5l.6-1.4.7-1.4.7-1.4.8-1.4a46.9 46.9 0 0 1 3.6-5.2 37.5 37.5 0 0 1 4.2-4.5 28.8 28.8 0 0 1 9.4-5.8 23.9 23.9 0 0 1 7.7-1.5h3.1a2.2 2.2 0 1 1-.5 4.8zm-42.5-4.7h-.6l-1.6.4-2.5.9-.7.3-.8.4-1.6.9-1.7 1.1-1.7 1.3-.9.7-.8.8-1.6 1.7-1.5 2-.7 1-.6 1.1-1.3 2.2-1.1 2.4c-.3.8-.7 1.6-1 2.4l-.8 2.5-.8 2.4-.6 2.5a42.3 42.3 0 0 0-1 4.7l-.6 4.3a35.4 35.4 0 0 0-.3 3.7l-.2 2.8-.2 2.5v.4a6.3 6.3 0 1 1-12.5-.8 6.9 6.9 0 0 1 .1-.8l.5-2.7.6-3.1c.3-1.2.4-2.5.9-4l1.3-4.7a51.3 51.3 0 0 1 1.8-5.2l1-2.7 1.3-2.7 1.3-2.7c.5-.9 1.1-1.8 1.6-2.7l1.7-2.6 1.9-2.4.9-1.2 1.1-1.1 2.1-2.1 2.2-1.8 1.1-.9 1.2-.7 2.2-1.4 2.2-1.1 2.1-.8 1-.4 1-.3a26.5 26.5 0 0 1 3.2-.7l2.2-.2h.8a2.2 2.2 0 1 1 .4 4.4zm621-289.7l2.2 9.4c1.4 6.1 3.4 15.1 5.8 26.6 1.2 5.7 2.5 12.1 3.9 19l4.4 22.5 4.8 25.6 5 28.4 23.3 135.3c1.1 6.1 2 12.8 3.6 17.8a63.3 63.3 0 0 0 7.2 15.7 65.1 65.1 0 0 0 25.9 23.4l4.1 1.9 1.1.4 1 .4 2 .7a45.4 45.4 0 0 0 8.4 1.7l4.3.3h4.6l10-.3 40.1-1.4 39.4-1.2 2.5-.3 1.2-.2.9-.2 1.9-.4 1.9-.6a21.7 21.7 0 0 0 6.5-3.5 17 17 0 0 0 4.3-5.4c.2-.6.6-1.1.7-1.7l.6-1.8a30.4 30.4 0 0 0 .8-3.9 37.8 37.8 0 0 0 .4-4.1v-2.1s0-1.4-.1-2.2l-.2-2.2v-.3a.3.3 0 1 1 0-.1v-1.6l-.2-.8-.2-.9c-.1-.6-.4-1.3-.6-1.9-1.7-5-4.7-9.3-8.4-11.7a17.3 17.3 0 0 0-6.4-2.3l-1.8-.2-2.6-.2h-1.2l-1.5-.2-2.9-.5a39.5 39.5 0 0 1-10.9-4.2 30.1 30.1 0 0 1-9.1-8 34 34 0 0 1-5.3-10.4 47.2 47.2 0 0 1-1.9-10.7c-.1-.9-.1-1.7-.1-2.6v-7.2l.2-9.1.8-35.4.2-8.6v-4.6l.3-4.2.3-4.2c.1-1.4.2-2.7.4-4.2l1-8.4a250.4 250.4 0 0 1 6.4-31.5 277 277 0 0 1 9.1-28l2.7-6.4c.9-2.1 1.7-4.2 2.7-6.2l2.8-5.9c.9-1.9 1.8-3.9 2.8-5.7l2.9-5.4 1.4-2.6 1.5-2.5 2.9-4.9c.9-1.6 1.8-3.2 2.8-4.7l5.6-8.7 5.4-7.7 2.6-3.5 2.5-3.2c1.6-2.1 3.1-4.1 4.6-5.8l4.1-4.9 3.5-4 6.6-7.1a2.2 2.2 0 0 1 3.4 2.8l-5.6 7.8c-3.6 5.1-8.8 12.6-14.9 22.5l-4.7 7.8-4.8 8.8c-.9 1.5-1.7 3.1-2.5 4.7l-2.5 4.9-1.3 2.5-1.2 2.6-2.5 5.4a290.9 290.9 0 0 0-17.7 50.6l-.9 3.6-.4 1.8-.4 1.8-1.5 7.4-.4 1.9-.3 1.9-.6 3.8-.6 3.9-.3 1.9-.2 1.9-.9 7.8c-.2 1.3-.2 2.7-.3 4.1l-.3 4.2-.3 4.2v12.5l-.5 35.4v15.8s0 1.4.1 2a33.7 33.7 0 0 0 1.4 7.5 20.3 20.3 0 0 0 3.2 6.2c2.7 3.6 6.9 5.8 12 6.9l1.8.3.9.2h1.2l2.2.2 3 .3a31.3 31.3 0 0 1 11.7 4.2 31.8 31.8 0 0 1 9 8.5 40.3 40.3 0 0 1 5.4 10.5c.3.9.6 1.8.8 2.8l.4 1.4.3 1.6v2.9l.2 2.7c.1.9.1 1.8.1 2.8s.1 1.8 0 2.8a52 52 0 0 1-.5 5.7 44.4 44.4 0 0 1-1.2 5.8l-1 2.9c-.3 1-.8 1.9-1.3 2.9a31.3 31.3 0 0 1-7.9 10.1 35.8 35.8 0 0 1-10.9 6l-2.8.9-3 .7-1.5.3-1.3.2-2.5.3h-5.7l-5 .2-10 .4-20.1.7-40.1 1.3-10 .3h-5.4l-5.6-.4a59.7 59.7 0 0 1-11-2.3l-2.7-.9-1.4-.5-1.2-.5-4.9-2.3a79.2 79.2 0 0 1-31.4-28.6 77.2 77.2 0 0 1-8.7-19.2l-.7-2.6-.3-1.3c-.1-.4-.2-.9-.3-1.3l-.5-2.3-.2-1.2v-1.4l-1.5-9.3-22-135.6-4.5-28.5-3.8-25.7-3.2-22.7c-1-7-1.8-13.4-2.5-19.3-1.5-11.6-2.5-20.8-3.2-27.1l-1-9.6a2.2 2.2 0 0 1 3.8-.6z"/><path fill="#31323d" d="M1783.2 2307.4h3.2a34.8 34.8 0 0 1 8 1.7 33.5 33.5 0 0 1 5.1 2.1 34.2 34.2 0 0 1 5.3 3.3 37.9 37.9 0 0 1 5 4.5c.7.9 1.5 1.7 2.2 2.7l1 1.4 1 1.5a46.8 46.8 0 0 1 3.3 6.1 56.5 56.5 0 0 1 2.4 6.2c.4 1 .6 2 .9 3s.5 2 .7 2.9l.6 2.8.4 2.6c.3 1.7.4 3.2.6 4.6s.3 2.5.3 3.5l.2 3.1a6.3 6.3 0 0 1-12.5.8 6.4 6.4 0 0 1 0-.7v-.3l.2-2.7c.1-.9.1-1.9.1-3.1s.1-2.6 0-4v-2.3l-.2-2.4c-.1-.8-.2-1.7-.3-2.5s-.2-1.8-.4-2.6a47.1 47.1 0 0 0-1.3-5.3 38.1 38.1 0 0 0-2.1-5.2l-.6-1.3-.7-1.2c-.4-.8-1-1.6-1.5-2.3a30.5 30.5 0 0 0-3.5-4.1 29.3 29.3 0 0 0-8-5.5 29.5 29.5 0 0 0-6.6-2.2l-1.9-.3h-.7a2.2 2.2 0 0 1-.2-4.8zm50.6-3.2h3.2a34.8 34.8 0 0 1 8 1.7 33.5 33.5 0 0 1 5.1 2.1 34.2 34.2 0 0 1 5.3 3.3 37.9 37.9 0 0 1 5 4.5c.7.9 1.5 1.7 2.2 2.7l1 1.4 1 1.5a46.8 46.8 0 0 1 3.3 6.1 56.6 56.6 0 0 1 2.4 6.2c.4 1 .6 2 .9 3s.5 2 .7 2.9l.6 2.8.4 2.6c.3 1.7.4 3.2.6 4.6s.3 2.5.3 3.5l.2 3.1a6.3 6.3 0 1 1-12.5.1v-.3l.2-2.7c.1-.9.1-1.9.1-3.1s.1-2.6 0-4v-2.3l-.2-2.4c-.1-.8-.2-1.7-.3-2.5s-.2-1.8-.4-2.6a47.1 47.1 0 0 0-1.3-5.3 38 38 0 0 0-2.1-5.2l-.6-1.3-.7-1.2c-.4-.8-1-1.6-1.5-2.3a30.5 30.5 0 0 0-3.5-4.1 29.3 29.3 0 0 0-8-5.5 29.5 29.5 0 0 0-6.6-2.2l-1.9-.3h-.7a2.2 2.2 0 0 1-.2-4.8z"/><path fill="none" stroke="#31323d" stroke-width="12.5" stroke-miterlimit="10" d="M931.3 2117.4c-38.1 9.1-130.4 43.4-184.5 78.3-26.5 17.1-10.1 55.9 23.2 55.3l280.4-5.5" stroke-linecap="round"/><path fill="#31323d" d="M840.5 2200.1l-.7.2-2 .6-3.1 1-4 1.5-4.5 2.1a49.4 49.4 0 0 0-4.7 2.8 36 36 0 0 0-4.4 3.5 26.3 26.3 0 0 0-3.7 4.2l-.8 1.1-.7 1.2a21.4 21.4 0 0 0-1.1 2.4c-.2.4-.3.8-.4 1.2a8.9 8.9 0 0 0-.3 1.2 18.1 18.1 0 0 0-.4 2.4v3.6c0 .4.1.8.1 1.2a15.6 15.6 0 0 0 .3 2.2c.2.7.3 1.4.5 2.1a36.6 36.6 0 0 0 1.2 3.6 29.8 29.8 0 0 0 1.2 2.8l1.2 2.4.2.3a6.3 6.3 0 0 1-11.3 5.5l-.3-.7-1.1-3.1c-.4-1-.7-2.2-1.1-3.7a48 48 0 0 1-1-4.9c-.1-.9-.2-1.9-.3-2.9a24.9 24.9 0 0 1-.1-3.2v-1.7l.2-1.7c.1-.6.1-1.2.2-1.7l.4-1.8a27.7 27.7 0 0 1 1-3.5 16.1 16.1 0 0 1 .7-1.7l.8-1.7a30.5 30.5 0 0 1 2-3.2l1.1-1.5 1.2-1.4a34.5 34.5 0 0 1 5.4-4.9 43.4 43.4 0 0 1 5.8-3.6 56.1 56.1 0 0 1 5.7-2.6l5.2-1.8 4.4-1.2 3.5-.7 2.3-.3h.8a2.2 2.2 0 0 1 .8 4.4h-.1zm-47.5 2h-.6l-1.7.5a38.1 38.1 0 0 0-5.9 2.5 32.6 32.6 0 0 0-3.6 2.2 29.2 29.2 0 0 0-3.5 2.9 23.5 23.5 0 0 0-2.9 3.7 18.7 18.7 0 0 0-2 4.2 21.2 21.2 0 0 0-.6 2.2c-.1.8-.3 1.5-.3 2.3a24.7 24.7 0 0 0 .1 4.6 34.5 34.5 0 0 0 .8 4.3c.4 1.4.7 2.7 1.2 3.9l.6 1.7.7 1.5.6 1.3.6 1.1 1.1 2.1v.2a6.3 6.3 0 0 1-11.2 5.6l-.3-.8-.9-2.7-.5-1.4-.5-1.7-.5-1.9c-.2-.7-.3-1.4-.5-2.2s-.6-3.3-.8-5.1a44.7 44.7 0 0 1-.2-5.9 34.2 34.2 0 0 1 .8-6.3c.2-1.1.6-2.1.9-3.2a29.7 29.7 0 0 1 1.3-3.1 26.9 26.9 0 0 1 3.6-5.6 31 31 0 0 1 4.5-4.3 35.8 35.8 0 0 1 4.8-3 38.6 38.6 0 0 1 4.6-2 43.3 43.3 0 0 1 7.1-2l2-.3h.8a2.2 2.2 0 0 1 .8 4.4h-.4z"/><path fill="none" stroke="#31323d" stroke-width="12.5" stroke-miterlimit="10" d="M2020.7 2120.2c47.5 13.8 136.8 46.1 179.8 75.5 26.1 17.8 10.1 55.9-23.2 55.3l-261.6-5.1" stroke-linecap="round"/><path fill="#31323d" d="M2107.6 2193.7h.8l2.3.4 3.5.8 4.5 1.4 5.2 2a58.4 58.4 0 0 1 5.6 2.8 45.8 45.8 0 0 1 5.7 3.8 36.7 36.7 0 0 1 5.3 5.1l1.2 1.5 1.1 1.6a31 31 0 0 1 1.9 3.3c.3.6.5 1.2.8 1.7s.5 1.2.7 1.8l.6 1.8.3.9.2.9a26.4 26.4 0 0 1 .6 3.5 25.1 25.1 0 0 1 .2 3.4 42.1 42.1 0 0 1-.4 6.2 50.3 50.3 0 0 1-1 5c-.4 1.5-.7 2.8-1.1 3.7l-1.1 3.2a6.3 6.3 0 0 1-11.8-4.1l.3-.7.2-.3 1.2-2.4c.4-.8.7-1.7 1.2-2.8s.8-2.3 1.2-3.7a31.5 31.5 0 0 0 .8-4.4 15.7 15.7 0 0 0 .1-2.4 16.7 16.7 0 0 0-.1-2.5v-1.2l-.2-1.3c-.1-.4-.2-.8-.4-1.3a12.8 12.8 0 0 0-.4-1.3 21.8 21.8 0 0 0-1.1-2.5l-.7-1.2-.8-1.2a28.5 28.5 0 0 0-3.7-4.4 38.4 38.4 0 0 0-4.4-3.8 51.5 51.5 0 0 0-4.7-3l-4.5-2.3a66.6 66.6 0 0 0-7.1-2.9l-2-.6-.7-.2h-.1a2.2 2.2 0 0 1 .8-4.3zm47.5 2h.8l2.1.4a44.7 44.7 0 0 1 7.1 2.4 40.4 40.4 0 0 1 4.5 2.3 38.2 38.2 0 0 1 4.7 3.3 33.1 33.1 0 0 1 4.4 4.5 30 30 0 0 1 4.8 8.8c.4 1.1.6 2.2.9 3.2s.4 2.2.6 3.3.3 2.2.2 3.2.1 2.1 0 3.1l-.2 2.9c-.3 1.8-.5 3.6-.8 5.2l-.5 2.3-.6 2-.5 1.8-.5 1.4-.9 2.7a6.3 6.3 0 0 1-11.8-4.1l.3-.7v-.3l1.1-2.2.6-1.2.6-1.4.7-1.6.6-1.7c.5-1.2.8-2.6 1.2-4l.4-2.2c.2-.7.2-1.5.3-2.3s.1-1.5.1-2.3-.1-1.6-.1-2.4-.2-1.6-.3-2.4a20.2 20.2 0 0 0-.6-2.3 20.6 20.6 0 0 0-2-4.4 25.7 25.7 0 0 0-2.9-3.9 31.5 31.5 0 0 0-3.5-3.2 34.4 34.4 0 0 0-3.6-2.4 39.4 39.4 0 0 0-5.9-2.9l-1.7-.6-.6-.2h-.1a2.2 2.2 0 0 1 1.1-4.1z"/><path fill="none" stroke="#31323d" stroke-width="12.5" stroke-miterlimit="10" d="M1839.7 1357.2l59.7 194.1m-115.6-375.8l-52.7-171.5a241 241 0 0 0-149.5-160.9l-26.5-8.9m-483.8 366l30.8-162a241 241 0 0 1 144.3-190.3l18.1-7.1 7.9-3.1M1011.8 1513l22.4-118" stroke-linecap="round"/><path fill="#31323d" d="M1040.5 1407.7c-1.6-3.2-3.4-6.4-5.2-9.6s-3.6-6.3-5.5-9.5q-5.7-9.4-11.9-18.4a282.8 282.8 0 0 0-27.4-33.9c-10-10.4-21-19.9-33.1-27.1a104.1 104.1 0 0 0-9.3-4.9 86.7 86.7 0 0 0-9.7-3.7 66.7 66.7 0 0 0-20-3.2 6.2 6.2 0 0 1-4.6-10.4h.1l1.7-1.8 1.7-1.7 3.3-3.2c2.3-2.1 4.6-4.1 6.9-6.1a171.7 171.7 0 0 1 14.8-11.1 138.5 138.5 0 0 1 16.2-9.4 103 103 0 0 1 17.7-6.8 77.1 77.1 0 0 1 19.2-2.9 63.1 63.1 0 0 1 19.5 2.7 62.4 62.4 0 0 1 9.2 3.6 68 68 0 0 1 8.5 5 74.1 74.1 0 0 1 7.6 6 92 92 0 0 1 6.8 6.8l-9.9 7.6-3-4.2-3.2-4.2q-3.2-4.2-6.6-8.3a161.8 161.8 0 0 0-14.4-15.2 76.9 76.9 0 0 0-16.2-11.7 31.8 31.8 0 0 0-8.5-3 16 16 0 0 0-7.8.3 6.2 6.2 0 0 1-5-11.4l3.6-1.8 3.6-1.7 7.2-3.1q7.2-2.9 14.7-5.3a164.3 164.3 0 0 1 30.5-6.7 106.5 106.5 0 0 1 31.4.7c2.6.5 5.2 1.1 7.7 1.8s5 1.6 7.5 2.6a76.1 76.1 0 0 1 7.1 3.4 74 74 0 0 1 6.7 4.2 2.5 2.5 0 0 1-2.8 4.2 65.6 65.6 0 0 0-27.3-9.4 98.7 98.7 0 0 0-29.1 1.1 154.8 154.8 0 0 0-28.3 8.1q-6.9 2.6-13.5 5.8l-6.6 3.3-3.2 1.7-3 1.8-5-11.4a26.9 26.9 0 0 1 7-1.2 30.8 30.8 0 0 1 6.8.5 44.1 44.1 0 0 1 12 4.2 72.9 72.9 0 0 1 10.1 6.3 109.8 109.8 0 0 1 8.9 7.3 174.2 174.2 0 0 1 15.5 16.4q3.6 4.3 7 8.7l3.3 4.5 3.3 4.7a6.2 6.2 0 0 1-9.8 7.7h-.1a79.5 79.5 0 0 0-5.8-5.8 61.7 61.7 0 0 0-6.4-5 55.4 55.4 0 0 0-6.9-4.1 49.8 49.8 0 0 0-7.4-2.9 50.5 50.5 0 0 0-15.7-2.2 64.6 64.6 0 0 0-16 2.4 90.5 90.5 0 0 0-15.5 6 126 126 0 0 0-14.7 8.5 159.1 159.1 0 0 0-13.7 10.3c-2.2 1.8-4.3 3.7-6.4 5.7l-3.1 3-1.5 1.5-1.4 1.5-4.5-10.5a78.9 78.9 0 0 1 23.5 4.4 98.4 98.4 0 0 1 10.9 4.8 115.3 115.3 0 0 1 10.2 5.7c13.1 8.3 24.3 18.8 34.5 30a291.7 291.7 0 0 1 27.2 35.9q6.1 9.4 11.6 19.2 2.8 4.9 5.4 9.8c1.7 3.3 3.4 6.6 5 10.1a3.5 3.5 0 0 1-6.3 3.1zM1827 1370c1.4-3.9 2.9-7.6 4.5-11.4s3.3-7.4 5-11.1 3.5-7.3 5.3-11 3.7-7.2 5.7-10.8c3.9-7.2 8-14.2 12.3-21.1 2.1-3.5 4.4-6.9 6.7-10.2s4.6-6.7 7.1-10q7.3-9.9 15.4-19.2a212 212 0 0 1 17.4-17.7 145 145 0 0 1 20.1-15.3 96.8 96.8 0 0 1 23.5-10.7l-1.7 12-1.7-1-1.8-1-3.8-2-7.7-3.8a158.7 158.7 0 0 0-15.9-6.3 133.5 133.5 0 0 0-16.3-4.3 89.9 89.9 0 0 0-16.5-1.7 64.1 64.1 0 0 0-16 1.8 50 50 0 0 0-14.4 6.1 49.3 49.3 0 0 0-6.3 4.7 54.9 54.9 0 0 0-5.5 5.7 61.1 61.1 0 0 0-4.8 6.5 79 79 0 0 0-4.1 7.1v.2a6.8 6.8 0 0 1-12.4-5.3c.6-1.9 1.3-3.6 1.9-5.4l2.1-5.2q2.1-5.2 4.5-10.3a174.7 174.7 0 0 1 10.8-19.8 110.1 110.1 0 0 1 6.7-9.4 73.2 73.2 0 0 1 8.1-8.7 44.2 44.2 0 0 1 10.5-7.1 30.9 30.9 0 0 1 6.5-2.2 27 27 0 0 1 7-.6l-1.8 12.3-3.7-.9-3.8-.9-7.7-1.5q-7.7-1.4-15.6-2.3a182.9 182.9 0 0 0-31.4-.9 109.5 109.5 0 0 0-30.5 6 64.2 64.2 0 0 0-25.7 16.6 2.5 2.5 0 0 1-3.8-3.3 64 64 0 0 1 12.3-11.5 77.4 77.4 0 0 1 14.6-8.2 117.2 117.2 0 0 1 32.2-8.3 192.5 192.5 0 0 1 33.1-1q8.3.4 16.5 1.4l8.2 1.1 4.1.7 4.2.8a6.2 6.2 0 0 1-1.6 12.3h-.1a16 16 0 0 0-7.5 1.8 32 32 0 0 0-7.3 5.2 76.8 76.8 0 0 0-12.4 15.6 161.6 161.6 0 0 0-9.8 18.4q-2.2 4.8-4.2 9.7l-1.9 4.9-1.7 4.9-12.5-5.2a92.5 92.5 0 0 1 4.8-8.4 74.6 74.6 0 0 1 5.8-7.9 68.4 68.4 0 0 1 6.9-7.1 62.9 62.9 0 0 1 8-6 63.6 63.6 0 0 1 18.3-7.8 77.7 77.7 0 0 1 19.4-2.3 103.5 103.5 0 0 1 19 1.9 131.8 131.8 0 0 1 18.1 4.8 172.1 172.1 0 0 1 17.2 7l8.3 4.1 4.1 2.2 2 1.2 2.1 1.3a6.6 6.6 0 0 1-1.7 12 83.7 83.7 0 0 0-20.3 9.1 132.1 132.1 0 0 0-18.4 13.8c-11.6 10.3-21.9 22.2-31.4 34.8q-3.6 4.7-7 9.5c-2.3 3.2-4.5 6.5-6.7 9.8s-4.4 6.6-6.5 9.9l-6.3 10.1c-2.1 3.4-4.1 6.8-6.1 10.2l-6 10.4c-2 3.5-3.9 7-5.8 10.5s-3.8 7-5.6 10.5a3.5 3.5 0 0 1-6.6-2.8z"/><path fill="none" stroke="#31323d" stroke-width="12.5" stroke-miterlimit="10" d="M1206.2 862.9c-44.5-36.6-124.6-49.2-135.6-33.6l64.5 115.2M1607 854c29.5-23.2 133.4-66.3 150.3-57.8L1684 914.8" stroke-linecap="round"/><path fill="#31323d" d="M1292.2 863.7c-2-1.9-3.8-3.8-5.6-5.8l-5.2-6q-5.1-6.1-9.7-12.6a134.6 134.6 0 0 1-15.3-28.2 91.5 91.5 0 0 1-4.5-15.7 71.3 71.3 0 0 1-1.2-16.6 66.6 66.6 0 0 1 1-8.4 61.1 61.1 0 0 1 5.3-16 70.1 70.1 0 0 1 4.2-7.3 5 5 0 0 1 9.2 2.9v.3a27.6 27.6 0 0 0 1.7 11.9 25.3 25.3 0 0 0 6.9 9.6 39.8 39.8 0 0 0 10.7 6.6 57.2 57.2 0 0 0 6.1 2.2l3.2.9 1.6.3h1.4l-5.4 8.8-.4-.6-.3-.5-.5-.9-.9-1.7c-.6-1.1-1.1-2.3-1.6-3.4a53.2 53.2 0 0 1-2.4-7.1 57.1 57.1 0 0 1-1.9-14.8 66.9 66.9 0 0 1 6.6-28.4 90.6 90.6 0 0 1 7.1-12.5 115.2 115.2 0 0 1 8.7-11.2c3.1-3.5 6.3-6.9 9.7-10.1l5.2-4.7 2.5-2.2 1.3-1.1 1.2-1.1a109 109 0 0 0 8.8-9.1 103.6 103.6 0 0 0 7.6-10.1 93.9 93.9 0 0 0 6.2-10.9 90.9 90.9 0 0 0 4.7-11.7 95.1 95.1 0 0 0 4.5-24.7 97.8 97.8 0 0 0-.2-12.6c-.2-2.1-.4-4.2-.7-6.2s-.3-2-.5-3l-.3-1.5-.2-.7v-.8a6.3 6.3 0 0 1 9-7.2c4.7 2.3 9.1 4.7 13.6 7.2l13.3 7.6q13.2 7.8 25.8 16.3a372 372 0 0 1 48.2 38 223.3 223.3 0 0 1 21.1 22.8 140 140 0 0 1 17 26.6 97.3 97.3 0 0 1 5.7 15.1 77.3 77.3 0 0 1 2.8 16.2 68.3 68.3 0 0 1-.9 16.6 71.9 71.9 0 0 1-4.9 15.8l-9-8.2.7-.4.9-.6 1.7-1.2 3.4-2.7 3.2-2.9 3-3.1 2.8-3.3 1.3-1.7 1.2-1.8c.8-1.2 1.6-2.4 2.2-3.7l1-1.9 1-1.9.9-2 .8-2c.3-.7.5-1.4.7-2s.5-1.4.6-2l.6-2.1.5-2.1c.2-.7.3-1.4.4-2.1s.3-1.4.3-2.1.4-2.9.4-4.3.1-1.4.1-2.2v-2.2c.1-1.4-.1-2.9-.1-4.4s-.3-2.9-.4-4.4v-.4a6.2 6.2 0 0 1 5.7-6.7 6.3 6.3 0 0 1 5.4 2.4l.9 1.2.8 1.1 1.5 2.2 2.8 4.5c1.8 3 3.4 6.2 4.8 9.3a135.1 135.1 0 0 1 12.6 60.6 143.2 143.2 0 0 1-7.1 40.5c-.5 1.6-1.1 3.2-1.7 4.9l-1.8 4.8c-1.3 3.2-2.6 6.3-4.1 9.4s-3 6.1-4.6 9.1l-2.5 4.5-2.6 4.4a3.5 3.5 0 0 1-6.1-3.4l2.3-4.3 2.2-4.4c1.4-2.9 2.8-5.9 4.1-8.9s2.5-6 3.6-9.1l1.6-4.6c.5-1.6 1-3.1 1.4-4.7a134.1 134.1 0 0 0 5.3-38.2 124.2 124.2 0 0 0-13.5-55.3c-1.4-2.8-3-5.6-4.7-8.3l-2.6-3.9-1.3-1.9-.7-.9-.6-.8 11-4.7c.2 1.7.4 3.4.5 5.1s.2 3.4.2 5.2v2.6c0 .9-.1 1.7-.1 2.6s-.3 3.5-.5 5.2-.3 1.7-.4 2.6-.3 1.7-.5 2.6l-.6 2.6-.7 2.5c-.2.8-.5 1.7-.8 2.5s-.5 1.7-.9 2.5l-1 2.4-1.1 2.4-1.2 2.4-1.2 2.3c-.8 1.5-1.8 3-2.7 4.5l-1.5 2.2-1.6 2.1-3.3 4-3.6 3.8-3.8 3.5-4.1 3.3-2.2 1.5-1.1.7-1.3.8a6.4 6.4 0 0 1-9-8h.1a59.1 59.1 0 0 0 3.9-13 56.9 56.9 0 0 0 .7-13.5 72.8 72.8 0 0 0-7.4-26.6 127.3 127.3 0 0 0-15.4-24.1 210.6 210.6 0 0 0-19.9-21.5c-7.1-6.8-14.7-13.2-22.4-19.3s-15.8-11.9-24-17.5-16.6-10.9-25.2-16l-12.9-7.4c-4.3-2.4-8.8-4.8-13.1-6.9l8.9-7.4.3 1 .2.9.4 1.8.6 3.6s.6 4.7.8 7.1a110.4 110.4 0 0 1 .2 14.2 107.7 107.7 0 0 1-5.1 28 103.4 103.4 0 0 1-5.3 13.2 106.4 106.4 0 0 1-7.1 12.4 113 113 0 0 1-8.6 11.3 121.2 121.2 0 0 1-9.9 10.1l-1.3 1.2-1.3 1.1-2.6 2.2-4.9 5.1c-3.1 2.9-6.2 6-9 9.2a103.1 103.1 0 0 0-7.8 10 78.7 78.7 0 0 0-6.3 10.8 63.2 63.2 0 0 0-4.2 11.5 50.5 50.5 0 0 0-1.6 11.9 45.5 45.5 0 0 0 1.3 11.8 41.7 41.7 0 0 0 1.8 5.6l1.2 2.6.7 1.2.3.6.2.4.2.4a5.6 5.6 0 0 1-5.6 8.5l-1.1-.2-1-.2-1.9-.5-3.8-1.1a63 63 0 0 1-7.3-2.8 50.5 50.5 0 0 1-13.5-8.8 38.2 38.2 0 0 1-5.5-6.3 34.6 34.6 0 0 1-3.9-7.5 35.6 35.6 0 0 1-2-8.2 42.1 42.1 0 0 1-.1-8.2l9.2 3.2a60.1 60.1 0 0 0-3.7 6.1 52.5 52.5 0 0 0-2.9 6.5 53.1 53.1 0 0 0-1.9 6.8 57.2 57.2 0 0 0-1 7.1c-.7 9.6 1.1 19.4 4.5 28.7a126.5 126.5 0 0 0 13.7 26.8c2.8 4.2 5.8 8.3 9 12.3l4.9 5.9c1.7 1.9 3.4 3.8 5.1 5.5a3.5 3.5 0 0 1-4.8 5.1z"/></g><g id="eye"><defs><clipPath id="eyeClipPath"><circle cx="1696" cy="1101.3" r="129.7" fill="#fff" stroke="#31323d" stroke-width="10" stroke-miterlimit="10" transform="translate(381.9 2638.3) rotate(-82.5)" stroke-linecap="round"/></clipPath><clipPath id="eyeClipPath2"><circle cx="1168.9" cy="1127" r="129.7" fill="#fff" stroke="#31323d" stroke-width="10" stroke-miterlimit="10" transform="translate(-137.7 163) rotate(-7.5)" stroke-linecap="round"/></clipPath></defs><circle cx="1696" cy="1101.3" r="129.7" fill="#fff" transform="translate(381.9 2638.3) rotate(-82.5)"/><g clip-path="url(#eyeClipPath)"><circle cx="1653.5" cy="1132.4" r="87.6" fill="#Ff9088" transform="translate(-134.2 226.5) rotate(-7.5)"/><circle cx="1657.1" cy="1133.7" r="64.7" fill="#31323d" transform="translate(-134.3 227) rotate(-7.5)"/><circle cx="1679.1" cy="1078.3" r="35.2" fill="#fff" transform="translate(-126.9 229.4) rotate(-7.5)"/></g><circle cx="1696" cy="1101.3" r="129.7" fill="none" stroke="#31323d" stroke-width="10" stroke-miterlimit="10" transform="translate(381.9 2638.3) rotate(-82.5)" stroke-linecap="round"/><path fill="none" stroke="#31323d" stroke-width="30" stroke-miterlimit="10" d="M1828.1 1011.3c-65.3 5.4-115.7-35.5-151.7-66.9" stroke-linecap="round"/><circle cx="1168.9" cy="1127" r="129.7" fill="#fff" transform="translate(-137.7 163) rotate(-7.5)"/><g clip-path="url(#eyeClipPath2)"><circle cx="1211.4" cy="1158.2" r="87.6" fill="#Ff9088" transform="translate(-141.4 168.8) rotate(-7.5)"/><circle cx="1215" cy="1159.4" r="64.7" fill="#31323d" transform="translate(-141.5 169.3) rotate(-7.5)"/><circle cx="1237.1" cy="1104" r="35.2" fill="#fff" transform="translate(-134 171.7) rotate(-7.5)"/></g><circle cx="1168.9" cy="1127" r="129.7" fill="none" stroke="#31323d" stroke-width="10" stroke-miterlimit="10" transform="translate(-137.7 163) rotate(-7.5)" stroke-linecap="round"/><path fill="none" stroke="#31323d" stroke-width="30" stroke-miterlimit="10" d="M1036.8 1037c65.3 5.4 115.7-35.5 151.7-66.9" stroke-linecap="round"/></g><g id="mouth"><path d="M1287.7,1289.4l2.2,1.2c1.4,0.7,3.6,1.8,6.4,3a120.8,120.8,0,0,0,23.9,7.6c2.5,0.5,5.2,1,7.9,1.3a83.5,83.5,0,0,0,8.5.6,76.2,76.2,0,0,0,18.1-1.6,66.7,66.7,0,0,0,17.9-6.6,65.5,65.5,0,0,0,8.2-5.3c1.3-.9,2.6-2,3.9-3.1l1.8-1.7,1.8-1.7a96.2,96.2,0,0,0,12.5-15.4,127.5,127.5,0,0,0,9.4-17.1c2.7-5.8,4.8-11.6,6.8-17.1,0.9-2.8,1.8-5.5,2.6-8.2l1.2-3.9,1-3.8c0.7-2.5,1.3-4.9,1.8-7.2l0.8-3.3,0.7-3.2c0.9-4.1,1.5-7.7,2.1-10.7s0.4-2.8.8-4a10.2,10.2,0,0,1,1.3-2.8,8.9,8.9,0,0,1,1.4-1.6l0.6-.5h0.1a7.1,7.1,0,0,1,9.7,1.8l0.4,0.7a8.9,8.9,0,0,1,.7,2.1,10.8,10.8,0,0,1,.2,3.2,31.4,31.4,0,0,1-.8,4.1c-0.7,3.1-1.5,6.8-2.6,11.1l-0.8,3.3-1,3.5c-0.7,2.4-1.3,4.9-2.2,7.5l-1.2,4-1.4,4.1c-0.9,2.8-2,5.6-3.1,8.6a192.1,192.1,0,0,1-8.1,18,139.3,139.3,0,0,1-11.1,18.1,100.7,100.7,0,0,1-14.9,16.4l-2.1,1.8-2.2,1.8c-1.5,1.1-3,2.3-4.6,3.2a74.9,74.9,0,0,1-9.7,5.5,73.1,73.1,0,0,1-20.6,6.2,76.4,76.4,0,0,1-10.2.8,78.2,78.2,0,0,1-9.7-.4,89.9,89.9,0,0,1-9-1.3c-2.9-.6-5.6-1.2-8.2-2a113.6,113.6,0,0,1-13.9-5c-4-1.7-7.4-3.4-10.2-4.9s-4.8-2.8-6.3-3.7l-2.2-1.4h0A1.2,1.2,0,0,1,1287.7,1289.4Z" fill="#31323d"/><path d="M1591.5,1276.6l-2,1.6c-1.3,1-3.3,2.5-5.9,4.3s-5.8,3.8-9.6,5.9a113.6,113.6,0,0,1-13.3,6.3c-2.5,1-5.2,1.9-8,2.8a89.8,89.8,0,0,1-8.9,2.2,78.2,78.2,0,0,1-9.6,1.3,76.4,76.4,0,0,1-10.2.2,73,73,0,0,1-21.1-4.1,74.9,74.9,0,0,1-10.2-4.5c-1.7-.8-3.3-1.8-4.9-2.8l-2.3-1.5-2.3-1.6a100.7,100.7,0,0,1-16.4-14.9,139.3,139.3,0,0,1-12.8-17,192.1,192.1,0,0,1-9.8-17.1c-1.3-2.8-2.7-5.5-3.9-8.2l-1.8-3.9-1.6-3.8c-1.1-2.5-2-4.9-2.9-7.2l-1.3-3.4-1.1-3.2c-1.5-4.1-2.7-7.8-3.6-10.8a31.5,31.5,0,0,1-1.2-4,10.8,10.8,0,0,1-.1-3.2,8.9,8.9,0,0,1,.5-2.1l0.3-.8a7.1,7.1,0,0,1,9.5-2.7h0.2l0.7,0.5a8.9,8.9,0,0,1,1.6,1.5,10.2,10.2,0,0,1,1.6,2.7c0.5,1.1.7,2.4,1.1,3.9s1.8,6.4,3.1,10.4l1,3.1,1.1,3.3c0.8,2.2,1.5,4.6,2.5,7l1.4,3.7,1.5,3.8c1,2.6,2.2,5.2,3.4,7.9,2.5,5.3,5.2,10.9,8.4,16.4a127.5,127.5,0,0,0,11,16.1,96.2,96.2,0,0,0,14,14.1l2,1.5,2,1.5c1.4,0.9,2.7,1.9,4.1,2.7a65.5,65.5,0,0,0,8.7,4.5,66.7,66.7,0,0,0,18.5,4.8,76.2,76.2,0,0,0,18.2-.2,83.6,83.6,0,0,0,8.4-1.5c2.7-.6,5.3-1.3,7.8-2.1a120.8,120.8,0,0,0,23-9.9c2.7-1.5,4.7-2.7,6.1-3.6l2.1-1.4a1.2,1.2,0,0,1,1.5,1.8h0Z" fill="#31323d"/><path d="M1376.8,1171.3a12.7,12.7,0,0,1,2.4-13.7c7.2-7.8,23-19.6,53.2-21.3s45.1,8.1,52.3,15.2a12.6,12.6,0,0,1,2.8,13.6h0a17.7,17.7,0,0,1-15,11.2c-8.5.7-20.2,3.8-27.1,14.8a11.2,11.2,0,0,1-1.5,1.9l-0.3.3a15,15,0,0,1-21.5-.1h0s-6.7-10.3-29.6-10.9a17.6,17.6,0,0,1-15.6-10.7v-0.3Z" fill="#31323d"/><path d="M1511.8,1334.4l-0.4,1.8c-0.2.6-.3,1.3-0.5,2.2l-1,3-1.4,3.6c-0.6,1.3-1.2,2.7-2.1,4.1a56.1,56.1,0,0,1-6.3,9.2,63,63,0,0,1-9.6,9.2l-2.9,2.1-3.1,2c-2.1,1.3-4.4,2.5-6.7,3.6s-4.8,2.1-7.3,3l-3.8,1.2-3.9,1a77.5,77.5,0,0,1-16.2,1.9,81.8,81.8,0,0,1-16.2-1.4,83.6,83.6,0,0,1-15.1-4.4l-0.9-.3-0.4-.2h-0.5l-1.6-.7-3.3-1.6c-2.3-1.1-4.3-2.3-6.3-3.5a76.6,76.6,0,0,1-10.4-7.7,75.2,75.2,0,0,1-7.6-7.8,71.2,71.2,0,0,1-5-6.7c-0.7-.9-1.2-1.8-1.6-2.6l-1.1-2-0.9-1.7a2.5,2.5,0,0,1,4-2.9h0.1l1.2,1.3,3.5,3.4c1.5,1.5,3.5,3.1,5.7,4.9s4.9,3.7,7.9,5.5a91.1,91.1,0,0,0,9.9,5.4l2.8,1.2,2.8,1.1,3,1.1,1.6,0.6,1.4,0.4a85.9,85.9,0,0,0,12.9,2.9,81.5,81.5,0,0,0,13.5.8,80.6,80.6,0,0,0,13.4-1.4l3.2-.7,3.2-.8c2.1-.6,4.1-1.3,6.1-2s3.9-1.6,5.7-2.5l2.7-1.4,2.6-1.5a65.7,65.7,0,0,0,8.9-6.4,60.7,60.7,0,0,0,6.7-6.6,72.4,72.4,0,0,0,4.6-5.8l1.5-2.2c0.5-.6.8-1.3,1.1-1.8l1-1.6A2.5,2.5,0,0,1,1511.8,1334.4Z" fill="#31323d"/><path d="M1379.1,1342.1s6.2,72.4,67,67.9c58.8-4.3,63-72.5,63-72.5s-20.1,31-58.2,32.8S1379.1,1342.1,1379.1,1342.1Z" fill="#595959" opacity=".2" style="mix-blend-mode:multiply"/><path d="M1503.1,1227l7.4-1.1c4.9-.7,12-1.7,21.1-2.8a703.9,703.9,0,0,1,75.5-4.6,689,689,0,0,1,106.5,7.6c19.3,2.9,39.2,6.8,59.1,11.6s39.9,10.8,59.6,17.7,39,14.7,57.6,23.3l13.8,6.6,13.5,6.9,6.6,3.5,6.5,3.6c4.3,2.4,8.7,4.7,12.8,7.3l12.5,7.4,12,7.6,3,1.9,2.9,1.9,5.7,3.9,5.7,3.8,5.5,3.9c14.6,10.2,27.9,20.7,39.9,30.6s22.6,19.5,31.8,28.2c4.6,4.4,8.9,8.4,12.7,12.3l5.6,5.6,5,5.2c3.2,3.2,5.9,6.2,8.3,8.8l3.3,3.6,2.7,3,5,5.6-5.1-5.5-2.8-3-3.4-3.5c-2.4-2.5-5.2-5.5-8.4-8.7l-5-5.1-5.6-5.5c-3.9-3.8-8.2-7.8-12.9-12.1-9.4-8.5-20-17.9-32.2-27.6s-25.5-19.9-40.3-29.9l-5.5-3.8-5.7-3.7-5.8-3.8-2.9-1.9-3-1.8-12.1-7.4-12.5-7.2c-4.2-2.5-8.5-4.7-12.9-7l-6.5-3.5-6.7-3.4-13.5-6.7-13.8-6.3c-18.6-8.2-37.9-15.7-57.5-22.3s-39.5-12.1-59.3-16.6-39.5-8.1-58.7-10.6a681.3,681.3,0,0,0-105.4-5.9,694.9,694.9,0,0,0-74.5,5.6c-8.9,1.2-15.9,2.3-20.7,3l-7.3,1.2h0a5,5,0,1,1-1.6-9.9h0.1Z" fill="#31323D"/><path d="M1372.1,1234.6l-4.7-.7c-3-.4-7.5-1-13.2-1.6a355.2,355.2,0,0,0-47.4-1.4,343.7,343.7,0,0,0-66.6,8.8,312.1,312.1,0,0,0-36.3,11,298.6,298.6,0,0,0-35.8,16,277.7,277.7,0,0,0-33.3,20.8c-5.3,3.7-10.3,7.8-15.3,11.8s-9.7,8.3-14,12.6l-3.3,3.2-3.2,3.3-6.3,6.5-5.9,6.6c-1.9,2.2-3.7,4.4-5.6,6.6a289.3,289.3,0,0,0-19,25.8c-5.4,8.3-10.1,16.2-13.8,23.3-1,1.8-1.9,3.5-2.7,5.2l-2.5,4.9c-1.5,3.2-2.9,6-4.1,8.7-2.4,5.3-4.1,9.5-5.3,12.4l-1.8,4.4,1.7-4.5c1.1-2.9,2.7-7.2,5-12.5,1.1-2.7,2.5-5.6,3.9-8.8l2.4-4.9c0.8-1.7,1.7-3.5,2.6-5.3,3.6-7.3,8.1-15.2,13.3-23.7a291.4,291.4,0,0,1,18.5-26.4c1.8-2.2,3.5-4.6,5.4-6.8l5.8-6.8c2-2.3,4.1-4.5,6.2-6.7l3.2-3.4,3.3-3.3c4.4-4.5,9.1-8.7,13.9-13s9.9-8.4,15.2-12.3a282.2,282.2,0,0,1,33.3-21.9,304.1,304.1,0,0,1,36.1-17.1,318.5,318.5,0,0,1,36.8-12.1,351.3,351.3,0,0,1,67.8-10.6,364.3,364.3,0,0,1,48.7.3c5.9,0.4,10.5.9,13.6,1.3l4.8,0.6a5,5,0,0,1-1.3,9.9h-0.2Z" fill="#31323D"/><path d="M738.2,1388.8l5.3-4.8c3.5-3.1,8.6-7.7,15.2-13.4,13.3-11.4,32.6-27.2,57.2-44.5a739.6,739.6,0,0,1,87.7-53c16.7-8.6,34.3-16.8,52.5-24.4s37-14.5,56.1-20.6,38.5-11.4,57.7-15.8l14.4-3.1,3.6-.8,3.6-.7,7.1-1.3,7.1-1.3,7.1-1.1,7.1-1.1,3.5-.6,3.5-.5,13.9-1.9,13.7-1.5c4.5-.5,9-0.8,13.4-1.2l6.6-.6,6.5-.4,12.7-.7,12.4-.5,12-.2h22.6l10.6,0.3,10,0.4,9.5,0.5,8.9,0.6,8.2,0.7,14.5,1.4,11.7,1.3,8.6,1.1,7.2,1a5,5,0,0,1-1.3,9.9h-0.2l-7.1-1.1-8.5-1.2-11.5-1.5-14.3-1.6-8.1-.8-8.8-.7-9.3-.6-9.9-.6-10.4-.4-10.9-.3h-23.2l-12.2.3-12.6.5-6.4.3-6.5.5c-4.4.3-8.8,0.5-13.3,1l-13.5,1.3-13.8,1.6-3.5.4-3.5.5-7,1-7,1-7.1,1.2-7.1,1.2-3.6.6-3.5.7-14.3,2.9c-19.2,4-38.5,9-57.5,14.8s-37.9,12.4-56.1,19.6-35.9,15.1-52.6,23.4a737.3,737.3,0,0,0-88.2,51.5c-24.8,16.8-44.4,32.4-57.8,43.5-6.7,5.6-11.9,10.1-15.4,13.2Z" fill="#31323D"/><path d="M1528.2,1199.9l94.1-6.2,45.6-3,24.9-1.6,12.9-.8,6.6-.4,6.6-.3,6.6-.3,6.7-.2h13.7c2.3-.1,4.6.1,6.9,0.1l6.9,0.2,7,0.2,7,0.5c9.3,0.5,18.7,1.6,28.1,2.6l14,2,3.5,0.5,3.5,0.6,7,1.3,7,1.3,6.9,1.5,6.9,1.5,3.5,0.8,3.4,0.9,13.7,3.6,13.4,4.1,3.3,1,3.3,1.1,6.6,2.3,6.5,2.2,6.4,2.5,6.4,2.5c2.1,0.8,4.2,1.6,6.3,2.5l12.3,5.3,6,2.8,5.9,2.8,5.9,2.8,5.7,3,11.2,5.9,10.7,6.1,10.3,6.1,10,6,18.9,11.3,80.8,48.5-81.6-47.1-19.1-11-10.1-5.8-10.4-5.9-10.8-5.9-11.2-5.7-5.7-2.9-5.9-2.7-5.9-2.7-6-2.7-12.3-5.1c-2.1-.9-4.2-1.6-6.3-2.4l-6.4-2.3-6.4-2.3-6.5-2.1-6.5-2.1-3.3-1.1-3.3-.9-13.4-3.8-13.6-3.3-3.4-.8-3.4-.7-6.9-1.4-6.9-1.4-6.9-1.2-6.9-1.1-3.5-.6-3.5-.5-13.9-1.8c-9.3-.8-18.5-1.8-27.8-2.1l-6.9-.4h-13.7c-2.3,0-4.5-.1-6.8,0l-13.4.3-6.7.3-6.6.4-6.6.4-6.5.5-12.9,1.1-24.8,2-45.5,3.7-94,7.7a5,5,0,1,1-.8-10h0.1Z" fill="#31323D"/><path d="M1357.6,1256.3l-0.6-.2-1.8-.4c-1.6-.4-3.9-0.8-6.9-1.3a118.2,118.2,0,0,0-25.1-1.2,106.8,106.8,0,0,0-16.6,2.3,93.4,93.4,0,0,0-17.8,5.9,86.7,86.7,0,0,0-17.3,10.2l-2.1,1.6-2,1.6c-1.3,1.1-2.6,2.3-3.9,3.5a96.2,96.2,0,0,0-7.2,7.6,98.4,98.4,0,0,0-11.8,17.4,106.2,106.2,0,0,0-7.8,18.9,110.3,110.3,0,0,0-4,18.8,119.5,119.5,0,0,0-.9,17.3,117.8,117.8,0,0,0,1.2,14.6c0.6,4.3,1.4,8.1,2.1,11.2s1.4,5.5,1.9,7.1l0.7,2.5-0.9-2.4c-0.6-1.6-1.3-4-2.2-7s-1.8-6.8-2.6-11.1a119,119,0,0,1-1.8-14.7,121.6,121.6,0,0,1,.2-17.6,113.1,113.1,0,0,1,3.3-19.4,109.9,109.9,0,0,1,7.2-19.9,102.9,102.9,0,0,1,11.5-18.7,101.4,101.4,0,0,1,7.3-8.4c1.3-1.3,2.6-2.6,4-3.9l2.1-1.9,2.1-1.7a93.1,93.1,0,0,1,18.1-11.7,100.6,100.6,0,0,1,18.9-7.1,114.8,114.8,0,0,1,17.8-3.3,127.2,127.2,0,0,1,27.1.2c3.3,0.4,5.8.8,7.6,1.1l2,0.4h0.6a5,5,0,0,1-2,9.8h-0.2Z" fill="#31323D"/><path d="M1526.5,1247.4l2.7-.3,7.9-.6h12.3a128.9,128.9,0,0,1,15.8,1.9,121.4,121.4,0,0,1,37.3,13.4,115.4,115.4,0,0,1,18.3,12.8,106.3,106.3,0,0,1,15.7,16.8,102.7,102.7,0,0,1,6.4,9.6c0.9,1.7,1.9,3.3,2.8,5l1.3,2.6,1.1,2.5c0.8,1.6,1.5,3.5,2.2,5.2s1.2,3.5,1.8,5.3a103.1,103.1,0,0,1,4.6,31,114.4,114.4,0,0,1-1.5,18.3,128.7,128.7,0,0,1-7.2,26.3c-1.2,3.1-2.3,5.4-3,7l-1.2,2.4,1.1-2.5c0.7-1.6,1.7-4,2.7-7.1a127.8,127.8,0,0,0,6-26.4,112.5,112.5,0,0,0,.7-18,100,100,0,0,0-5.7-29.9c-0.7-1.7-1.3-3.3-2-5s-1.4-3.2-2.3-4.9a95.2,95.2,0,0,0-11.9-18.4,100.9,100.9,0,0,0-15.6-15.3,109.1,109.1,0,0,0-17.8-11.3,113.8,113.8,0,0,0-35.4-11.1,120.1,120.1,0,0,0-14.8-1.1h-6.2l-5.2.3-7.3.8-2.7.4a5,5,0,1,1-1.5-9.9h0.2Z" fill="#31323D"/></g></svg>