<svg xmlns="http://www.w3.org/2000/svg" width="42" height="42"><g fill="none" fill-rule="evenodd"><ellipse cx="21" cy="20.971" fill="#ECE4FF" rx="21" ry="20.971"/><ellipse cx="20.75" cy="31.375" fill="#CABAFF" rx="14.25" ry="1.375"/><path fill="#C9C1FF" d="M14.986 14.278c-2.655.59-4.305 1.648-6.103 5.959-1.797 4.311-2.207 9.199.258 10.354 1.307.612 2.283-.081 3.795-1.432 2.3-2.055 3.62-4.496 7.937-4.496 4.319 0 5.417 2.824 7.231 4.496 1.815 1.672 3.535 2.46 5.28 1.101 1.745-1.358 1.514-5.618-.374-10.023-1.888-4.405-3.762-5.355-6.073-5.959-2.311-.604-9.297-.59-11.951 0z"/><path fill="#9788FB" d="M9.223 19.927c-.906 1.796-1.901 9.473 0 10.56 1.242.71 2.049.255 3.561-1.096 2.301-2.054 3.898-4.813 8.216-4.813 5.62 0 7.292 5.582 8.948 5.91.113.022 2.1.445 2.599.23 1.241-.532 1.397-2.572.729-1.95-.669.623-1.745.711-2.546.293-1.47-.768-2.78-2.618-3.434-3.35-1.01-1.133-3.19-2.449-6.296-2.449-3.105 0-4.479.751-5.388 1.316-1.638 1.017-1.794 1.132-3.755 2.666-.838.656-1.658-.16-1.9-1.534-.272-1.54-.114-6.331 1.667-8.641.37-.48-1.494 1.062-2.4 2.858z"/><path fill="#FFF" d="M19.81 14.406c6.946-.433 11.406 1.334 13.204 5.645 1.798 4.312.12 9.798.221 9.322.17-.794.056-2.097-.22-3.378-.652-3.012-1.29-6.845-4.925-9.401-1.19-.837-4.898-.54-6.756-.54-1.858 0-3.852-.326-5.21-.274-1.978.076-3.744.923-4.696 1.797.451-1.412.617-2.258 3.32-2.794 1.098-.217 5.39-.377 5.062-.377z"/><path stroke="#2D2734" stroke-width="1.2" d="M14.96 14.4c-2.74.452-4.385 1.944-6.02 5.824-1.805 4.284-1.774 9.003.016 10.096 1.2.732 2.26.42 3.86-.997.333-.294.653-.609 1.053-1.03.139-.146.608-.647.633-.674 2.09-2.22 3.604-3.077 6.487-3.077 2.978 0 4.353.896 6.197 3.292.164.214.251.327.328.425.366.474.634.795.924 1.1 1.389 1.457 3.384 1.827 4.798.962 1.587-.972 1.576-5.901-.238-10.09-1.653-3.82-3.465-5.4-6.051-5.831-.644-.108-1.43-.146-2.397-.132a47.43 47.43 0 0 0-1.778.068c-1.191.061-1.373.07-1.78.072-.436.003-.688-.008-1.924-.07a49.732 49.732 0 0 0-1.681-.064c-.986-.018-1.78.019-2.427.126z"/><path stroke="#2D2734" stroke-linecap="round" stroke-width="1.32" d="M20.23 9.3c1.852.282 1.658 1.906.723 2.325-.935.42-.897 2.172.23 2.395"/><path fill="#2D2734" d="M12.735 14.568c-.01-.56-.166-.851.582-1.019a37.932 37.932 0 0 1 3.007-.494c.665-.071.874.045.96.723.085.677-4.54 1.35-4.549.79zm15.727 0c.01-.56.167-.851-.582-1.019a37.932 37.932 0 0 0-3.006-.494c-.666-.071-.874.045-.96.723-.085.677 4.539 1.35 4.548.79z"/><g transform="translate(22.4 17.7)"><circle cx="6.633" cy="4.24" r="1.298" fill="#F87C2F" transform="rotate(2 6.633 4.24)"/><circle cx="1.799" cy="1.965" r="1.4" fill="#F1BE09" transform="rotate(2 1.8 1.965)"/><circle cx="6.545" cy="3.466" r="1.05" fill="#FFB462" transform="rotate(2 6.545 3.466)"/><circle cx="2.384" cy="1.134" r="1.05" fill="#FFEB79" transform="rotate(2 2.384 1.134)"/></g><g fill="#2D2734"><path fill-rule="nonzero" d="M28.65 22.743a.931.931 0 1 0 .065-1.86.931.931 0 0 0-.065 1.86zm-.048 1.4a2.331 2.331 0 1 1 .162-4.66 2.331 2.331 0 0 1-.162 4.66zm-4.157-3.678a.931.931 0 1 0 .065-1.86.931.931 0 0 0-.065 1.86zm-.049 1.4a2.331 2.331 0 1 1 .163-4.66 2.331 2.331 0 0 1-.163 4.66z"/><path d="M16.275 19.275H17.6a.6.6 0 0 1 .6.6v.9a.6.6 0 0 1-.6.6h-1.325V22.7a.6.6 0 0 1-.6.6h-.9a.6.6 0 0 1-.6-.6v-1.325H12.85a.6.6 0 0 1-.6-.6v-.9a.6.6 0 0 1 .6-.6h1.325V17.95a.6.6 0 0 1 .6-.6h.9a.6.6 0 0 1 .6.6v1.325z"/></g></g></svg>