<svg xmlns="http://www.w3.org/2000/svg" xmlns:xlink="http://www.w3.org/1999/xlink" width="42" height="42"><defs><ellipse id="a" cx="21" cy="20.971" rx="21" ry="20.971"/></defs><g fill="none" fill-rule="evenodd"><mask id="b" fill="#fff"><use xlink:href="#a"/></mask><use fill="#FCC8F0" xlink:href="#a"/><g mask="url(#b)"><path fill="#FFF" d="M15.269 12.21l-.17-1.22.003-.001c-.171-.767.56-1.64 2-2.216 1.965-.787 4.506-.722 5.674.145.343.254.53.55.572.86l.182 1.3c-.043-.31-.23-.605-.573-.86-1.168-.866-3.708-.93-5.673-.145-1.39.556-2.12 1.39-2.015 2.136"/><path fill="#FFE453" d="M15.283 12.29a.914.914 0 0 1-.014-.08c-.105-.748.625-1.58 2.015-2.137 1.965-.786 4.505-.721 5.673.145.344.255.53.55.573.86.102.747-.628 1.579-2.015 2.134-1.966.787-4.506.721-5.674-.145-.313-.232-.495-.497-.558-.777"/><path fill="#FEFFC9" d="M22.269 9.906c.345.084.805.38 1.071.527l-.128-1.272c-.264-.152-.703-.514-1.05-.602l.107 1.347z"/><path fill="#F3AC09" d="M18.013 8.478c-.312.08-.617.178-.91.295-.631.252-1.762.892-1.964 1.671l.108 1.347c.95 2.417 4.554 1.665 4.697 1.425-.982 0-2.66-.124-3.298-.953-.389-.505-.15-1.415.334-1.694.313-.18.87-.7 1.166-.777l-.133-1.314z"/><path fill="#301A37" fill-rule="nonzero" d="M15.673 12.2a.4.4 0 0 1-.78.18 1.265 1.265 0 0 1-.02-.116c-.14-.993.754-1.959 2.262-2.562 2.083-.833 4.766-.765 6.06.195.418.31.671.695.731 1.126a.4.4 0 1 1-.792.11c-.029-.204-.16-.405-.415-.593-1.042-.773-3.44-.834-5.286-.095-1.208.483-1.843 1.17-1.768 1.71a.502.502 0 0 0 .008.045z"/><path fill="#301A37" fill-rule="nonzero" d="M23.134 11.133a.4.4 0 1 1 .792-.109c.136.992-.757 1.957-2.262 2.559-2.083.834-4.767.766-6.06-.195-.38-.28-.624-.624-.711-1.01a.4.4 0 1 1 .78-.176c.042.187.173.371.406.544 1.042.773 3.44.834 5.287.094 1.206-.482 1.842-1.169 1.768-1.707z"/><path fill="#301A37" fill-rule="nonzero" d="M23.926 11.023a.4.4 0 0 1-.792.11l-.182-1.3a.4.4 0 0 1 .792-.111l.182 1.301zm-8.25 1.212a.4.4 0 0 1-.792.11l-.012-.08-.17-1.22a.4.4 0 0 1 .792-.111l.17 1.22.012.081z"/><path fill="#301A37" fill-rule="nonzero" d="M15.492 10.902a.4.4 0 0 1-.78.174c-.23-1.027.674-2.047 2.242-2.674 2.082-.834 4.766-.766 6.06.194.417.309.67.695.73 1.126a.4.4 0 1 1-.792.11c-.028-.204-.16-.405-.415-.593-1.042-.773-3.44-.834-5.286-.095-1.249.5-1.88 1.214-1.76 1.758z"/><path fill="#FFF" d="M18.828 17.066l-.415-1.256h.003c-.328-.778.277-1.84 1.688-2.723 1.925-1.206 4.623-1.622 6.025-.93.412.202.666.479.772.797l.443 1.34c-.106-.32-.36-.596-.772-.799-1.402-.692-4.1-.275-6.025.93-1.362.854-1.973 1.872-1.719 2.641"/><path fill="#FDE35C" d="M18.86 17.149a.962.962 0 0 1-.032-.083c-.254-.769.357-1.787 1.719-2.64 1.925-1.206 4.623-1.623 6.025-.931.412.203.666.48.772.799.252.768-.36 1.786-1.72 2.637-1.925 1.207-4.623 1.623-6.025.931-.376-.184-.62-.43-.74-.713"/><path fill="#FFF" d="M23.51 13.25c1.58.215 2.4.764 2.464 1.649.064.885-1.49 1.99-4.66 3.318l1.544-.061c2.095-.982 3.431-1.774 4.009-2.377.505-.527.225-1.469.092-2.747-.133-1.28-3.723-.992-3.723-.992l.274 1.21z"/><path fill="#F3AC09" d="M21.01 12.602a7.869 7.869 0 0 0-.906.485c-.618.388-1.69 1.28-1.753 2.14l.373 1.402c.185.427.678 1.101 1.38 1.254 1.386.3 3.375-.34 2.9-.34-4.152 0-3.119-2.105-2.345-3.048.202-.247.448-.393.745-.531l-.394-1.362z"/><path fill="#301A37" fill-rule="nonzero" d="M19.318 16.95a.5.5 0 0 1-.917.398 1.44 1.44 0 0 1-.048-.125c-.35-1.06.426-2.28 1.928-3.22 2.06-1.29 4.935-1.735 6.512-.956.517.254.872.627 1.025 1.09a.5.5 0 0 1-.95.314c-.062-.192-.228-.365-.517-.508-1.226-.605-3.747-.215-5.539.907-1.159.725-1.68 1.544-1.509 2.06.006.016.01.03.015.04z"/><path fill="#301A37" fill-rule="nonzero" d="M26.868 14.45a.5.5 0 0 1 .95-.312c.349 1.06-.427 2.278-1.928 3.217-2.06 1.29-4.935 1.735-6.512.956-.469-.23-.805-.559-.979-.966a.5.5 0 1 1 .92-.392c.074.173.235.33.501.461 1.226.605 3.748.216 5.54-.907 1.156-.723 1.678-1.542 1.508-2.057z"/><path fill="#301A37" fill-rule="nonzero" d="M27.818 14.137a.5.5 0 0 1-.95.314l-.442-1.34a.5.5 0 0 1 .95-.314l.442 1.34zm-8.488 2.856a.5.5 0 0 1-.949.314l-.028-.084-.415-1.256a.5.5 0 1 1 .95-.314l.415 1.256.027.084z"/><path fill="#301A37" fill-rule="nonzero" d="M18.877 15.615a.5.5 0 0 1-.921.389c-.457-1.08.32-2.362 1.883-3.34 2.059-1.29 4.934-1.735 6.51-.956.517.253.873.627 1.026 1.09a.5.5 0 0 1-.95.313c-.062-.19-.228-.364-.517-.506-1.226-.605-3.748-.216-5.539.906-1.198.75-1.708 1.593-1.492 2.104z"/><path fill="#FFF" d="M17.968 21.904l.16-1.609.005.001c.02-1.031 1.223-1.915 3.238-2.2 2.749-.39 5.969.486 7.19 1.956.36.43.505.866.465 1.274l-.172 1.716c.041-.41-.105-.844-.464-1.276-1.221-1.47-4.441-2.345-7.19-1.956-1.945.275-3.133 1.11-3.232 2.094"/><path fill="#EA9D06" d="M17.962 22.011c0-.035.003-.072.006-.107.099-.985 1.287-1.819 3.232-2.094 2.749-.389 5.969.487 7.19 1.956.36.432.505.866.464 1.276-.1.983-1.288 1.816-3.23 2.09-2.75.39-5.97-.486-7.19-1.956-.329-.393-.478-.788-.472-1.165"/><path fill="#D17D00" d="M18.05 22.502c.064-.641 1.542-1.325 2.528-1.484 1.822-.294 3.075-.294 4.61.554.89-.18 2.806-.142 3.315.47.36.432.392.59.351 1-.1.983-1.288 1.816-3.23 2.09-2.75.39-5.97-.486-7.19-1.956"/><path fill="#F3AC09" d="M22.624 18.004a9.617 9.617 0 0 0-1.253.092c-.883.125-2.524.587-3.022 1.518l-.28 1.75c.805-1.037 2.206-1.423 3.13-1.554a9.62 9.62 0 0 1 1.187-.09l.238-1.716z"/><path fill="#301A37" fill-rule="nonzero" d="M18.462 22.016a.5.5 0 0 1-1-.009c0-.05.003-.1.009-.153.13-1.295 1.558-2.242 3.659-2.539 2.906-.41 6.298.512 7.644 2.131.433.52.634 1.084.578 1.645a.5.5 0 1 1-.995-.1c.028-.276-.081-.58-.351-.905-1.096-1.319-4.143-2.147-6.736-1.78-1.7.24-2.732.924-2.804 1.648a.685.685 0 0 0-.004.062z"/><path stroke="#301A37" stroke-linecap="round" stroke-linejoin="round" d="M28.854 23.042c-.1.983-1.288 1.816-3.23 2.09-2.75.39-5.97-.486-7.191-1.956-.327-.393-.477-.788-.471-1.164"/><path fill="#301A37" fill-rule="nonzero" d="M29.352 23.091a.5.5 0 0 1-.995-.099l.171-1.716a.5.5 0 0 1 .995.1l-.171 1.715zM18.455 22.06a.5.5 0 0 1-.995-.099l.01-.107.161-1.608a.5.5 0 1 1 .995.1l-.16 1.608-.01.107z"/><path fill="#301A37" fill-rule="nonzero" d="M18.633 20.305a.5.5 0 1 1-1-.019c.026-1.364 1.484-2.376 3.668-2.685 2.905-.412 6.298.51 7.644 2.13.433.518.634 1.083.578 1.645a.5.5 0 1 1-.995-.1c.028-.276-.081-.581-.351-.905-1.097-1.319-4.144-2.148-6.736-1.78-1.758.248-2.794.968-2.808 1.714z"/><path fill="#FFF" d="M28.054 4c.36 1.77.773 2.887 2.054 3.502-1.236.322-1.728 1.584-2.054 3.237-.317-1.521-.838-2.89-2.054-3.237 1.135-.313 1.681-1.66 2.054-3.502M13.249 14c.326 1.603.7 2.613 1.86 3.17-1.12.29-1.564 1.433-1.86 2.928-.286-1.376-.758-2.615-1.859-2.929 1.028-.283 1.522-1.502 1.859-3.169"/></g><g mask="url(#b)"><path fill="#FFEE8A" d="M-9.936 24.7c8.601-1.935 18.52-2.433 23.982-2.092 5.463.34 2.094 1.156 3.937.511 1.843-.645 2.041 10.68.523 10.32-7.756-1.415-17.648.043-25.478 3.264-7.83 3.22-11.565-10.068-2.964-12.003z"/><path fill="#FFF" d="M15.726 22.706c3.749.195 3.725-.013 5.355-.583 1.844-.645 3.305-.058 4.153 1.07 3.04-.998 5.781 1.143 5.628 2.787 2.24 1.725.608 5.711-2.184 7.108-2.791 1.397-4.927 1.435-10.3.408 0 0-3.295-2.233-3.556-6.103-.05-2.851.194-2.856.904-4.687z"/><path fill="#FFF" d="M-2.655 24.674c5.117-.711 11.04-.889 17.77-.532l.757-1.54c-6.876-.332-12.878-.227-18.006.314 0 0-.535.927-.521 1.758z"/><path fill="#F4C458" d="M.3 34.709c3.343-.52 6.428-1.385 9.493-1.438 2.043-.036 4.59.032 7.64.203l-1.78-2.646c-1.28-.175-3.248-.239-5.906-.192-3.987.07-9.463.896-11.295 1.588"/><path fill="#D8D8D8" d="M15.708 30.804c3.124.753 13.227 3.602 15.557-1.857-1.348 5.006-5.416 4.879-9.4 4.948-3.017-.412-4.382-.555-4.095-.43-.957-1.108-1.644-1.995-2.062-2.661zm10.406-7.42c.528 1.167-.1 3.73-2.336 3.942 1.066-1.25 1.085-1.114 1.307-2.108.148-.662.064-1.208-.254-1.636a67.24 67.24 0 0 1 1.283-.198zm5.15 2.774c-.01 1.021-.418 2.044-1.65 2.477.681-1.46.606-2.417.606-2.386 0 .063 1.046-.018 1.044-.091z"/><g fill="#301A37" fill-rule="nonzero"><path d="M19.75 21.934c.32-.1.617-.178.969-.248 2.278-.449 4.292.187 4.912 1.706.562 1.375-.405 3.335-1.58 3.805-.28.112-.603-.009-.722-.27-.12-.26.01-.562.29-.673.645-.258 1.33-1.647.984-2.494-.394-.965-1.853-1.425-3.66-1.07a7.672 7.672 0 0 0-.845.217l-.43.14c-1.264.414-2.468.504-5.819.296-4.205-.26-10.662-.159-17.132.3-.303.022-.567-.19-.59-.473-.022-.283.206-.53.509-.55 6.52-.463 13.026-.566 17.289-.301 3.202.198 4.273.12 5.368-.236-.04.013.35-.116.457-.149z"/><path d="M25.148 23.778c-.297.062-.59-.111-.657-.388-.066-.276.12-.551.416-.614 2.925-.617 5.657.728 5.93 2.738.155 1.155-.126 2.14-.851 2.915a.578.578 0 0 1-.776.05.49.49 0 0 1-.052-.724c.508-.544.705-1.234.587-2.11-.182-1.343-2.252-2.362-4.597-1.867z"/><path d="M30.16 26.067c-.284-.099-.428-.395-.32-.66.106-.266.423-.4.708-.302 3.867 1.35 1.337 7.992-3.307 8.957-1.478.307-2.872.412-4.41.36a33.375 33.375 0 0 1-2.235-.159c-.336-.033-.684-.07-1.152-.123l-1.199-.134a63.75 63.75 0 0 0-3.853-.329 31.466 31.466 0 0 0-3.847.046c-2.362.165-2.924.251-9.17 1.31-1.327.226-2.37.394-3.421.55-.3.044-.581-.147-.628-.427-.047-.28.158-.543.458-.587 1.042-.154 2.077-.322 3.397-.546 6.298-1.068 6.866-1.155 9.284-1.324a32.638 32.638 0 0 1 3.99-.047c1.263.066 2.402.167 3.922.334 3.563.392 3.37.373 4.496.41 1.448.049 2.749-.05 4.131-.336 3.743-.778 5.764-6.082 3.156-6.993z"/><path d="M15.094 22.804l.958.502c-1.684 2.795-.903 7.223 2.43 9.813l-.705.79c-3.747-2.911-4.624-7.885-2.683-11.105z"/></g></g></g></svg>