<svg width="16" height="16" xmlns="http://www.w3.org/2000/svg"><path d="M9.83 10.477s-.237-.283-.434-.533c.862-.243 1.191-.783 1.191-.783-.27.177-.527.303-.757.388a4.612 4.612 0 0 1-2.66.277 5.53 5.53 0 0 1-.967-.283 3.863 3.863 0 0 1-.48-.224c-.02-.013-.04-.02-.06-.033a.091.091 0 0 1-.026-.02c-.119-.066-.185-.112-.185-.112s.316.527 1.152.777c-.197.25-.44.546-.44.546-1.455-.046-2.008-1-2.008-1 0-2.12.948-3.838.948-3.838.947-.711 1.85-.691 1.85-.691l.065.079c-1.185.342-1.731.862-1.731.862s.145-.079.388-.19c.705-.31 1.264-.396 1.495-.416.039-.006.072-.013.111-.013a5.366 5.366 0 0 1 3.311.619s-.52-.494-1.639-.836l.093-.105s.901-.02 1.85.69c0 0 .947 1.719.947 3.839 0 0-.56.954-2.014 1zM6.769 7.403c-.375 0-.671.33-.671.73 0 .402.302.732.671.732.375 0 .671-.33.671-.731.007-.402-.296-.73-.671-.73zm2.403 0c-.376 0-.672.33-.672.73 0 .402.303.732.672.732.375 0 .671-.33.671-.731 0-.402-.296-.73-.671-.73z" fill="#FFF"/></svg>