<svg height="18" width="16" xmlns="http://www.w3.org/2000/svg"><path d="M6.13 6.655c-.624-.582-.957-1.612-.953-2.704.002-.45.06-.91.179-1.353.14-.52.321-.903.5-1.18.343-.534.675-.68.675-.68.281-.26 1.322-.358 1.746.425.425.783.966 2.393.591 3.632-.374 1.239-1.86 2.682-2.739 1.86zm4.176 1.454c-1.168-.69-.876-2.41-.313-3.724s2.224-1.831 2.224-1.831c1.002-.276 1.541.064 1.786.627.3.695.152 1.728-.136 2.367-.165.367-.466.828-.837 1.264-.8.941-1.926 1.768-2.724 1.297zm3.636.473c1.71-.546 2.225.847 1.817 2.37-.408 1.522-2.307 2.771-3.45 2.465-.42-.113-.709-.325-.884-.616-.304-.505-.262-1.247.051-2.118.159-.44.468-.813.816-1.117.739-.648 1.65-.984 1.65-.984zm-10.189.682c-.304.33-.739.424-1.34.371C1.256 9.535.632 8.237.473 6.94c-.16-1.298.877-3.908 2.893-2.28 0 0 .895 1.119.945 2.525.005.158 0 .32-.018.486-.087.781-.258 1.289-.54 1.594zm7.25 5.113c.069.362.114.72.128 1.068.034.89-.315 1.43-.859 1.658-.72.302-1.783.054-2.75-.658-1.694-1.25-3.773-.593-4.98-.665a1.905 1.905 0 0 1-.508-.101C1.06 15.34.4 14.2 1.68 12.535c.41-.534.98-1.027 1.589-1.46C4.873 9.936 6.756 9.21 6.756 9.21c.78-.545 1.98.028 2.522.843.452.678 1.38 2.529 1.725 4.325z" fill="#e7e6e4" fill-rule="evenodd"/></svg>