<svg xmlns="http://www.w3.org/2000/svg" xmlns:xlink="http://www.w3.org/1999/xlink" width="925" height="306"><defs><path id="a" d="M122.568 42.401c14.98-6.44 29.362 8.863 32.486 16.37 10.637 25.565-10.947 43.29-10.947 43.29-8.11 7.73-19.611 15.037-34.858 19.724-38.846 11.95-75.167-8.53-93.56-21.99L8 94.265l-8 31.118 48.885 16.992a188.487 188.487 0 0 0 50.747 2.598c21.739-1.865 41.417-6.463 58.946-23.233 20.742-19.812 32.996-53.196 18.348-82.981-9.86-20.057-33.683-42.535-60.63-38.182C96.574 3.776 73.993 21.545 75.81 42.002c1.285 14.215 14.315 29.34 29.495 29.74 10.703.267 24.841-6.707 24.841-16.303-.022-7.662-9.041-16.236-22.36-17.635"/><path id="c" d="M122.568 42.401c14.98-6.44 29.362 8.863 32.486 16.37 10.637 25.565-10.947 43.29-10.947 43.29-8.11 7.73-19.611 15.037-34.858 19.724-38.846 11.95-75.167-8.53-93.56-21.99L8 94.265l-8 31.118 48.885 16.992a188.487 188.487 0 0 0 50.747 2.598c21.739-1.865 41.417-6.463 58.946-23.233 20.742-19.812 32.996-53.196 18.348-82.981-9.86-20.057-33.683-42.535-60.63-38.182C96.574 3.776 73.993 21.545 75.81 42.002c1.285 14.215 14.315 29.34 29.495 29.74 10.703.267 24.841-6.707 24.841-16.303-.022-7.662-9.041-16.236-22.36-17.635"/><linearGradient id="e" x1="49.993%" x2="49.993%" y1="100%" y2="0%"><stop offset="0%" stop-color="#FFF" stop-opacity="0"/><stop offset="72%" stop-color="#FFF"/></linearGradient><linearGradient id="f" x1="50.022%" x2="50.022%" y1="99.985%" y2="-.007%"><stop offset="0%" stop-color="gray"/><stop offset="27%" stop-color="#7D7D7D"/><stop offset="46%" stop-color="#747474"/><stop offset="64%" stop-color="#646464"/><stop offset="80%" stop-color="#4D4D4D"/><stop offset="95%" stop-color="#303030"/><stop offset="100%" stop-color="#242424"/></linearGradient><path id="g" d="M325.2 331.326c-9.53-6.53-29.34-13.704-39.844-16.77l-.177-.066a55.227 55.227 0 0 0 1.418-34.627l-29.806-97.22a26.839 26.839 0 0 0 9.13-4.952c-3.59 1.688-8.664-1.8-12.166-4.865l-.487-1.599c12.122 5.93 23.157-10.128 23.157-10.128-10.06 1.221-22.58-6.93-30.226-12.905l-.82-2.688c8.044 1.51 16.354-5.464 16.354-5.464-4.786.156-9.972-3.953-14.56-9.084a66.231 66.231 0 0 1-13.85-24.766L221.18 66.634a53.46 53.46 0 0 0-10.46-19.813l14.272-23.144a3.338 3.338 0 0 0 .115-3.314 3.323 3.323 0 0 0-2.797-1.772c-8.864-.444-23.246 10.44-28.653 14.726a53.191 53.191 0 0 0-12.808-4.487 82.588 82.588 0 0 1 4.853-8.529 2.27 2.27 0 0 0-.069-2.565 2.258 2.258 0 0 0-2.413-.855c-5.917 1.577-12.343 6.241-14.338 7.751a.265.265 0 0 1-.42-.288c.908-3.71 4.675-19.746 1.661-21.212-3.014-1.466-8.022 11.683-9.883 16.592a.272.272 0 1 1-.532-.111c.377-5.42 1.064-20.302-2.88-19.546-4.366.821-12.455 19.479-13.984 23.122a.266.266 0 0 1-.487 0c-1.02-2.6-5.075-12.394-6.471-8.952-1.396 3.443.133 9.64.753 12.061a.267.267 0 0 1-.443.267c-4.21-3.776-11.412-3.865-16.376-3.376a2.261 2.261 0 0 0-1.93 1.485 2.27 2.27 0 0 0 .534 2.38 23.596 23.596 0 0 1 2.15 2.51 53.19 53.19 0 0 0-14.56 6.485l-1.152-.777c-9.197-7.574-23.468-17.214-28.986-9.462a3.338 3.338 0 0 0-.2 3.553l13.408 24.01a53.454 53.454 0 0 0-7.313 20.835l-6.759 35.605a60.551 60.551 0 0 1-10.947 25.054c-3.945 5.264-8.598 9.662-13.318 10.15 0 0 9.196 5.82 16.974 3.2l-.532 2.82c-6.78 6.93-18.082 16.658-28.187 16.814 0 0 12.542 13.838 23.6 7.374l-.399 2.155c-3.013 3.265-7.09 6.596-10.548 5.508a26.933 26.933 0 0 0 8.842 3.532L41.262 287.748a55.404 55.404 0 0 0 2.792 26.12l-.133.045c-8.443 2.02-28.896 9.64-40.885 17.391-5.872 3.798-2.238 12.416 5.141 12.283l59.145-1.155a48.573 48.573 0 0 0 3.08 1.755v.733c.09 5.175-1.484 9.417-6.625 9.684-3.457.177-6.25 2.199-6.781 4.686-1.042 4.776 1.285 8.64 6.027 8.974l18.681 1.11c5.85.356 11.501-2.51 14.47-7.574a15.882 15.882 0 0 0 1.951-5.308l1.108-5.909h118.246l.776 4.598c.9 5.4 4.508 9.956 9.551 12.06 1.565.647 3.25.95 4.942.89l20.343-.667c4.875-.489 6.67-3.487 6.182-8.196-.155-1.533-1.374-5.442-5.429-5.664-3.501-.2-5.584-1.91-6.227-4.864a54.625 54.625 0 0 0 14.47-6.22l57.972 1.111c7.379.111 10.924-8.351 5.14-12.305z"/><path id="i" d="M325.2 331.326c-9.53-6.53-29.34-13.704-39.844-16.77l-.177-.066a55.227 55.227 0 0 0 1.418-34.627l-29.806-97.22a26.839 26.839 0 0 0 9.13-4.952c-3.59 1.688-8.664-1.8-12.166-4.865l-.487-1.599c12.122 5.93 23.157-10.128 23.157-10.128-10.06 1.221-22.58-6.93-30.226-12.905l-.82-2.688c8.044 1.51 16.354-5.464 16.354-5.464-9.55.311-20.764-16.458-25.484-24.277L221.18 66.634a53.46 53.46 0 0 0-10.46-19.813l16.244-26.342c-7.18-7.086-26.77 7.685-33.307 12.838a53.191 53.191 0 0 0-12.808-4.487 82.543 82.543 0 0 1 4.853-8.507c1.13-1.732-.488-3.975-2.482-3.442-5.917 1.577-12.343 6.241-14.338 7.751a.265.265 0 0 1-.42-.288c.908-3.71 4.653-19.746 1.661-21.212-2.991-1.466-8.022 11.683-9.883 16.592a.272.272 0 1 1-.532-.111c.377-5.42 1.064-20.302-2.88-19.546-4.366.821-12.433 19.479-13.984 23.122a.266.266 0 0 1-.51 0c-1.041-2.6-5.074-12.372-6.47-8.952-1.396 3.421.133 9.618.753 12.061a.267.267 0 0 1-.443.267c-4.21-3.776-11.413-3.865-16.376-3.376a2.261 2.261 0 0 0-1.93 1.485 2.27 2.27 0 0 0 .533 2.38 23.596 23.596 0 0 1 2.15 2.51 53.19 53.19 0 0 0-14.56 6.485l-1.151-.777c-9.862-8.13-25.573-18.636-30.05-7.463l14.294 25.587A53.454 53.454 0 0 0 81.77 74.23l-8.598 45.311c-3.834 7.885-12.964 24.5-22.426 25.477 0 0 9.196 5.819 16.974 3.198l-.532 2.82c-6.78 6.93-18.082 16.66-28.187 16.815 0 0 12.542 13.838 23.6 7.374l-.399 2.155c-3.013 3.265-7.09 6.596-10.548 5.508a26.933 26.933 0 0 0 8.842 3.532L41.262 287.748a55.404 55.404 0 0 0 2.792 26.12l-.133.045c-8.443 2.02-28.896 9.64-40.885 17.391-5.872 3.798-2.238 12.416 5.141 12.283l59.145-1.155a48.573 48.573 0 0 0 3.08 1.755v.733c.09 5.175-1.484 9.417-6.625 9.684-3.457.177-6.25 2.199-6.781 4.686-1.042 4.776 1.285 8.64 6.027 8.974l18.681 1.11c5.85.356 11.501-2.51 14.47-7.574a15.882 15.882 0 0 0 1.951-5.308l1.108-5.909h118.246l.776 4.598c.9 5.4 4.508 9.956 9.551 12.06 1.565.647 3.25.95 4.942.89l20.343-.667c4.875-.489 6.67-3.487 6.182-8.196-.155-1.533-1.374-5.442-5.429-5.664-3.501-.2-5.584-1.91-6.227-4.864a54.625 54.625 0 0 0 14.47-6.22l57.972 1.111c7.379.111 10.924-8.351 5.14-12.305z"/><linearGradient id="k" x1="49.941%" x2="49.941%" y1="-.02%" y2="99.955%"><stop offset="0%" stop-color="gray"/><stop offset="14%" stop-color="#797979"/><stop offset="35%" stop-color="#646464"/><stop offset="60%" stop-color="#434343"/><stop offset="89%" stop-color="#141414"/><stop offset="100%"/></linearGradient><linearGradient id="l" x1="-.037%" x2="99.963%" y1="49.958%" y2="49.958%"><stop offset="0%" stop-color="gray"/><stop offset="14%" stop-color="#797979"/><stop offset="35%" stop-color="#646464"/><stop offset="60%" stop-color="#434343"/><stop offset="89%" stop-color="#141414"/><stop offset="100%"/></linearGradient><path id="m" d="M325.2 331.326c-9.53-6.53-29.34-13.704-39.844-16.77l-.177-.066a55.227 55.227 0 0 0 1.418-34.627l-29.806-97.22a26.839 26.839 0 0 0 9.13-4.952c-3.59 1.688-8.664-1.8-12.166-4.865l-.487-1.599c12.122 5.93 23.157-10.128 23.157-10.128-10.06 1.221-22.58-6.93-30.226-12.905l-.82-2.688c8.044 1.51 16.354-5.464 16.354-5.464-9.55.311-20.764-16.458-25.484-24.277L221.18 66.634a53.46 53.46 0 0 0-10.46-19.813l16.244-26.342c-7.18-7.086-26.77 7.685-33.307 12.838a53.191 53.191 0 0 0-12.808-4.487 82.543 82.543 0 0 1 4.853-8.507c1.13-1.732-.488-3.975-2.482-3.442-5.917 1.577-12.343 6.241-14.338 7.751a.265.265 0 0 1-.42-.288c.908-3.71 4.653-19.746 1.661-21.212-2.991-1.466-8.022 11.683-9.883 16.592a.272.272 0 1 1-.532-.111c.377-5.42 1.064-20.302-2.88-19.546-4.366.821-12.433 19.479-13.984 23.122a.266.266 0 0 1-.51 0c-1.041-2.6-5.074-12.372-6.47-8.952-1.396 3.421.133 9.618.753 12.061a.267.267 0 0 1-.443.267c-4.21-3.776-11.413-3.865-16.376-3.376a2.261 2.261 0 0 0-1.93 1.485 2.27 2.27 0 0 0 .533 2.38 23.596 23.596 0 0 1 2.15 2.51 53.19 53.19 0 0 0-14.56 6.485l-1.151-.777c-9.862-8.13-25.573-18.636-30.05-7.463l14.294 25.587A53.454 53.454 0 0 0 81.77 74.23l-8.598 45.311c-3.834 7.885-12.964 24.5-22.426 25.477 0 0 9.196 5.819 16.974 3.198l-.532 2.82c-6.78 6.93-18.082 16.66-28.187 16.815 0 0 12.542 13.838 23.6 7.374l-.399 2.155c-3.013 3.265-7.09 6.596-10.548 5.508a26.933 26.933 0 0 0 8.842 3.532L41.262 287.748a55.404 55.404 0 0 0 2.792 26.12l-.133.045c-8.443 2.02-28.896 9.64-40.885 17.391-5.872 3.798-2.238 12.416 5.141 12.283l59.145-1.155a48.573 48.573 0 0 0 3.08 1.755v.733c.09 5.175-1.484 9.417-6.625 9.684-3.457.177-6.25 2.199-6.781 4.686-1.042 4.776 1.285 8.64 6.027 8.974l18.681 1.11c5.85.356 11.501-2.51 14.47-7.574a15.882 15.882 0 0 0 1.951-5.308l1.108-5.909h118.246l.776 4.598c.9 5.4 4.508 9.956 9.551 12.06 1.565.647 3.25.95 4.942.89l20.343-.667c4.875-.489 6.67-3.487 6.182-8.196-.155-1.533-1.374-5.442-5.429-5.664-3.501-.2-5.584-1.91-6.227-4.864a54.625 54.625 0 0 0 14.47-6.22l57.972 1.111c7.379.111 10.924-8.351 5.14-12.305z"/><path id="o" d="M.133 101.927c15.304 6.659 36.02 8.856 36.02 8.856s76.985 9.989 88.408-54.603c4.325-35.937-39.28-43.373-39.28-43.373s20.36-8.146 27.658-1.553c0 0-4.104-6.726-10.27-7.259 0 0 26.217-17.735 47.31 22.774 0 0-2.729-20.643-11.201-24.771 0 0 31.606 7.236 37.173 53.604 0 0 5.833-9.233 5.19-16.958 0 0 15.06 22.152-1.62 47.656 0 0 13.065-12.496 14.13-19.2 0 0 16.39 47.08-33.603 54.182 0 0 13.574 5.083 22.579.733 0 0-8.672 18.933-36.796 16.492 0 0 13.685 9.345 22.024 7.436 0 0-20.671 10.587-55.737 2.93 0 0 11.888 10.987 20.671 11.209l-2.329.577a140.848 140.848 0 0 1-76.652-3.574l-33.491-11.187-20.162-8.235v-35.736H.133z"/><path id="q" d="M.133 101.927c15.304 6.659 36.02 8.856 36.02 8.856s76.985 9.989 88.408-54.603c4.325-35.937-39.28-43.373-39.28-43.373s20.36-8.146 27.658-1.553c0 0-4.104-6.726-10.27-7.259 0 0 26.217-17.735 47.31 22.774 0 0-2.729-20.643-11.201-24.771 0 0 31.606 7.236 37.173 53.604 0 0 5.833-9.233 5.19-16.958 0 0 15.06 22.152-1.62 47.656 0 0 13.065-12.496 14.13-19.2 0 0 16.39 47.08-33.603 54.182 0 0 13.574 5.083 22.579.733 0 0-8.672 18.933-36.796 16.492 0 0 13.685 9.345 22.024 7.436 0 0-20.671 10.587-55.737 2.93 0 0 11.888 10.987 20.671 11.209l-2.329.577a140.848 140.848 0 0 1-76.652-3.574l-33.491-11.187-20.162-8.235v-35.736H.133z"/><linearGradient id="s" x1="49.998%" x2="49.998%" y1="100.022%" y2="0%"><stop offset="0%" stop-color="#FFF" stop-opacity="0"/><stop offset="72%" stop-color="#FFF"/></linearGradient><linearGradient id="t" x1="49.976%" x2="49.976%" y1="100.006%" y2="0%"><stop offset="0%" stop-color="#FFF" stop-opacity="0"/><stop offset="72%" stop-color="#FFF"/></linearGradient><linearGradient id="u" x1="50.052%" x2="50.052%" y1="99.991%" y2=".017%"><stop offset="0%" stop-color="#FFF" stop-opacity="0"/><stop offset="72%" stop-color="#FFF"/></linearGradient><linearGradient id="v" x1="-.012%" x2="99.998%" y1="49.988%" y2="49.988%"><stop offset="0%" stop-color="gray"/><stop offset="27%" stop-color="#7D7D7D"/><stop offset="46%" stop-color="#747474"/><stop offset="64%" stop-color="#646464"/><stop offset="80%" stop-color="#4D4D4D"/><stop offset="95%" stop-color="#303030"/><stop offset="100%" stop-color="#242424"/></linearGradient><path id="w" d="M285.607 337.877l-.178-.067a55.11 55.11 0 0 0 1.42-34.582L245.24 167.74c3.904-7.747 13.53-24.616 25.107-27.946 0 0-19.673-12.54-27.569 3.174 0 0 4.813-14.627 11.445-14.36 0 0-11.91-2.997-20.85.399l-11.998-38.889a53.396 53.396 0 0 0-10.469-19.8l16.258-26.324c-3.749-1.887-26.793 7.68-33.336 12.83-2.085-1.044-10.715-4.619-12.933-5.396 5.279-16.98-2.904-27.278-2.904-27.278 1.287 10.1-6.742 14.516-6.742 14.516C179.677 19.311 140.486.044 140.486.044s3.615 12.652-7.785 22.308c-13.02 11.01-7.697 20.643-7.697 20.643s-7.496-2.087-6.964-9.234c-6.72 8.057-2.172 14.072 1.222 18.91-3.128 1.288-10.915 5.418-13.731 7.26l-.6-1.132c-9.87-8.124-27.635-10.92-30.075-7.458l14.306 25.57a53.365 53.365 0 0 0-7.32 20.82L74.79 134.8c-9.67-2.486-21.027 4.062-21.027 4.062 6.322-1.998 14.794 10.832 14.794 10.832-11.755-13.096-27.436 4.195-27.436 4.195 12.044.178 21.891 15.005 25.884 21.975L41.298 311.108a55.287 55.287 0 0 0 2.795 26.08l-.133.067c-8.45 2.02-28.922 9.633-40.921 17.38-5.878 3.796-2.24 12.408 5.145 12.275l59.198-1.154a77.946 77.946 0 0 0 3.06 1.753l.045.755c.089 5.172-1.486 9.411-6.632 9.678-3.46.177-6.255 2.197-6.787 4.683-1.042 4.772 1.287 8.634 6.033 8.967l18.697 1.11c5.856.355 11.512-2.508 14.484-7.569a15.856 15.856 0 0 0 1.952-5.305l1.108-5.904h118.35l.777 4.595a15.89 15.89 0 0 0 9.56 12.052c1.566.646 3.253.949 4.946.888l20.36-.666c4.88-.488 6.677-3.485 6.189-8.19-.156-1.532-1.375-5.438-5.434-5.66-3.505-.2-5.59-1.91-6.233-4.861a54.717 54.717 0 0 0 14.506-6.238l58 1.132c7.363.067 10.912-8.39 5.123-12.34-9.537-6.527-29.366-13.696-39.88-16.76z"/><path id="y" d="M325.486 354.635c-9.537-6.526-29.366-13.695-39.88-16.758l-.177-.067a55.11 55.11 0 0 0 1.42-34.582L245.24 167.74c3.904-7.747 13.53-24.616 25.107-27.946 0 0-19.673-12.54-27.569 3.174 0 0 4.813-14.627 11.445-14.36 0 0-11.91-2.997-20.85.399l-11.998-38.889a53.396 53.396 0 0 0-10.469-19.8l16.258-26.324c-3.749-1.887-26.793 7.68-33.336 12.83-2.085-1.044-9.715-3.619-11.933-4.396 5.279-16.98-3.904-28.278-3.904-28.278 1.287 10.1-6.742 14.516-6.742 14.516C179.677 19.311 140.486.044 140.486.044s3.615 12.652-7.785 22.308c-13.02 11.01-7.697 20.643-7.697 20.643s-7.496-2.087-6.964-9.234c-6.72 8.057-3.172 15.072.222 19.91-3.128 1.288-9.915 4.418-12.731 6.26l-.6-1.132c-9.87-8.124-27.635-10.92-30.075-7.458l14.306 25.57a53.365 53.365 0 0 0-7.32 20.82L74.79 134.8c-9.67-2.486-21.027 4.062-21.027 4.062 6.322-1.998 14.794 10.832 14.794 10.832-11.755-13.096-27.436 4.195-27.436 4.195 12.044.178 21.891 15.005 25.884 21.975L41.298 311.108a55.287 55.287 0 0 0 2.795 26.08l-.133.067c-8.45 2.02-28.922 9.633-40.921 17.38-5.878 3.796-2.24 12.408 5.145 12.275l59.198-1.154a77.946 77.946 0 0 0 3.06 1.753l.045.755c.089 5.172-1.486 9.411-6.632 9.678-3.46.177-6.255 2.197-6.787 4.683-1.042 4.772 1.287 8.634 6.033 8.967l18.697 1.11c5.856.355 11.512-2.508 14.484-7.569a15.856 15.856 0 0 0 1.952-5.305l1.108-5.904h118.35l.777 4.595a15.89 15.89 0 0 0 9.56 12.052c1.566.646 3.253.949 4.946.888l20.36-.666c4.88-.488 6.677-3.485 6.189-8.19-.156-1.532-1.375-5.438-5.434-5.66-3.505-.2-5.59-1.91-6.233-4.861a54.717 54.717 0 0 0 14.506-6.238l58 1.132c7.363.067 10.912-8.39 5.123-12.34z"/><path id="A" d="M325.486 354.635c-9.537-6.526-29.366-13.695-39.88-16.758l-.177-.067a55.11 55.11 0 0 0 1.42-34.582L245.24 167.74c3.904-7.747 13.53-24.616 25.107-27.946 0 0-19.673-12.54-27.569 3.174 0 0 4.813-14.627 11.445-14.36 0 0-11.91-2.997-20.85.399l-11.998-38.889a53.396 53.396 0 0 0-10.469-19.8l16.258-26.324c-3.749-1.887-26.793 7.68-33.336 12.83-2.085-1.044-9.715-3.619-11.933-4.396 5.279-16.98-3.904-28.278-3.904-28.278 1.287 10.1-6.742 14.516-6.742 14.516C179.677 19.311 140.486.044 140.486.044s3.615 12.652-7.785 22.308c-13.02 11.01-7.697 20.643-7.697 20.643s-7.496-2.087-6.964-9.234c-6.72 8.057-3.172 15.072.222 19.91-3.128 1.288-9.915 4.418-12.731 6.26l-.6-1.132c-9.87-8.124-27.635-10.92-30.075-7.458l14.306 25.57a53.365 53.365 0 0 0-7.32 20.82L74.79 134.8c-9.67-2.486-21.027 4.062-21.027 4.062 6.322-1.998 14.794 10.832 14.794 10.832-11.755-13.096-27.436 4.195-27.436 4.195 12.044.178 21.891 15.005 25.884 21.975L41.298 311.108a55.287 55.287 0 0 0 2.795 26.08l-.133.067c-8.45 2.02-28.922 9.633-40.921 17.38-5.878 3.796-2.24 12.408 5.145 12.275l59.198-1.154a77.946 77.946 0 0 0 3.06 1.753l.045.755c.089 5.172-1.486 9.411-6.632 9.678-3.46.177-6.255 2.197-6.787 4.683-1.042 4.772 1.287 8.634 6.033 8.967l18.697 1.11c5.856.355 11.512-2.508 14.484-7.569a15.856 15.856 0 0 0 1.952-5.305l1.108-5.904h118.35l.777 4.595a15.89 15.89 0 0 0 9.56 12.052c1.566.646 3.253.949 4.946.888l20.36-.666c4.88-.488 6.677-3.485 6.189-8.19-.156-1.532-1.375-5.438-5.434-5.66-3.505-.2-5.59-1.91-6.233-4.861a54.717 54.717 0 0 0 14.506-6.238l58 1.132c7.363.067 10.912-8.39 5.123-12.34z"/><linearGradient id="B" x1="49.999%" x2="49.999%" y1="100.006%" y2=".008%"><stop offset="0%" stop-color="#FFF" stop-opacity="0"/><stop offset="72%" stop-color="#FFF"/></linearGradient><path id="D" d="M57.578 28.345c0 21.198-7.297 25.815-19.119 23.595a53.169 53.169 0 0 0-17.677-.422C8.23 53.405-.088 48.278.044 29.188.134 13.519 12.531.512 28.168.179c15.637-.333 29.41 12.252 29.41 28.167z"/><path id="F" d="M.11 28.39c0 21.197 7.298 25.814 19.12 23.594a53.169 53.169 0 0 1 17.677-.421c12.554 1.886 20.87-3.241 20.738-22.33C57.556 13.563 45.158.555 29.52.222 13.884-.111.111 12.474.111 28.389z"/></defs><g fill="none" fill-rule="evenodd"><g transform="translate(739.773 220.354)"><mask id="b" fill="#fff"><use xlink:href="#a"/></mask><path fill="#FFF" fill-rule="nonzero" d="M-13.518-32.762h208.084v179.559H-13.518z" mask="url(#b)"/></g><g transform="translate(739.773 220.354)"><mask id="d" fill="#fff"><use xlink:href="#c"/></mask><g fill-rule="nonzero" mask="url(#d)"><path fill="url(#e)" d="M89.77 73.986s17.086-41.957 61.406-25.454 45.14 61.236 45.14 61.236l29.761-58.57-51.854-47.2L97.992.133l-23.933 27.52 15.712 46.333z" opacity=".5" style="mix-blend-mode:overlay" transform="translate(-13.96 -31.984)"/><path fill="url(#f)" d="M136.86 65.146c1.862-.511 24.178-9.64 36.454 20.479 12.742 31.229-5.828 49.842-44.564 66.278l21.296-70.499s-4.454-2.487-13.518-7.018c-9.063-4.531-11.678-4.198-11.678-4.198s4.543-2.31 12.01-5.042z" opacity=".25" style="mix-blend-mode:multiply" transform="translate(-13.96 -31.984)"/></g></g><path fill="#31323D" fill-rule="nonzero" d="M861.853 261.445l1.285-.489.355-.11.354-.112.732-.222.731-.177.71-.156.73-.133.732-.111a20.451 20.451 0 0 1 5.85.177c1.907.34 3.767.907 5.54 1.688a30.605 30.605 0 0 1 5.008 2.777 37.466 37.466 0 0 1 4.432 3.554 40.21 40.21 0 0 1 3.878 4.153 31.011 31.011 0 0 1 3.213 4.753l.333.667.31.688.067.178v.2l.133.31.243.645.488 1.288.443 1.377.222.689c.066.222.155.466.2.688l.331 1.378.178.688.133.71.243 1.4c.09.467.111.933.178 1.422l.088.71.045.356v.355l.066 1.422v1.421a34.35 34.35 0 0 1-.51 5.686l-.265 1.4c-.111.466-.222.933-.333 1.377-.11.444-.11.466-.177.688l-.2.689-.199.688-.11.334-.112.333-.465 1.332-.532 1.31c-.177.445-.377.867-.576 1.29l-.288.643-.31.644a43.068 43.068 0 0 1-2.859 4.887 47.409 47.409 0 0 1-3.435 4.487c-.62.71-1.24 1.399-1.906 2.087l-1.019 1-.532.489-.576.488.067-.066a81.252 81.252 0 0 1-15.247 11.327 89.648 89.648 0 0 1-8.443 4.31 102.807 102.807 0 0 1-8.82 3.464l-2.26.733-.554.178h-.177l-.133.044-.288.09-1.13.31-2.26.622-2.327.555-1.175.267-1.174.222-2.327.444-2.349.334-1.175.155-1.174.133-2.371.222-2.371.134c-1.574.11-3.17.088-4.743.11l-2.37-.066-1.197-.044-1.175-.067-2.37-.155-2.35-.245-1.174-.133-1.175-.156-2.349-.333c-1.551-.288-3.124-.533-4.653-.888-3.103-.622-6.139-1.444-9.175-2.355l-2.26-.71-2.238-.756c-.754-.244-1.485-.533-2.216-.8-.732-.266-1.485-.532-2.216-.843l-2.194-.889-2.172-.932-2.15-.978-2.149-1a149.656 149.656 0 0 1-8.376-4.353c-2.748-1.532-5.43-3.176-8.089-4.864-2.66-1.688-5.23-3.487-7.756-5.33l-7.579-5.465 2.15-.777-7.933 31.162-.887-1.665 48.885 16.991-.2-.044a191.548 191.548 0 0 0 27.99 3.11c4.697.162 9.395.155 14.093-.023a185.98 185.98 0 0 0 14.05-1.088 138.936 138.936 0 0 0 13.85-2.221 91.208 91.208 0 0 0 13.384-3.998 76.359 76.359 0 0 0 12.476-6.197 73.521 73.521 0 0 0 11.103-8.418l1.285-1.178.155-.155.089-.067.066-.066.31-.311.62-.622c.865-.822 1.64-1.666 2.439-2.51l.288-.311.288-.333.576-.644c.377-.445.775-.867 1.152-1.31.731-.912 1.507-1.778 2.194-2.71l1.064-1.378 1.02-1.421.509-.711.487-.733.975-1.444c1.241-1.977 2.46-3.953 3.546-6.019a81.67 81.67 0 0 0 1.573-3.11c.266-.51.488-1.066.732-1.577.243-.51.487-1.066.709-1.599l.665-1.621.332-.8.31-.822.598-1.643.532-1.666c.377-1.11.665-2.221.998-3.354.088-.289.155-.555.221-.844l.2-.844c.133-.555.288-1.133.398-1.688l.355-1.71c.044-.29.133-.578.155-.867l.133-.866.266-1.71.2-1.733c.534-4.61.556-9.266.066-13.882l-.089-.866c-.022-.289-.088-.577-.11-.866l-.244-1.71-.067-.423-.088-.422-.178-.844c-.11-.577-.2-1.132-.332-1.71l-.421-1.688-.2-.844-.243-.844-.488-1.666c-.066-.289-.177-.555-.266-.822l-.288-.821c-3.036-8.752-8.133-16.77-14.293-23.744a86.352 86.352 0 0 0-4.875-4.998c-1.685-1.6-3.48-3.087-5.297-4.531-1.817-1.444-3.745-2.732-5.717-3.954l-1.485-.888-.753-.444-.776-.4c-.51-.267-1.02-.555-1.529-.8l-1.55-.755-.799-.355-.797-.333-.798-.334-.798-.31-1.618-.6-1.64-.533c-.554-.178-1.108-.311-1.662-.467a22.771 22.771 0 0 0-1.662-.422l-1.684-.355-1.706-.267a40.66 40.66 0 0 0-6.848-.422h-.864l-.864.067-1.706.133-1.707.222-.42.067h-.178l-.222.044-.864.156-.864.155-.82.2-.82.178-.842.222c-.554.156-1.108.289-1.662.466-.554.178-1.108.334-1.64.534a52.762 52.762 0 0 0-6.382 2.665 58.754 58.754 0 0 0-6.028 3.42l-1.44.956-1.418.999-1.374 1.066c-.465.356-.887.733-1.33 1.11a49.802 49.802 0 0 0-4.941 4.82 39.417 39.417 0 0 0-4.122 5.487c-2.416 3.865-4.078 8.196-4.52 12.682-.045.556-.134 1.111-.112 1.689v1.688l.045.844v.821l.11.889c.045.289.09.555.133.822.045.266.222 1.088.333 1.643.11.556.133.556.2.822.066.267.132.555.22.822.09.267.333 1.088.533 1.621l.288.8.332.8a34.364 34.364 0 0 0 3.236 5.997 34.854 34.854 0 0 0 4.343 5.264c.798.822 1.64 1.555 2.526 2.288.88.713 1.798 1.38 2.748 1.999a31.33 31.33 0 0 0 2.925 1.688c1.007.5 2.043.937 3.103 1.31a25.86 25.86 0 0 0 3.213.889 23.35 23.35 0 0 0 3.302.422h2.504l.842-.067a30.479 30.479 0 0 0 3.346-.489 32.006 32.006 0 0 0 3.28-.844 30.27 30.27 0 0 0 3.19-1.177 26.29 26.29 0 0 0 5.807-3.398c1.75-1.355 3.257-3.021 4.21-4.909a9.45 9.45 0 0 0 .93-2.954v-1.577a1.736 1.736 0 0 0-.021-.2v-.178c-.022-.133-.022-.244-.045-.377-.022-.134-.066-.511-.133-.778a12.234 12.234 0 0 0-1.13-3.02 15.928 15.928 0 0 0-1.839-2.755 22.62 22.62 0 0 0-5.075-4.464 29.379 29.379 0 0 0-6.16-3.043 37.285 37.285 0 0 0-3.324-1 44.088 44.088 0 0 0-3.413-.666.559.559 0 0 1 .133-1.11c4.787.333 9.573 1.688 13.806 4.197a23.678 23.678 0 0 1 5.74 4.665 18.19 18.19 0 0 1 2.215 3.065 14.568 14.568 0 0 1 1.44 3.576c.09.311.134.644.2.955.067.311.089.71.133 1.022v1.954a11.593 11.593 0 0 1-1.086 3.82 15.24 15.24 0 0 1-2.127 3.266 19.92 19.92 0 0 1-2.726 2.643 28.508 28.508 0 0 1-6.36 3.865 34.16 34.16 0 0 1-7.025 2.288 33.434 33.434 0 0 1-3.678.555l-.93.066-.954.045h-1.861a26.158 26.158 0 0 1-3.723-.467 27.43 27.43 0 0 1-3.612-1.021 30.388 30.388 0 0 1-3.435-1.466 32.712 32.712 0 0 1-3.213-1.866 35.528 35.528 0 0 1-2.97-2.199c-.93-.8-1.861-1.621-2.725-2.51a38.12 38.12 0 0 1-4.654-5.708 37.188 37.188 0 0 1-3.48-6.508l-.354-.866-.31-.867c-.221-.577-.377-1.177-.576-1.754-.2-.578-.155-.6-.244-.889-.088-.288-.155-.6-.221-.91-.067-.311-.266-1.2-.355-1.844-.089-.644-.11-.644-.155-.933l-.11-.888v-1l-.045-.933v-1.865c0-.622.066-1.244.133-1.866.26-2.474.825-4.907 1.684-7.241a35.906 35.906 0 0 1 3.257-6.641 42.193 42.193 0 0 1 4.41-5.864 52.553 52.553 0 0 1 5.23-5.086c.465-.378.93-.778 1.396-1.155l1.44-1.11 1.485-1.067 1.507-1.022a61.523 61.523 0 0 1 6.316-3.598 55.528 55.528 0 0 1 6.714-2.799c.577-.222 1.153-.377 1.729-.555.576-.178 1.174-.333 1.75-.51l.887-.245.908-.2.909-.2.886-.155.865-.156.221-.044h.266l.443-.067 1.818-.244 1.817-.133.908-.067h.909a43.401 43.401 0 0 1 7.29.444l1.818.289 1.795.377c.598.111 1.174.29 1.772.445.599.155 1.175.288 1.751.488l1.729.556 1.706.622.842.333.842.355.842.355.82.378 1.64.777c.554.267 1.064.556 1.618.844l.797.422.776.467 1.573.91c2.061 1.267 4.033 2.666 5.961 4.132a65.401 65.401 0 0 1 5.496 4.709 85.098 85.098 0 0 1 5.03 5.175 85.097 85.097 0 0 1 4.565 5.597 78.91 78.91 0 0 1 4.056 5.997c.62 1.044 1.24 2.066 1.817 3.154l.443.8.399.8.399.8.11.199.067.111.044.111.2.422.753 1.644c.133.266.266.555.377.822l.332.844.687 1.688c.222.555.4 1.132.599 1.71l.31.866c.11.289.2.578.288.866l.51 1.733.266.866.221.889.421 1.776c.133.6.244 1.2.355 1.777l.177.889.089.444.066.444.266 1.8c.044.31.089.6.133.91l.089.91a65.63 65.63 0 0 1-.067 14.505l-.221 1.799-.288 1.799-.133.888c-.045.29-.111.6-.178.889l-.354 1.777c-.111.6-.288 1.177-.421 1.754l-.222.889c-.066.289-.133.577-.221.866-.333 1.155-.643 2.332-1.02 3.465l-.554 1.71-.62 1.71-.31.845-.333.844-.687 1.666c-.244.555-.487 1.11-.731 1.643-.244.533-.488 1.11-.754 1.644-.531 1.088-1.041 2.177-1.64 3.22-1.107 2.133-2.37 4.198-3.656 6.242l-.997 1.51-.51.755-.532.733-1.063 1.466-1.108 1.444c-.732.955-1.507 1.888-2.26 2.82-.377.467-.798.912-1.197 1.356l-.599.666-.31.333-.31.333c-.842.889-1.662 1.777-2.504 2.6l-.62.621-.31.311-.09.089-.088.067-.177.155-1.33 1.222a76.27 76.27 0 0 1-11.501 8.729 79.126 79.126 0 0 1-12.92 6.419 93.973 93.973 0 0 1-13.783 4.131 141.612 141.612 0 0 1-14.16 2.288c-4.72.533-9.485.91-14.25 1.11-4.764.2-9.528.2-14.293.023a194.29 194.29 0 0 1-28.387-3.154h-.11l-.09-.045-48.884-16.991-1.197-.422.31-1.244 8.022-31.14.51-1.955 1.64 1.177 7.578 5.464c2.504 1.844 5.053 3.576 7.646 5.264 2.592 1.688 5.252 3.265 7.933 4.776 2.681 1.51 5.43 2.954 8.2 4.286l2.104.978 2.106.955 2.127.91 2.15.867c.709.288 1.44.555 2.15.821.708.267 1.44.556 2.17.778l2.195.755 2.193.689c2.948.888 5.917 1.688 8.931 2.31 1.507.333 3.014.577 4.52.866l2.283.333 1.13.155 1.153.111 2.282.245 2.305.155 1.152.067 1.152.044 2.305.067c1.53-.022 3.058 0 4.587-.111l2.305-.133 2.282-.222 1.153-.112 1.13-.155 2.282-.333 2.26-.422 1.13-.2 1.109-.267 2.216-.51 2.238-.622 1.13-.311.288-.09.133-.044h.111l.554-.177 2.194-.711a99.095 99.095 0 0 0 8.576-3.376 86.88 86.88 0 0 0 8.2-4.176 78.487 78.487 0 0 0 14.558-11.083h.022l.045-.045.465-.4.488-.444.93-.933a37.457 37.457 0 0 0 1.795-1.954 44.634 44.634 0 0 0 3.214-4.22 40.29 40.29 0 0 0 2.68-4.576l.289-.6.266-.6c.177-.4.377-.799.532-1.221l.487-1.222.444-1.243.11-.311.089-.311.2-.622.199-.622c.066-.2.11-.422.155-.644.044-.222.222-.844.31-1.289l.244-1.288c.3-1.731.456-3.484.465-5.242v-1.332l-.066-1.31v-.334l-.044-.333-.067-.644a26.38 26.38 0 0 0-.155-1.31l-.222-1.29-.11-.643-.156-.644-.31-1.289a5.091 5.091 0 0 0-.177-.622l-.2-.621-.376-1.244-.488-1.289-.244-.644-.133-.31v-.156l-.066-.133-.266-.578-.288-.555a28.278 28.278 0 0 0-2.925-4.31 36.397 36.397 0 0 0-7.712-7.151c-2.88-1.955-6.116-3.443-9.462-4.02a17.666 17.666 0 0 0-5.053-.156l-.62.089-.62.111-.621.133-.599.156-.576.177-.288.09-.31.11-1.285.489a1.41 1.41 0 0 1-1.84-.777 1.416 1.416 0 0 1 .776-1.844z"/><g transform="translate(466.76 24.672)"><mask id="h" fill="#fff"><use xlink:href="#g"/></mask><g fill-rule="nonzero" mask="url(#h)"><path fill="#FFF" d="M-1.972-30.54h336.944v416.417H-1.972z"/><path fill="#F4B3F0" d="M99.388 353.315c-1.24-3.242.71-12.616 4.587-31.362 2.327-11.217 4.166-18.524 5.319-23.322 8.598-35.96 3.567-39.891 11.08-61.303 5.119-14.637 10.437-29.141 24.597-35.982 1.685-.822 14.604-6.82 27.7-1.555 13.097 5.264 17.995 17.902 23.335 31.518 6.449 16.458 4.432 22.144 11.745 63.369 1.53 8.573 3.036 17.147 4.565 25.72.909 5.042 1.773 10.062 2.66 15.104 2.082 11.816 2.127 12.016 2.082 12.483-2.15 17.436-107.83 31.229-117.67 5.33z"/></g></g><g transform="translate(466.76 24.672)"><mask id="j" fill="#fff"><use xlink:href="#i"/></mask><g fill-rule="nonzero" mask="url(#j)" style="mix-blend-mode:multiply"><path fill="#7F7F7F" d="M124.141 35.494c-18.06 5.242-29.562 25.72-35.833 53.218-1.463 6.42-2.792 14.038-4.077 22.411-3.324 21.723-6.227 48.62-9.862 73.609-4.675 7.351-6.448 8.75-7.866 16.836-4.521 26.01-4.61 57.105-6.205 70.054a202.627 202.627 0 0 0-1.507 21.856v.755c5.207 5.775 10.548 19.724 11.656 39.27l.288 10.883s-6.936-.177-17.95-.177c-13.739 0-24.553-24.81-17.55-61.792 6.293-33.206-15.07-203.345-15.07-203.345l62.514-9.84s5.208-30.14 37.894-39.647l3.568 5.909zm-14.78 261.338c-5.386 32.806 12.032 39.603 15.179 40.336 19.168 3.443 49.594 1.954 59.5-1.555 9.263-3.287 28.786-12.994 23.933-42.09l9.529 57.038H99.255l10.105-53.729zm139.12 25.987s6.626-20.3 14.693-27.742c-8.732 16.659 3.124 20.59 6.227 19.48 11.9-4.265 16.62-14.815 17.55-33.317l14.47 25.831s-12.187 56.861-45.206 47.533l-8.576-4.02.842-27.765z" opacity=".2"/><path fill="url(#k)" d="M212.117 1.222s-8.421-5.775-22.604 9.217l-7.468 8.996 12.432 10.328 17.64-28.541z" opacity=".4" style="mix-blend-mode:multiply" transform="translate(20.166 19.99)"/><path fill="url(#l)" d="M48.132 10.106s6.094-4.198 15.866-.178a27.195 27.195 0 0 1 10.526 7.819l3.302 3.976-8.354 12.194-21.34-23.81z" opacity=".4" style="mix-blend-mode:multiply" transform="translate(20.166 19.99)"/></g></g><g transform="translate(466.76 24.672)"><mask id="n" fill="#fff"><use xlink:href="#m"/></mask><g fill="#FFF" fill-rule="nonzero" mask="url(#n)" opacity=".2" style="mix-blend-mode:overlay"><path d="M180.56 29.452s13.075 7.441 17.95 14.393c4.876 6.952 9.773 19.169 14.537 40.203 13.053 57.46 50.836 151.747 61.051 197.236 10.216 45.489-17.994 63.524-17.994 63.524l13.54-7.885s13.961-16.614 16.066-23.899c4.61-15.97 30.803-7.33 25.972-32.806-7.025-36.982-67.743-215.56-67.743-215.56s-27.346-6.642-33.507-17.614c-4.587-8.174-16.22-14.371-27.5-17.747l-2.371.155z"/></g></g><path stroke="#31323D" stroke-linecap="round" stroke-width="2.771" d="M684.262 375.256H566.015M723.73 207.96l29.628 96.597c8.643 30.63-10.016 61.081-38.957 68.833m-177.237-4.509c-19.767-10.461-32.287-32.473-29.14-56.439l19.124-100.772"/><path stroke="#31323D" stroke-linecap="round" stroke-width="2.66" d="M571.622 59.966c-9.196-7.574-23.468-17.214-28.985-9.462a3.338 3.338 0 0 0-.2 3.554l13.407 24.01M660.44 57.99c5.429-4.264 19.81-15.148 28.653-14.726a3.324 3.324 0 0 1 2.796 1.772 3.338 3.338 0 0 1-.115 3.315l-14.271 23.144"/><path fill="#31323D" fill-rule="nonzero" d="M540.864 209.226l-.599.422-.31.2-.332.2-.665.4-.687.333-.332.178-.355.155-.71.289c-.487.155-.974.333-1.462.466-.487.134-.997.245-1.507.356-.51.11-1.019.155-1.529.2-.51.044-1.019.066-1.529.089h-.775l-.776-.045-.775-.067-.754-.088-.753-.111-.754-.134-1.507-.333-1.484-.422-1.44-.51-1.419-.578-1.396-.644-.687-.356-.355-.2-.376-.222a1.468 1.468 0 0 1-.555-1.782 1.462 1.462 0 0 1 1.64-.883l.178.044.399.09.42.044h.422l.443-.067.465-.111.466-.156.465-.177.465-.222c.31-.156.62-.334.931-.533l.465-.29.444-.332.443-.334.443-.355.864-.755a36.013 36.013 0 0 0 3.191-3.354c.503-.592.99-1.2 1.463-1.821l.687-.933.665-.933 2.304 1.777c-.475.53-.978 1.033-1.507 1.51-.539.481-1.109.926-1.706 1.333-.6.415-1.23.786-1.883 1.11a13.81 13.81 0 0 1-2.061.822 14.02 14.02 0 0 1-4.344.6 17.115 17.115 0 0 1-4.254-.644 22.837 22.837 0 0 1-3.945-1.51 30.741 30.741 0 0 1-3.59-2.088 38.102 38.102 0 0 1-3.28-2.488 30.24 30.24 0 0 1-1.529-1.355l-.753-.71-.377-.378-.377-.4a1.446 1.446 0 0 1 .975-2.421h.09l1.218-.067 1.219-.155.31-.045.31-.066.599-.134.598-.133.598-.178.599-.177.598-.2.598-.222.598-.222 1.175-.489 1.152-.555.288-.134.288-.155.577-.311.576-.311.554-.333 1.108-.666 1.086-.689c.709-.489 1.44-.955 2.15-1.488.708-.533 1.395-1.044 2.082-1.577a47.726 47.726 0 0 0 2.039-1.666c.665-.578 1.33-1.133 1.994-1.71l.975-.889.953-.91 1.884-1.844.93-.933.91-.955 1.794-1.932 1.75-1.977a67.196 67.196 0 0 0 1.685-2l.044-.044a1.44 1.44 0 0 1 2.558.315c.183.516.059 1.09-.32 1.485v.044l-.554.644-.288.333-.31.311-.62.6-.665.555a7.535 7.535 0 0 1-.71.511 7.722 7.722 0 0 1-.73.467l-.754.422-.798.355-.2.089-.199.066-.399.134-.42.133-.422.111-.42.111-.422.089-.842.155-.842.09-.842.044h-1.684l-.842-.067-.82-.089a34.945 34.945 0 0 1-1.618-.289l-.798-.177-.797-.2-1.552-.489a31.779 31.779 0 0 1-3.013-1.2l-1.463-.71-.709-.378-.355-.2-.376-.222a1.423 1.423 0 0 1 .598-2.62h.022a8.94 8.94 0 0 0 3.59-1.289 18.155 18.155 0 0 0 3.236-2.532c2.016-1.954 3.789-4.264 5.407-6.663.398-.607.79-1.222 1.174-1.844l.288-.466.266-.445.576-.955c.4-.644.71-1.266 1.086-1.91l1.02-1.932a82.611 82.611 0 0 0 3.545-7.996 83.653 83.653 0 0 0 2.681-8.352c.2-.71.355-1.421.532-2.132.178-.71.333-1.421.466-2.132.288-1.422.576-2.888.842-4.354l3.324-17.524 1.662-8.752.044-.266v-.311l.089-.555.155-1.111c.133-.755.288-1.51.42-2.266.134-.755.333-1.488.51-2.22l.289-1.111.155-.556.155-.555a55.516 55.516 0 0 1 3.324-8.507 53.843 53.843 0 0 1 4.698-7.84 55.18 55.18 0 0 1 6.005-6.908 56.163 56.163 0 0 1 6.98-5.864 53.555 53.555 0 0 1 7.868-4.642 55.41 55.41 0 0 1 8.509-3.265 1.383 1.383 0 0 1 1.345.33 1.39 1.39 0 0 1-.57 2.335 52.644 52.644 0 0 0-8.088 3.11 50.786 50.786 0 0 0-7.468 4.398 53.391 53.391 0 0 0-6.626 5.575 52.387 52.387 0 0 0-5.606 6.597 50.821 50.821 0 0 0-4.454 7.44 52.714 52.714 0 0 0-3.147 8.085l-.155.511-.133.533-.288 1.044c-.178.71-.333 1.4-.488 2.11-.155.71-.266 1.4-.399 2.11l-.155 1.11-.088.556v.333l-.045.267-1.662 8.751-3.324 17.525c-.288 1.466-.554 2.91-.842 4.398-.155.733-.332 1.466-.487 2.22-.156.756-.355 1.467-.554 2.2a86.479 86.479 0 0 1-2.77 8.64 85.457 85.457 0 0 1-3.679 8.285l-1.064 1.999c-.376.666-.731 1.355-1.108 1.977l-.554.955-.31.488-.288.489a69.808 69.808 0 0 1-1.241 1.91c-1.684 2.51-3.546 4.953-5.806 7.13a20.948 20.948 0 0 1-3.767 2.932 11.771 11.771 0 0 1-4.742 1.666l.62-2.621.288.177.31.178.643.355 1.33.645a29.11 29.11 0 0 0 2.748 1.088l1.396.444.709.178.709.155 1.418.245.71.089.708.044h1.419l.709-.044.687-.067.687-.133.332-.067.332-.089.333-.089.332-.11.333-.112.155-.066.155-.067.62-.267.599-.333c.199-.106.391-.225.576-.355.193-.121.378-.255.554-.4l.532-.422.487-.489.244-.244.222-.267.443-.533 2.238 1.777c-.598.733-1.175 1.4-1.75 2.088l-1.796 2.021-1.839 1.977-.953.978-.953.955-1.95 1.888-.997.932-.997.911c-.687.6-1.352 1.2-2.061 1.777-.71.578-1.396 1.155-2.105 1.71a56.96 56.96 0 0 1-2.194 1.644 81.307 81.307 0 0 1-2.26 1.555l-1.153.733-1.174.71-.599.356-.598.333-.598.333-.31.156-.31.155-1.242.6-1.285.555-.643.244-.664.245-.665.222-.687.2-.687.2-.687.155-.687.156-.355.066-.354.045c-.466.066-.953.155-1.418.2l-1.44.088 1.04-2.42.31.31.333.334.687.666c.466.422.931.844 1.418 1.266.97.817 1.984 1.58 3.036 2.288a27.84 27.84 0 0 0 3.258 1.888 19.96 19.96 0 0 0 3.435 1.332 14.19 14.19 0 0 0 3.523.533 11.1 11.1 0 0 0 3.457-.488 10.954 10.954 0 0 0 1.618-.644c.53-.26 1.041-.556 1.529-.889.489-.339.955-.71 1.396-1.11.45-.407.88-.837 1.285-1.289h.022a1.46 1.46 0 0 1 1.987-.153c.6.479.729 1.34.296 1.975l-.731 1.044-.732 1a40.26 40.26 0 0 1-1.55 1.932 38.898 38.898 0 0 1-3.458 3.642l-.953.844-.51.4-.509.4-.532.377-.554.356c-.377.222-.753.466-1.174.666l-.62.289-.643.266-.687.223-.71.155-.753.089h-.776l-.775-.089-.776-.178 1.263-2.62.244.177.288.178.576.355 1.22.689 1.262.622 1.286.555 1.307.489 1.33.422.687.177.686.156.687.133.687.111.687.089.687.067c.466.022.931.044 1.396.022l1.397-.067s.93-.111 1.373-.2c.444-.089.909-.2 1.352-.31l.665-.223.332-.11.333-.134.642-.267.62-.31.311-.156.31-.178.643-.355a.562.562 0 0 1 .51 1zm108.23-156.812l1.086.267.554.133.554.156 1.13.333 1.108.355a54.055 54.055 0 0 1 4.343 1.622 55.489 55.489 0 0 1 8.177 4.309 54.683 54.683 0 0 1 7.335 5.62l.842.776.82.8c.554.533 1.086 1.11 1.618 1.666a50.324 50.324 0 0 1 2.992 3.532 89.283 89.283 0 0 1 2.703 3.753c.864 1.266 1.64 2.621 2.371 3.976a66.121 66.121 0 0 1 2.039 4.176c.643 1.421 1.174 2.865 1.662 4.331.11.378.244.733.355 1.11l.332 1.111.643 2.155 1.285 4.33 2.593 8.663 5.163 17.325 1.285 4.31.333 1.087.177.534.177.51.355 1.044.376 1.044c.488 1.4 1.064 2.754 1.64 4.132a60.552 60.552 0 0 0 1.884 4.02 72.888 72.888 0 0 0 9.795 14.704c1.928 2.22 3.988 4.309 6.271 6.019a18.007 18.007 0 0 0 3.59 2.11 8.957 8.957 0 0 0 3.767.8 1.462 1.462 0 0 1 1.468.94c.23.603.038 1.285-.47 1.68l-.333.267-.332.244-.665.49-1.352.91c-.91.58-1.85 1.114-2.814 1.599l-1.485.689-.754.31-.775.29c-.51.2-1.042.355-1.574.51l-.797.2-.82.178-.82.133-.421.067-.421.044-.842.067h-.865l-.864-.045-.42-.044-.422-.045-.42-.044-.422-.089-.421-.089-.222-.044-.199-.067-.842-.244-.82-.311a7.946 7.946 0 0 1-.798-.355 7.573 7.573 0 0 1-.775-.422l-.754-.467-.709-.51-.355-.267-.332-.29-.643-.577a1.497 1.497 0 0 1-.133-2.11 1.49 1.49 0 0 1 2.106-.133h.022l.066.045c.62.577 1.286 1.177 1.928 1.754l1.995 1.71 2.038 1.666 1.042.822 1.041.8 2.128 1.555 1.063.755 1.086.733c.732.488 1.463.977 2.194 1.443.731.467 1.485.911 2.238 1.378.754.466 1.507.866 2.283 1.266.775.4 1.551.8 2.327 1.177l1.174.533 1.197.51.598.245.598.222.599.222.31.111.31.09 1.219.399 1.219.333.62.156.62.133.621.133.62.089.621.089.62.066.621.045h1.84l1.218-.089h.089a1.462 1.462 0 0 1 1.387.738c.28.495.25 1.108-.08 1.572l-.31.444-.31.422-.643.8a45.215 45.215 0 0 1-1.351 1.555 38.158 38.158 0 0 1-2.926 2.887 30.752 30.752 0 0 1-3.301 2.754 22.853 22.853 0 0 1-3.701 2.022 17.1 17.1 0 0 1-4.144 1.199 13.973 13.973 0 0 1-4.388-.022c-.722-.121-1.433-.3-2.127-.533a15.05 15.05 0 0 1-2.017-.844c-.644-.33-1.266-.7-1.861-1.11-.584-.4-1.146-.83-1.684-1.29l1.95-1.976.775.844.82.844a58.474 58.474 0 0 0 1.684 1.622 36.315 36.315 0 0 0 3.59 2.931l.953.645.488.288.487.289.488.267.487.244c.333.155.665.31.997.422l.51.178.488.133.487.089.488.044h.465l.443-.044.421-.09.4-.155.154-.044a1.24 1.24 0 0 1 1.441.575 1.246 1.246 0 0 1-.244 1.535l-.62.51-.621.467c-.421.311-.842.578-1.263.844l-1.308.778-1.351.71-1.396.645-1.419.555-.73.244-.732.222-.754.2-.753.178-.754.155-.753.112c-.51.066-1.02.11-1.529.133-.51.022-1.02.022-1.551.022a8.7 8.7 0 0 1-1.53-.133c-.509-.09-1.019-.178-1.506-.267l-.754-.2-.376-.089-.355-.133-.731-.244-.71-.289-.354-.155-.332-.178-.687-.355a.558.558 0 0 1 .443-1.022h.044l.665.266.332.134.333.11.665.223.687.177.332.09.355.066.687.133c.465.045.93.111 1.396.134.465.022.93.022 1.396.022.465 0 .93-.045 1.396-.111.465-.067.93-.134 1.374-.2l.687-.156.687-.177.665-.2.664-.222.665-.245.643-.266.642-.289.643-.289 1.241-.644 1.219-.71 1.174-.778 1.13-.822.554-.422.51-.422 1.352 2.066-.71.288-.73.2-.754.09h-.731l-.71-.067-.686-.111-.665-.156-.643-.2a12.747 12.747 0 0 1-1.24-.488l-.599-.29-.576-.31-.554-.311-.554-.333-1.064-.689a38.617 38.617 0 0 1-3.922-3.11 32.673 32.673 0 0 1-1.795-1.71l-.864-.888-.865-.933a1.402 1.402 0 0 1-.004-1.939 1.394 1.394 0 0 1 1.932-.082h.022c.468.395.957.766 1.463 1.11a13.47 13.47 0 0 0 1.551.91c.53.27 1.077.5 1.64.69.557.186 1.127.327 1.706.422 1.16.184 2.342.184 3.502 0a14.269 14.269 0 0 0 3.434-1.022 19.997 19.997 0 0 0 3.214-1.777 27.886 27.886 0 0 0 2.97-2.31 35.254 35.254 0 0 0 2.68-2.688c.422-.466.843-.955 1.241-1.443l.577-.733.288-.378.266-.355 1.396 2.287-1.44.111h-2.15l-.71-.066-.708-.067-.71-.11-.709-.112-.687-.133-.687-.156-.687-.155-1.351-.356-1.33-.422-.332-.11-.333-.112-.642-.244-.643-.244-.643-.267-1.263-.533-1.24-.577c-.82-.4-1.64-.8-2.438-1.244l-2.394-1.333s-1.55-.933-2.327-1.421a80.59 80.59 0 0 1-2.282-1.489l-1.13-.777-1.108-.777-2.172-1.622-1.086-.822-1.063-.844-2.106-1.71-2.06-1.755a52.59 52.59 0 0 1-2.017-1.843l2.06-2.155.51.467.266.222.266.2.554.4.577.355c.192.116.392.22.598.31.2.11.408.206.62.29l.62.244.643.178.156.044.155.045.332.066.332.067.333.044.332.045h1.729l.687-.045h.354l.355-.044.687-.111.687-.156.687-.177 1.374-.445.687-.266.664-.267 1.33-.622a28.9 28.9 0 0 0 2.57-1.443l1.22-.822.598-.422.288-.222.266-.2.997 2.62a11.877 11.877 0 0 1-5.008-1.043 20.886 20.886 0 0 1-4.166-2.466c-2.549-1.91-4.72-4.131-6.737-6.463a75.844 75.844 0 0 1-10.15-15.326 101.684 101.684 0 0 1-1.95-4.176 59.257 59.257 0 0 1-1.684-4.286l-.398-1.089-.377-1.11-.177-.556-.178-.533-.332-1.088-1.152-4.31-5.142-17.324-2.57-8.662-1.285-4.332-.643-2.176-.31-1.044a19.167 19.167 0 0 0-.355-1.044 54.089 54.089 0 0 0-1.573-4.11 43.395 43.395 0 0 0-1.928-3.953 70.463 70.463 0 0 0-2.238-3.776c-.776-1.221-1.662-2.42-2.571-3.576a58.507 58.507 0 0 0-2.859-3.354c-.51-.533-.997-1.066-1.529-1.577l-.775-.777-.82-.755a51.912 51.912 0 0 0-6.98-5.353 52.72 52.72 0 0 0-7.779-4.087c-1.352-.555-2.726-1.088-4.122-1.533l-1.041-.333-1.042-.31-.532-.156-.554-.134-1.085-.266a1.392 1.392 0 0 1-.63-2.323c.35-.353.86-.492 1.339-.365z"/><path fill="#31323D" fill-rule="nonzero" d="M590.414 60.433l-1.197-1.733a42.511 42.511 0 0 0-1.462-1.999c-.599-.777-1.264-1.643-2.083-2.554-.4-.444-.843-.91-1.33-1.377l-.089-.09-.155-.177-.088-.089-.045-.044h-.022l-.044-.044-.288-.422c-.089-.134-.133-.267-.2-.4a3.584 3.584 0 0 1-.244-1.8 3.714 3.714 0 0 1 .687-1.732c.397-.535.934-.95 1.552-1.2l.487-.155.488-.089.664-.066 1.352-.111a36.06 36.06 0 0 1 5.917.11 25.85 25.85 0 0 1 3.213.556c1.134.282 2.24.669 3.302 1.155l.82.422c.275.147.542.31.798.489.27.168.529.354.775.555l.377.31.2.156.088.067-.044-.044a1.218 1.218 0 0 0-.244-.156 1.194 1.194 0 0 0-1.662 1.133c0 .074.008.149.022.222l-.044-.2-.2-.866a41.845 41.845 0 0 1-.376-1.777 39.277 39.277 0 0 1-.554-3.71 40.63 40.63 0 0 1-.133-1.954v-1.022s.022-.688.066-1.044c.039-.365.098-.729.178-1.088.044-.178.066-.378.132-.555l.2-.578v-.066l.044-.111.045-.111.044-.112.066-.11.133-.223.067-.11.088-.112.09-.11.11-.112.133-.111.155-.111.355-.2c.265-.117.552-.178.842-.178h.398l.333.09c.312.105.604.263.864.466.345.273.658.586.93.933.245.31.466.6.666.91.2.311.753 1.2 1.086 1.822.664 1.221 1.24 2.465 1.794 3.709.281.637.554 1.273.82 1.91l.2.489.088.244-.066-.133a1.332 1.332 0 0 0-.244-.311 1.283 1.283 0 0 0-2.06.4v-.067l.199-.489a217.814 217.814 0 0 1 3.479-7.685c1.24-2.576 2.548-5.153 4.033-7.707a47.31 47.31 0 0 1 2.416-3.798c.449-.639.93-1.254 1.44-1.844a10.225 10.225 0 0 1 1.906-1.755 4.449 4.449 0 0 1 1.573-.688h.842l.31.044c.388.076.757.227 1.086.445.505.351.922.815 1.219 1.354.233.41.426.842.576 1.289.258.782.45 1.584.576 2.399.133.777.222 1.554.288 2.31.224 2.985.269 5.982.133 8.973-.059 1.48-.14 2.954-.243 4.42v-.067s.022.09-.023-.177a1.313 1.313 0 0 0-.132-.4 1.284 1.284 0 0 0-1.352-.689 1.328 1.328 0 0 0-1.02.778l.067-.2.399-1.022.82-2.043c1.108-2.71 2.282-5.353 3.634-7.93a31.043 31.043 0 0 1 2.305-3.798c.221-.31.465-.622.753-.933.29-.331.609-.636.953-.91.214-.17.444-.319.687-.445.312-.16.65-.266.997-.31.444-.058.895.004 1.308.177l.243.111h.067l.177.111.288.244.2.2c.204.235.375.497.51.778.114.229.21.466.287.71.124.414.213.838.266 1.267.09.744.127 1.493.111 2.243a38.869 38.869 0 0 1-.332 4.176c-.333 2.687-.82 5.264-1.352 7.774-.266 1.243-.54 2.465-.82 3.664l-.222.889-.11.444-.045.222v.045c-.022.066 0 0 .022-.178a1.135 1.135 0 0 0-.044-.289 1.179 1.179 0 0 0-.089-.244 1.196 1.196 0 0 0-1.218-.644c-.164.02-.323.072-.466.155l-.066.045.044-.045.177-.133.732-.533a63.538 63.538 0 0 1 5.894-3.798 53.623 53.623 0 0 1 2.948-1.533l1.484-.666.754-.289.753-.289.754-.266.753-.222.377-.111.177-.045h1.13l.288.045a3.587 3.587 0 0 1 2.017.977 3.734 3.734 0 0 1 1.041 1.866 3.517 3.517 0 0 1-.177 2.088c-.06.161-.134.318-.221.466l-.111.2-.089.133-.354.533-1.286 2a169.692 169.692 0 0 0-2.194 3.553 75.17 75.17 0 0 0-2.792 5.153l-.376.8-.266.6-.222.488a.554.554 0 0 1-1.042-.355l.111-.533c.067-.356.2-.889.4-1.555.11-.333.199-.711.354-1.11l.221-.645.266-.688c.377-.956.82-2.022 1.374-3.199a54.116 54.116 0 0 1 1.995-3.82c.376-.689.797-1.377 1.24-2.11l.333-.533.089-.134v-.066a.467.467 0 0 0 .044-.134.846.846 0 0 0 .022-.488.955.955 0 0 0-.288-.467.841.841 0 0 0-.465-.222h-.355l-.155.045-.332.089-.665.2-.665.244-.665.266-.665.267-1.351.622c-.909.422-1.84.933-2.77 1.466a60.683 60.683 0 0 0-5.585 3.665l-.687.51-.177.134-.044.044-.156.111a1.725 1.725 0 0 1-2.46-.71 1.757 1.757 0 0 1-.132-.356 1.714 1.714 0 0 1-.045-.4c0-.096.007-.193.023-.289l.044-.177v-.111l.044-.222.111-.445.2-.888c.265-1.185.524-2.384.775-3.598.488-2.444.953-4.976 1.241-7.53.157-1.275.246-2.558.266-3.843a13.09 13.09 0 0 0-.089-1.799 4.807 4.807 0 0 0-.155-.755 1.223 1.223 0 0 0-.155-.333h.022l.089.067h-.089l.133.066c.091.039.19.054.288.045.133-.022-.022 0-.177.133-.411.36-.776.77-1.086 1.222a28.178 28.178 0 0 0-2.039 3.42c-1.263 2.443-2.393 5.042-3.479 7.685l-.797 2-.377.999-.045.133v.067l-.044.11a1.859 1.859 0 0 1-3.346.133 1.824 1.824 0 0 1-.177-.532 1.536 1.536 0 0 1-.022-.311 1.492 1.492 0 0 1 0-.222c.103-1.436.177-2.873.221-4.31a71.863 71.863 0 0 0-.155-8.573 30.466 30.466 0 0 0-.266-2.065 12.307 12.307 0 0 0-.443-1.866 4.136 4.136 0 0 0-.31-.71 1.11 1.11 0 0 0-.222-.29h.2c.177-.022-.222.023-.045 0-.15.044-.292.112-.42.2a7.253 7.253 0 0 0-1.286 1.2c-.44.512-.854 1.045-1.241 1.599a43.586 43.586 0 0 0-2.26 3.532c-1.419 2.443-2.704 4.953-3.945 7.485a174.474 174.474 0 0 0-3.457 7.552l-.2.466-.066.156a1.84 1.84 0 0 1-2.925.555 1.798 1.798 0 0 1-.332-.422l-.111-.245-.089-.222-.177-.466-.776-1.844c-.532-1.221-1.063-2.398-1.662-3.509a15.527 15.527 0 0 0-.93-1.577c-.333-.489-.333-.466-.488-.666a2.885 2.885 0 0 0-.421-.445c-.044-.044-.066-.044.044 0h.244a.973.973 0 0 0 .377-.088l.133-.09.044-.044h.044l.045-.044h.022l-.044.11c-.023.023.022-.043 0 0v.045l-.111.334a3.427 3.427 0 0 0-.089.355 6.7 6.7 0 0 0-.133.777c-.044.267-.044.556-.066.822a5.366 5.366 0 0 0 0 .844c.022.267.044 1.155.088 1.733.111 1.155.288 2.31.488 3.442.11.556.221 1.133.332 1.688l.2.822.044.2v-.155a1.736 1.736 0 0 1-1.044 1.978 1.725 1.725 0 0 1-1.35-.024 2.325 2.325 0 0 1-.354-.2l-.133-.11-.066-.067-.133-.111-.288-.222a5.185 5.185 0 0 0-.599-.423 5.383 5.383 0 0 0-.62-.377l-.643-.355a16.13 16.13 0 0 0-2.77-.978 23.02 23.02 0 0 0-2.836-.51 33.274 33.274 0 0 0-5.43-.134l-1.263.089-.598.044h-.133l-.11.045a.91.91 0 0 0-.555.71c-.027.148-.02.3.022.445l.045.089a.022.022 0 0 1 0 .044h.022l.044.044.089.112.044.044h.022l-.044-.044.089.11c.487.523.946 1.071 1.374 1.644a25.514 25.514 0 0 1 3.036 5.353c.265.644.465 1.155.576 1.51l.177.511a.57.57 0 1 1-.997.555z"/><path d="M595.311 186.526s-4.144 3.932-2.371 10.573c2.992-5.486 9.307-6.108 9.307-6.108s-9.728 14.815.2 24.876c-.931-5.708 6.205-9.95 6.205-9.95s-2.97 14.57 9.418 20.212c9.107 4.154 3.523 16.48 3.523 16.48s32.886-22.588 24.82-37.514c0 0 10.127 2.599 9.816 10.772 0 0 13.23-17.724 2.903-32.428"/><g transform="translate(526.814 79.979)"><ellipse cx="155.121" cy="35.183" fill="#FA9FFF" fill-rule="nonzero" rx="34.902" ry="34.983"/><ellipse cx="155.121" cy="35.183" fill="#31323D" fill-rule="nonzero" rx="30.736" ry="30.807"/><path fill="#FFF" fill-rule="nonzero" d="M132.828 47.11c-1.064 4.376 7.933 11.483 16.886 13.55 1.972.443 9.817 2.02 17.905-2.2 8.443-4.398 14.737-13.86 12.654-17.103-1.552-2.42-7.624-1.043-8.443-.844-8.643 2.044-9.684 9.551-15.357 9.64-5.673.089-6.737-6.863-13.85-7.44-4.1-.334-9.108 1.576-9.795 4.397z" opacity=".44"/><ellipse cx="141.958" cy="52.241" fill="#FFF" fill-rule="nonzero" rx="6.161" ry="6.175"/><ellipse cx="175.885" cy="45.8" fill="#FFF" fill-rule="nonzero" rx="8.997" ry="4.131"/><ellipse cx="167.287" cy="23.033" fill="#FFF" fill-rule="nonzero" rx="5.318" ry="6.73"/><ellipse cx="175.885" cy="28.497" fill="#FFF" fill-rule="nonzero" rx="2.282" ry="2.887"/><ellipse cx="178.167" cy="16.325" fill="#FFF" fill-rule="nonzero" rx="2.282" ry="2.887"/><path fill="#FFF" fill-rule="nonzero" d="M136.263 16.325c-1.042 1-8.266 7.908-6.538 14.726.155.622.82 3.199 2.948 4.243 2.725 1.377 6.537-.444 8.642-2.621 3.036-3.132 1.285-5.708 3.922-8.352 3.546-3.531 8.576-.755 10.77-3.753 1.95-2.666.488-8.352-2.77-10.462-6.116-3.976-16.553 5.797-16.974 6.22z"/><ellipse cx="35.013" cy="39.247" fill="#FA9FFF" fill-rule="nonzero" rx="34.902" ry="34.983"/><path stroke="#FFF" stroke-linecap="round" stroke-width="14.416" d="M21.74 52.596a25.837 25.837 0 0 1-5.23-7.973m18.503 15.392a25.956 25.956 0 0 1-13.274-7.419"/><ellipse cx="35.013" cy="39.247" fill="#31323D" fill-rule="nonzero" rx="30.736" ry="30.807"/><path fill="#FFF" fill-rule="nonzero" d="M15.335 52.907c.842 7.574 12.742 10.862 14.426 11.284 2.415.622 9.928 2.199 17.75-1.688 7.823-3.887 14.781-12.75 12.654-17.103-1.064-2.155-4.078-2.665-4.543-2.754-7.335-1.244-10.083 8.862-18.659 10.061-9.086 1.266-15.667-8.684-19.9-5.641-2.127 1.555-1.817 5.153-1.728 5.841z" opacity=".44"/><ellipse cx="22.204" cy="57.327" fill="#FFF" fill-rule="nonzero" rx="6.293" ry="6.308"/><ellipse cx="57.284" cy="45.955" fill="#FFF" fill-rule="nonzero" rx="7.933" ry="3.398"/><ellipse cx="48.198" cy="22.944" fill="#FFF" fill-rule="nonzero" rx="5.318" ry="6.73"/><ellipse cx="57.727" cy="32.451" fill="#FFF" fill-rule="nonzero" rx="1.551" ry="1.977"/><path fill="#FFF" fill-rule="nonzero" d="M18.282 20.012a23.5 23.5 0 0 0-4.72 5.02c-4.233 6.086-4.21 12.216-4.166 14.215.044 2.799.089 4.398 1.285 5.686 2.46 2.644 8.2 2.222 11.213-.688 1.064-1.022 1.485-2.177 2.371-4.465 1.64-4.264.865-5.397 1.817-7.24 2.527-4.976 10.77-2.31 13.319-6.797 1.684-2.976.133-7.796-2.593-9.995-5.141-4.087-14.493 1.088-18.526 4.264z"/></g><g fill-rule="nonzero"><path fill="#595959" d="M609.937 176.687s3.523 19.301 16.974 18.013c13.008-1.266 15.49-18.013 15.49-18.013s-6.182 8.573-14.603 9.173c-8.421.6-17.861-9.173-17.861-9.173z" opacity=".2"/><path fill="#31323D" d="M607.942 127.133a3.353 3.353 0 0 1 .754-3.554c1.95-1.976 6.183-4.886 14.072-5.042 7.889-.155 11.678 2.533 13.473 4.465.886.977 1.13 2.377.598 3.576a4.624 4.624 0 0 1-4.01 2.799c-2.217.11-5.297.821-7.203 3.62a2.75 2.75 0 0 1-.399.489l-.066.066c-1.574 1.488-4.055 1.4-5.54-.177l-.067-.067s-1.64-2.754-7.6-3.132a4.639 4.639 0 0 1-3.967-2.954v-.067l-.045-.022z"/><path fill="#31323D" d="M624.34 134.33l.045.377c.045.245.111.622.2 1.11.177.956.465 2.333.864 3.954a58.112 58.112 0 0 0 1.684 5.487 39.892 39.892 0 0 0 2.704 5.952 23.99 23.99 0 0 0 3.833 5.22c.687.71 1.44 1.333 2.26 1.91.732.511 1.508.933 2.327 1.288.687.29 1.419.533 2.15.689a11.6 11.6 0 0 0 1.728.266l1.13.045h.422c.177 0 .332.133.354.31a.36.36 0 0 1-.332.356l-.421.045-1.197.044a13.53 13.53 0 0 1-6.825-1.955 18.197 18.197 0 0 1-2.615-1.887 26.401 26.401 0 0 1-4.52-5.287 42.23 42.23 0 0 1-3.303-6.063 61.043 61.043 0 0 1-2.193-5.598 69.675 69.675 0 0 1-1.22-4.087c-.132-.51-.22-.888-.287-1.177l-.089-.444c-.2-.91.355-1.8 1.263-1.999a1.66 1.66 0 0 1 1.995 1.266v.155l.044.023z"/><path fill="#31323D" d="M605.04 161.139h.42l.51-.045h.333l.354-.044.82-.111.953-.2 1.064-.311.554-.222c.2-.067.399-.156.576-.244l.576-.29c.2-.088.377-.221.576-.332l.288-.178.288-.2.576-.422c.776-.644 1.463-1.4 2.061-2.221.155-.222.31-.422.466-.666l.42-.689c.267-.489.533-.955.754-1.488a24.32 24.32 0 0 0 1.219-3.199 43.92 43.92 0 0 0 .886-3.353c.244-1.133.466-2.222.665-3.31.2-1.088.355-2.132.51-3.132.155-1 .288-1.954.399-2.843l.82-5.908c.133-.91.975-1.555 1.883-1.422a1.674 1.674 0 0 1 1.419 1.888v.111l-1.22 5.82a176.27 176.27 0 0 1-.598 2.82c-.221 1-.465 2.066-.73 3.155a86.896 86.896 0 0 1-.91 3.376 39.388 39.388 0 0 1-1.174 3.443 25.308 25.308 0 0 1-1.551 3.331c-.288.533-.62 1.044-.93 1.555l-.533.733c-.177.244-.376.466-.554.689a14.261 14.261 0 0 1-2.46 2.31l-.664.444-.333.2-.332.177c-.222.111-.443.245-.665.334l-.665.266c-.2.089-.42.156-.642.222l-.62.2-1.175.267-1.042.155-.886.067h-1.64a.37.37 0 0 1-.399-.333.37.37 0 0 1 .332-.4zm4.63-14.415l-.753-.2-.908-.245-1.197-.288-.709-.156-.775-.155-.843-.156-.93-.133-.975-.156-1.042-.11c-.709-.09-1.485-.112-2.26-.178l-1.219-.045h-2.548l-1.352.09a44.32 44.32 0 0 0-5.673.777 44.35 44.35 0 0 0-11.723 4.22l-1.396.777-1.374.822-1.33.866-1.285.91a44.953 44.953 0 0 0-4.72 3.999 42.013 42.013 0 0 0-3.856 4.331c-.576.71-1.086 1.466-1.595 2.177l-.71 1.066-.332.533-.31.51a38.074 38.074 0 0 0-2.083 3.888A64.363 64.363 0 0 0 556.42 173a28.659 28.659 0 0 0-.731 2.065l-.244.733.222-.755c.133-.489.354-1.2.665-2.088.31-.888.709-1.977 1.24-3.176a44.175 44.175 0 0 1 1.973-3.976l.31-.533.332-.533.687-1.11c.488-.734.975-1.489 1.552-2.244a43.152 43.152 0 0 1 3.767-4.509 44.356 44.356 0 0 1 4.676-4.22l1.285-.977 1.33-.933 1.373-.889 1.419-.844a45.313 45.313 0 0 1 11.922-4.73c1.928-.445 3.878-.8 5.85-1l1.396-.133 1.352-.067 1.307-.044h1.263c.82.022 1.618.044 2.372.11l1.108.09 1.041.11.975.112.909.133.82.133.753.156 1.285.266.909.222.753.178c.599.133.975.71.865 1.31-.133.6-.71.978-1.308.867-.022 0-.066-.023-.088-.023h-.045l-.044.023zm-44.164-5.531l1.462-.51 1.685-.578 2.216-.644 1.263-.356 1.374-.333 1.44-.355 1.53-.311 1.572-.311 1.64-.245.82-.133.842-.111 1.684-.2.843-.089.842-.066 1.684-.134 1.662-.088.82-.045h3.856l1.418.045 1.33.066 2.326.178 1.795.178 1.153.155.42.067c.599.089 1.02.666.931 1.266a1.12 1.12 0 0 1-1.263.933h-.088l-.377-.09-1.086-.221-1.706-.29-2.239-.31-1.285-.133-1.374-.134-1.462-.11-1.53-.067-.775-.045h-4.897l-.842.045-1.662.089-.82.066-.82.067-1.618.155-1.573.2-1.53.2-1.462.267-1.374.244-1.285.266-2.238.511-1.707.467-1.595.444z"/><path fill="#31323D" d="M606.325 152.343h-.133l-.4-.089c-.354-.066-.863-.177-1.528-.244a25.86 25.86 0 0 0-5.562-.156 25.91 25.91 0 0 0-3.679.6c-1.352.333-2.66.8-3.922 1.4a19.44 19.44 0 0 0-3.79 2.31l-.465.377-.421.378c-.288.244-.554.533-.842.777a21.462 21.462 0 0 0-4.055 5.664 22.392 22.392 0 0 0-1.64 4.242c-.377 1.377-.665 2.777-.798 4.198a24.667 24.667 0 0 0-.11 3.843 25.99 25.99 0 0 0 .332 3.243c.155.955.354 1.777.531 2.465.178.689.333 1.2.466 1.555l.177.555-.2-.533a47.6 47.6 0 0 1-.531-1.533 18.478 18.478 0 0 1-.62-2.443 26.978 26.978 0 0 1-.488-3.265 25.583 25.583 0 0 1-.045-3.909 25.82 25.82 0 0 1 .62-4.331 24.625 24.625 0 0 1 1.508-4.465 22.313 22.313 0 0 1 2.46-4.22 21.81 21.81 0 0 1 1.573-1.91c.288-.289.554-.6.864-.888l.443-.422.444-.4a19.964 19.964 0 0 1 3.944-2.688 21.642 21.642 0 0 1 4.144-1.688 26.185 26.185 0 0 1 3.922-.822 28.58 28.58 0 0 1 6.006-.11c.731.066 1.285.155 1.684.2l.443.066h.155c.599.066 1.064.6.997 1.221-.066.6-.598 1.067-1.218 1a.417.417 0 0 1-.178-.045h-.044l-.044.067zm32.243-9.928l.775-.09.931-.11 1.307-.111.776-.067h3.767l1.108.044c.754.023 1.552.112 2.371.178l1.264.156 1.307.2 1.33.222 1.374.288c1.927.445 3.833 1 5.695 1.688a46.297 46.297 0 0 1 11.28 6.13l1.307 1 1.263 1.044 1.219 1.089 1.152 1.132a44.274 44.274 0 0 1 4.122 4.754 44.729 44.729 0 0 1 3.213 4.93c.465.8.864 1.622 1.263 2.4l.532 1.176.266.578.244.577c.554 1.378 1.063 2.755 1.484 4.176.377 1.266.665 2.377.865 3.31.199.933.332 1.666.42 2.154l.111.778-.155-.756c-.11-.488-.244-1.221-.487-2.132-.244-.91-.532-2.021-.953-3.265a44.606 44.606 0 0 0-1.618-4.109l-.266-.555-.266-.556-.576-1.155c-.42-.755-.842-1.554-1.33-2.332a41.476 41.476 0 0 0-3.323-4.753 47.803 47.803 0 0 0-4.21-4.531l-1.175-1.066-1.22-1.022-1.262-.977-1.308-.933a44.719 44.719 0 0 0-11.124-5.597 43.198 43.198 0 0 0-5.54-1.444l-1.33-.244-1.285-.178-1.241-.133-1.219-.111c-.798-.045-1.551-.112-2.26-.09h-2.97l-.864.067-.798.045-.709.089-1.219.133-.93.133-.776.111a1.12 1.12 0 0 1-1.263-.933c-.089-.6.332-1.177.93-1.266h.045l-.044-.066zm44.807 1.999l-1.418-.578-1.64-.666-2.15-.778-1.24-.422-1.33-.4-1.418-.421-1.485-.378-1.55-.4-1.596-.333-.798-.178-.82-.155-1.64-.289-.82-.133-.82-.111-1.64-.222-1.617-.178-.798-.089-.776-.067-1.529-.11-1.462-.067-1.396-.045h-1.286l-2.26.045-1.729.089-1.108.088-.398.045h-.023c-.62.044-1.152-.4-1.218-1a1.137 1.137 0 0 1 1.019-1.221h3.457l2.327.11 1.33.112 1.418.133 1.484.156 1.552.222.797.11.798.134 1.64.267 1.64.333.82.177.82.2 1.64.4.82.222.797.222 1.596.445 1.529.488 1.484.489 1.397.51 1.33.49 1.218.51 2.105.911 1.596.777 1.351.556z"/><path fill="#31323D" d="M641.338 148.367h.598c.399-.022.975-.022 1.684 0 1.995.067 3.989.333 5.94.822 1.284.333 2.57.755 3.789 1.288 1.373.6 2.68 1.31 3.922 2.177a21.146 21.146 0 0 1 3.59 3.154l.399.444.399.489c.265.31.51.644.753.977.488.667.93 1.355 1.33 2.066a23.605 23.605 0 0 1 1.928 4.487c.465 1.488.775 3.043.952 4.597.156 1.444.2 2.91.111 4.376a25.285 25.285 0 0 1-.51 3.865 26.953 26.953 0 0 1-.864 3.176c-.31.933-.642 1.71-.908 2.354-.266.644-.532 1.133-.71 1.466l-.265.511.243-.533c.156-.333.377-.844.643-1.488s.554-1.444.82-2.377c.31-1.044.554-2.11.731-3.176a27.4 27.4 0 0 0 .355-3.82 24.933 24.933 0 0 0-.288-4.265 23.247 23.247 0 0 0-1.108-4.398 22.935 22.935 0 0 0-2.039-4.198 18.418 18.418 0 0 0-1.33-1.91c-.243-.289-.487-.6-.753-.888l-.377-.422-.42-.422a20.306 20.306 0 0 0-7.203-4.642 21.92 21.92 0 0 0-3.568-1.044 25.747 25.747 0 0 0-5.54-.533c-.664 0-1.196.044-1.55.066l-.4.045h-.155a1.124 1.124 0 0 1-1.307-.867c-.133-.6.266-1.177.864-1.31.066-.022.155-.022.222-.022h.044l-.022-.045zm2.304 27.054l-.133.444a4.954 4.954 0 0 1-.177.533l-.31.755-.421.889c-.177.31-.355.666-.576 1.021-.51.8-1.086 1.555-1.729 2.244a16.194 16.194 0 0 1-2.548 2.22 17.772 17.772 0 0 1-3.302 1.822c-.62.267-1.241.489-1.884.666-.664.2-1.33.356-1.994.467a21.59 21.59 0 0 1-4.144.333 21.35 21.35 0 0 1-4.122-.51 19.547 19.547 0 0 1-1.95-.556 18.49 18.49 0 0 1-1.84-.71l-.22-.09-.112-.044-.088-.045h-.045l-.398-.2-.843-.444a26.9 26.9 0 0 1-1.573-.955 21.173 21.173 0 0 1-2.593-2.065 20.803 20.803 0 0 1-1.883-2.066 19.047 19.047 0 0 1-1.219-1.755c-.155-.244-.288-.488-.399-.688l-.266-.511-.2-.444a.564.564 0 0 1 .244-.756c.222-.11.51-.066.665.134h.022l.31.333c.178.222.488.533.865.933s.864.844 1.418 1.355c.62.555 1.285 1.066 1.972 1.554a25.75 25.75 0 0 0 2.505 1.533c.465.244.952.489 1.44.689l.753.31.421.178.377.133.798.267.82.244c.554.156 1.13.29 1.706.4a20.85 20.85 0 0 0 7.047.156l.864-.156.842-.178a19.36 19.36 0 0 0 1.618-.466 17.206 17.206 0 0 0 2.925-1.288 17.435 17.435 0 0 0 2.394-1.622 16.156 16.156 0 0 0 1.794-1.688c.266-.266.466-.555.687-.777l.554-.71.4-.578c.132-.156.22-.334.287-.467l.244-.4c.155-.266.51-.377.776-.222.266.156.376.511.221.778z"/></g><g transform="translate(228.926 202.537)"><mask id="p" fill="#fff"><use xlink:href="#o"/></mask><path fill="#B78662" fill-rule="nonzero" d="M-8.428-13.873h208.266v179.44H-8.428z" mask="url(#p)"/></g><path d="M463.587 537.706l-665.389-2.22v-665.898l665.389 2.22v665.898"/><path d="M463.587 537.706l-665.389-2.22v-665.898l665.389 2.22v665.898"/><g transform="translate(228.926 202.537)"><mask id="r" fill="#fff"><use xlink:href="#q"/></mask><g fill-rule="nonzero" mask="url(#r)"><path fill="url(#s)" d="M166.037 11.742c18.386 6.948 33.668 21.753 41.21 39.91 1.685-8.835 1.64-18.135-1.11-26.703-2.75-8.568-8.384-16.359-16.19-20.843-7.808-4.483-17.789-5.393-25.907-1.509" opacity=".5" style="mix-blend-mode:overlay" transform="translate(-61.438 -11.542)"/><path fill="url(#t)" d="M203.298 14.45c19.097 16.914 27.836 44.704 21.892 69.52 10.979-10.21 15.503-26.325 13.24-41.153-2.261-14.827-10.756-28.278-21.98-38.222" opacity=".5" style="mix-blend-mode:overlay" transform="translate(-61.438 -11.542)"/><path fill="url(#u)" d="M242.18 52.74c1.73 19.443-3.55 39.442-14.64 55.513 14.173-4.573 23.955-18.645 26.173-33.384 2.218-14.738-2.152-29.832-9.294-42.906" opacity=".5" style="mix-blend-mode:overlay" transform="translate(-61.438 -11.542)"/><path fill="url(#v)" d="M83.617 110.295c2.928 14.56 9.227 26.747 20.117 33.25 28.567 17.047 59.197 26.481 92.356 29.122.155 9.19-5.611 17.735-13.175 22.974-7.563 5.238-16.701 7.613-25.75 9.211-43.184 7.57-89.207-1.576-125.87-25.659-12.442-8.168-24.286-18.667-29.077-32.762-4.613-13.607-1.62-29.544 7.63-40.531 9.249-10.987 24.42-16.67 38.614-14.406" opacity=".25" style="mix-blend-mode:multiply" transform="translate(-61.438 -11.542)"/></g></g><path stroke="#31323D" stroke-linecap="round" stroke-linejoin="round" stroke-width="2.771" d="M229.06 304.464c15.303 6.659 36.02 8.856 36.02 8.856s76.985 9.989 88.407-54.603c4.325-35.936-39.28-43.372-39.28-43.372s20.361-8.146 27.658-1.554c0 0-4.103-6.726-10.27-7.258 0 0 26.217-17.735 47.31 22.773 0 0-2.728-20.643-11.2-24.771 0 0 31.605 7.236 37.172 53.605 0 0 5.834-9.234 5.19-16.958 0 0 15.06 22.152-1.619 47.656 0 0 13.064-12.497 14.129-19.2 0 0 16.39 47.079-33.602 54.181 0 0 13.573 5.083 22.578.733 0 0-8.672 18.934-36.796 16.492 0 0 13.685 9.345 22.025 7.436 0 0-20.672 10.588-55.738 2.93 0 0 11.889 10.987 20.672 11.21l-2.33.576a140.848 140.848 0 0 1-76.652-3.573l-33.491-11.188-20.161-8.234v-35.737h-.022z"/><g transform="translate(-38.225 2.324)"><mask id="x" fill="#fff"><use xlink:href="#w"/></mask><g fill-rule="nonzero" mask="url(#x)"><path fill="#B78662" d="M-2.974-6.992h337.241V409.15H-2.974z"/><path fill="#F7EBDA" d="M98.476 376.61c-1.242-3.241.71-12.608 4.59-31.342 2.33-11.21 4.17-18.512 5.324-23.306 8.606-35.937 3.57-39.865 11.09-61.263 5.123-14.627 10.446-29.122 24.619-35.958 1.686-.822 14.616-6.815 27.725-1.554 13.108 5.26 18.01 17.89 23.355 31.497 6.454 16.447 4.436 22.13 11.755 63.327 1.53 8.568 3.038 17.135 4.569 25.703.91 5.039 1.774 10.055 2.661 15.094 2.085 11.809 2.13 12.008 2.085 12.475-2.151 17.424-107.926 31.208-117.773 5.327z"/></g></g><g transform="translate(-39.225 2.324)"><mask id="z" fill="#fff"><use xlink:href="#y"/></mask><g fill-rule="nonzero" mask="url(#z)" style="mix-blend-mode:multiply"><path fill="#7F7F7F" d="M124.25 58.999c-18.076 5.238-29.587 25.703-35.864 53.183-1.464 6.414-2.795 14.028-4.081 22.396a63.663 63.663 0 0 0-.666 9.789c.023 7.968.422 15.693.843 22.019.377 5.371-1.774 11.83-4.88 17.224a62.204 62.204 0 0 0-7.54 21.353l-.045.289c-4.458 29.566-10.269 78.42-11.666 89.696a202.186 202.186 0 0 0-1.508 21.842v.755c5.212 5.77 10.557 19.71 11.666 39.243l.288 10.876s-6.942-.177-17.965-.177c-13.752 0-24.575-24.794-17.566-61.751 6.299-33.184-15.083-203.21-15.083-203.21l62.57-9.833s5.988-28.256 37.505-39.488L124.25 59zm-14.794 261.165c-5.39 32.784 12.044 39.576 15.193 40.309 19.186 3.44 49.638 1.953 59.553-1.554 9.27-3.285 28.811-12.985 23.954-42.063l9.537 57.001H99.343l10.113-53.693zm139.244 25.97s6.632-20.288 14.705-27.724c-8.739 16.648 3.127 20.576 6.233 19.467 11.91-4.262 16.634-14.805 17.566-33.295l14.483 25.814s-12.199 56.824-45.246 47.501l-8.584-4.017.843-27.746z" opacity=".2"/><path fill="url(#k)" d="M212.303 1.22s-8.428-5.77-22.623 9.212l-7.474 8.99 12.442 10.321 17.655-28.522z" opacity=".4" style="mix-blend-mode:multiply" transform="translate(20.183 43.505)"/><path fill="url(#l)" d="M48.174 10.1s6.1-4.196 15.88-.178a27.216 27.216 0 0 1 10.536 7.813l3.305 3.973-8.362 12.186L48.174 10.1z" opacity=".4" style="mix-blend-mode:multiply" transform="translate(20.183 43.505)"/></g></g><g transform="translate(-39.225 2.324)"><mask id="C" fill="#fff"><use xlink:href="#A"/></mask><g fill="url(#B)" fill-rule="nonzero" mask="url(#C)" opacity=".2" style="mix-blend-mode:overlay"><path d="M179.921 55.736s13.884 4.66 18.764 11.608c4.88 6.948 11.556 19.156 16.324 40.176 3.837 16.825 8.473 40.731 15.238 61.707 2.595 8.035 6.587 12.297 9.337 20.51 14.594 43.55 28.656 87.831 34.756 114.867 10.224 45.436-18.01 63.482-18.01 63.482l13.552-7.88s13.973-16.603 16.08-23.883c4.613-15.96 30.83-7.325 25.994-32.785-7.03-36.957-50.547-225.162-50.547-225.162s-44.625 3.13-50.77-7.835c-4.59-8.169-17.432-14.739-28.722-18.135l-1.996 3.33z"/></g></g><path stroke="#31323D" stroke-linecap="round" stroke-width="2.771" d="M208.854 179.32l38.77 126.21c8.65 30.609-10.025 61.04-38.992 68.787M31.24 369.833c-19.785-10.455-32.316-32.451-29.167-56.402l23.688-124.567m180.476-18.024l13.24 43.084m-25.639-83.415L182.15 92.442a53.478 53.478 0 0 0-33.159-35.714l-5.877-1.976m-107.305 81.24l6.83-35.959a53.488 53.488 0 0 1 32.006-42.24l4.015-1.576 1.752-.688m-57.8 149.894l4.968-26.192"/><path fill="#31323D" fill-rule="nonzero" d="M28.977 182.05c-.355-.71-.754-1.42-1.153-2.131-.4-.71-.799-1.398-1.22-2.109a83.674 83.674 0 0 0-2.64-4.084 62.763 62.763 0 0 0-6.077-7.525c-2.218-2.308-4.657-4.417-7.341-6.015a23.083 23.083 0 0 0-2.063-1.088 19.22 19.22 0 0 0-2.151-.82 14.754 14.754 0 0 0-4.436-.711 1.375 1.375 0 0 1-1.02-2.309h.022l.377-.4.377-.376.732-.71c.51-.467 1.02-.91 1.53-1.355a38.085 38.085 0 0 1 3.283-2.464 30.713 30.713 0 0 1 3.593-2.086 22.834 22.834 0 0 1 3.926-1.51 17.088 17.088 0 0 1 4.258-.643 13.985 13.985 0 0 1 6.366 1.398 15.08 15.08 0 0 1 1.885 1.11c.59.407 1.153.852 1.686 1.332.528.476 1.032.98 1.508 1.51l-2.196 1.686-.665-.932-.71-.932a57.042 57.042 0 0 0-1.464-1.843 35.903 35.903 0 0 0-3.194-3.373 17.057 17.057 0 0 0-3.593-2.597 7.05 7.05 0 0 0-1.885-.666 3.546 3.546 0 0 0-1.73.066 1.382 1.382 0 0 1-1.109-2.53l.798-.4.799-.377 1.597-.688a47.323 47.323 0 0 1 3.26-1.177 36.417 36.417 0 0 1 6.765-1.487 23.603 23.603 0 0 1 6.964.156c.577.11 1.154.244 1.708.4.555.155 1.11.354 1.664.576a16.71 16.71 0 0 1 1.574.755 16.41 16.41 0 0 1 1.486.932.56.56 0 0 1-.62.932 14.542 14.542 0 0 0-6.056-2.086 21.875 21.875 0 0 0-6.454.244c-2.144.399-4.246 1-6.277 1.798a36.06 36.06 0 0 0-2.994 1.287l-1.464.733-.71.377-.665.4-1.109-2.53a5.962 5.962 0 0 1 1.553-.267 6.826 6.826 0 0 1 1.508.111c.927.18 1.824.495 2.661.932.784.405 1.533.872 2.24 1.399a24.357 24.357 0 0 1 1.975 1.62 38.654 38.654 0 0 1 3.437 3.64c.533.637 1.05 1.28 1.553 1.931l.732 1 .732 1.042c.471.601.367 1.47-.233 1.943-.6.472-1.47.367-1.94-.233h-.023a17.64 17.64 0 0 0-1.286-1.288c-.449-.4-.923-.771-1.42-1.11-.487-.34-.999-.644-1.53-.91a11.04 11.04 0 0 0-1.642-.643 11.193 11.193 0 0 0-3.482-.489c-1.2.028-2.393.207-3.549.533a20.063 20.063 0 0 0-3.437 1.332 27.94 27.94 0 0 0-3.26 1.887 35.29 35.29 0 0 0-3.04 2.286c-.487.4-.953.821-1.419 1.265l-.687.666-.333.333-.31.333-.999-2.33c1.777.058 3.535.387 5.212.976.827.306 1.634.662 2.418 1.065.775.383 1.53.806 2.262 1.265 2.906 1.843 5.39 4.173 7.652 6.66a64.743 64.743 0 0 1 6.033 7.968 77.554 77.554 0 0 1 2.573 4.262c.414.725.813 1.45 1.198 2.175.377.733.754 1.465 1.109 2.242a.78.78 0 0 1-1.398.688l-.022-.022zm174.443-8.368c.31-.866.643-1.687.998-2.53.355-.844.732-1.643 1.109-2.465.377-.82.776-1.62 1.175-2.441.4-.821.821-1.598 1.265-2.397a88.9 88.9 0 0 1 2.728-4.684 39.8 39.8 0 0 1 1.486-2.264c.51-.732 1.02-1.487 1.575-2.22a67.288 67.288 0 0 1 3.415-4.261 47.04 47.04 0 0 1 3.86-3.93 32.163 32.163 0 0 1 4.458-3.395 21.462 21.462 0 0 1 5.212-2.375l-.377 2.663-.377-.222-.4-.222-.842-.444-1.708-.843a35.183 35.183 0 0 0-3.527-1.398 29.592 29.592 0 0 0-3.615-.955 19.925 19.925 0 0 0-3.66-.377 14.207 14.207 0 0 0-3.548.4c-1.13.28-2.207.737-3.194 1.353-.493.31-.96.66-1.398 1.044-.436.391-.844.814-1.22 1.265-.386.457-.741.939-1.064 1.443-.33.509-.634 1.035-.91 1.575v.045a1.508 1.508 0 0 1-2.75-1.177c.133-.421.289-.799.422-1.198l.465-1.154c.311-.77.644-1.532.999-2.287a38.787 38.787 0 0 1 2.395-4.395c.459-.72.955-1.417 1.486-2.086a16.243 16.243 0 0 1 1.797-1.931 9.803 9.803 0 0 1 2.328-1.576 6.85 6.85 0 0 1 1.442-.488 5.984 5.984 0 0 1 1.553-.134l-.4 2.73-.82-.2-.843-.199-1.708-.333a52.617 52.617 0 0 0-3.46-.51 40.536 40.536 0 0 0-6.964-.2 24.27 24.27 0 0 0-6.765 1.332 14.238 14.238 0 0 0-5.7 3.684.558.558 0 1 1-.843-.732 14.2 14.2 0 0 1 2.728-2.553 17.163 17.163 0 0 1 3.238-1.82 25.979 25.979 0 0 1 7.142-1.842 42.663 42.663 0 0 1 7.342-.222c1.227.059 2.447.163 3.66.31l1.818.245.91.155.93.178a1.376 1.376 0 0 1-.354 2.73h-.022a3.547 3.547 0 0 0-1.664.4 7.098 7.098 0 0 0-1.619 1.154 17.045 17.045 0 0 0-2.75 3.462 35.879 35.879 0 0 0-2.174 4.084c-.325.71-.636 1.428-.931 2.153l-.422 1.088-.377 1.088-2.772-1.155a20.41 20.41 0 0 1 1.064-1.864c.39-.612.82-1.198 1.287-1.754.471-.561.983-1.088 1.53-1.576a13.95 13.95 0 0 1 1.775-1.331 14.1 14.1 0 0 1 4.059-1.732 17.221 17.221 0 0 1 4.302-.51c1.415.01 2.826.151 4.214.422a29.13 29.13 0 0 1 4.015 1.065c1.299.449 2.572.968 3.815 1.554l1.84.91.91.488.444.267.466.288a1.465 1.465 0 0 1-.378 2.664 18.557 18.557 0 0 0-4.502 2.02 29.301 29.301 0 0 0-4.081 3.063c-2.573 2.286-4.857 4.927-6.964 7.724a70.147 70.147 0 0 0-1.553 2.109c-.51.71-.998 1.443-1.486 2.175-.488.733-.976 1.465-1.442 2.198l-1.397 2.241c-.466.755-.91 1.51-1.353 2.264l-1.33 2.309c-.444.777-.866 1.554-1.287 2.33-.422.777-.843 1.554-1.242 2.331a.795.795 0 1 1-1.464-.621z"/><path stroke="#31323D" stroke-linecap="round" stroke-width="2.771" d="M65.729 61.123c-9.87-8.124-27.636-10.921-30.076-7.458l14.306 25.57m104.666-20.088c6.543-5.15 29.587-14.716 33.336-12.83l-16.258 26.326"/><path fill="#31323D" fill-rule="nonzero" d="M84.803 61.3a22.543 22.543 0 0 1-1.242-1.287l-1.153-1.332a43.847 43.847 0 0 1-2.151-2.797 29.884 29.884 0 0 1-3.394-6.26 20.322 20.322 0 0 1-.998-3.484 15.838 15.838 0 0 1-.266-3.685c.034-.625.108-1.248.222-1.864a13.57 13.57 0 0 1 1.175-3.552c.278-.558.589-1.099.932-1.62a1.109 1.109 0 0 1 2.04.644v.066c-.07.898.06 1.8.377 2.642.335.821.86 1.551 1.53 2.13a8.826 8.826 0 0 0 2.374 1.466c.441.188.893.35 1.353.488l.71.2.354.066h.31l-1.197 1.954-.088-.134-.067-.11-.11-.2-.2-.378c-.134-.244-.245-.51-.355-.754a11.815 11.815 0 0 1-.533-1.576 12.683 12.683 0 0 1-.421-3.285 14.859 14.859 0 0 1 1.464-6.304c.45-.965.977-1.893 1.574-2.775a25.568 25.568 0 0 1 1.93-2.486 34.212 34.212 0 0 1 2.152-2.242l1.153-1.043.554-.488.289-.244.266-.245a24.333 24.333 0 0 0 1.952-2.02c.607-.712 1.17-1.46 1.685-2.241a20.843 20.843 0 0 0 2.418-5.017 21.13 21.13 0 0 0 .998-5.482c.045-.933.03-1.867-.044-2.797-.045-.466-.09-.932-.156-1.376-.066-.444-.066-.444-.11-.666l-.067-.333-.044-.156v-.177a1.399 1.399 0 0 1 1.996-1.598 64.754 64.754 0 0 1 3.016 1.598l2.95 1.687a113.23 113.23 0 0 1 5.722 3.618 82.518 82.518 0 0 1 10.69 8.435 49.55 49.55 0 0 1 4.68 5.06 31.015 31.015 0 0 1 3.771 5.905c.514 1.08.937 2.201 1.265 3.351a17.17 17.17 0 0 1 .62 3.596c.084 1.232.017 2.47-.199 3.685a15.968 15.968 0 0 1-1.087 3.507l-1.996-1.82.155-.089.2-.133.377-.267.754-.599.71-.644.665-.688.621-.732.289-.377.266-.4c.177-.266.355-.533.488-.821l.221-.422.222-.422.2-.444.177-.444c.067-.155.111-.31.156-.444.044-.133.11-.31.133-.443l.133-.467.11-.466c.045-.155.067-.31.09-.466.022-.155.066-.31.066-.466 0-.155.089-.644.089-.954 0-.311.022-.311.022-.489v-.488c.022-.31-.022-.644-.022-.977 0-.333-.067-.643-.09-.976v-.09a1.377 1.377 0 0 1 1.265-1.486c.463-.033.912.167 1.198.532l.2.267.177.244.333.488.62 1c.4.665.755 1.375 1.065 2.063a30.007 30.007 0 0 1 2.795 13.451 31.807 31.807 0 0 1-1.575 8.99c-.11.355-.244.71-.377 1.088l-.4 1.065a34.87 34.87 0 0 1-.909 2.087 57.276 57.276 0 0 1-1.02 2.02l-.554.998-.577.977a.776.776 0 0 1-1.353-.755l.51-.954.488-.977c.31-.643.621-1.31.91-1.975.288-.666.554-1.332.798-2.02l.355-1.021c.11-.355.222-.688.31-1.043a29.787 29.787 0 0 0 1.176-8.48 27.585 27.585 0 0 0-2.994-12.274 21.709 21.709 0 0 0-1.043-1.843l-.576-.865-.289-.422-.155-.2-.133-.177 2.44-1.044c.044.378.088.755.11 1.132.023.378.045.755.045 1.155v.577c0 .2-.022.377-.022.577 0 .2-.067.777-.111 1.154-.045.377-.067.377-.089.577-.022.2-.066.378-.11.577l-.134.577-.155.555a5.103 5.103 0 0 1-.178.555c-.066.178-.11.378-.2.555l-.221.533-.244.533-.266.532-.266.51c-.178.334-.4.667-.6 1l-.332.488-.355.466-.732.888-.798.844-.843.776-.91.733-.487.333-.244.155-.289.178a1.419 1.419 0 0 1-1.996-1.776h.022c.399-.925.689-1.894.865-2.885.171-.99.223-1.996.156-2.997a16.169 16.169 0 0 0-1.642-5.904 28.259 28.259 0 0 0-3.415-5.35 46.732 46.732 0 0 0-4.414-4.772c-1.575-1.51-3.26-2.93-4.968-4.284-1.708-1.354-3.505-2.641-5.323-3.884a103.511 103.511 0 0 0-5.59-3.552l-2.86-1.642a61.052 61.052 0 0 0-2.906-1.532l1.974-1.642.066.222.045.2.088.399.133.799s.134 1.043.178 1.576c.082 1.048.097 2.101.044 3.152a23.922 23.922 0 0 1-1.13 6.215 22.961 22.961 0 0 1-2.751 5.682 25.08 25.08 0 0 1-4.103 4.75l-.289.267-.288.244-.577.488-1.087 1.132a28.895 28.895 0 0 0-1.996 2.042c-.621.704-1.2 1.445-1.73 2.22-.528.76-.996 1.562-1.397 2.397a14.035 14.035 0 0 0-.932 2.553c-.222.863-.342 1.75-.354 2.641-.02.882.078 1.763.288 2.62.104.423.237.838.4 1.242l.265.577.155.267.067.133.044.089.045.089a1.244 1.244 0 0 1-1.242 1.886l-.244-.044-.222-.045-.421-.11-.843-.245a13.966 13.966 0 0 1-1.62-.621 11.2 11.2 0 0 1-2.994-1.953 8.477 8.477 0 0 1-1.22-1.399 7.682 7.682 0 0 1-.865-1.665 7.907 7.907 0 0 1-.443-1.82 9.352 9.352 0 0 1-.022-1.82l2.04.71c-.3.435-.574.887-.82 1.354-.247.466-.462.948-.644 1.443a11.793 11.793 0 0 0-.643 3.086c-.155 2.13.244 4.306.998 6.37a28.087 28.087 0 0 0 3.039 5.949 38.997 38.997 0 0 0 1.996 2.73l1.087 1.31c.377.421.754.843 1.13 1.22a.778.778 0 0 1-1.064 1.132z"/><path fill="#FFF" fill-rule="nonzero" d="M84.67 119.455c0 21.198-7.297 25.815-19.119 23.595a53.169 53.169 0 0 0-17.677-.421c-12.553 1.886-20.87-3.241-20.738-22.33.089-15.671 12.487-28.678 28.124-29.011 15.637-.333 29.41 12.252 29.41 28.167z"/><g transform="translate(27.092 91.11)"><mask id="E" fill="#fff"><use xlink:href="#D"/></mask><g fill-rule="nonzero" mask="url(#E)"><g transform="translate(15.526 15.982)"><ellipse cx="17.541" cy="17.541" fill="#FCDF35" rx="17.078" ry="17.091" transform="rotate(-1.3 17.54 17.541)"/><ellipse cx="17.313" cy="17.646" fill="#31323D" rx="12.889" ry="12.899" transform="rotate(-1.146 17.313 17.646)"/><ellipse cx="24.301" cy="7.624" fill="#FFF" rx="6.854" ry="6.859" transform="rotate(-1.3 24.301 7.624)"/></g></g></g><path stroke="#31323D" stroke-linecap="round" stroke-width="2.216" d="M84.67 119.455c0 21.198-7.297 25.815-19.119 23.595a53.169 53.169 0 0 0-17.677-.421c-12.553 1.886-20.87-3.241-20.738-22.33.089-15.671 12.487-28.678 28.124-29.011 15.637-.333 29.41 12.252 29.41 28.167z"/><path fill="#FFF" fill-rule="nonzero" d="M147.195 115.504c0 21.198 7.297 25.815 19.118 23.595a53.169 53.169 0 0 1 17.678-.421c12.553 1.886 20.87-3.241 20.737-22.33-.088-15.671-12.487-28.678-28.123-29.011-15.637-.333-29.41 12.252-29.41 28.167z"/><g transform="translate(147.084 87.115)"><mask id="G" fill="#fff"><use xlink:href="#F"/></mask><g fill-rule="nonzero" mask="url(#G)"><g transform="translate(7.541 16.425)"><ellipse cx="17.529" cy="17.517" fill="#FCDF35" rx="17.094" ry="17.076" transform="rotate(-88.7 17.529 17.517)"/><ellipse cx="18.029" cy="17.744" fill="#31323D" rx="12.898" ry="12.884" transform="rotate(-88.7 18.029 17.744)"/><ellipse cx="28.425" cy="7.618" fill="#FFF" rx="6.86" ry="6.852" transform="rotate(-88.7 28.425 7.618)"/></g></g></g><path stroke="#31323D" stroke-linecap="round" stroke-width="2.216" d="M147.195 115.504c0 21.198 7.297 25.815 19.118 23.595a53.169 53.169 0 0 1 17.678-.421c12.553 1.886 20.87-3.241 20.737-22.33-.088-15.671-12.487-28.678-28.123-29.011-15.637-.333-29.41 12.252-29.41 28.167z"/><g fill-rule="nonzero"><path fill="#595959" d="M89.217 192.305c-2.307-.245-9.737 7.813-6.543 14.827.51 1.11 1.597 1.31 2.418.444 2.44-2.53 4.813-2.841 4.813-2.841-1.797.088-7.187 11.897 4.968 21.486a1.485 1.485 0 0 0 2.35-.777 17.88 17.88 0 0 1 1.487-3.53.355.355 0 0 1 .643.223c-.599 3.64-.554 11.187 8.628 15.36 5.922 2.686 5.323 9.988 4.17 14.783a1.488 1.488 0 0 0 2.373 1.51c8.938-7.17 30.253-25.97 23.82-37.846 0 0 5.9 3.618 7.986 9.345a1.73 1.73 0 0 0 3.15.244c3.592-6.748 9.115-20.532 1.618-31.209" opacity=".2"/><path fill="#B78662" d="M88.773 189.863s-4.147 3.929-2.373 10.566c2.995-5.483 9.316-6.105 9.316-6.105s-9.737 14.806.2 24.86c-.932-5.704 6.21-9.943 6.21-9.943s-2.972 14.56 9.426 20.199c9.116 4.15 3.526 16.47 3.526 16.47s32.915-22.575 24.842-37.49c0 0 10.136 2.596 9.825 10.765 0 0 13.241-17.713 2.906-32.407"/><path fill="#31323D" d="M118.938 148.755l.11.621c.067.4.178 1 .311 1.754.133.755.31 1.62.532 2.663.222 1.044.488 2.176.821 3.419.178.621.333 1.265.532 1.93l.289 1.022.332 1.043c.222.71.488 1.42.732 2.131.244.71.555 1.465.888 2.197a39.344 39.344 0 0 0 2.195 4.395 27.879 27.879 0 0 0 2.906 4.107 19.856 19.856 0 0 0 3.682 3.351 17.74 17.74 0 0 0 2.085 1.243 15.96 15.96 0 0 0 6.676 1.643c.71.021 1.421-.001 2.129-.067a18.994 18.994 0 0 0 1.974-.266 22.853 22.853 0 0 0 3.393-.91c.854-.302 1.69-.65 2.507-1.043.687-.333 1.197-.622 1.552-.821l.4-.245.133-.088h.022a.335.335 0 1 1 .377.554l-.133.09-.4.266c-.354.222-.865.555-1.552.91a25.72 25.72 0 0 1-2.55 1.198c-1.131.459-2.296.83-3.483 1.11-.68.162-1.369.288-2.063.377a18.683 18.683 0 0 1-4.657.067 17.002 17.002 0 0 1-4.946-1.332 19.347 19.347 0 0 1-2.374-1.265 21.74 21.74 0 0 1-4.192-3.485 30.007 30.007 0 0 1-3.327-4.262 41.694 41.694 0 0 1-2.55-4.55c-.377-.755-.71-1.51-1.02-2.264-.311-.755-.622-1.487-.888-2.197l-.399-1.066-.355-1.043c-.244-.688-.443-1.354-.643-1.976-.4-1.287-.732-2.463-1.02-3.507-.289-1.043-.488-1.975-.688-2.73-.2-.754-.31-1.332-.399-1.731l-.133-.622a1.666 1.666 0 0 1 2.123-2.05 1.664 1.664 0 0 1 1.115 1.318v.089l-.044.022z"/><path fill="#31323D" d="M87.664 177.277l.51.267c.355.177.866.422 1.531.666.804.321 1.626.595 2.462.821a19.86 19.86 0 0 0 3.305.6c.634.055 1.27.077 1.907.066.676-.016 1.35-.076 2.019-.178a13.522 13.522 0 0 0 4.08-1.31 14.393 14.393 0 0 0 1.93-1.198 16.25 16.25 0 0 0 1.752-1.531 19.998 19.998 0 0 0 2.884-3.796 29.62 29.62 0 0 0 2.085-4.35 40.93 40.93 0 0 0 1.441-4.484c.377-1.487.71-2.93.954-4.329.244-1.398.444-2.708.599-3.95.066-.622.133-1.2.2-1.776.066-.577.11-1.088.155-1.599.044-.51.088-.976.11-1.398l.09-1.199.11-2.264a1.667 1.667 0 0 1 2.572-1.308c.5.325.787.891.755 1.486v.089l-.244 2.33-.155 1.221c-.044.444-.11.933-.177 1.443-.067.51-.134 1.065-.244 1.643-.111.577-.178 1.176-.289 1.82a77.76 77.76 0 0 1-.82 4.062 59.63 59.63 0 0 1-1.22 4.483 43.282 43.282 0 0 1-1.753 4.662 31.727 31.727 0 0 1-2.461 4.55 21.86 21.86 0 0 1-3.372 3.995 17.901 17.901 0 0 1-2.018 1.599c-.699.464-1.433.872-2.196 1.22a14.918 14.918 0 0 1-4.569 1.221c-.722.076-1.448.105-2.173.089a19.37 19.37 0 0 1-2.019-.178 20.858 20.858 0 0 1-3.415-.799 23.145 23.145 0 0 1-2.507-.976 19.8 19.8 0 0 1-1.552-.777l-.533-.311a.338.338 0 0 1 .266-.622z"/><path fill="#31323D" d="M102.769 141.585a3.331 3.331 0 0 1 .798-3.529c1.996-1.953 6.255-4.794 14.15-4.839 7.897-.044 11.645 2.708 13.42 4.662a3.31 3.31 0 0 1 .554 3.573 4.613 4.613 0 0 1-4.059 2.73c-2.218.067-5.3.733-7.253 3.507a2.93 2.93 0 0 1-.421.489l-.067.066a3.924 3.924 0 0 1-5.611-.333s-1.62-2.774-7.563-3.24a4.592 4.592 0 0 1-3.926-2.997v-.066l-.022-.023zm30.852 18.046l.887-.177 2.528-.466c2.196-.378 5.323-.844 9.094-1.2a120.81 120.81 0 0 1 12.93-.532c2.374.022 4.814.133 7.298.333s4.99.51 7.474.932c2.484.422 4.969.933 7.364 1.576a66.769 66.769 0 0 1 6.942 2.264 57.646 57.646 0 0 1 6.188 2.864 48.922 48.922 0 0 1 5.19 3.218 44.986 44.986 0 0 1 4.015 3.219l.82.754.732.71.666.667.599.643c.377.4.687.777.976 1.088l.687.821.577.71-.6-.688-.709-.799c-.288-.31-.62-.688-.998-1.065l-.599-.622-.687-.665-.754-.689-.843-.732a44.695 44.695 0 0 0-4.081-3.085 48.476 48.476 0 0 0-5.213-3.064 57.045 57.045 0 0 0-6.188-2.663 65.946 65.946 0 0 0-6.92-2.042 72.125 72.125 0 0 0-7.319-1.354 93.87 93.87 0 0 0-7.408-.71c-2.462-.134-4.857-.178-7.208-.134a119.35 119.35 0 0 0-12.731.888 117.44 117.44 0 0 0-8.894 1.42l-2.462.534-.865.2a1.108 1.108 0 0 1-1.394-1.403 1.11 1.11 0 0 1 .883-.75h.023zm38.348-10.943l-1.464.067-1.685.089-2.196.155-2.595.222-2.883.333c-.999.133-2.019.266-3.061.444l-1.575.244-1.575.289-1.574.31-1.553.311-1.53.333-1.486.355-1.42.355-1.353.355-2.484.689-2.085.621-1.597.51-1.375.467h-.022a1.111 1.111 0 0 1-1.445-1.274c.079-.39.359-.708.735-.835h.067l1.441-.377 1.664-.422 2.151-.51 2.573-.555 1.397-.267 1.464-.266 1.53-.267 1.553-.244 1.597-.222 1.597-.2 1.597-.177 1.597-.155c1.064-.111 2.107-.156 3.105-.245l2.906-.133 2.595-.066h3.903l1.486.066zm-35.265 16.07l1.707-.266.954-.089 1.131-.088c.799 0 1.708-.045 2.684.066l.754.045.776.11.799.112.82.155.843.155.843.2.865.222.865.266.865.289.865.333.865.355.865.377.444.2.421.222.865.422 1.686.932c1.087.666 2.174 1.332 3.194 2.064a52.623 52.623 0 0 1 2.905 2.242c.91.755 1.775 1.532 2.573 2.264.799.733 1.508 1.488 2.174 2.153a30.714 30.714 0 0 1 1.73 1.91c.488.576.931 1.087 1.286 1.53a55.136 55.136 0 0 1 1.065 1.377s-.4-.488-1.131-1.31c-.377-.399-.821-.91-1.353-1.442a75.672 75.672 0 0 0-1.841-1.798 55.182 55.182 0 0 0-2.263-2.02 58.883 58.883 0 0 0-2.661-2.109 41.249 41.249 0 0 0-2.972-2.042 57.374 57.374 0 0 0-3.216-1.842l-1.686-.8-.843-.377-.421-.177-.422-.156-.842-.31-.843-.289-.843-.266-.843-.222-.82-.222-.821-.178-.799-.155-.798-.111-.776-.089-.754-.066-.732-.067h-.688c-.91-.044-1.73.044-2.484.089l-.998.133-.843.11-1.686.356a1.109 1.109 0 0 1-1.273-1.44 1.11 1.11 0 0 1 .83-.735h.066l-.088-.022zm-33.846-1.376l-3.438-.665c-2.174-.422-5.28-1.044-9.027-1.643-1.864-.31-3.904-.6-6.055-.888-2.152-.288-4.436-.51-6.787-.71-2.351-.2-4.791-.31-7.275-.355a94.695 94.695 0 0 0-7.52.177 74.182 74.182 0 0 0-7.474.866c-1.22.2-2.44.444-3.615.71a44.564 44.564 0 0 0-3.482.932 44.454 44.454 0 0 0-11.711 5.35 36.599 36.599 0 0 0-4.125 3.13c-.289.244-.555.51-.821.754l-.754.71-.688.689-.599.643c-.377.4-.687.777-.976 1.11l-.377.466-.31.4-.555.71.555-.732.288-.4.377-.466c.266-.333.577-.733.954-1.132l.577-.666.665-.71.732-.755c.266-.244.51-.533.82-.777a36.89 36.89 0 0 1 4.06-3.263 44.988 44.988 0 0 1 11.71-5.749 53.813 53.813 0 0 1 3.505-1.02 50.68 50.68 0 0 1 3.637-.822c2.494-.49 5.01-.853 7.541-1.088 2.55-.244 5.102-.355 7.608-.4 2.506-.044 4.99.023 7.386.156 2.395.133 4.702.311 6.875.533 2.174.222 4.237.466 6.144.732a245.64 245.64 0 0 1 9.116 1.421l3.438.577a1.114 1.114 0 0 1-.377 2.198h-.022v-.023zM63.089 152.13l1.53-.133 1.753-.134 2.285-.133 2.705-.089h6.255l1.664.067 1.685.111 1.686.133 1.663.133 1.642.156 1.597.177.776.09.754.11 1.464.2 2.684.444 2.262.422 1.73.355 1.508.333a1.112 1.112 0 0 1-.466 2.175h-.088l-1.464-.422-1.686-.444-2.196-.555-2.617-.599-1.442-.289-.731-.155-.755-.133-1.552-.289-1.597-.266-1.641-.244-1.642-.222-1.64-.2-1.642-.178-.82-.088-.8-.067-1.574-.133-2.994-.178-2.706-.088h-5.567l-.023.133zm36.952 16.536l-1.686-.422-.843-.133-.466-.066-.244-.045h-.288l-1.175-.088h-1.997l-.731.066c-.488.022-.999.133-1.509.2-.51.066-1.042.222-1.574.333l-.4.089-.399.11-.82.245-.821.288-.843.311-1.663.71a36.144 36.144 0 0 0-3.283 1.754l-.799.488-.776.51c-.532.334-1.02.711-1.53 1.066l-1.464 1.11c-.466.377-.954.755-1.397 1.132l-.666.577-.643.577-1.22 1.132-1.131 1.11-1.042 1.066a56.746 56.746 0 0 0-1.753 1.908l-1.286 1.532c-.71.866-1.087 1.376-1.087 1.376s.355-.532.998-1.42c.333-.444.732-1 1.22-1.599s1.02-1.287 1.641-2.02l.976-1.131 1.087-1.177 1.176-1.198.62-.622.644-.621a23.97 23.97 0 0 1 1.353-1.221l1.42-1.199c.487-.377.975-.799 1.508-1.176l.776-.577.798-.555a37.367 37.367 0 0 1 3.283-1.998l1.708-.844.865-.377.865-.355.865-.31.421-.156.422-.133c.576-.156 1.109-.355 1.663-.444.554-.089 1.087-.267 1.62-.311l.775-.111.377-.044h.378l1.419-.09h1.885l.555.067.998.111 1.708.311a1.11 1.11 0 0 1-.4 2.175h-.066l-.022.09zm-10.957 21.509l-.4.51-.376.555-.333.577c-.089.2-.2.4-.288.6-.089.2-.178.4-.244.621-.067.222-.156.422-.2.622l-.155.643-.111.644a5.909 5.909 0 0 0-.067.644 5.242 5.242 0 0 0-.044.643v.644c0 .222.044.444.067.644.014.216.044.431.088.643l.111.644v.156l.045.155.088.31.178.622-2.04-.244.42-.688.2-.333.244-.31.488-.622.532-.577.267-.289.288-.266.599-.533.62-.466c.2-.156.444-.289.644-.444l.333-.222.332-.2.688-.355.71-.333.732-.288.732-.245.754-.2.754-.177.399-.067h.421a1.109 1.109 0 0 1 1.043 1.71l-.4.665-.399.71c-.251.474-.495.955-.732 1.444l-.332.732-.31.755-.29.754-.265.755-.244.777-.222.777c-.133.51-.266 1.043-.377 1.554-.11.51-.11.532-.155.777-.045.244-.089.532-.133.799-.045.266-.111 1.065-.156 1.576v1.598s.023.532.045.777c.022.244.022.532.066.776.045.245.067.511.111.777l.155.755c.045.266.133.51.2.755l.11.377.134.355c.089.244.155.489.266.733l.31.71c.112.244.245.444.378.688l.177.333.222.333.421.644.488.621.244.31.266.29.533.577-1.885.954a8.33 8.33 0 0 1-.09-.91 7.975 7.975 0 0 1 .023-.91 8.595 8.595 0 0 1 .355-1.754c.089-.288.2-.555.31-.82l.178-.4.2-.378.199-.377.222-.355.488-.71.51-.666.554-.622.577-.6.599-.554c.4-.37.82-.718 1.264-1.043l.666-.489.332-.222.377-.244a1.108 1.108 0 0 1 1.664 1.154l-.045.289-.044.31-.066.622a23.38 23.38 0 0 0-.067 3.818c.055.849.159 1.694.31 2.53a19.9 19.9 0 0 0 .622 2.442c.269.792.595 1.564.975 2.308.2.356.4.733.621 1.088.222.355.222.355.333.51l.355.511c.11.178.266.333.4.488.132.156.265.333.398.467.134.133.555.599.888.865l.465.422.488.377c.31.267.666.489 1.02.733l.533.333.532.31 1.176.578c.427.204.842.434 1.242.688l.333.2.31.221c.2.156.4.289.599.467a8.833 8.833 0 0 1 1.93 2.352c.491.875.85 1.817 1.064 2.797.21.955.314 1.93.31 2.908.002.951-.072 1.901-.221 2.841a23.41 23.41 0 0 1-.621 2.753c-.133.443-.266.887-.422 1.331l-.244.666-.288.688-1.641-1.376c.798-.555 1.597-1.154 2.395-1.731l2.351-1.82a112.212 112.212 0 0 0 4.57-3.818 87.709 87.709 0 0 0 8.428-8.346 52.179 52.179 0 0 0 3.615-4.64 38.238 38.238 0 0 0 1.552-2.463c.478-.833.907-1.693 1.287-2.575.754-1.753 1.286-3.596 1.397-5.416a10.218 10.218 0 0 0-.2-2.708 9.394 9.394 0 0 0-.931-2.508 1.11 1.11 0 0 1 1.264-1.598l.532.155.488.156.976.377.954.422.932.466.909.533.887.577.422.31.421.333.798.71c.267.245.51.511.755.778l.177.2.177.221.333.422.31.444.289.466c.089.155.177.333.266.488.09.166.172.336.244.51l.222.511.177.533c.067.178.09.355.133.533.048.183.085.368.111.555l.089.555.044.555v1.11l-1.996-.71.6-.822.576-.866c.377-.6.754-1.198 1.087-1.798.332-.599.687-1.243.998-1.864.31-.622.62-1.265.909-1.91l.421-.976.4-.976.355-1 .332-.998c.111-.333.2-.666.289-1.021.088-.355.177-.688.266-1.021.088-.333.177-.688.221-1.021.045-.333.156-.688.2-1.043l.155-1.044.111-1.043c.045-.355.045-.71.067-1.043v-1.066s0-.71-.022-1.043l-.067-1.043c-.022-.355-.089-.688-.133-1.043l-.067-.533-.11-.51-.111-.511a5.242 5.242 0 0 0-.111-.51l-.266-1.022c-.09-.333-.222-.666-.333-.999l-.178-.488c-.066-.155-.133-.333-.2-.488l-.42-.977-.488-.932-.244-.466-.289-.444-.554-.91h-.022a.444.444 0 0 1 .731-.489l.621.91.311.467.288.488.555.954.488 1 .244.51.2.51c.132.355.288.688.399 1.044l.332 1.065c.067.178.111.355.133.533l.133.532.134.533.088.555c.067.377.133.733.178 1.11l.11 1.11c.045.377.045.732.067 1.11.022.377.022.377.022.554v.555c0 .378 0 .755-.022 1.11l-.066 1.11-.133 1.11c-.045.377-.111.732-.156 1.11-.044.377-.133.732-.2 1.087-.066.355-.132.733-.243 1.088-.111.355-.178.732-.266 1.088l-.311 1.065-.333 1.065-.377 1.044c-.133.355-.266.688-.399 1.043-.28.68-.57 1.361-.865 2.042-.296.68-.621 1.347-.976 1.998-.355.643-.71 1.31-1.087 1.953l-.576.954c-.2.311-.4.622-.644.955a1.109 1.109 0 0 1-1.996-.6v-.976l-.044-.422-.067-.421a3.376 3.376 0 0 0-.088-.422c-.045-.133-.067-.289-.111-.422l-.133-.4-.156-.399a3.575 3.575 0 0 0-.177-.377c-.067-.134-.133-.267-.2-.378l-.221-.377-.244-.355-.267-.355-.133-.178-.155-.155c-.2-.222-.4-.422-.62-.644l-.689-.6-.354-.288-.377-.266-.755-.51-.798-.467-.82-.422-.843-.377-.865-.333-.444-.155-.421-.111 1.242-1.598c.53.975.919 2.021 1.153 3.107a12.44 12.44 0 0 1 .244 3.285c-.133 2.175-.754 4.262-1.575 6.17a27.488 27.488 0 0 1-1.397 2.798 39.067 39.067 0 0 1-1.641 2.619 54.376 54.376 0 0 1-3.771 4.839 89.883 89.883 0 0 1-8.628 8.568 129.485 129.485 0 0 1-4.658 3.884l-2.395 1.842c-.82.6-1.62 1.199-2.462 1.798a1.108 1.108 0 0 1-1.641-1.354l.222-.555.221-.599c.133-.4.267-.8.377-1.22.235-.818.42-1.648.555-2.487a13.195 13.195 0 0 0-.044-4.905 7.884 7.884 0 0 0-.821-2.176 6.613 6.613 0 0 0-1.464-1.775c-.133-.133-.31-.244-.466-.355l-.222-.178-.243-.155-.244-.156-.134-.066-.155-.067-.599-.31-.599-.29-.643-.31-.62-.355-.6-.377c-.399-.267-.798-.511-1.175-.822l-.555-.444-.532-.488c-.355-.31-.687-.666-1.02-1.021-.333-.355-.31-.355-.466-.555-.155-.2-.31-.355-.444-.555l-.421-.577-.4-.6s-.487-.82-.709-1.242a19.519 19.519 0 0 1-1.109-2.62 22.188 22.188 0 0 1-.71-2.73 25.346 25.346 0 0 1-.355-5.594c.023-.465.067-.931.111-1.398.045-.466.045-.466.09-.71l.043-.355.067-.377 1.663 1.176-.288.178-.288.2-.577.421c-.377.289-.754.6-1.131.932l-.532.489-.51.51-.466.533-.422.555-.399.577-.177.289-.156.31-.155.311-.133.31c-.089.2-.155.423-.222.622a6.375 6.375 0 0 0-.244 1.288 6.153 6.153 0 0 0 .067 1.287v.111a1.088 1.088 0 0 1-1.885.844l-.6-.666-.31-.333-.288-.355-.555-.71-.488-.755-.244-.378-.221-.4c-.133-.266-.31-.532-.422-.798l-.377-.822a5.406 5.406 0 0 1-.31-.843l-.156-.422-.133-.444c-.066-.288-.177-.577-.221-.865l-.178-.888-.133-.888c-.044-.289-.067-.6-.089-.888-.022-.289-.044-.6-.044-.888 0-.288-.022-.6 0-.888v-.888c.044-.577.089-1.176.177-1.753l.133-.866s.111-.577.178-.866a58.74 58.74 0 0 1 .421-1.709l.244-.843.266-.821.289-.822.31-.799.333-.799.355-.799c.251-.518.51-1.036.776-1.554l.422-.754.465-.777 1.043 1.709h-.289l-.31.066-.643.156-.643.177-.622.222-.62.245-.6.266-.576.31-.288.156-.267.178c-.177.133-.377.222-.554.355l-.532.4-.488.421-.244.222-.222.244-.444.489-.399.51-.2.266-.177.267-.333.555-.133.2a1.064 1.064 0 0 1-1.907-.444l-.133-.755-.067-.378v-.377l-.044-.755a5.998 5.998 0 0 1 0-.754c0-.244 0-.51.022-.755l.089-.755c.03-.254.074-.506.133-.754a7.24 7.24 0 0 1 .177-.733l.222-.732.266-.71a9.4 9.4 0 0 1 .31-.689c.112-.222.245-.444.356-.666.11-.222.266-.421.399-.643l.443-.6.488-.577.533-.532a.447.447 0 1 1 .643.621h-.022l-.089-.044z"/></g></g></svg>