<svg data-name="Layer 10" xmlns="http://www.w3.org/2000/svg" viewBox="0 0 1505 860" opacity=".07"><defs><clipPath id="a"><path fill="none" d="M0 0h1684.9v1000H0z"/></clipPath><clipPath id="b"><path data-name="&lt;Clipping Path&gt;" d="M1176.5 170.7c0 23.5-16.3 36.6-36.5 36.6s-36.5-13.1-36.5-36.6 20.4-46.3 36.5-46.3 36.5 22.8 36.5 46.3z" fill="#4b4956" stroke="#4b4956" stroke-miterlimit="10" stroke-width="7.14"/></clipPath><clipPath id="c"><path data-name="&lt;Clipping Path&gt;" d="M1132.6 169.8c0 31.9-22.2 49.7-49.5 49.7s-49.5-17.8-49.5-49.7 27.6-62.8 49.5-62.8 49.5 31 49.5 62.8z" fill="#4b4956" stroke="#4b4956" stroke-miterlimit="10" stroke-width="7.14"/></clipPath><clipPath id="d"><path data-name="&lt;Clipping Path&gt;" d="M372 388.4c0 23.9-16.3 37.2-36.5 37.2S299 412.3 299 388.4s20.4-47.1 36.5-47.1 36.5 23.2 36.5 47.1z" fill="#4b4956" stroke="#4b4956" stroke-miterlimit="10" stroke-width="7.2"/></clipPath><clipPath id="e"><path data-name="&lt;Clipping Path&gt;" d="M328.1 387.5c0 32.4-22.2 50.5-49.5 50.5s-49.5-18.1-49.5-50.5 27.6-63.9 49.5-63.9 49.5 31.5 49.5 63.9z" fill="#4b4956" stroke="#4b4956" stroke-miterlimit="10" stroke-width="7.2"/></clipPath><pattern id="f" data-name="Unnamed Pattern" width="1684.9" height="1000" patternTransform="translate(-100 -77.3)" patternUnits="userSpaceOnUse"><path fill="none" d="M0 0h1684.9v1000H0z"/><g clip-path="url(#a)"><path fill="none" stroke="#4b4956" stroke-linecap="round" stroke-linejoin="round" stroke-width="6.75" d="M192 142.7l29.1 29.2m4-62.3l29.1 29.2M178 156.7l29.1 29.2m-62.5 4.2l29.1 29.2"/><path d="M259.2 136c-25 19.5-50.7-12.5-75.7 12.5s10.4 53.3-15.8 79.5m95.3-95.4a40.8 40.8 0 0 1-3.8 3.4m-32.4-30a39.3 39.3 0 0 1 4.4-5.2" fill="none" stroke="#4b4956" stroke-linecap="round" stroke-linejoin="round" stroke-width="12.38"/><path d="M135.9 196.1c26.2-26.2 53.3 10.4 79.5-15.8 24.5-24.5-5.9-49.7 11.5-74.3" fill="none" stroke="#4b4956" stroke-linecap="round" stroke-linejoin="round" stroke-width="12.38"/><path fill="none" stroke="#4b4956" stroke-linecap="round" stroke-linejoin="round" stroke-width="6.69" d="M787.7 581.9l29.2 28.7m3.9-61.2L850 578m-76.3 17.7l29.2 28.6m-62.6 4.2l29.2 28.7"/><path d="M855 575.3c-25 19.1-50.7-12.3-75.7 12.3s10.4 52.4-15.8 78.1m95.3-93.7a40.6 40.6 0 0 1-3.8 3.3m-32.4-29.5a38.8 38.8 0 0 1 4.4-5.1" fill="none" stroke="#4b4956" stroke-linecap="round" stroke-linejoin="round" stroke-width="12.27"/><path d="M731.7 634.4c26.2-25.8 53.3 10.2 79.5-15.6 24.5-24.1-5.9-48.9 11.5-73.1" fill="none" stroke="#4b4956" stroke-linecap="round" stroke-linejoin="round" stroke-width="12.27"/><path fill="none" stroke="#4b4956" stroke-linecap="round" stroke-linejoin="round" stroke-width="6.69" d="M1243.4 796.6l29.2 28.7m3.9-61.2l29.2 28.7m-76.3 17.6l29.2 28.7m-62.6 4.2l29.2 28.6"/><path d="M1310.7 790c-25 19.1-50.7-12.3-75.7 12.3s10.4 52.4-15.8 78.1m95.3-93.7a40.6 40.6 0 0 1-3.8 3.3m-32.4-29.5a38.8 38.8 0 0 1 4.4-5.1" fill="none" stroke="#4b4956" stroke-linecap="round" stroke-linejoin="round" stroke-width="12.27"/><path d="M1187.4 849.1c26.2-25.8 53.3 10.2 79.5-15.6 24.5-24.1-5.9-48.9 11.5-73.1" fill="none" stroke="#4b4956" stroke-linecap="round" stroke-linejoin="round" stroke-width="12.27"/><path fill="none" stroke="#4b4956" stroke-linecap="round" stroke-linejoin="round" stroke-width="6.69" d="M1520.3 354.7l29.1 28.7m4-61.2l29.1 28.7m-76.2 17.6l29.1 28.7m-62.5 4.2L1502 430"/><path d="M1587.5 348.1c-25 19.1-50.7-12.3-75.7 12.3s10.4 52.4-15.8 78.1m95.3-93.7a40.6 40.6 0 0 1-3.8 3.3m-32.4-29.5a38.8 38.8 0 0 1 4.4-5.1" fill="none" stroke="#4b4956" stroke-linecap="round" stroke-linejoin="round" stroke-width="12.27"/><path d="M1464.2 407.3c26.2-25.8 53.3 10.2 79.5-15.6 24.5-24.1-5.9-48.9 11.5-73.1" fill="none" stroke="#4b4956" stroke-linecap="round" stroke-linejoin="round" stroke-width="12.27"/><path d="M499.1 165.4c-19.3 3-30.1 36.1-23.3 43.4 2.4 2.5 7.4 2.5 7.7 2.4 5.2-.1 7.2-3.8 16-7.3a25.6 25.6 0 0 1 6.1-1.9c7.4-.9 10.7 3.7 19.4 4.8 3.6.5 9.2 1.2 10.9-1.1 5-6.6-15-43.7-36.8-40.3zm-21.8-9.9c4 7.6 2.5 16.1-3.2 19s-13.6-.9-17.6-8.5-2.5-16.1 3.2-19 13.6.9 17.6 8.5zm22.9-24.1c3.1 10.6.2 20.7-6.5 22.6s-14.5-5.2-17.6-15.9-.2-20.7 6.5-22.6 14.6 5.3 17.6 15.9zm29.4 4.9c-2.4 9.8-9.4 16.6-15.6 15.1s-9.2-10.7-6.7-20.5 9.4-16.6 15.6-15.1 9.1 10.6 6.7 20.5zm21 29.7c-3.5 9.2-11.4 14.8-17.6 12.5s-8.3-11.6-4.8-20.8 11.4-14.8 17.6-12.5 8.3 11.6 4.8 20.8zm72.7 654.5c-19.5-.2-35.8 30.7-30.3 39 1.9 2.9 6.9 3.6 7.1 3.7 5.2.7 7.8-2.6 17-4.5a25.7 25.7 0 0 1 6.4-.9c7.5.3 9.9 5.4 18.4 7.9 3.4 1 8.8 2.7 11 .7 5.9-5.8-7.6-45.6-29.6-45.9zm-19.8-13.2c2.6 8.1-.2 16.3-6.4 18.2s-13.3-3.1-15.9-11.3.2-16.3 6.4-18.2 13.2 3.1 15.9 11.3zm26.6-20.1c1.2 11-3.3 20.5-10.2 21.2s-13.5-7.5-14.7-18.5 3.3-20.5 10.2-21.2 13.5 7.6 14.7 18.5zm28.2 9.6c-4.1 9.3-12.1 14.9-17.9 12.4s-7.3-12-3.2-21.3 12.1-14.9 17.9-12.4 7.2 12 3.2 21.3zm15.6 32.7c-5 8.5-13.7 12.8-19.5 9.5s-6.3-12.8-1.2-21.3 13.7-12.8 19.5-9.5 6.3 12.8 1.2 21.3zm725.5-222.8c-19.5-.2-35.8 30.7-30.3 39 1.9 2.9 6.9 3.6 7.1 3.7 5.2.7 7.8-2.6 17-4.5a25.7 25.7 0 0 1 6.4-.9c7.5.3 9.9 5.4 18.4 7.9 3.4 1 8.8 2.7 11 .7 6-5.9-7.6-45.7-29.6-45.9zm-19.8-13.3c2.6 8.1-.2 16.3-6.4 18.2s-13.3-3.1-15.9-11.3.2-16.3 6.4-18.2 13.2 3.2 15.9 11.3zm26.7-20c1.2 11-3.3 20.5-10.2 21.2s-13.5-7.5-14.7-18.5 3.3-20.5 10.2-21.2 13.4 7.5 14.7 18.5zm28.1 9.5c-4.1 9.3-12.1 14.9-17.9 12.4s-7.3-12-3.2-21.3 12.1-14.9 17.9-12.4 7.2 12 3.2 21.3zm15.7 32.7c-5 8.5-13.7 12.8-19.5 9.5s-6.3-12.8-1.2-21.3 13.7-12.8 19.5-9.5 6.2 12.8 1.2 21.3z" fill="#4b4956"/><path fill="none" stroke="#4b4956" stroke-linecap="round" stroke-linejoin="round" stroke-width="12.11" d="M123.4 585.2l13.8 13.7m0-13.7l-13.8 13.7"/><path d="M135.2 636c6.7-5.4 13.5 3 20.2-2.5s-.1-13.8 6.6-19.3 13.5 3 20.2-2.5-.1-13.8 6.6-19.3 13.5 3 20.2-2.5-.1-13.8 6.7-19.3" fill="none" stroke="#4b4956" stroke-linecap="round" stroke-linejoin="round" stroke-width="12.38"/><circle cx="233.1" cy="632.4" r="16.4" fill="none" stroke="#4b4956" stroke-linecap="round" stroke-linejoin="round" stroke-width="13.32"/><path d="M837.6 159.8a2.7 2.7 0 0 1-1 3.8l-36.8 20.3a2.8 2.8 0 0 1-2.7 0l-36.8-20.3a2.7 2.7 0 0 1-1-3.8l36.8-59.6a2.8 2.8 0 0 1 4.7 0z" fill="#4b4956"/><path d="M828.1 181.1a2.7 2.7 0 0 1 3.6 4l-30.9 42.1a2.8 2.8 0 0 1-4.5 0l-30.9-42.1a2.7 2.7 0 0 1 3.6-4l28.2 15.8a2.8 2.8 0 0 0 2.7 0zM539 599.7a2.7 2.7 0 0 1-1 3.8l-36.8 20.3a2.8 2.8 0 0 1-2.7 0l-36.8-20.3a2.7 2.7 0 0 1-1-3.8l36.8-59.6a2.8 2.8 0 0 1 4.7 0z" fill="#4b4956"/><path d="M529.4 621.1a2.7 2.7 0 0 1 3.6 3.9l-30.9 42.1a2.8 2.8 0 0 1-4.5 0L466.7 625a2.7 2.7 0 0 1 3.6-3.9l28.2 15.8a2.8 2.8 0 0 0 2.7 0zm437 193.3a2.7 2.7 0 0 1-1 3.8l-36.8 20.3a2.8 2.8 0 0 1-2.7 0l-36.8-20.3a2.7 2.7 0 0 1-1-3.8l36.8-59.6a2.8 2.8 0 0 1 4.7 0z" fill="#4b4956"/><path d="M956.8 835.8a2.7 2.7 0 0 1 3.6 3.9l-30.9 42.1a2.8 2.8 0 0 1-4.5 0l-30.9-42.1a2.7 2.7 0 0 1 3.6-3.9l28.2 15.8a2.8 2.8 0 0 0 2.7 0z" fill="#4b4956"/><path data-name="&lt;Clipping Path&gt;" d="M1176.5 170.7c0 23.5-16.3 36.6-36.5 36.6s-36.5-13.1-36.5-36.6 20.4-46.3 36.5-46.3 36.5 22.8 36.5 46.3z" fill="#4b4956"/><g clip-path="url(#b)" fill="#fff"><path d="M1161.2 125.7c-19.7 5.6-24.1 8.3-23.8 9.7s6.1 2 9.5 1.8a25.7 25.7 0 0 0 16.4-7.7m11.4 12.8c-13.7-.4-21.2 3.6-24.7 6-1.2.8-4 2.7-3.6 3.8s9.2.3 14.4-.7a158.9 158.9 0 0 0 20-4.9m-1.1 12.6c-13.4 5.4-19.7 10.6-22.7 13.7-1.2 1.2-3.6 3.8-2.9 5.1s1.7 1.2 6.3.4 12.7-3 25-9.7m-5.7 30.3c-4.9-3.8-13.8-9.3-23.8-8.6-2.4.2-6.3.5-7.9 3.1s.7 7.5 1.6 9.1c4.4 7.8 13.7 10.1 17.1 10.8m-39.9-38c15.1-1.7 19.4-3.8 19.6-5.8s-1.4-2.3-3.2-3.5a21 21 0 0 0-12.6-3.8"/></g><path data-name="&lt;Clipping Path&gt;" d="M1176.5 170.7c0 23.5-16.3 36.6-36.5 36.6s-36.5-13.1-36.5-36.6 20.4-46.3 36.5-46.3 36.5 22.8 36.5 46.3z" fill="none" stroke="#4b4956" stroke-miterlimit="10" stroke-width="7.14"/><path data-name="&lt;Path&gt;" d="M1132.6 169.8c0 31.9-22.2 49.7-49.5 49.7s-49.5-17.8-49.5-49.7 27.6-62.8 49.5-62.8 49.5 31 49.5 62.8z" fill="#fff" stroke="#fff" stroke-miterlimit="10" stroke-width="17.85"/><path data-name="&lt;Clipping Path&gt;" d="M1132.6 169.8c0 31.9-22.2 49.7-49.5 49.7s-49.5-17.8-49.5-49.7 27.6-62.8 49.5-62.8 49.5 31 49.5 62.8z" fill="#4b4956"/><g clip-path="url(#c)" fill="#fff"><ellipse cx="1064.6" cy="117.5" rx="8.7" ry="10.4"/><path d="M1116 160.7c.7 6.4-3.1 12.1-8.6 12.7s-10.4-4.2-11.1-10.6 3.1-12.1 8.6-12.7 10.4 4.2 11.1 10.6zm-81.2 48c12.1-8.5 21.3-9.6 27.9-8.4 8.8 1.6 10.5 6.8 18.2 6.6 10.5-.3 12.1-10.1 25-12.8 6.7-1.4 17.3-1.1 21.8 5.1s1.4 17.8-2.7 23.2c-16.5 22.3-79.2.2-82.8-1.1m-6.3-94.5c.7.2 24.8 17.7 23.6 35s-13.1 10.4-13.1 10.4-12.8-6.4-19.6-29.2m100.2-41.8c.1.7-5.7 29.6-22.1 35.9s-15.1-7.2-15.1-7.2.4-14.1 18.5-29.9"/><ellipse cx="1075.4" cy="146.7" rx="6" ry="5.9"/><ellipse cx="1080.1" cy="181" rx="9.2" ry="9.1"/></g><path data-name="&lt;Clipping Path&gt;" d="M1132.6 169.8c0 31.9-22.2 49.7-49.5 49.7s-49.5-17.8-49.5-49.7 27.6-62.8 49.5-62.8 49.5 31 49.5 62.8z" fill="none" stroke="#4b4956" stroke-miterlimit="10" stroke-width="7.14"/><path data-name="&lt;Clipping Path&gt;" d="M372 388.4c0 23.9-16.3 37.2-36.5 37.2S299 412.3 299 388.4s20.4-47.1 36.5-47.1 36.5 23.2 36.5 47.1z" fill="#4b4956"/><g clip-path="url(#d)" fill="#fff"><path d="M356.7 342.6c-19.7 5.7-24.1 8.4-23.8 9.9s6.1 2 9.4 1.8c8.8-.5 14.6-6 16.4-7.9m11.5 13.1c-13.7-.4-21.2 3.7-24.7 6.1-1.2.9-4 2.7-3.6 3.8s9.2.3 14.4-.7a156.7 156.7 0 0 0 20-5m-1.1 12.9c-13.4 5.5-19.7 10.8-22.7 13.9-1.2 1.2-3.6 3.8-2.9 5.2s1.7 1.3 6.3.4 12.7-3 25-9.9m-5.7 30.9c-4.9-3.8-13.8-9.5-23.9-8.8-2.4.2-6.3.5-7.9 3.2s.7 7.6 1.6 9.2c4.4 7.9 13.7 10.3 17.1 11M322.3 393c15.1-1.7 19.4-3.9 19.6-5.8s-1.4-2.3-3.2-3.6a20.8 20.8 0 0 0-12.6-3.8"/></g><path data-name="&lt;Clipping Path&gt;" d="M372 388.4c0 23.9-16.3 37.2-36.5 37.2S299 412.3 299 388.4s20.4-47.1 36.5-47.1 36.5 23.2 36.5 47.1z" fill="none" stroke="#4b4956" stroke-miterlimit="10" stroke-width="7.2"/><path data-name="&lt;Path&gt;" d="M328.1 387.5c0 32.4-22.2 50.5-49.5 50.5s-49.5-18.1-49.5-50.5 27.6-63.9 49.5-63.9 49.5 31.5 49.5 63.9z" fill="#fff" stroke="#fff" stroke-miterlimit="10" stroke-width="18"/><path data-name="&lt;Clipping Path&gt;" d="M328.1 387.5c0 32.4-22.2 50.5-49.5 50.5s-49.5-18.1-49.5-50.5 27.6-63.9 49.5-63.9 49.5 31.5 49.5 63.9z" fill="#4b4956"/><g clip-path="url(#e)" fill="#fff"><ellipse cx="260.1" cy="334.3" rx="8.7" ry="10.6"/><ellipse cx="301.7" cy="379.3" rx="11.9" ry="9.9" transform="rotate(-83.8 301.966 379.373)"/><path d="M230.3 427c12.1-8.7 21.3-9.8 27.9-8.6 8.8 1.7 10.5 7 18.2 6.8 10.5-.3 12.1-10.3 25-13.1 6.7-1.4 17.3-1.1 21.8 5.2s1.4 18.1-2.7 23.6c-16.5 22.6-79.2.2-82.8-1.1m-6.3-96c.7.2 24.8 18 23.6 35.6S242 390 242 390s-12.8-6.5-19.6-29.7m100.1-42.5c.1.7-5.7 30.1-22.1 36.5s-15.1-7.3-15.1-7.3.4-14.4 18.5-30.4"/><circle cx="270.9" cy="364" r="6"/><circle cx="275.6" cy="398.9" r="9.2"/></g><path data-name="&lt;Clipping Path&gt;" d="M328.1 387.5c0 32.4-22.2 50.5-49.5 50.5s-49.5-18.1-49.5-50.5 27.6-63.9 49.5-63.9 49.5 31.5 49.5 63.9z" fill="none" stroke="#4b4956" stroke-miterlimit="10" stroke-width="7.2"/><path d="M1457.6 166.4a24.2 24.2 0 0 1-3.7 22.3l-32.4 40.1a1.9 1.9 0 0 1-2.5.5l-46-23.4h-.1a24.4 24.4 0 0 1 4.8-45 25.1 25.1 0 0 1 31.1 15.9 24.7 24.7 0 0 1 21.7-27.1 25.1 25.1 0 0 1 27.1 16.7zm-112.9-43.5a9.7 9.7 0 0 1 1.2 9l-7.7 19a.7.7 0 0 1-.9.5l-20.4-3.8a9.9 9.9 0 0 1-6.9-5.3 9.8 9.8 0 0 1 3.5-12.5 10.1 10.1 0 0 1 13.8 2.6 9.8 9.8 0 0 1 5.2-12.9 10.2 10.2 0 0 1 12.2 3.4zm58.7 1.7a8 8 0 0 1-2.4 7.1l-12.7 11.5a.6.6 0 0 1-.9 0l-13.8-10a8.1 8.1 0 0 1-3.2-6.4 8.3 8.3 0 0 1 16.5-1.3 8.3 8.3 0 0 1 16.5-.9zm35.1-18.1a6 6 0 0 1-3.2 4.6l-11.5 5.5a.5.5 0 0 1-.6-.1l-7.6-10a5.9 5.9 0 0 1-.9-5.2 6.2 6.2 0 0 1 6.8-4.2 6.1 6.1 0 0 1 5.2 6.8 6.2 6.2 0 0 1 7.8-3.7 6.1 6.1 0 0 1 4 6.3z" fill="#4b4956"/><path fill="none" stroke="#4b4956" stroke-linecap="round" stroke-linejoin="round" stroke-width="12.01" d="M870.9 424.6l13.7-13.5m-13.7 0l13.7 13.5"/><path d="M960.9 398.4c-8-3.2-4.1-13.1-12.1-16.3s-12 6.8-20 3.6-4.1-13.1-12.1-16.3-12 6.8-20 3.6-4.1-13.1-12.1-16.3-12 6.8-20 3.6" fill="none" stroke="#4b4956" stroke-linecap="round" stroke-linejoin="round" stroke-width="12.27"/><ellipse cx="990.2" cy="343.7" rx="16.4" ry="16.2" fill="none" stroke="#4b4956" stroke-linecap="round" stroke-linejoin="round" stroke-width="13.21"/><path d="M1271.3 372.5a2.7 2.7 0 0 1-1 3.8l-36.8 20.3a2.8 2.8 0 0 1-2.7 0l-36.8-20.3a2.7 2.7 0 0 1-1-3.8l36.8-59.6a2.8 2.8 0 0 1 4.7 0z" fill="#4b4956"/><path d="M1261.8 393.9a2.7 2.7 0 0 1 3.6 3.9l-30.9 42.2a2.8 2.8 0 0 1-4.5 0l-30.9-42.1a2.7 2.7 0 0 1 3.6-3.9l28.2 15.8a2.8 2.8 0 0 0 2.7 0zm-97.5 212.5a24.2 24.2 0 0 1-3.7 22.3l-32.4 40.1a1.9 1.9 0 0 1-2.5.5l-45.9-23.5h-.1a24.4 24.4 0 0 1 4.8-45 25.1 25.1 0 0 1 31.1 15.9 24.7 24.7 0 0 1 21.7-27.1 25.1 25.1 0 0 1 27 16.8zm-112.9-43.5a9.7 9.7 0 0 1 1.2 9l-7.7 19a.7.7 0 0 1-.9.5l-20.4-3.8a9.9 9.9 0 0 1-6.9-5.3 9.8 9.8 0 0 1 3.5-12.5 10.1 10.1 0 0 1 13.8 2.6 9.8 9.8 0 0 1 5.2-12.9 10.2 10.2 0 0 1 12.2 3.4zm58.7 1.6a8 8 0 0 1-2.4 7.1l-12.7 11.5a.6.6 0 0 1-.9 0l-13.8-10a8.1 8.1 0 0 1-3.2-6.4 8.3 8.3 0 0 1 16.5-1.3 8.3 8.3 0 0 1 16.5-.9zm35.2-18.1a6 6 0 0 1-3.2 4.6l-11.5 5.5a.5.5 0 0 1-.6-.1l-7.6-10a5.9 5.9 0 0 1-.9-5.2 6.2 6.2 0 0 1 6.8-4.2 6.1 6.1 0 0 1 5.2 6.8 6.2 6.2 0 0 1 7.8-3.7 6.1 6.1 0 0 1 4 6.3zM574.9 381.1a24.2 24.2 0 0 0 3.7 22.3l32.4 40.2a1.9 1.9 0 0 0 2.5.5l46-23.5h.1a24.5 24.5 0 0 0-4.9-45 25.1 25.1 0 0 0-31.1 15.9 24.7 24.7 0 0 0-21.7-27.1 25.1 25.1 0 0 0-27 16.7zM547 320.5a9.8 9.8 0 0 0 4.5 7.9l17.7 10.8a.8.8 0 0 0 1-.1l14-15a9.7 9.7 0 0 0 2.3-8.3 10 10 0 0 0-10.3-8 9.9 9.9 0 0 0-9.5 10.2 10 10 0 0 0-11.9-7.3 9.9 9.9 0 0 0-7.8 9.8zm62.5 12a8 8 0 0 0 .3 7.5l9 14.4a.6.6 0 0 0 .8.3l16.1-5.9a8.1 8.1 0 0 0 .2-15 8.4 8.4 0 0 0-10.9 4 8.1 8.1 0 0 0-6-9.8 8.4 8.4 0 0 0-9.5 4.5zm51.3-7.8a6 6 0 0 0-1.5 5.4l3.1 12.2a.5.5 0 0 0 .5.4l12.7-.6a6.2 6.2 0 0 0 4.6-2.7 6 6 0 0 0-1-7.9 6.2 6.2 0 0 0-8.6.4 6 6 0 0 0-2-8.2 6.2 6.2 0 0 0-7.8 1zM368.9 833.5a24.9 24.9 0 0 1-3.7 22.7L332.8 897a1.9 1.9 0 0 1-2.5.5l-45.9-23.9h-.1a25 25 0 1 1 36-29.6 25 25 0 0 1 48.6-10.5zM256 789.3a10 10 0 0 1 1.2 9.1l-7.7 19.4a.7.7 0 0 1-.9.5l-20.4-3.9a10 10 0 1 1 10.4-15.5 10 10 0 0 1 17.4-9.6zm58.7 1.7a8.3 8.3 0 0 1-2.4 7.2l-12.7 11.7a.6.6 0 0 1-.9 0L285 799.8a8.3 8.3 0 1 1 13.3-7.9 8.3 8.3 0 0 1 16.4-.9zm35.2-18.5a6.1 6.1 0 0 1-3.2 4.6l-11.5 5.6a.5.5 0 0 1-.6-.2l-7.6-10.2a6.1 6.1 0 1 1 11.1-2.7 6.1 6.1 0 0 1 11.8 2.9z" fill="#4b4956"/><path fill="none" d="M0 0h1684.9v1000H0z"/></g></pattern><clipPath id="g"><path data-name="&lt;Clipping Path&gt;" d="M1076.5 102c0 23.5-16.3 36.6-36.5 36.6s-36.5-13.1-36.5-36.6 20.4-46.3 36.5-46.3 36.5 22.8 36.5 46.3z" fill="#4c4c4c" stroke="#4c4c4c" stroke-miterlimit="10" stroke-width="7.14"/></clipPath><clipPath id="h"><path data-name="&lt;Clipping Path&gt;" d="M1032.6 101.1c0 31.9-22.2 49.7-49.5 49.7s-49.5-17.8-49.5-49.7 27.6-62.8 49.5-62.8 49.5 30.9 49.5 62.8z" fill="#4c4c4c" stroke="#4c4c4c" stroke-miterlimit="10" stroke-width="7.14"/></clipPath><clipPath id="i"><path data-name="&lt;Clipping Path&gt;" d="M272 315.6c0 23.9-16.3 37.2-36.5 37.2S199 339.5 199 315.6s20.4-47.1 36.5-47.1 36.5 23.2 36.5 47.1z" fill="#4c4c4c" stroke="#4c4c4c" stroke-miterlimit="10" stroke-width="7.2"/></clipPath><clipPath id="j"><path data-name="&lt;Clipping Path&gt;" d="M228.1 314.8c0 32.4-22.2 50.5-49.5 50.5s-49.5-18.1-49.5-50.5 27.6-63.9 49.5-63.9 49.5 31.4 49.5 63.9z" fill="#4c4c4c" stroke="#4c4c4c" stroke-miterlimit="10" stroke-width="7.2"/></clipPath><clipPath id="k"><path data-name="&lt;Clipping Path&gt;" d="M920.6 759.2c0 23.9-16.3 37.2-36.5 37.2s-36.5-13.3-36.5-37.2 20.4-47.1 36.5-47.1 36.5 23.2 36.5 47.1z" fill="#4c4c4c" stroke="#4c4c4c" stroke-miterlimit="10" stroke-width="7.2"/></clipPath><clipPath id="l"><path data-name="&lt;Clipping Path&gt;" d="M876.7 758.3c0 32.4-22.2 50.5-49.5 50.5s-49.5-18.1-49.5-50.5 27.6-63.9 49.5-63.9 49.5 31.5 49.5 63.9z" fill="#4c4c4c" stroke="#4c4c4c" stroke-miterlimit="10" stroke-width="7.2"/></clipPath></defs><path fill="none" stroke="#4c4c4c" stroke-linecap="round" stroke-linejoin="round" stroke-width="6.75" d="M92 72.9l29.1 29.1m4-62.2l29.1 29.1M78 86.9l29.1 29.1m-62.5 4.3l29.1 29.1"/><path d="M159.2 66.2c-25 19.5-50.7-12.5-75.7 12.5s10.4 53.3-15.8 79.5M163 62.8a40.8 40.8 0 0 1-3.8 3.4m-32.4-30.1a39.3 39.3 0 0 1 4.4-5.2" fill="none" stroke="#4c4c4c" stroke-linecap="round" stroke-linejoin="round" stroke-width="12.38"/><path d="M35.9 126.3c26.2-26.2 53.3 10.4 79.5-15.8 24.5-24.5-5.9-49.7 11.5-74.3" fill="none" stroke="#4c4c4c" stroke-linecap="round" stroke-linejoin="round" stroke-width="12.38"/><path fill="none" stroke="#4c4c4c" stroke-linecap="round" stroke-linejoin="round" stroke-width="6.69" d="M687.7 514.9l29.2 28.6m3.9-61.2L750 511m-76.3 17.6l29.2 28.7m-62.6 4.2l29.2 28.7"/><path d="M755 508.3c-25 19.1-50.7-12.3-75.7 12.3s10.4 52.4-15.8 78.1m95.3-93.7a40.6 40.6 0 0 1-3.8 3.3m-32.4-29.6a38.8 38.8 0 0 1 4.4-5.1" fill="none" stroke="#4c4c4c" stroke-linecap="round" stroke-linejoin="round" stroke-width="12.27"/><path d="M631.7 567.4c26.2-25.8 53.3 10.2 79.5-15.6 24.5-24.1-5.9-48.9 11.5-73.1" fill="none" stroke="#4c4c4c" stroke-linecap="round" stroke-linejoin="round" stroke-width="12.27"/><path fill="none" stroke="#4c4c4c" stroke-linecap="round" stroke-linejoin="round" stroke-width="6.69" d="M1143.4 730.3l29.2 28.7m3.9-61.2l29.2 28.6m-76.3 17.7l29.2 28.6m-62.6 4.2l29.2 28.7"/><path d="M1210.7 723.7c-25 19.1-50.7-12.3-75.7 12.3s10.4 52.4-15.8 78.1" fill="none" stroke="#4c4c4c" stroke-linecap="round" stroke-linejoin="round" stroke-width="12.27"/><path d="M1214.5 720.4a40.6 40.6 0 0 1-3.8 3.3m-32.4-29.5a38.8 38.8 0 0 1 4.4-5.1" stroke="#4c4c4c" stroke-linecap="round" stroke-linejoin="round" stroke-width="12.27" fill="url(#f)"/><path d="M1087.4 782.8c26.2-25.8 53.3 10.2 79.5-15.6 24.5-24.1-5.9-48.9 11.5-73.1" fill="none" stroke="#4c4c4c" stroke-linecap="round" stroke-linejoin="round" stroke-width="12.27"/><path fill="none" stroke="#4c4c4c" stroke-linecap="round" stroke-linejoin="round" stroke-width="6.69" d="M1406.5 315.6l28.7-29.2m-61.3-3.9l28.7-29.2m17.6 76.3l28.7-29.2m4.2 62.6l28.7-29.2"/><path d="M1399.9 248.3c19.1 25-12.3 50.7 12.3 75.7s52.4-10.4 78.1 15.8m-93.7-95.3a40.6 40.6 0 0 1 3.3 3.8m-29.5 32.4a38.8 38.8 0 0 1-5.1-4.4" fill="none" stroke="#4c4c4c" stroke-linecap="round" stroke-linejoin="round" stroke-width="12.27"/><path d="M1459 371.6c-25.8-26.2 10.2-53.3-15.6-79.5-24.1-24.5-48.9 5.9-73.1-11.5" fill="none" stroke="#4c4c4c" stroke-linecap="round" stroke-linejoin="round" stroke-width="12.27"/><path d="M399.1 96.7c-19.3 3-30.1 36.1-23.3 43.4 2.4 2.5 7.4 2.5 7.7 2.4 5.2-.1 7.2-3.8 16-7.3a25.6 25.6 0 0 1 6.1-1.9c7.4-.9 10.7 3.7 19.4 4.8 3.6.5 9.2 1.2 10.9-1.1 5-6.6-15-43.7-36.8-40.3zm-21.8-9.9c4 7.6 2.5 16.1-3.2 19s-13.6-.9-17.6-8.5-2.5-16.1 3.2-19 13.6.9 17.6 8.5zm22.9-24.1c3.1 10.6.2 20.7-6.5 22.6s-14.5-5.2-17.6-15.9-.2-20.7 6.5-22.6 14.6 5.3 17.6 15.9zm29.4 4.9c-2.4 9.8-9.4 16.6-15.6 15.1s-9.2-10.7-6.7-20.5 9.4-16.6 15.6-15.1 9.1 10.6 6.7 20.5zm21 29.6c-3.5 9.2-11.4 14.8-17.6 12.5s-8.3-11.6-4.8-20.8 11.4-14.8 17.6-12.5 8.3 11.6 4.8 20.8zm72.7 657c-19.5-.2-35.8 30.7-30.3 39 1.9 2.9 6.9 3.6 7.1 3.7 5.2.7 7.8-2.6 17-4.5a25.7 25.7 0 0 1 6.4-.9c7.5.3 9.9 5.4 18.4 7.9 3.4 1 8.8 2.7 11 .7 5.9-5.8-7.6-45.7-29.6-45.9zm-19.8-13.3c2.6 8.1-.2 16.3-6.4 18.2s-13.3-3.1-15.9-11.3.2-16.3 6.4-18.2 13.2 3.2 15.9 11.3zm26.6-20c1.2 11-3.3 20.5-10.2 21.2s-13.5-7.5-14.7-18.5 3.3-20.5 10.2-21.2 13.5 7.5 14.7 18.5zm28.2 9.5c-4.1 9.3-12.1 14.9-17.9 12.4s-7.3-12-3.2-21.3 12.1-14.9 17.9-12.4 7.2 12 3.2 21.3zm15.6 32.7c-5 8.5-13.7 12.8-19.5 9.5s-6.3-12.8-1.2-21.3 13.7-12.8 19.5-9.5 6.3 12.8 1.2 21.3zm725.5-224.3c-19.5-.2-35.8 30.7-30.3 39 1.9 2.9 6.9 3.6 7.1 3.7 5.2.7 7.8-2.6 17-4.5a25.7 25.7 0 0 1 6.4-.9c7.5.3 9.9 5.4 18.4 7.9 3.4 1 8.8 2.7 11 .7 6-5.9-7.6-45.7-29.6-45.9zm-19.8-13.3c2.6 8.1-.2 16.3-6.4 18.2s-13.3-3.1-15.9-11.3.2-16.3 6.4-18.2 13.2 3.1 15.9 11.3zm26.7-20.1c1.2 11-3.3 20.5-10.2 21.2s-13.5-7.5-14.7-18.5 3.3-20.5 10.2-21.2 13.4 7.6 14.7 18.5zm28.1 9.6c-4.1 9.3-12.1 14.9-17.9 12.4s-7.3-12-3.2-21.3 12.1-14.9 17.9-12.4 7.2 12 3.2 21.3zm15.7 32.7c-5 8.5-13.7 12.8-19.5 9.5s-6.3-12.8-1.2-21.3 13.7-12.8 19.5-9.5 6.2 12.8 1.2 21.3z" fill="#4c4c4c"/><path fill="none" stroke="#4c4c4c" stroke-linecap="round" stroke-linejoin="round" stroke-width="12.11" d="M23.4 509.5l13.8 13.7m0-13.7l-13.8 13.7"/><path d="M35.2 560.3c6.7-5.4 13.5 3 20.2-2.5s-.1-13.8 6.6-19.3 13.5 3 20.2-2.5-.1-13.8 6.6-19.3 13.5 3 20.2-2.5-.1-13.8 6.7-19.3" fill="none" stroke="#4c4c4c" stroke-linecap="round" stroke-linejoin="round" stroke-width="12.38"/><circle cx="133.1" cy="556.7" r="16.4" fill="none" stroke="#4c4c4c" stroke-linecap="round" stroke-linejoin="round" stroke-width="13.32"/><path d="M737.6 90.7a2.7 2.7 0 0 1-1 3.8l-36.8 20.3a2.8 2.8 0 0 1-2.7 0l-36.7-20.3a2.7 2.7 0 0 1-1-3.8l36.8-59.6a2.8 2.8 0 0 1 4.7 0z" fill="#4c4c4c"/><path d="M728.1 112.1a2.7 2.7 0 0 1 3.6 3.9l-30.9 42.1a2.8 2.8 0 0 1-4.5 0L665.4 116a2.7 2.7 0 0 1 3.6-3.9l28.2 15.8a2.8 2.8 0 0 0 2.7 0zm753.1 631.8a2.7 2.7 0 0 1-1 3.8l-36.8 20.3a2.8 2.8 0 0 1-2.7 0l-36.7-20.4a2.7 2.7 0 0 1-1-3.8l36.8-59.6a2.8 2.8 0 0 1 4.7 0z" fill="#4c4c4c"/><path d="M1471.6 765.2a2.7 2.7 0 0 1 3.6 3.9l-30.9 42.1a2.8 2.8 0 0 1-4.5 0l-30.9-42.1a2.7 2.7 0 0 1 3.6-3.9l28.2 15.8a2.8 2.8 0 0 0 2.7 0zM439 532.4a2.7 2.7 0 0 1-1 3.8l-36.8 20.3a2.8 2.8 0 0 1-2.7 0l-36.8-20.3a2.7 2.7 0 0 1-1-3.8l36.8-59.6a2.8 2.8 0 0 1 4.7 0z" fill="#4c4c4c"/><path d="M429.4 553.8a2.7 2.7 0 0 1 3.6 3.9l-30.9 42.1a2.8 2.8 0 0 1-4.5 0l-30.9-42.1a2.7 2.7 0 0 1 3.6-3.9l28.2 15.8a2.8 2.8 0 0 0 2.7 0z" fill="#4c4c4c"/><path data-name="&lt;Clipping Path&gt;" d="M1076.5 102c0 23.5-16.3 36.6-36.5 36.6s-36.5-13.1-36.5-36.6 20.4-46.3 36.5-46.3 36.5 22.8 36.5 46.3z" fill="#4c4c4c"/><g clip-path="url(#g)" fill="#fff"><path d="M1061.2 57c-19.7 5.6-24.1 8.3-23.8 9.7s6.1 2 9.5 1.8a25.7 25.7 0 0 0 16.4-7.7m11.4 12.8c-13.7-.4-21.2 3.6-24.7 6-1.2.8-4 2.7-3.6 3.8s9.2.3 14.4-.7a158.9 158.9 0 0 0 20-4.9m-1.1 12.6c-13.4 5.4-19.7 10.6-22.7 13.7-1.2 1.2-3.6 3.8-2.9 5.1s1.7 1.2 6.3.4 12.7-3 25-9.7m-5.7 30.3c-4.9-3.8-13.8-9.3-23.8-8.6-2.4.2-6.3.5-7.9 3.1s.7 7.5 1.6 9.1c4.4 7.8 13.7 10.1 17.1 10.8m-39.9-38.1c15.1-1.7 19.4-3.8 19.6-5.8s-1.4-2.3-3.2-3.5a21 21 0 0 0-12.6-3.8"/></g><path data-name="&lt;Clipping Path&gt;" d="M1076.5 102c0 23.5-16.3 36.6-36.5 36.6s-36.5-13.1-36.5-36.6 20.4-46.3 36.5-46.3 36.5 22.8 36.5 46.3z" fill="none" stroke="#4c4c4c" stroke-miterlimit="10" stroke-width="7.14"/><path data-name="&lt;Path&gt;" d="M1032.6 101.1c0 31.9-22.2 49.7-49.5 49.7s-49.5-17.8-49.5-49.7 27.6-62.8 49.5-62.8 49.5 30.9 49.5 62.8z" fill="#fff" stroke="#fff" stroke-miterlimit="10" stroke-width="17.85"/><path data-name="&lt;Clipping Path&gt;" d="M1032.6 101.1c0 31.9-22.2 49.7-49.5 49.7s-49.5-17.8-49.5-49.7 27.6-62.8 49.5-62.8 49.5 30.9 49.5 62.8z" fill="#4c4c4c"/><g clip-path="url(#h)" fill="#fff"><ellipse cx="964.6" cy="48.8" rx="8.7" ry="10.4"/><path d="M1016 92c.7 6.4-3.1 12.1-8.6 12.7s-10.4-4.2-11.1-10.6 3.1-12.1 8.6-12.7 10.4 4.2 11.1 10.6zm-81.2 47.9c12.1-8.5 21.3-9.6 27.9-8.4 8.8 1.6 10.5 6.8 18.2 6.6 10.5-.3 12.1-10.1 25-12.8 6.7-1.4 17.3-1.1 21.8 5.1s1.4 17.8-2.7 23.2c-16.5 22.3-79.2.2-82.8-1.1m-6.3-94.4c.7.2 24.8 17.7 23.6 35s-13 10.4-13 10.4-12.9-6.5-19.6-29.3M1027 32.5c.1.7-5.7 29.6-22.1 35.9s-15.1-7.2-15.1-7.2.4-14.1 18.5-29.9"/><ellipse cx="975.4" cy="78" rx="6" ry="5.9"/><ellipse cx="980.1" cy="112.3" rx="9.2" ry="9.1"/></g><path data-name="&lt;Clipping Path&gt;" d="M1032.6 101.1c0 31.9-22.2 49.7-49.5 49.7s-49.5-17.8-49.5-49.7 27.6-62.8 49.5-62.8 49.5 30.9 49.5 62.8z" fill="none" stroke="#4c4c4c" stroke-miterlimit="10" stroke-width="7.14"/><path data-name="&lt;Clipping Path&gt;" d="M272 315.6c0 23.9-16.3 37.2-36.5 37.2S199 339.5 199 315.6s20.4-47.1 36.5-47.1 36.5 23.2 36.5 47.1z" fill="#4c4c4c"/><g clip-path="url(#i)" fill="#fff"><path d="M256.7 269.9c-19.7 5.7-24.1 8.4-23.8 9.9s6.1 2 9.4 1.8c8.8-.5 14.6-6 16.4-7.9m11.5 13.1c-13.7-.4-21.2 3.7-24.7 6.1-1.2.9-4 2.7-3.6 3.8s9.2.3 14.4-.7a156.7 156.7 0 0 0 20-4.9m-1.1 12.8c-13.4 5.5-19.7 10.8-22.7 14-1.2 1.2-3.6 3.8-2.9 5.2s1.7 1.3 6.3.5 12.7-3 25-9.9m-5.7 30.7c-4.9-3.8-13.8-9.5-23.9-8.8-2.4.2-6.3.5-7.9 3.1s.7 7.6 1.6 9.2c4.4 7.9 13.7 10.3 17.1 11m-39.8-38.6c15.1-1.7 19.4-3.9 19.6-5.8s-1.4-2.3-3.2-3.6a20.8 20.8 0 0 0-12.6-3.8"/></g><path data-name="&lt;Clipping Path&gt;" d="M272 315.6c0 23.9-16.3 37.2-36.5 37.2S199 339.5 199 315.6s20.4-47.1 36.5-47.1 36.5 23.2 36.5 47.1z" fill="none" stroke="#4c4c4c" stroke-miterlimit="10" stroke-width="7.2"/><path data-name="&lt;Path&gt;" d="M228.1 314.8c0 32.4-22.2 50.5-49.5 50.5s-49.5-18.1-49.5-50.5 27.6-63.9 49.5-63.9 49.5 31.4 49.5 63.9z" fill="#fff" stroke="#fff" stroke-miterlimit="10" stroke-width="18"/><path data-name="&lt;Clipping Path&gt;" d="M228.1 314.8c0 32.4-22.2 50.5-49.5 50.5s-49.5-18.1-49.5-50.5 27.6-63.9 49.5-63.9 49.5 31.4 49.5 63.9z" fill="#4c4c4c"/><g clip-path="url(#j)" fill="#fff"><ellipse cx="160.1" cy="261.6" rx="8.7" ry="10.6"/><ellipse cx="201.7" cy="306.6" rx="9.9" ry="11.9" transform="rotate(-6.2 200.184 304.362)"/><path d="M130.3 354.3c12.1-8.7 21.3-9.8 27.9-8.6 8.8 1.7 10.5 7 18.2 6.8 10.5-.3 12.1-10.3 25-13.1 6.7-1.4 17.3-1.1 21.8 5.2s1.4 18.1-2.7 23.6c-16.5 22.6-79.2.2-82.8-1.1m-6.3-96.1c.7.2 24.8 18 23.6 35.6s-13 10.6-13 10.6-12.8-6.5-19.6-29.7M222.5 245c.1.7-5.7 30.1-22.1 36.5s-15.1-7.3-15.1-7.3.4-14.4 18.5-30.4"/><circle cx="170.9" cy="291.2" r="6"/><circle cx="175.6" cy="326.2" r="9.2"/></g><path data-name="&lt;Clipping Path&gt;" d="M228.1 314.8c0 32.4-22.2 50.5-49.5 50.5s-49.5-18.1-49.5-50.5 27.6-63.9 49.5-63.9 49.5 31.4 49.5 63.9z" fill="none" stroke="#4c4c4c" stroke-miterlimit="10" stroke-width="7.2"/><path data-name="&lt;Clipping Path&gt;" d="M920.6 759.2c0 23.9-16.3 37.2-36.5 37.2s-36.5-13.3-36.5-37.2 20.4-47.1 36.5-47.1 36.5 23.2 36.5 47.1z" fill="#4c4c4c"/><g clip-path="url(#k)" fill="#fff"><path d="M905.3 713.4c-19.7 5.7-24.1 8.4-23.9 9.9s6.1 2 9.4 1.8c8.8-.5 14.6-6 16.4-7.9m11.6 13.1c-13.7-.4-21.2 3.7-24.7 6.1-1.2.9-4 2.7-3.6 3.8s9.2.3 14.4-.7a156.7 156.7 0 0 0 20-4.9m-1.1 12.8c-13.4 5.5-19.7 10.8-22.7 14-1.2 1.2-3.6 3.8-2.9 5.2s1.7 1.3 6.3.5 12.7-3 25-9.9m-5.7 30.7c-4.9-3.8-13.8-9.5-23.9-8.8-2.4.2-6.3.5-7.9 3.1s.7 7.6 1.6 9.2c4.4 7.9 13.7 10.3 17.1 11m-39.8-38.6c15.1-1.7 19.4-3.9 19.6-5.9s-1.4-2.3-3.1-3.6a20.8 20.8 0 0 0-12.6-3.8"/></g><path data-name="&lt;Clipping Path&gt;" d="M920.6 759.2c0 23.9-16.3 37.2-36.5 37.2s-36.5-13.3-36.5-37.2 20.4-47.1 36.5-47.1 36.5 23.2 36.5 47.1z" fill="none" stroke="#4c4c4c" stroke-miterlimit="10" stroke-width="7.2"/><path data-name="&lt;Path&gt;" d="M876.7 758.3c0 32.4-22.2 50.5-49.5 50.5s-49.5-18.1-49.5-50.5 27.6-63.9 49.5-63.9 49.5 31.5 49.5 63.9z" fill="#fff" stroke="#fff" stroke-miterlimit="10" stroke-width="18"/><path data-name="&lt;Clipping Path&gt;" d="M876.7 758.3c0 32.4-22.2 50.5-49.5 50.5s-49.5-18.1-49.5-50.5 27.6-63.9 49.5-63.9 49.5 31.5 49.5 63.9z" fill="#4c4c4c"/><g clip-path="url(#l)" fill="#fff"><ellipse cx="808.7" cy="705.1" rx="8.7" ry="10.6"/><ellipse cx="850.2" cy="750.1" rx="9.9" ry="11.9" transform="rotate(-6.2 843.005 744.734)"/><path d="M778.9 797.8c12.1-8.7 21.3-9.8 27.9-8.5 8.8 1.7 10.5 7 18.2 6.8 10.5-.3 12.1-10.3 25-13 6.7-1.4 17.3-1.1 21.8 5.2s1.4 18.1-2.7 23.6c-16.5 22.6-79.2.2-82.8-1.1m-6.3-96.3c.7.2 24.8 18 23.6 35.6s-13 10.6-13 10.6-12.9-6.6-19.6-29.7m100.1-42.5c.1.7-5.7 30.1-22.1 36.5s-15.1-7.3-15.1-7.3.4-14.4 18.5-30.4"/><circle cx="819.5" cy="734.8" r="6"/><circle cx="824.2" cy="769.7" r="9.2"/></g><path data-name="&lt;Clipping Path&gt;" d="M876.7 758.3c0 32.4-22.2 50.5-49.5 50.5s-49.5-18.1-49.5-50.5 27.6-63.9 49.5-63.9 49.5 31.5 49.5 63.9z" fill="none" stroke="#4c4c4c" stroke-miterlimit="10" stroke-width="7.2"/><path d="M1357.6 97.7a24.2 24.2 0 0 1-3.7 22.3l-32.4 40.1a1.9 1.9 0 0 1-2.5.5l-46-23.4h-.1a24.4 24.4 0 0 1 4.8-45 25.1 25.1 0 0 1 31.1 15.9 24.7 24.7 0 0 1 21.7-27.1 25.1 25.1 0 0 1 27.1 16.7zm-112.9-43.5a9.7 9.7 0 0 1 1.2 9l-7.7 19a.7.7 0 0 1-.9.5l-20.4-3.8a9.9 9.9 0 0 1-6.9-5.3 9.8 9.8 0 0 1 3.5-12.5 10.1 10.1 0 0 1 13.8 2.6 9.8 9.8 0 0 1 5.2-12.9 10.2 10.2 0 0 1 12.2 3.4zm58.7 1.7a8 8 0 0 1-2.4 7.1l-12.7 11.5a.6.6 0 0 1-.9 0l-13.8-10a8.1 8.1 0 0 1-3.2-6.4 8.3 8.3 0 0 1 16.5-1.3 8.3 8.3 0 0 1 16.5-.9zm35.1-18.1a6 6 0 0 1-3.2 4.6l-11.5 5.5a.5.5 0 0 1-.6-.1l-7.6-10a5.9 5.9 0 0 1-.9-5.2 6.2 6.2 0 0 1 6.8-4.2 6.1 6.1 0 0 1 5.2 6.8 6.2 6.2 0 0 1 7.8-3.7 6.1 6.1 0 0 1 4 6.3z" fill="#4c4c4c"/><path fill="none" stroke="#4c4c4c" stroke-linecap="round" stroke-linejoin="round" stroke-width="12.01" d="M770.9 356.6l13.7-13.5m-13.7 0l13.7 13.5"/><path d="M860.9 330.4c-8-3.2-4.1-13.1-12.1-16.3s-12 6.8-20 3.6-4.1-13.1-12.1-16.3-12 6.8-20 3.6-4.1-13.1-12.1-16.3-12 6.8-20 3.6" fill="none" stroke="#4c4c4c" stroke-linecap="round" stroke-linejoin="round" stroke-width="12.27"/><ellipse cx="890.2" cy="275.7" rx="16.4" ry="16.2" fill="none" stroke="#4c4c4c" stroke-linecap="round" stroke-linejoin="round" stroke-width="13.21"/><path d="M1171.3 304.3a2.7 2.7 0 0 1-1 3.8l-36.8 20.3a2.8 2.8 0 0 1-2.7 0l-36.7-20.4a2.7 2.7 0 0 1-1-3.8l36.8-59.6a2.8 2.8 0 0 1 4.7 0z" fill="#4c4c4c"/><path d="M1161.8 325.7a2.7 2.7 0 0 1 3.6 3.9l-30.9 42.1a2.8 2.8 0 0 1-4.5 0l-30.9-42.1a2.7 2.7 0 0 1 3.6-3.9l28.2 15.8a2.8 2.8 0 0 0 2.7 0zm-97.5 213.6a24.2 24.2 0 0 1-3.7 22.3l-32.4 40.1a1.9 1.9 0 0 1-2.5.5l-45.9-23.5h-.1a24.4 24.4 0 0 1 4.8-45 25.1 25.1 0 0 1 31.1 15.9 24.7 24.7 0 0 1 21.7-27.1 25.1 25.1 0 0 1 27 16.8zm-112.9-43.5a9.7 9.7 0 0 1 1.2 9l-7.7 19a.7.7 0 0 1-.9.5l-20.4-3.8a9.9 9.9 0 0 1-6.9-5.3 9.8 9.8 0 0 1 3.5-12.5 10.1 10.1 0 0 1 13.8 2.6 9.8 9.8 0 0 1 5.2-12.9 10.2 10.2 0 0 1 12.2 3.4zm58.7 1.7a8 8 0 0 1-2.4 7.1L995 516.1a.6.6 0 0 1-.9 0l-13.8-10a8.1 8.1 0 0 1-3.2-6.4 8.3 8.3 0 0 1 16.5-1.3 8.3 8.3 0 0 1 16.5-.9zm35.2-18.1a6 6 0 0 1-3.2 4.6l-11.5 5.5a.5.5 0 0 1-.6-.1l-7.6-10a5.9 5.9 0 0 1-.9-5.2 6.2 6.2 0 0 1 6.8-4.2 6.1 6.1 0 0 1 5.2 6.8 6.2 6.2 0 0 1 7.8-3.7 6.1 6.1 0 0 1 4 6.3zM474.9 313.2a24.2 24.2 0 0 0 3.7 22.3l32.4 40.1a1.9 1.9 0 0 0 2.5.5l46-23.5h.1a24.5 24.5 0 0 0-4.9-45 25.1 25.1 0 0 0-31.1 15.9 24.7 24.7 0 0 0-21.7-27.1 25.1 25.1 0 0 0-27 16.8zM447 252.5a9.8 9.8 0 0 0 4.5 7.9l17.7 10.8a.8.8 0 0 0 1-.1l14-15a9.7 9.7 0 0 0 2.3-8.3 10 10 0 0 0-10.3-8 9.9 9.9 0 0 0-9.5 10.2 10 10 0 0 0-11.9-7.3 9.9 9.9 0 0 0-7.8 9.8zm62.5 12a8 8 0 0 0 .3 7.5l9 14.4a.6.6 0 0 0 .8.3l16.1-5.9a8.1 8.1 0 0 0 .2-15 8.4 8.4 0 0 0-10.9 4 8.1 8.1 0 0 0-6-9.8 8.4 8.4 0 0 0-9.5 4.5zm51.3-7.8a6 6 0 0 0-1.5 5.4l3.1 12.2a.5.5 0 0 0 .5.4l12.7-.6a6.2 6.2 0 0 0 4.6-2.7 6 6 0 0 0-1-7.9 6.2 6.2 0 0 0-8.6.4 6 6 0 0 0-2-8.2 6.2 6.2 0 0 0-7.8 1zM268.9 754.8a24.9 24.9 0 0 1-3.7 22.7l-32.4 40.8a1.9 1.9 0 0 1-2.5.5l-46-23.8h-.1a25 25 0 1 1 36-29.6 25 25 0 0 1 48.7-10.6zM156 710.6a10 10 0 0 1 1.2 9.1l-7.7 19.4a.7.7 0 0 1-.9.5l-20.4-3.9a10 10 0 1 1 10.4-15.5 10 10 0 0 1 17.4-9.6zm58.7 1.7a8.3 8.3 0 0 1-2.4 7.2l-12.7 11.7a.6.6 0 0 1-.9 0L185 721.1a8.3 8.3 0 1 1 13.3-7.9 8.3 8.3 0 0 1 16.4-.9zm35.2-18.4a6.1 6.1 0 0 1-3.2 4.6l-11.5 5.6a.5.5 0 0 1-.6-.2l-7.6-10.2a6.1 6.1 0 1 1 11-2.7 6.1 6.1 0 0 1 11.9 2.9z" fill="#4c4c4c"/></svg>