<svg width="20" height="20" xmlns="http://www.w3.org/2000/svg"><g fill="none" fill-rule="evenodd"><path d="M5.511 14.489l.185 1.924H5.7c.019 1.234 1.45 2.287 3.855 2.619 3.28.454 7.126-.61 8.59-2.374.432-.517.608-1.038.561-1.527l-.197-2.053c.047.49-.129 1.01-.56 1.53-1.464 1.763-5.311 2.825-8.59 2.372-2.32-.32-3.736-1.313-3.849-2.491" fill="#FFF"/><path d="M5.504 14.36c0 .043.003.087.008.129.112 1.178 1.527 2.17 3.847 2.491 3.28.453 7.127-.609 8.591-2.373.431-.518.607-1.039.56-1.528-.115-1.177-1.53-2.169-3.846-2.488-3.28-.454-7.128.609-8.592 2.373-.393.472-.573.946-.568 1.396" fill="#FFE453"/><path d="M10.03 17.548a8.672 8.672 0 0 1-1.136-.114c-.799-.136-2.276-.598-2.702-1.458l-.202-1.603c.52-3.068 6.838-3.969 8.722-3.208-2.337-.186-6.391 1.319-7.133 2.302-.614.815.468 2.487 4.147 2.995l-1.696 1.086z" fill="#F3AC09"/><path d="M11.05 19.136a11.43 11.43 0 0 1-1.494-.104c-1.054-.146-3.01-.692-3.6-1.804l-.326-2.094c.955 1.238 2.626 1.694 3.73 1.846.463.064.937.097 1.415.103l.276 2.053z" fill="#F3AC09"/><path d="M6.101 14.353a.592.592 0 0 0-.6-.591.603.603 0 0 0-.593.606c0 .06.003.12.01.183.148 1.55 1.849 2.676 4.355 3.022 3.468.48 7.52-.64 9.135-2.585.518-.624.76-1.3.696-1.971a.592.592 0 0 0-.65-.534.603.603 0 0 0-.538.657c.032.331-.099.696-.423 1.086-1.314 1.583-4.955 2.589-8.048 2.161-2.027-.28-3.256-1.094-3.34-1.96a.821.821 0 0 1-.004-.074z" fill="#25282A" fill-rule="nonzero"/><path d="M18.51 13.078c-.115-1.176-1.53-2.168-3.846-2.487-3.28-.454-7.128.609-8.592 2.373-.393.472-.573.946-.568 1.396" stroke="#25282A" stroke-width="1.079" stroke-linecap="round" stroke-linejoin="round"/><path d="M19.104 13.017a.592.592 0 0 0-.65-.534.603.603 0 0 0-.538.657l.197 2.053a.592.592 0 0 0 .651.533.603.603 0 0 0 .537-.657l-.197-2.052zM6.093 14.299a.592.592 0 0 0-.651-.534.603.603 0 0 0-.537.657l.012.129.185 1.924a.592.592 0 0 0 .65.534.603.603 0 0 0 .538-.657l-.185-1.925-.012-.128z" fill="#25282A" fill-rule="nonzero"/><path d="M6.298 16.4a.592.592 0 0 0-.606-.586.603.603 0 0 0-.588.612c.025 1.633 1.76 2.838 4.366 3.198 3.466.48 7.52-.64 9.134-2.584.518-.622.761-1.3.697-1.97a.592.592 0 0 0-.651-.534.603.603 0 0 0-.537.657c.032.33-.1.696-.424 1.084-1.314 1.584-4.955 2.59-8.047 2.162-2.098-.29-3.33-1.146-3.344-2.04z" fill="#25282A" fill-rule="nonzero"/><path d="M1.421 8.002L1.224 9.46h.004c-.201.916.678 1.963 2.403 2.658 2.352.95 5.389.884 6.781-.146.41-.302.63-.655.681-1.024l.21-1.554c-.05.37-.27.722-.68 1.025-1.392 1.03-4.429 1.095-6.782.146-1.664-.671-2.54-1.67-2.42-2.562" fill="#FFF"/><path d="M1.438 7.906a1.087 1.087 0 0 0-.017.096c-.12.892.756 1.89 2.42 2.562 2.353.949 5.39.883 6.782-.146.41-.303.63-.655.68-1.025.12-.892-.757-1.89-2.419-2.559-2.353-.95-5.39-.884-6.782.146-.373.275-.59.592-.664.926" fill="#FFE453"/><path d="M9.802 10.788c.412-.099.96-.451 1.278-.624l-.147 1.518c-.315.181-.838.611-1.253.715l.122-1.609z" fill="#FEFFC9"/><path d="M6.93 8.493C5.36 7.57 4.64 6.75 4.774 6.03c.44-.117 6.262 2.578 6.657 2.644.359.061.418.457.002.585-.818.25-2.94.15-4.501-.766z" fill="#F3AC09"/><path d="M1.905 8.016a.482.482 0 0 0-.36-.575.474.474 0 0 0-.573.355c-.01.045-.015.073-.024.138-.161 1.186.911 2.345 2.717 3.073 2.494 1.006 5.702.937 7.244-.204.498-.368.799-.827.869-1.343a.482.482 0 0 0-.41-.54.474.474 0 0 0-.538.405c-.033.244-.19.484-.493.708-1.242.918-4.108.98-6.32.088-1.446-.583-2.209-1.408-2.122-2.051a.597.597 0 0 1 .01-.054z" fill="#25282A" fill-rule="nonzero"/><path d="M10.83 9.326a.482.482 0 0 0 .41.54.474.474 0 0 0 .538-.407c.158-1.184-.914-2.341-2.717-3.068-2.494-1.007-5.703-.937-7.245.204-.452.333-.742.743-.845 1.204a.482.482 0 0 0 .364.573.474.474 0 0 0 .57-.36c.05-.222.205-.442.483-.647 1.242-.919 4.109-.98 6.32-.088 1.444.582 2.208 1.406 2.122 2.049z" fill="#25282A" fill-rule="nonzero"/><path d="M11.778 9.46a.482.482 0 0 0-.41-.54.474.474 0 0 0-.538.405l-.211 1.554a.482.482 0 0 0 .41.54.474.474 0 0 0 .538-.404l.21-1.555zm-9.87-1.487a.482.482 0 0 0-.409-.54.474.474 0 0 0-.538.404l-.014.097L.75 9.391a.482.482 0 0 0 .41.541.474.474 0 0 0 .538-.405l.197-1.457.013-.097z" fill="#25282A" fill-rule="nonzero"/><path d="M1.695 9.565a.482.482 0 0 0-.365-.571.474.474 0 0 0-.57.36c-.268 1.225.816 2.449 2.695 3.206 2.493 1.006 5.701.937 7.243-.204.498-.366.8-.827.869-1.342a.482.482 0 0 0-.41-.54.474.474 0 0 0-.538.405c-.033.243-.19.484-.493.707-1.242.919-4.108.98-6.32.088-1.495-.603-2.254-1.459-2.111-2.109z" fill="#25282A" fill-rule="nonzero"/><path d="M5.666 2.22l-.503 1.5.004.002c-.397.928.324 2.192 2.01 3.24 2.3 1.431 5.53 1.917 7.211 1.085.494-.243.8-.574.927-.955l.536-1.6c-.128.382-.433.712-.927.957-1.682.83-4.91.345-7.211-1.086C6.085 4.352 5.358 3.14 5.666 2.221" fill="#FFF"/><path d="M5.703 2.122a1.152 1.152 0 0 0-.037.099c-.308.918.419 2.13 2.047 3.142 2.3 1.43 5.529 1.917 7.21 1.086.495-.244.8-.575.928-.957.305-.917-.422-2.13-2.047-3.139C11.503.922 8.274.436 6.592 1.268c-.45.221-.743.516-.889.854" fill="#FDE35C"/><path d="M11.256 6.753c1.892-.262 2.878-.92 2.958-1.977.08-1.056-1.776-2.369-5.568-3.939l1.85.067c2.505 1.162 4.101 2.102 4.79 2.818.603.627.264 1.752.1 3.278-.166 1.526-4.463 1.198-4.463 1.198l.333-1.445z" fill="#FFF"/><path d="M8.26 7.537a9.352 9.352 0 0 1-1.083-.575c-.74-.46-2.02-1.518-2.09-2.546l.452-1.674c.224-.51.816-1.316 1.658-1.5 1.661-.365 4.04.391 3.472.393-4.973.017-3.744 2.524-2.822 3.646.242.294.535.467.89.63L8.26 7.537z" fill="#F3AC09"/><path d="M6.251 2.358a.592.592 0 0 0-.307-.784.603.603 0 0 0-.789.312c-.021.048-.04.098-.057.15-.425 1.267.5 2.718 2.295 3.834 2.461 1.53 5.902 2.048 7.793 1.113.62-.306 1.047-.752 1.233-1.305a.592.592 0 0 0-.378-.753.603.603 0 0 0-.758.382c-.076.229-.275.436-.622.608-1.47.727-4.488.272-6.629-1.058-1.384-.86-2.005-1.835-1.798-2.452a.57.57 0 0 1 .017-.047z" fill="#25282A" fill-rule="nonzero"/><path d="M15.283 5.308a.592.592 0 0 0 .38.752.603.603 0 0 0 .756-.384c.422-1.266-.503-2.716-2.295-3.83C11.662.316 8.222-.202 6.33.733c-.563.277-.968.67-1.177 1.157-.13.304.01.654.314.782a.603.603 0 0 0 .786-.318c.089-.207.283-.395.602-.552 1.471-.728 4.489-.274 6.63 1.058 1.382.859 2.003 1.833 1.798 2.448z" fill="#25282A" fill-rule="nonzero"/><path d="M16.419 5.678a.592.592 0 0 0-.378-.753.603.603 0 0 0-.758.382l-.536 1.6a.592.592 0 0 0 .378.752.603.603 0 0 0 .758-.382l.536-1.6zM6.267 2.306a.592.592 0 0 0-.378-.752.603.603 0 0 0-.758.382l-.033.1-.503 1.5a.592.592 0 0 0 .378.752.603.603 0 0 0 .758-.382l.502-1.5.034-.1z" fill="#25282A" fill-rule="nonzero"/><path d="M5.718 3.952a.592.592 0 0 0-.316-.78.603.603 0 0 0-.786.32c-.55 1.29.374 2.816 2.241 3.977 2.46 1.53 5.901 2.048 7.793 1.113.62-.305 1.047-.752 1.233-1.305a.592.592 0 0 0-.378-.752.603.603 0 0 0-.758.382c-.076.228-.275.436-.622.606-1.471.728-4.49.274-6.629-1.058-1.431-.89-2.039-1.892-1.778-2.503z" fill="#25282A" fill-rule="nonzero"/></g></svg>