<svg xmlns="http://www.w3.org/2000/svg" xmlns:xlink="http://www.w3.org/1999/xlink" width="22" height="22"><defs><linearGradient id="b" x1="35.496%" x2="43.73%" y1="31.225%" y2="76.478%"><stop offset="0%" stop-color="#F1AAEF"/><stop offset="100%" stop-color="#D970D4"/></linearGradient><path id="a" d="M10.101 2.344c-1.018 1.507-.08 2.764-3.733 3.59-1.621.366-2.957.262-4.345 1.292C.09 8.662-.285 12.072 1.686 13.87c4.614 3.98 13.023-.97 14.16-8.553.756-5.056.985-5.787.687-2.194"/><path id="d" d="M2 4.756c1.754-3.8 6.567-3.715 8.569 0 2.001 3.715-1.784 2.477-2.795 1.11-.39 3.032-2.688 3.616-3.158.093-.844 1.41-3.937 2.896-2.617-1.203z"/></defs><g fill="none" fill-rule="evenodd"><g transform="translate(1.5 4.338)"><mask id="c" fill="#fff"><use xlink:href="#a"/></mask><use fill="url(#b)" xlink:href="#a"/><path fill="#BA58B4" d="M14.453 5.802c-.84 2.361-2.766 4.414-5.778 6.16-4.216 2.445-7.333.23-8.446-.785.524 3.306 5.497 4.928 8.446 3.797 4.433-1.7 7.989-8.046 7.989-11.392 0-2.175-8.534-1.702-7.164 0 .203.252.172-.092.969 0-.155 1.015.156 2.33.968 2.69.945.417 1.95.26 3.016-.47z" mask="url(#c)"/><path fill="#FFE9FF" d="M.812 11.568c.688-3.375 2.76-3.686 4.625-4.062 1.867-.377 3.14-.716 3.992-2.38.567-1.11.78-1.702.638-1.774l-.638.672-1.454 1.101L1.93 6.79.344 9.697c-.146 3.497.01 4.121.468 1.871z" mask="url(#c)"/></g><g transform="translate(9.2 1.2)"><mask id="e" fill="#fff"><use xlink:href="#d"/></mask><use fill="#98E87B" transform="rotate(29 6.41 5.158)" xlink:href="#d"/><path stroke="#62BD49" stroke-width="2" d="M1.91 2.443c4.572-3.993 8.75-.464 8.75 3.95 0 4.414-2.913 1.999-3.278 0-1.836 2.495-4.403 2.093-3.089-1.26-1.6.715-5.567.295-2.383-2.69z" mask="url(#e)"/></g><path stroke="#31323D" stroke-width="1.5" d="M11.418 6.561c-.503 1.31-.316 2.404-3.584 3.164-1.724.401-3.144.288-4.62 1.415-2.058 1.57-2.455 5.302-.359 7.269 4.73 4.196 13.355-.539 15.037-8.325"/><g stroke="#31323D"><path stroke-linecap="round" d="M16.66 4.028c.784-1.59 1.597-1.803 2.453-1.803"/><path d="M11.582 3.722c3.6-2.616 8.07-.035 8.035 4.454-.035 4.49-2.947 1.373-3.192-.421-1.926 2.611-4.381 1.959-3.009-1.556-1.516.87-5.181.643-1.834-2.477z"/></g></g></svg>