<svg width="20" height="19" xmlns="http://www.w3.org/2000/svg"><g fill="none"><path fill="#EF52D1" d="M7.335 7.25l3.067-1.886 1.381 3.74L8.508 11z"/><path fill="#FFE863" d="M2.743 6.141l1.044 3.447 2.329.625-1.074-3.388z"/><path fill="#FCA13D" d="M.845 5.364L4.092 3.5l1.864.455-3 1.9z"/><path fill="#FCA13D" d="M2.663 5.933l2.91-1.683 2.275.452-2.963 1.875zm5.335-1.231l3.501-1.952 1.864.455-2.961 2.16z"/><path fill="#45EFF3" d="M11.03 2.901l2.566-1.651 2.606.375L13.496 3.5z"/><path fill="#9565FF" d="M8.738 2.289L11.104.875l2.492.52-2.492 1.46z"/><path fill="#45EFF3" d="M5.774 4.137l2.964-1.76 2.526.373-3.416 1.952z"/><path fill="#45EFF3" d="M6.367 2.183L9.277.5l1.864.455-3 1.9z"/><path fill="#45EFF3" d="M3.404 3.683L6.314 2l1.864.455-3 1.9zm1.481 3l3.102-1.981 2.31.662-2.962 2.013z"/><path fill="#B3E572" d="M4.885 6.5l1.124 3.838 2.33.625-1.155-3.924z"/><path fill="#FFE863" d="M.394 5.613l1.17 3.512 2.33.625-1.151-3.713z"/><path fill="#FCA13D" d="M8.508 11.246L11.641 9.5l1.005 3.252-2.914 1.915z"/><path fill="#9565FF" d="M9.778 14.667l3.033-2.167 1.141 3.679-2.98 1.946z"/><path fill="#EF52D1" d="M4.885 13.25l2.293.75 1.037 3.375-2.301-.84z"/><path fill="#EF52D1" d="M7.107 14l2.294.75 1.205 3.375-2.47-.84z"/><path fill="#EF52D1" d="M4.052 9.847l2.272.74 1.104 3.64-2.294-.602z"/><path fill="#EF52D1" d="M6.324 10.587l2.184.728 1.142 3.661-2.293-.601z"/><path fill="#9565FF" d="M1.828 9.286l2.039.56 1.175 3.404-2.172-.75z"/><path fill="#FCA13D" d="M2.663 12.5l2.293.75 1.037 3.375-2.071-.807z"/><path fill-opacity=".18" fill="#646464" style="mix-blend-mode:color-burn" d="M.494 5.613l.89.26L5.043 16.25l-1.12-.432z"/><path fill-opacity=".18" fill="#646464" style="mix-blend-mode:multiply" d="M.494 5.613l.89.26L5.043 16.25l-1.12-.432z"/><path fill="#B3E572" d="M11.552 9.177L14.24 7.25l1.294 3.589-2.776 1.735z"/><path fill="#45EFF3" d="M14.515 7.677l2.778-2.186 1.205 3.612-3.001 1.97z"/><path fill="#EF52D1" d="M15.679 10.895l2.698-1.792 1.138 3.248-2.94 1.801z"/><path fill="#B3E572" d="M13.033 12.177l2.688-1.927 1.294 3.589-2.775 1.735z"/><path fill="#FFE863" d="M13.496 3.506L14.67 7.25l-2.887 1.853-1.381-3.49z"/><path fill="#EF52D1" d="M16.226 2l1.251 3.364-3.07 1.812-.911-3.162z"/><path fill="#FFF" d="M15.328 2.593l3.26 10.492.927-.763L16.367 2zM8.034 1.036L9.45.5l6.967 1.129-1.161.664z"/><g stroke="#2A2825"><path stroke-width=".9" stroke-linejoin="round" d="M7.404 7.377l8.974-5.564 3.131 10.509-8.596 5.803z"/><path d="M13.452 3.653l3.306 10.5m-6.181-8.415l3.464 10.324" stroke-width=".63"/><path d="M.836 5.613l6.491 1.764" stroke-width=".85" stroke-linecap="round"/><path stroke-width=".75" stroke-linecap="round" stroke-linejoin="round" d="M10.913 18.283l-6.924-2.461L.45 5.582 9.099.5l7.29 1.125"/><path d="M6.669 2L13.5 3.361m-9.801.399L10.3 5.343" stroke-width=".63" stroke-linecap="round" stroke-linejoin="round"/><path d="M13.77 1.25L4.893 6.577M11.19.875l-8.888 5.25" stroke-width=".525"/><path d="M2.677 6.141l3.528 10.492M4.894 6.396L8.42 17.375" stroke-width=".63"/><path d="M1.65 9.118l6.948 2.128M2.894 12.5l6.674 2.25" stroke-width=".525"/><path d="M8.598 11.105l8.908-5.763" stroke-width=".741"/><path d="M10.08 14.51l8.148-5.407" stroke-width=".741" stroke-linecap="round"/></g></g></svg>